G04*
G04 #@! TF.GenerationSoftware,Altium Limited,Altium Designer,20.0.2 (26)*
G04*
G04 Layer_Color=128*
%FSLAX25Y25*%
%MOIN*%
G70*
G01*
G75*
%ADD153C,0.00200*%
D153*
X256713Y-55500D02*
X258287D01*
X257500Y-56287D02*
Y-54713D01*
X254153Y-59437D02*
X255728D01*
X254941Y-60224D02*
Y-58650D01*
X251594Y-55500D02*
X253169D01*
X252382Y-56287D02*
Y-54713D01*
X249035Y-59437D02*
X250610D01*
X249823Y-60224D02*
Y-58650D01*
X246476Y-55500D02*
X248051D01*
X247264Y-56287D02*
Y-54713D01*
X237618Y-56366D02*
X238996D01*
X238307Y-57055D02*
Y-55677D01*
X265768Y-56366D02*
X267146D01*
X266457Y-57055D02*
Y-55677D01*
X97095Y-172000D02*
X108905D01*
X103000Y-177905D02*
Y-166095D01*
X33335Y-94000D02*
X37665D01*
X35500Y-96165D02*
Y-91835D01*
X33335Y-44000D02*
X37665D01*
X35500Y-46165D02*
Y-41835D01*
X33335Y-54000D02*
X37665D01*
X35500Y-56165D02*
Y-51835D01*
X33335Y-64000D02*
X37665D01*
X35500Y-66165D02*
Y-61835D01*
X33335Y-74000D02*
X37665D01*
X35500Y-76165D02*
Y-71835D01*
X33335Y-84000D02*
X37665D01*
X35500Y-86165D02*
Y-81835D01*
X33335Y-104000D02*
X37665D01*
X35500Y-106165D02*
Y-101835D01*
X33335Y-114000D02*
X37665D01*
X35500Y-116165D02*
Y-111835D01*
X33335Y-124000D02*
X37665D01*
X35500Y-126165D02*
Y-121835D01*
X33335Y-134000D02*
X37665D01*
X35500Y-136165D02*
Y-131835D01*
X33335Y-144000D02*
X37665D01*
X35500Y-146165D02*
Y-141835D01*
X33335Y-154000D02*
X37665D01*
X35500Y-156165D02*
Y-151835D01*
X80819Y-98000D02*
X83181D01*
X82000Y-99181D02*
Y-96819D01*
X69008Y-98000D02*
X71370D01*
X70189Y-99181D02*
Y-96819D01*
X84319Y-64000D02*
X86681D01*
X85500Y-65181D02*
Y-62819D01*
X72508Y-64000D02*
X74870D01*
X73689Y-65181D02*
Y-62819D01*
X99000Y-149500D02*
X102937D01*
X100969Y-151469D02*
Y-147531D01*
X99000Y-139500D02*
X102937D01*
X100969Y-141469D02*
Y-137531D01*
X122031Y-149500D02*
X125969D01*
X124000Y-151469D02*
Y-147531D01*
X122031Y-139500D02*
X125969D01*
X124000Y-141469D02*
Y-137531D01*
X110500Y-149500D02*
X114437D01*
X112469Y-151469D02*
Y-147531D01*
X110500Y-139500D02*
X114437D01*
X112469Y-141469D02*
Y-137531D01*
X266595Y-24000D02*
X278405D01*
X272500Y-29906D02*
Y-18094D01*
X249031Y-143500D02*
X252969D01*
X251000Y-145468D02*
Y-141532D01*
X249031Y-133500D02*
X252969D01*
X251000Y-135468D02*
Y-131532D01*
X249031Y-123500D02*
X252969D01*
X251000Y-125469D02*
Y-121531D01*
X249031Y-113500D02*
X252969D01*
X251000Y-115469D02*
Y-111531D01*
X249031Y-103500D02*
X252969D01*
X251000Y-105468D02*
Y-101532D01*
X249031Y-93500D02*
X252969D01*
X251000Y-95468D02*
Y-91531D01*
X249031Y-73500D02*
X252969D01*
X251000Y-75468D02*
Y-71531D01*
X249031Y-83500D02*
X252969D01*
X251000Y-85469D02*
Y-81532D01*
X136728Y-176850D02*
X140272D01*
X138500Y-178622D02*
Y-175078D01*
X136728Y-186693D02*
X140272D01*
X138500Y-188464D02*
Y-184921D01*
X136728Y-167008D02*
X140272D01*
X138500Y-168779D02*
Y-165236D01*
X124228Y-177000D02*
X127772D01*
X126000Y-178772D02*
Y-175228D01*
X124228Y-167157D02*
X127772D01*
X126000Y-168929D02*
Y-165386D01*
X124228Y-186843D02*
X127772D01*
X126000Y-188614D02*
Y-185071D01*
X295240Y-105500D02*
X299571D01*
X297406Y-107665D02*
Y-103335D01*
X295240Y-115500D02*
X299571D01*
X297406Y-117665D02*
Y-113335D01*
X295240Y-135500D02*
X299571D01*
X297406Y-137665D02*
Y-133335D01*
X295240Y-125500D02*
X299571D01*
X297406Y-127665D02*
Y-123335D01*
X141571Y-127500D02*
X145114D01*
X143342Y-129272D02*
Y-125728D01*
X121886Y-127500D02*
X125429D01*
X123658Y-129272D02*
Y-125728D01*
X131728Y-127500D02*
X135272D01*
X133500Y-129272D02*
Y-125728D01*
X226031Y-19685D02*
X229969D01*
X228000Y-21654D02*
Y-17717D01*
X216032Y-19685D02*
X219969D01*
X218000Y-21654D02*
Y-17717D01*
X206031Y-19685D02*
X209968D01*
X208000Y-21654D02*
Y-17717D01*
X196031Y-19685D02*
X199969D01*
X198000Y-21654D02*
Y-17717D01*
X186031Y-19685D02*
X189969D01*
X188000Y-21654D02*
Y-17717D01*
X176031Y-19685D02*
X179969D01*
X178000Y-21654D02*
Y-17717D01*
X156032Y-19685D02*
X159968D01*
X158000Y-21654D02*
Y-17717D01*
X166032Y-19685D02*
X169968D01*
X168000Y-21654D02*
Y-17717D01*
X226031Y-177165D02*
X229969D01*
X228000Y-179134D02*
Y-175197D01*
X216032Y-177165D02*
X219969D01*
X218000Y-179134D02*
Y-175197D01*
X206031Y-177165D02*
X209968D01*
X208000Y-179134D02*
Y-175197D01*
X196031Y-177165D02*
X199969D01*
X198000Y-179134D02*
Y-175197D01*
X186031Y-177165D02*
X189969D01*
X188000Y-179134D02*
Y-175197D01*
X176031Y-177165D02*
X179969D01*
X178000Y-179134D02*
Y-175197D01*
X156032Y-177165D02*
X159968D01*
X158000Y-179134D02*
Y-175197D01*
X166032Y-177165D02*
X169968D01*
X168000Y-179134D02*
Y-175197D01*
X101311Y-4000D02*
X102689D01*
X102000Y-4689D02*
Y-3311D01*
X114311Y-3500D02*
X115689D01*
X115000Y-4189D02*
Y-2811D01*
X126311Y-3500D02*
X127689D01*
X127000Y-4189D02*
Y-2811D01*
X138311Y-3500D02*
X139689D01*
X139000Y-4189D02*
Y-2811D01*
X309311Y-13000D02*
X310689D01*
X310000Y-13689D02*
Y-12311D01*
X309311Y-24333D02*
X310689D01*
X310000Y-25022D02*
Y-23644D01*
X309311Y-47000D02*
X310689D01*
X310000Y-47689D02*
Y-46311D01*
X277811Y-39500D02*
X279189D01*
X278500Y-40189D02*
Y-38811D01*
X268311Y-46500D02*
X269689D01*
X269000Y-47189D02*
Y-45811D01*
X277811Y-62167D02*
X279189D01*
X278500Y-62856D02*
Y-61478D01*
X277811Y-73500D02*
X279189D01*
X278500Y-74189D02*
Y-72811D01*
X386811Y-16000D02*
X388189D01*
X387500Y-16689D02*
Y-15311D01*
X386811Y-27333D02*
X388189D01*
X387500Y-28022D02*
Y-26644D01*
X386811Y-38667D02*
X388189D01*
X387500Y-39356D02*
Y-37978D01*
X386811Y-50000D02*
X388189D01*
X387500Y-50689D02*
Y-49311D01*
X368311Y-20000D02*
X369689D01*
X369000Y-20689D02*
Y-19311D01*
X356978Y-20000D02*
X358356D01*
X357667Y-20689D02*
Y-19311D01*
X345644Y-20000D02*
X347022D01*
X346333Y-20689D02*
Y-19311D01*
X334311Y-20000D02*
X335689D01*
X335000Y-20689D02*
Y-19311D01*
X349811Y-60500D02*
X351189D01*
X350500Y-61189D02*
Y-59811D01*
X338478Y-60500D02*
X339856D01*
X339167Y-61189D02*
Y-59811D01*
X327144Y-60500D02*
X328522D01*
X327833Y-61189D02*
Y-59811D01*
X315811Y-60500D02*
X317189D01*
X316500Y-61189D02*
Y-59811D01*
X386311Y-190000D02*
X387689D01*
X387000Y-190689D02*
Y-189311D01*
X386311Y-178667D02*
X387689D01*
X387000Y-179356D02*
Y-177978D01*
X386311Y-167333D02*
X387689D01*
X387000Y-168022D02*
Y-166644D01*
X386311Y-156000D02*
X387689D01*
X387000Y-156689D02*
Y-155311D01*
X313311Y-153000D02*
X314689D01*
X314000Y-153689D02*
Y-152311D01*
X324644Y-153000D02*
X326022D01*
X325333Y-153689D02*
Y-152311D01*
X335978Y-153000D02*
X337356D01*
X336667Y-153689D02*
Y-152311D01*
X347311Y-153000D02*
X348689D01*
X348000Y-153689D02*
Y-152311D01*
X85811Y-178000D02*
X87189D01*
X86500Y-178689D02*
Y-177311D01*
X91811Y-184500D02*
X93189D01*
X92500Y-185189D02*
Y-183811D01*
X104811Y-187000D02*
X106189D01*
X105500Y-187689D02*
Y-186311D01*
X114311Y-186000D02*
X115689D01*
X115000Y-186689D02*
Y-185311D01*
X6311Y-148000D02*
X7689D01*
X7000Y-148689D02*
Y-147311D01*
X6311Y-159333D02*
X7689D01*
X7000Y-160022D02*
Y-158644D01*
X6311Y-170667D02*
X7689D01*
X7000Y-171356D02*
Y-169978D01*
X6311Y-182000D02*
X7689D01*
X7000Y-182689D02*
Y-181311D01*
X5811Y-102000D02*
X7189D01*
X6500Y-102689D02*
Y-101311D01*
X5811Y-113333D02*
X7189D01*
X6500Y-114022D02*
Y-112644D01*
X5811Y-124667D02*
X7189D01*
X6500Y-125356D02*
Y-123978D01*
X5811Y-136000D02*
X7189D01*
X6500Y-136689D02*
Y-135311D01*
X6311Y-58000D02*
X7689D01*
X7000Y-58689D02*
Y-57311D01*
X6311Y-69333D02*
X7689D01*
X7000Y-70022D02*
Y-68644D01*
X6311Y-80667D02*
X7689D01*
X7000Y-81356D02*
Y-79978D01*
X6311Y-92000D02*
X7689D01*
X7000Y-92689D02*
Y-91311D01*
X6311Y-48000D02*
X7689D01*
X7000Y-48689D02*
Y-47311D01*
X6311Y-36667D02*
X7689D01*
X7000Y-37356D02*
Y-35978D01*
X6311Y-25333D02*
X7689D01*
X7000Y-26022D02*
Y-24644D01*
X6311Y-14000D02*
X7689D01*
X7000Y-14689D02*
Y-13311D01*
X235311Y-38000D02*
X236689D01*
X236000Y-38689D02*
Y-37311D01*
X241811Y-23500D02*
X243189D01*
X242500Y-24189D02*
Y-22811D01*
X223811Y-53500D02*
X225189D01*
X224500Y-54189D02*
Y-52811D01*
X254811Y-28500D02*
X256189D01*
X255500Y-29189D02*
Y-27811D01*
X240461Y-66500D02*
X241839D01*
X241150Y-67189D02*
Y-65811D01*
X234861Y-66500D02*
X236239D01*
X235550Y-67189D02*
Y-65811D01*
X128811Y-69500D02*
X130189D01*
X129500Y-70189D02*
Y-68811D01*
X149311Y-35000D02*
X150689D01*
X150000Y-35689D02*
Y-34311D01*
X145811Y-30500D02*
X147189D01*
X146500Y-31189D02*
Y-29811D01*
X152311Y-150000D02*
X153689D01*
X153000Y-150689D02*
Y-149311D01*
X63811Y-58500D02*
X65189D01*
X64500Y-59189D02*
Y-57811D01*
X285061Y-76750D02*
X286439D01*
X285750Y-77439D02*
Y-76061D01*
X186811Y-71500D02*
X188189D01*
X187500Y-72189D02*
Y-70811D01*
X171811Y-65500D02*
X173189D01*
X172500Y-66189D02*
Y-64811D01*
X182811Y-49500D02*
X184189D01*
X183500Y-50189D02*
Y-48811D01*
X133311Y-55500D02*
X134689D01*
X134000Y-56189D02*
Y-54811D01*
X133311Y-59500D02*
X134689D01*
X134000Y-60189D02*
Y-58811D01*
X93811Y-10500D02*
X95189D01*
X94500Y-11189D02*
Y-9811D01*
X296311Y-150000D02*
X297689D01*
X297000Y-150689D02*
Y-149311D01*
X191811Y-104000D02*
X193189D01*
X192500Y-104689D02*
Y-103311D01*
X64811Y-27500D02*
X66189D01*
X65500Y-28189D02*
Y-26811D01*
X64811Y-21500D02*
X66189D01*
X65500Y-22189D02*
Y-20811D01*
X195311Y-11500D02*
X196689D01*
X196000Y-12189D02*
Y-10811D01*
X114311Y-91000D02*
X115689D01*
X115000Y-91689D02*
Y-90311D01*
X133811Y-106000D02*
X135189D01*
X134500Y-106689D02*
Y-105311D01*
X147311Y-78000D02*
X148689D01*
X148000Y-78689D02*
Y-77311D01*
X109311Y-52000D02*
X110689D01*
X110000Y-52689D02*
Y-51311D01*
X148311Y-72500D02*
X149689D01*
X149000Y-73189D02*
Y-71811D01*
X195811Y-104000D02*
X197189D01*
X196500Y-104689D02*
Y-103311D01*
X165195Y-149000D02*
X166573D01*
X165884Y-149689D02*
Y-148311D01*
X152811Y-115000D02*
X154189D01*
X153500Y-115689D02*
Y-114311D01*
X158311Y-122500D02*
X159689D01*
X159000Y-123189D02*
Y-121811D01*
X175311Y-124000D02*
X176689D01*
X176000Y-124689D02*
Y-123311D01*
X152811Y-83000D02*
X154189D01*
X153500Y-83689D02*
Y-82311D01*
X271240Y-176071D02*
X272618D01*
X271929Y-176760D02*
Y-175382D01*
X257311Y-179500D02*
X258689D01*
X258000Y-180189D02*
Y-178811D01*
X250311Y-175500D02*
X251689D01*
X251000Y-176189D02*
Y-174811D01*
X149311Y-98000D02*
X150689D01*
X150000Y-98689D02*
Y-97311D01*
X90311Y-100000D02*
X91689D01*
X91000Y-100689D02*
Y-99311D01*
X99811Y-97000D02*
X101189D01*
X100500Y-97689D02*
Y-96311D01*
X132311Y-111500D02*
X133689D01*
X133000Y-112189D02*
Y-110811D01*
X101811Y-62500D02*
X103189D01*
X102500Y-63189D02*
Y-61811D01*
X103311Y-78000D02*
X104689D01*
X104000Y-78689D02*
Y-77311D01*
X95311Y-48500D02*
X96689D01*
X96000Y-49189D02*
Y-47811D01*
X86311Y-28500D02*
X87689D01*
X87000Y-29189D02*
Y-27811D01*
X118311Y-13500D02*
X119689D01*
X119000Y-14189D02*
Y-12811D01*
X134811Y-22000D02*
X136189D01*
X135500Y-22689D02*
Y-21311D01*
X91311Y-82000D02*
X92689D01*
X92000Y-82689D02*
Y-81311D01*
X93811Y-71500D02*
X95189D01*
X94500Y-72189D02*
Y-70811D01*
X85311Y-36000D02*
X86689D01*
X86000Y-36689D02*
Y-35311D01*
X66811Y-34500D02*
X68189D01*
X67500Y-35189D02*
Y-33811D01*
X57811Y-39500D02*
X59189D01*
X58500Y-40189D02*
Y-38811D01*
X56811Y-50500D02*
X58189D01*
X57500Y-51189D02*
Y-49811D01*
X53811Y-38000D02*
X55189D01*
X54500Y-38689D02*
Y-37311D01*
X41311Y-88000D02*
X42689D01*
X42000Y-88689D02*
Y-87311D01*
X104711Y-117569D02*
X106089D01*
X105400Y-118257D02*
Y-116879D01*
X114279Y-122468D02*
X115657D01*
X114969Y-123158D02*
Y-121780D01*
X99711Y-116900D02*
X101089D01*
X100400Y-117589D02*
Y-116211D01*
X90311Y-117000D02*
X91689D01*
X91000Y-117689D02*
Y-116311D01*
X88866Y-133555D02*
X90244D01*
X89555Y-134244D02*
Y-132866D01*
X64921Y-174110D02*
X66299D01*
X65610Y-174799D02*
Y-173421D01*
X206061Y-86000D02*
X207439D01*
X206750Y-86689D02*
Y-85311D01*
X213311Y-89500D02*
X214689D01*
X214000Y-90189D02*
Y-88811D01*
X216965Y-97587D02*
X218342D01*
X217653Y-98276D02*
Y-96898D01*
X213811Y-104000D02*
X215189D01*
X214500Y-104689D02*
Y-103311D01*
X152311Y-124500D02*
X153689D01*
X153000Y-125189D02*
Y-123811D01*
X152311Y-92000D02*
X153689D01*
X153000Y-92689D02*
Y-91311D01*
X151311Y-109000D02*
X152689D01*
X152000Y-109689D02*
Y-108311D01*
X268311Y-158500D02*
X269689D01*
X269000Y-159189D02*
Y-157811D01*
X275311Y-145500D02*
X276689D01*
X276000Y-146189D02*
Y-144811D01*
X213311Y-120000D02*
X214689D01*
X214000Y-120689D02*
Y-119311D01*
X217811Y-121000D02*
X219189D01*
X218500Y-121689D02*
Y-120311D01*
X199311Y-103500D02*
X200689D01*
X200000Y-104189D02*
Y-102811D01*
X203811Y-103500D02*
X205189D01*
X204500Y-104189D02*
Y-102811D01*
X305811Y-146000D02*
X307189D01*
X306500Y-146689D02*
Y-145311D01*
X221811Y-131000D02*
X223189D01*
X222500Y-131689D02*
Y-130311D01*
X163811Y-136000D02*
X165189D01*
X164500Y-136689D02*
Y-135311D01*
X198311Y-136000D02*
X199689D01*
X199000Y-136689D02*
Y-135311D01*
X186811Y-136500D02*
X188189D01*
X187500Y-137189D02*
Y-135811D01*
X174811Y-136500D02*
X176189D01*
X175500Y-137189D02*
Y-135811D01*
X201811Y-142000D02*
X203189D01*
X202500Y-142689D02*
Y-141311D01*
X235311Y-106500D02*
X236689D01*
X236000Y-107189D02*
Y-105811D01*
X241811Y-106000D02*
X243189D01*
X242500Y-106689D02*
Y-105311D01*
X151811Y-119500D02*
X153189D01*
X152500Y-120189D02*
Y-118811D01*
X157811Y-112000D02*
X159189D01*
X158500Y-112689D02*
Y-111311D01*
X158311Y-108000D02*
X159689D01*
X159000Y-108689D02*
Y-107311D01*
X158311Y-103000D02*
X159689D01*
X159000Y-103689D02*
Y-102311D01*
X145811Y-121000D02*
X147189D01*
X146500Y-121689D02*
Y-120311D01*
X232811Y-114500D02*
X234189D01*
X233500Y-115189D02*
Y-113811D01*
X227811Y-123000D02*
X229189D01*
X228500Y-123689D02*
Y-122311D01*
X187811Y-159000D02*
X189189D01*
X188500Y-159689D02*
Y-158311D01*
X182811Y-121500D02*
X184189D01*
X183500Y-122189D02*
Y-120811D01*
X188029Y-121872D02*
X189407D01*
X188718Y-122561D02*
Y-121183D01*
X189811Y-149000D02*
X191189D01*
X190500Y-149689D02*
Y-148311D01*
X187311Y-143000D02*
X188689D01*
X188000Y-143689D02*
Y-142311D01*
X171811Y-118500D02*
X173189D01*
X172500Y-119189D02*
Y-117811D01*
X167811Y-118500D02*
X169189D01*
X168500Y-119189D02*
Y-117811D01*
X176311Y-115500D02*
X177689D01*
X177000Y-116189D02*
Y-114811D01*
X195811Y-34000D02*
X197189D01*
X196500Y-34689D02*
Y-33311D01*
X177811Y-56000D02*
X179189D01*
X178500Y-56689D02*
Y-55311D01*
X173811Y-55000D02*
X175189D01*
X174500Y-55689D02*
Y-54311D01*
X230311Y-56500D02*
X231689D01*
X231000Y-57189D02*
Y-55811D01*
X172811Y-152500D02*
X174189D01*
X173500Y-153189D02*
Y-151811D01*
X164811Y-161500D02*
X166189D01*
X165500Y-162189D02*
Y-160811D01*
X187811Y-165000D02*
X189189D01*
X188500Y-165689D02*
Y-164311D01*
X203811Y-154000D02*
X205189D01*
X204500Y-154689D02*
Y-153311D01*
X202124Y-169313D02*
X203502D01*
X202813Y-170002D02*
Y-168624D01*
X268687Y-141624D02*
X270065D01*
X269376Y-142313D02*
Y-140935D01*
X272811Y-156500D02*
X274189D01*
X273500Y-157189D02*
Y-155811D01*
X296224Y-158087D02*
X297602D01*
X296913Y-158776D02*
Y-157398D01*
X284811Y-162500D02*
X286189D01*
X285500Y-163189D02*
Y-161811D01*
X262311Y-161000D02*
X263689D01*
X263000Y-161689D02*
Y-160311D01*
X260311Y-172500D02*
X261689D01*
X261000Y-173189D02*
Y-171811D01*
X288311Y-169000D02*
X289689D01*
X289000Y-169689D02*
Y-168311D01*
X298785Y-173974D02*
X300163D01*
X299474Y-174663D02*
Y-173285D01*
X297148Y-186337D02*
X298526D01*
X297837Y-187026D02*
Y-185648D01*
X278811Y-179500D02*
X280189D01*
X279500Y-180189D02*
Y-178811D01*
X147811Y-26000D02*
X149189D01*
X148500Y-26689D02*
Y-25311D01*
X165811Y-60000D02*
X167189D01*
X166500Y-60689D02*
Y-59311D01*
X152311Y-71500D02*
X153689D01*
X153000Y-72189D02*
Y-70811D01*
X155811Y-68500D02*
X157189D01*
X156500Y-69189D02*
Y-67811D01*
X163811Y-64000D02*
X165189D01*
X164500Y-64689D02*
Y-63311D01*
X156811Y-62000D02*
X158189D01*
X157500Y-62689D02*
Y-61311D01*
X151811Y-64500D02*
X153189D01*
X152500Y-65189D02*
Y-63811D01*
X151311Y-57500D02*
X152689D01*
X152000Y-58189D02*
Y-56811D01*
X130311Y-35500D02*
X131689D01*
X131000Y-36189D02*
Y-34811D01*
X130311Y-31500D02*
X131689D01*
X131000Y-32189D02*
Y-30811D01*
X209311Y-77500D02*
X210689D01*
X210000Y-78189D02*
Y-76811D01*
X208311Y-83500D02*
X209689D01*
X209000Y-84189D02*
Y-82811D01*
X205311Y-81000D02*
X206689D01*
X206000Y-81689D02*
Y-80311D01*
X205811Y-74500D02*
X207189D01*
X206500Y-75189D02*
Y-73811D01*
X203311Y-71500D02*
X204689D01*
X204000Y-72189D02*
Y-70811D01*
X203311Y-67500D02*
X204689D01*
X204000Y-68189D02*
Y-66811D01*
X323811Y-129500D02*
X325189D01*
X324500Y-130189D02*
Y-128811D01*
X259811Y-112000D02*
X261189D01*
X260500Y-112689D02*
Y-111311D01*
X328811Y-110000D02*
X330189D01*
X329500Y-110689D02*
Y-109311D01*
X314311Y-129500D02*
X315689D01*
X315000Y-130189D02*
Y-128811D01*
X259311Y-99500D02*
X260689D01*
X260000Y-100189D02*
Y-98811D01*
X306138Y-124173D02*
X307516D01*
X306827Y-124862D02*
Y-123484D01*
X263811Y-105500D02*
X265189D01*
X264500Y-106189D02*
Y-104811D01*
X262311Y-102000D02*
X263689D01*
X263000Y-102689D02*
Y-101311D01*
X316265Y-171453D02*
X317642D01*
X316953Y-172143D02*
Y-170765D01*
X316311Y-111000D02*
X317689D01*
X317000Y-111689D02*
Y-110311D01*
X303311Y-57000D02*
X304689D01*
X304000Y-57689D02*
Y-56311D01*
X297311Y-54000D02*
X298689D01*
X298000Y-54689D02*
Y-53311D01*
X201311Y-58500D02*
X202689D01*
X202000Y-59189D02*
Y-57811D01*
X147811Y-149000D02*
X149189D01*
X148500Y-149689D02*
Y-148311D01*
X161311Y-142000D02*
X162689D01*
X162000Y-142689D02*
Y-141311D01*
X84187Y-110530D02*
X85565D01*
X84876Y-111219D02*
Y-109841D01*
X118722Y-120411D02*
X120100D01*
X119411Y-121100D02*
Y-119722D01*
X204311Y-124000D02*
X205689D01*
X205000Y-124689D02*
Y-123311D01*
X209811Y-123000D02*
X211189D01*
X210500Y-123689D02*
Y-122311D01*
X192811Y-139000D02*
X194189D01*
X193500Y-139689D02*
Y-138311D01*
X180811Y-138500D02*
X182189D01*
X181500Y-139189D02*
Y-137811D01*
X169311Y-138000D02*
X170689D01*
X170000Y-138689D02*
Y-137311D01*
X158311Y-138000D02*
X159689D01*
X159000Y-138689D02*
Y-137311D01*
X239811Y-140500D02*
X241189D01*
X240500Y-141189D02*
Y-139811D01*
X269311Y-88000D02*
X270689D01*
X270000Y-88689D02*
Y-87311D01*
X269811Y-93500D02*
X271189D01*
X270500Y-94189D02*
Y-92811D01*
X349811Y-137000D02*
X351189D01*
X350500Y-137689D02*
Y-136311D01*
X360061Y-137250D02*
X361439D01*
X360750Y-137939D02*
Y-136561D01*
X354811Y-137000D02*
X356189D01*
X355500Y-137689D02*
Y-136311D01*
X215311Y-135500D02*
X216689D01*
X216000Y-136189D02*
Y-134811D01*
X204311Y-136327D02*
X205689D01*
X205000Y-137016D02*
Y-135638D01*
X152311Y-137000D02*
X153689D01*
X153000Y-137689D02*
Y-136311D01*
X167311Y-86500D02*
X168689D01*
X168000Y-87189D02*
Y-85811D01*
X178811Y-93500D02*
X180189D01*
X179500Y-94189D02*
Y-92811D01*
X172311Y-87000D02*
X173689D01*
X173000Y-87689D02*
Y-86311D01*
X195311Y-67000D02*
X196689D01*
X196000Y-67689D02*
Y-66311D01*
X229811Y-71500D02*
X231189D01*
X230500Y-72189D02*
Y-70811D01*
X229811Y-77500D02*
X231189D01*
X230500Y-78189D02*
Y-76811D01*
X230311Y-83000D02*
X231689D01*
X231000Y-83689D02*
Y-82311D01*
X234311Y-103000D02*
X235689D01*
X235000Y-103689D02*
Y-102311D01*
X230311Y-118000D02*
X231689D01*
X231000Y-118689D02*
Y-117311D01*
X234311Y-110500D02*
X235689D01*
X235000Y-111189D02*
Y-109811D01*
X137936Y-105000D02*
X139314D01*
X138625Y-105689D02*
Y-104311D01*
X137811Y-99000D02*
X139189D01*
X138500Y-99689D02*
Y-98311D01*
X139811Y-84000D02*
X141189D01*
X140500Y-84689D02*
Y-83311D01*
X125311Y-101000D02*
X126689D01*
X126000Y-101689D02*
Y-100311D01*
X118311Y-90500D02*
X119689D01*
X119000Y-91189D02*
Y-89811D01*
X273311Y-59500D02*
X274689D01*
X274000Y-60189D02*
Y-58811D01*
X367311Y-121500D02*
X368689D01*
X368000Y-122189D02*
Y-120811D01*
X375811Y-116500D02*
X377189D01*
X376500Y-117189D02*
Y-115811D01*
X334311Y-84000D02*
X335689D01*
X335000Y-84689D02*
Y-83311D01*
X343811Y-84500D02*
X345189D01*
X344500Y-85189D02*
Y-83811D01*
X343811Y-74000D02*
X345189D01*
X344500Y-74689D02*
Y-73311D01*
X292311Y-46000D02*
X293689D01*
X293000Y-46689D02*
Y-45311D01*
X291984Y-40500D02*
X293362D01*
X292673Y-41189D02*
Y-39811D01*
X295311Y-96500D02*
X296689D01*
X296000Y-97189D02*
Y-95811D01*
X300311Y-96500D02*
X301689D01*
X301000Y-97189D02*
Y-95811D01*
X334218Y-171407D02*
X335596D01*
X334907Y-172096D02*
Y-170718D01*
X335311Y-108000D02*
X336689D01*
X336000Y-108689D02*
Y-107311D01*
X335246Y-123935D02*
X336624D01*
X335935Y-124624D02*
Y-123246D01*
M02*
