M48
;Layer_Color=9474304
;FILE_FORMAT=2:5
INCH,LZ
;TYPE=PLATED
T1F00S00C0.01378
T3F00S00C0.01575
T4F00S00C0.02362
T5F00S00C0.03543
T6F00S00C0.03937
T7F00S00C0.04331
T8F00S00C0.11811
%
T01
X0007Y-0182
Y-0170667
X006561Y-017411
X00865Y-0178
X00925Y-01845
X01055Y-0187
X0115Y-0186
X01885Y-0165
X0202813Y-0169313
X0251Y-01755
X0258Y-01795
X0261Y-01725
X0271929Y-0176071
X02795Y-01795
X0289Y-0169
X0299474Y-0173974
X0297837Y-0186337
X0316953Y-0171453
X0334907Y-0171407
X0387Y-0167333
Y-0178667
Y-019
Y-0156
X03765Y-01165
X0368Y-01215
X03875Y-005
Y-0038667
Y-0027333
Y-0016
X0369Y-002
X0357667
X0346333
X0335
X031Y-0024333
Y-0013
Y-0047
X0304Y-0057
X0298Y-0054
X0293Y-0046
X0292673Y-00405
X02785Y-00395
X0269Y-00465
X0274Y-00595
X02785Y-0062167
Y-00735
X028575Y-007675
X027Y-0088
X02705Y-00935
X0263Y-0102
X02645Y-01055
X02605Y-0112
X026Y-00995
X02425Y-0106
X0236Y-01065
X0235Y-0103
Y-01105
X02335Y-01145
X0231Y-0118
X02285Y-0123
X02185Y-0121
X0214Y-012
X02105Y-0123
X0216Y-01355
X02225Y-0131
X02405Y-01405
X0269376Y-0141624
X0276Y-01455
X02735Y-01565
X0269Y-01585
X0263Y-0161
X02855Y-01625
X0296913Y-0158087
X0297Y-015
X03065Y-0146
X0314Y-0153
X0325333
X0336667
X0348
X03505Y-0137
X03555
X036075Y-013725
X0335935Y-0123935
X0336Y-0108
X03295Y-011
X0317Y-0111
X0315Y-01295
X03245
X0306827Y-0124173
X0301Y-00965
X0296
X0335Y-0084
X03445Y-00845
Y-0074
X0339167Y-00605
X03505
X0327833
X03165
X024115Y-00665
X023555
X02305Y-00715
X02305Y-00775
X0231Y-0083
X0214Y-00895
X0217653Y-0097587
X02145Y-0104
X02245Y-00535
X0231Y-00565
X0236Y-0038
X02425Y-00235
X02555Y-00285
X01965Y-0034
X0196Y-00115
X01835Y-00495
X01785Y-0056
X01745Y-0055
X01725Y-00655
X01645Y-0064
X01665Y-006
X01575Y-0062
X01565Y-00685
X0153Y-00715
X0149Y-00725
X0148Y-0078
X01535Y-0083
X0153Y-0092
X015Y-0098
X01385Y-0099
X0138625Y-0105
X01345Y-0106
X0133Y-01115
X0126Y-0101
X0119Y-00905
X0115Y-0091
X01005Y-0097
X0091Y-01
X0084876Y-011053
X0091Y-0117
X01004Y-01169
X01054Y-0117569
X0114969Y-0122468
X0119411Y-0120411
X01465Y-0121
X01525Y-01195
X01535Y-0115
X0152Y-0109
X0159Y-0108
X01585Y-0112
X0159Y-0103
Y-01225
X0153Y-01245
Y-0137
X0159Y-0138
X0162Y-0142
X01645Y-0136
X017Y-0138
X01755Y-01365
X01815Y-01385
X01875Y-01365
X0188Y-0143
X01905Y-0149
X01885Y-0159
X02045Y-0154
X02025Y-0142
X0205Y-0136327
X0199Y-0136
X01935Y-0139
X0188718Y-0121872
X01835Y-01215
X0176Y-0124
X01725Y-01185
X01685
X0177Y-01155
X01795Y-00935
X0173Y-0087
X0168Y-00865
X01405Y-0084
X01295Y-00695
X0134Y-00595
Y-00555
X0152Y-00575
X01525Y-00645
X015Y-0035
X01465Y-00305
X01485Y-0026
X01355Y-0022
X0131Y-00315
Y-00355
X0119Y-00135
X00945Y-00105
X0087Y-00285
X0086Y-0036
X00675Y-00345
X00655Y-00275
Y-00215
X00585Y-00395
X00545Y-0038
X00575Y-00505
X00645Y-00585
X0096Y-00485
X011Y-0052
X01025Y-00625
X0104Y-0078
X0092Y-0082
X00945Y-00715
X0089555Y-0133555
X01485Y-0149
X0153Y-015
X0165884Y-0149
X01735Y-01525
X01655Y-01615
X0205Y-0124
X02045Y-01035
X02
X01965Y-0104
X01925
X020675Y-0086
X0209Y-00835
X0206Y-0081
X02065Y-00745
X0204Y-00715
Y-00675
X0196Y-0067
X01875Y-00715
X0202Y-00585
X021Y-00775
X0042Y-0088
X0007Y-0092
X00065Y-0102
Y-0113333
Y-0124667
Y-0136
X0007Y-0148
Y-0159333
Y-0080667
Y-0069333
Y-0058
Y-0048
Y-0036667
Y-0025333
Y-0014
X0102Y-0004
X0115Y-00035
X0127
X0139
T03
X0249823Y-0059437
X0254941
X02575Y-00555
X0252382
X0247264
T04
X0070189Y-0098
X0082
X00855Y-0064
X0073689
T05
X0126Y-0186843
Y-0177
Y-0167157
X01385Y-0167008
Y-017685
Y-0186693
X0143342Y-01275
X01335
X0123658
T06
X0158Y-0177165
X0168
X0178
X0188
X0198
X0208
X0218
X0228
X0251Y-01435
Y-01335
Y-01235
Y-01135
Y-01035
Y-00935
Y-00835
Y-00735
X0228Y-0019685
X0218
X0208
X0198
X0188
X0178
X0168
X0158
X0124Y-01395
Y-01495
X0112469
Y-01395
X0100969
Y-01495
T07
X0297406Y-01355
Y-01255
Y-01155
Y-01055
X00355Y-0104
Y-0094
Y-0084
Y-0074
Y-0064
Y-0054
Y-0044
Y-0114
Y-0124
Y-0134
Y-0144
Y-0154
T08
X0103Y-0172
X02725Y-0024
M30
