G04*
G04 #@! TF.GenerationSoftware,Altium Limited,Altium Designer,20.0.2 (26)*
G04*
G04 Layer_Color=16711935*
%FSLAX25Y25*%
%MOIN*%
G70*
G01*
G75*
%ADD103C,0.03162*%
%ADD104O,0.03359X0.05918*%
%ADD105C,0.24422*%
%ADD106C,0.08674*%
%ADD107R,0.08674X0.08674*%
%ADD108C,0.07099*%
G04:AMPARAMS|DCode=109|XSize=78.87mil|YSize=78.87mil|CornerRadius=12.86mil|HoleSize=0mil|Usage=FLASHONLY|Rotation=90.000|XOffset=0mil|YOffset=0mil|HoleType=Round|Shape=RoundedRectangle|*
%AMROUNDEDRECTD109*
21,1,0.07887,0.05315,0,0,90.0*
21,1,0.05315,0.07887,0,0,90.0*
1,1,0.02572,0.02657,0.02657*
1,1,0.02572,0.02657,-0.02657*
1,1,0.02572,-0.02657,-0.02657*
1,1,0.02572,-0.02657,0.02657*
%
%ADD109ROUNDEDRECTD109*%
%ADD110C,0.07887*%
%ADD111C,0.06800*%
%ADD114C,0.07296*%
%ADD115R,0.07296X0.07296*%
G04:AMPARAMS|DCode=117|XSize=78.87mil|YSize=78.87mil|CornerRadius=12.86mil|HoleSize=0mil|Usage=FLASHONLY|Rotation=180.000|XOffset=0mil|YOffset=0mil|HoleType=Round|Shape=RoundedRectangle|*
%AMROUNDEDRECTD117*
21,1,0.07887,0.05315,0,0,180.0*
21,1,0.05315,0.07887,0,0,180.0*
1,1,0.02572,-0.02657,0.02657*
1,1,0.02572,0.02657,0.02657*
1,1,0.02572,0.02657,-0.02657*
1,1,0.02572,-0.02657,-0.02657*
%
%ADD117ROUNDEDRECTD117*%
%ADD147P,0.07360X8X112.5*%
%ADD148P,0.07360X8X22.5*%
D103*
X257500Y-55500D02*
D03*
X254941Y-59437D02*
D03*
X252382Y-55500D02*
D03*
X249823Y-59437D02*
D03*
X247264Y-55500D02*
D03*
D104*
X238307Y-56366D02*
D03*
X266457D02*
D03*
D105*
X103000Y-172000D02*
D03*
X272500Y-24000D02*
D03*
D106*
X35500Y-94000D02*
D03*
Y-54000D02*
D03*
Y-64000D02*
D03*
Y-74000D02*
D03*
Y-84000D02*
D03*
Y-104000D02*
D03*
Y-114000D02*
D03*
Y-124000D02*
D03*
Y-134000D02*
D03*
Y-144000D02*
D03*
Y-154000D02*
D03*
D107*
Y-44000D02*
D03*
D108*
X82000Y-98000D02*
D03*
X70189D02*
D03*
X85500Y-64000D02*
D03*
X73689D02*
D03*
D109*
X100969Y-149500D02*
D03*
X124000D02*
D03*
X112469D02*
D03*
X251000Y-143500D02*
D03*
D110*
X100969Y-139500D02*
D03*
X124000D02*
D03*
X112469D02*
D03*
X251000Y-133500D02*
D03*
Y-123500D02*
D03*
Y-113500D02*
D03*
Y-103500D02*
D03*
Y-93500D02*
D03*
Y-73500D02*
D03*
Y-83500D02*
D03*
X218000Y-19685D02*
D03*
X208000D02*
D03*
X198000D02*
D03*
X188000D02*
D03*
X178000D02*
D03*
X158000D02*
D03*
X168000D02*
D03*
X218000Y-177165D02*
D03*
X208000D02*
D03*
X198000D02*
D03*
X188000D02*
D03*
X178000D02*
D03*
X158000D02*
D03*
X168000D02*
D03*
D111*
X138500Y-176850D02*
D03*
Y-167008D02*
D03*
X126000Y-177000D02*
D03*
Y-186843D02*
D03*
X143342Y-127500D02*
D03*
X133500D02*
D03*
D114*
X297406Y-105500D02*
D03*
Y-115500D02*
D03*
Y-125500D02*
D03*
D115*
Y-135500D02*
D03*
D117*
X228000Y-19685D02*
D03*
Y-177165D02*
D03*
D147*
X138500Y-186693D02*
D03*
X126000Y-167157D02*
D03*
D148*
X123658Y-127500D02*
D03*
M02*
