G04*
G04 #@! TF.GenerationSoftware,Altium Limited,Altium Designer,20.0.2 (26)*
G04*
G04 Layer_Physical_Order=2*
G04 Layer_Color=36540*
%FSLAX25Y25*%
%MOIN*%
G70*
G01*
G75*
%ADD129C,0.02362*%
%ADD130O,0.02559X0.05118*%
%ADD131C,0.23622*%
%ADD132C,0.07874*%
%ADD133R,0.07874X0.07874*%
%ADD134C,0.06299*%
G04:AMPARAMS|DCode=135|XSize=70.87mil|YSize=70.87mil|CornerRadius=8.86mil|HoleSize=0mil|Usage=FLASHONLY|Rotation=90.000|XOffset=0mil|YOffset=0mil|HoleType=Round|Shape=RoundedRectangle|*
%AMROUNDEDRECTD135*
21,1,0.07087,0.05315,0,0,90.0*
21,1,0.05315,0.07087,0,0,90.0*
1,1,0.01772,0.02657,0.02657*
1,1,0.01772,0.02657,-0.02657*
1,1,0.01772,-0.02657,-0.02657*
1,1,0.01772,-0.02657,0.02657*
%
%ADD135ROUNDEDRECTD135*%
%ADD136C,0.07087*%
%ADD137C,0.06000*%
%ADD138P,0.06494X8X112.5*%
%ADD139C,0.06496*%
%ADD140R,0.06496X0.06496*%
%ADD141P,0.06494X8X22.5*%
G04:AMPARAMS|DCode=142|XSize=70.87mil|YSize=70.87mil|CornerRadius=8.86mil|HoleSize=0mil|Usage=FLASHONLY|Rotation=180.000|XOffset=0mil|YOffset=0mil|HoleType=Round|Shape=RoundedRectangle|*
%AMROUNDEDRECTD142*
21,1,0.07087,0.05315,0,0,180.0*
21,1,0.05315,0.07087,0,0,180.0*
1,1,0.01772,-0.02657,0.02657*
1,1,0.01772,0.02657,0.02657*
1,1,0.01772,0.02657,-0.02657*
1,1,0.01772,-0.02657,-0.02657*
%
%ADD142ROUNDEDRECTD142*%
%ADD143C,0.02402*%
%ADD144C,0.02400*%
G36*
X392172Y-195971D02*
X355529D01*
Y-184000D01*
X355413Y-183415D01*
X355081Y-182919D01*
X354585Y-182587D01*
X354000Y-182471D01*
X318500D01*
X317915Y-182587D01*
X317419Y-182919D01*
X317087Y-183415D01*
X316971Y-184000D01*
Y-195971D01*
X76529D01*
Y-184000D01*
X76413Y-183415D01*
X76081Y-182919D01*
X75585Y-182587D01*
X75000Y-182471D01*
X39500D01*
X38915Y-182587D01*
X38419Y-182919D01*
X38087Y-183415D01*
X37971Y-184000D01*
Y-195971D01*
X1529D01*
Y-1529D01*
X37971D01*
Y-13500D01*
X38087Y-14085D01*
X38419Y-14581D01*
X38915Y-14913D01*
X39500Y-15029D01*
X75000D01*
X75585Y-14913D01*
X76081Y-14581D01*
X76413Y-14085D01*
X76529Y-13500D01*
Y-1529D01*
X316971D01*
Y-13500D01*
X317087Y-14085D01*
X317419Y-14581D01*
X317915Y-14913D01*
X318500Y-15029D01*
X354000D01*
X354585Y-14913D01*
X355081Y-14581D01*
X355413Y-14085D01*
X355529Y-13500D01*
Y-1529D01*
X392172D01*
Y-195971D01*
D02*
G37*
%LPC*%
G36*
X94500Y-8664D02*
X93797Y-8804D01*
X93202Y-9202D01*
X92804Y-9797D01*
X92664Y-10500D01*
X92804Y-11203D01*
X93202Y-11798D01*
X93797Y-12196D01*
X94500Y-12336D01*
X95203Y-12196D01*
X95798Y-11798D01*
X96196Y-11203D01*
X96336Y-10500D01*
X96196Y-9797D01*
X95798Y-9202D01*
X95203Y-8804D01*
X94500Y-8664D01*
D02*
G37*
G36*
X196000Y-9664D02*
X195297Y-9804D01*
X194702Y-10202D01*
X194304Y-10797D01*
X194164Y-11500D01*
X194304Y-12203D01*
X194702Y-12798D01*
X195297Y-13196D01*
X196000Y-13336D01*
X196703Y-13196D01*
X197298Y-12798D01*
X197696Y-12203D01*
X197836Y-11500D01*
X197696Y-10797D01*
X197298Y-10202D01*
X196703Y-9804D01*
X196000Y-9664D01*
D02*
G37*
G36*
X65500Y-19664D02*
X64797Y-19804D01*
X64202Y-20202D01*
X63804Y-20797D01*
X63664Y-21500D01*
X63804Y-22203D01*
X64202Y-22798D01*
X64797Y-23196D01*
X65500Y-23336D01*
X66203Y-23196D01*
X66798Y-22798D01*
X67196Y-22203D01*
X67336Y-21500D01*
X67196Y-20797D01*
X66798Y-20202D01*
X66203Y-19804D01*
X65500Y-19664D01*
D02*
G37*
G36*
X135500Y-20164D02*
X134797Y-20304D01*
X134202Y-20702D01*
X133804Y-21297D01*
X133664Y-22000D01*
X133804Y-22703D01*
X134202Y-23298D01*
X134797Y-23696D01*
X135500Y-23836D01*
X136203Y-23696D01*
X136798Y-23298D01*
X137196Y-22703D01*
X137336Y-22000D01*
X137196Y-21297D01*
X136798Y-20702D01*
X136203Y-20304D01*
X135500Y-20164D01*
D02*
G37*
G36*
X230658Y-15513D02*
X225342D01*
X224763Y-15628D01*
X224271Y-15956D01*
X223943Y-16448D01*
X223828Y-17028D01*
Y-22343D01*
X223943Y-22922D01*
X224271Y-23414D01*
X224763Y-23742D01*
X225342Y-23857D01*
X230658D01*
X231237Y-23742D01*
X231729Y-23414D01*
X232057Y-22922D01*
X232172Y-22343D01*
Y-17028D01*
X232057Y-16448D01*
X231729Y-15956D01*
X231237Y-15628D01*
X230658Y-15513D01*
D02*
G37*
G36*
X218000Y-15506D02*
X216918Y-15648D01*
X215911Y-16066D01*
X215045Y-16730D01*
X214381Y-17595D01*
X213963Y-18603D01*
X213821Y-19685D01*
X213963Y-20767D01*
X214381Y-21775D01*
X215045Y-22640D01*
X215911Y-23304D01*
X216918Y-23722D01*
X218000Y-23864D01*
X219082Y-23722D01*
X220090Y-23304D01*
X220955Y-22640D01*
X221619Y-21775D01*
X222037Y-20767D01*
X222179Y-19685D01*
X222037Y-18603D01*
X221619Y-17595D01*
X220955Y-16730D01*
X220090Y-16066D01*
X219082Y-15648D01*
X218000Y-15506D01*
D02*
G37*
G36*
X208000D02*
X206918Y-15648D01*
X205910Y-16066D01*
X205045Y-16730D01*
X204381Y-17595D01*
X203963Y-18603D01*
X203821Y-19685D01*
X203963Y-20767D01*
X204381Y-21775D01*
X205045Y-22640D01*
X205910Y-23304D01*
X206918Y-23722D01*
X208000Y-23864D01*
X209082Y-23722D01*
X210089Y-23304D01*
X210955Y-22640D01*
X211619Y-21775D01*
X212037Y-20767D01*
X212179Y-19685D01*
X212037Y-18603D01*
X211619Y-17595D01*
X210955Y-16730D01*
X210089Y-16066D01*
X209082Y-15648D01*
X208000Y-15506D01*
D02*
G37*
G36*
X198000D02*
X196918Y-15648D01*
X195911Y-16066D01*
X195045Y-16730D01*
X194381Y-17595D01*
X193963Y-18603D01*
X193821Y-19685D01*
X193963Y-20767D01*
X194381Y-21775D01*
X195045Y-22640D01*
X195911Y-23304D01*
X196918Y-23722D01*
X198000Y-23864D01*
X199082Y-23722D01*
X200090Y-23304D01*
X200955Y-22640D01*
X201619Y-21775D01*
X202037Y-20767D01*
X202179Y-19685D01*
X202037Y-18603D01*
X201619Y-17595D01*
X200955Y-16730D01*
X200090Y-16066D01*
X199082Y-15648D01*
X198000Y-15506D01*
D02*
G37*
G36*
X188000D02*
X186918Y-15648D01*
X185910Y-16066D01*
X185045Y-16730D01*
X184381Y-17595D01*
X183963Y-18603D01*
X183821Y-19685D01*
X183963Y-20767D01*
X184381Y-21775D01*
X185045Y-22640D01*
X185910Y-23304D01*
X186918Y-23722D01*
X188000Y-23864D01*
X189082Y-23722D01*
X190089Y-23304D01*
X190955Y-22640D01*
X191619Y-21775D01*
X192037Y-20767D01*
X192179Y-19685D01*
X192037Y-18603D01*
X191619Y-17595D01*
X190955Y-16730D01*
X190089Y-16066D01*
X189082Y-15648D01*
X188000Y-15506D01*
D02*
G37*
G36*
X178000D02*
X176918Y-15648D01*
X175910Y-16066D01*
X175045Y-16730D01*
X174381Y-17595D01*
X173963Y-18603D01*
X173821Y-19685D01*
X173963Y-20767D01*
X174381Y-21775D01*
X175045Y-22640D01*
X175910Y-23304D01*
X176918Y-23722D01*
X178000Y-23864D01*
X179082Y-23722D01*
X180089Y-23304D01*
X180955Y-22640D01*
X181619Y-21775D01*
X182037Y-20767D01*
X182179Y-19685D01*
X182037Y-18603D01*
X181619Y-17595D01*
X180955Y-16730D01*
X180089Y-16066D01*
X179082Y-15648D01*
X178000Y-15506D01*
D02*
G37*
G36*
X168000D02*
X166918Y-15648D01*
X165910Y-16066D01*
X165045Y-16730D01*
X164381Y-17595D01*
X163963Y-18603D01*
X163821Y-19685D01*
X163963Y-20767D01*
X164381Y-21775D01*
X165045Y-22640D01*
X165910Y-23304D01*
X166918Y-23722D01*
X168000Y-23864D01*
X169082Y-23722D01*
X170089Y-23304D01*
X170955Y-22640D01*
X171619Y-21775D01*
X172037Y-20767D01*
X172179Y-19685D01*
X172037Y-18603D01*
X171619Y-17595D01*
X170955Y-16730D01*
X170089Y-16066D01*
X169082Y-15648D01*
X168000Y-15506D01*
D02*
G37*
G36*
X158000D02*
X156918Y-15648D01*
X155911Y-16066D01*
X155045Y-16730D01*
X154381Y-17595D01*
X153963Y-18603D01*
X153821Y-19685D01*
X153963Y-20767D01*
X154381Y-21775D01*
X155045Y-22640D01*
X155911Y-23304D01*
X156918Y-23722D01*
X158000Y-23864D01*
X159082Y-23722D01*
X160090Y-23304D01*
X160955Y-22640D01*
X161619Y-21775D01*
X162037Y-20767D01*
X162179Y-19685D01*
X162037Y-18603D01*
X161619Y-17595D01*
X160955Y-16730D01*
X160090Y-16066D01*
X159082Y-15648D01*
X158000Y-15506D01*
D02*
G37*
G36*
X242500Y-21664D02*
X241797Y-21804D01*
X241202Y-22202D01*
X240804Y-22797D01*
X240664Y-23500D01*
X240804Y-24203D01*
X241202Y-24798D01*
X241797Y-25196D01*
X242500Y-25336D01*
X243203Y-25196D01*
X243798Y-24798D01*
X244196Y-24203D01*
X244336Y-23500D01*
X244196Y-22797D01*
X243798Y-22202D01*
X243203Y-21804D01*
X242500Y-21664D01*
D02*
G37*
G36*
X148500Y-24164D02*
X147797Y-24304D01*
X147202Y-24702D01*
X146804Y-25297D01*
X146664Y-26000D01*
X146804Y-26703D01*
X147202Y-27298D01*
X147797Y-27696D01*
X148500Y-27836D01*
X149203Y-27696D01*
X149798Y-27298D01*
X150196Y-26703D01*
X150336Y-26000D01*
X150196Y-25297D01*
X149798Y-24702D01*
X149203Y-24304D01*
X148500Y-24164D01*
D02*
G37*
G36*
X65500Y-25664D02*
X64797Y-25804D01*
X64202Y-26202D01*
X63804Y-26797D01*
X63664Y-27500D01*
X63804Y-28203D01*
X64202Y-28798D01*
X64797Y-29196D01*
X65500Y-29336D01*
X66203Y-29196D01*
X66798Y-28798D01*
X67196Y-28203D01*
X67336Y-27500D01*
X67196Y-26797D01*
X66798Y-26202D01*
X66203Y-25804D01*
X65500Y-25664D01*
D02*
G37*
G36*
X87000Y-26664D02*
X86297Y-26804D01*
X85702Y-27202D01*
X85304Y-27797D01*
X85164Y-28500D01*
X85304Y-29203D01*
X85702Y-29798D01*
X86297Y-30196D01*
X87000Y-30336D01*
X87703Y-30196D01*
X88298Y-29798D01*
X88696Y-29203D01*
X88836Y-28500D01*
X88696Y-27797D01*
X88298Y-27202D01*
X87703Y-26804D01*
X87000Y-26664D01*
D02*
G37*
G36*
X146500Y-28664D02*
X145797Y-28804D01*
X145202Y-29202D01*
X144804Y-29797D01*
X144664Y-30500D01*
X144804Y-31203D01*
X145202Y-31798D01*
X145797Y-32196D01*
X146500Y-32336D01*
X147203Y-32196D01*
X147798Y-31798D01*
X148196Y-31203D01*
X148336Y-30500D01*
X148196Y-29797D01*
X147798Y-29202D01*
X147203Y-28804D01*
X146500Y-28664D01*
D02*
G37*
G36*
X196500Y-32164D02*
X195797Y-32304D01*
X195202Y-32702D01*
X194804Y-33297D01*
X194664Y-34000D01*
X194804Y-34703D01*
X195202Y-35298D01*
X195797Y-35696D01*
X196500Y-35836D01*
X197203Y-35696D01*
X197798Y-35298D01*
X198196Y-34703D01*
X198336Y-34000D01*
X198196Y-33297D01*
X197798Y-32702D01*
X197203Y-32304D01*
X196500Y-32164D01*
D02*
G37*
G36*
X272500Y-11551D02*
X270552Y-11704D01*
X268653Y-12160D01*
X266848Y-12908D01*
X265182Y-13928D01*
X263697Y-15197D01*
X262428Y-16682D01*
X261407Y-18348D01*
X260660Y-20153D01*
X260204Y-22052D01*
X260051Y-24000D01*
X260204Y-25947D01*
X260660Y-27847D01*
X261407Y-29652D01*
X262428Y-31318D01*
X263697Y-32803D01*
X265182Y-34072D01*
X266848Y-35092D01*
X268653Y-35840D01*
X270552Y-36296D01*
X272500Y-36449D01*
X274447Y-36296D01*
X276347Y-35840D01*
X278152Y-35092D01*
X279818Y-34072D01*
X281303Y-32803D01*
X282572Y-31318D01*
X283593Y-29652D01*
X284340Y-27847D01*
X284796Y-25947D01*
X284949Y-24000D01*
X284796Y-22052D01*
X284340Y-20153D01*
X283593Y-18348D01*
X282572Y-16682D01*
X281303Y-15197D01*
X279818Y-13928D01*
X278152Y-12908D01*
X276347Y-12160D01*
X274447Y-11704D01*
X272500Y-11551D01*
D02*
G37*
G36*
X150000Y-33164D02*
X149297Y-33304D01*
X148702Y-33702D01*
X148304Y-34297D01*
X148164Y-35000D01*
X148304Y-35703D01*
X148702Y-36298D01*
X149297Y-36696D01*
X150000Y-36836D01*
X150703Y-36696D01*
X151298Y-36298D01*
X151696Y-35703D01*
X151836Y-35000D01*
X151696Y-34297D01*
X151298Y-33702D01*
X150703Y-33304D01*
X150000Y-33164D01*
D02*
G37*
G36*
X58500Y-37664D02*
X57797Y-37804D01*
X57202Y-38202D01*
X56804Y-38797D01*
X56664Y-39500D01*
X56804Y-40203D01*
X57202Y-40798D01*
X57797Y-41196D01*
X58500Y-41336D01*
X59203Y-41196D01*
X59798Y-40798D01*
X60196Y-40203D01*
X60336Y-39500D01*
X60196Y-38797D01*
X59798Y-38202D01*
X59203Y-37804D01*
X58500Y-37664D01*
D02*
G37*
G36*
X292673Y-38664D02*
X291971Y-38804D01*
X291375Y-39202D01*
X290977Y-39797D01*
X290837Y-40500D01*
X290977Y-41203D01*
X291375Y-41798D01*
X291971Y-42196D01*
X292673Y-42336D01*
X293376Y-42196D01*
X293971Y-41798D01*
X294370Y-41203D01*
X294509Y-40500D01*
X294370Y-39797D01*
X293971Y-39202D01*
X293376Y-38804D01*
X292673Y-38664D01*
D02*
G37*
G36*
X40037Y-39463D02*
X30963D01*
Y-48537D01*
X40037D01*
Y-39463D01*
D02*
G37*
G36*
X57500Y-48664D02*
X56797Y-48804D01*
X56202Y-49202D01*
X55804Y-49797D01*
X55664Y-50500D01*
X55804Y-51203D01*
X56202Y-51798D01*
X56797Y-52196D01*
X57500Y-52336D01*
X58203Y-52196D01*
X58798Y-51798D01*
X59196Y-51203D01*
X59336Y-50500D01*
X59196Y-49797D01*
X58798Y-49202D01*
X58203Y-48804D01*
X57500Y-48664D01*
D02*
G37*
G36*
X110000Y-50164D02*
X109297Y-50304D01*
X108702Y-50702D01*
X108304Y-51297D01*
X108164Y-52000D01*
X108304Y-52703D01*
X108702Y-53298D01*
X109297Y-53696D01*
X110000Y-53836D01*
X110703Y-53696D01*
X111298Y-53298D01*
X111696Y-52703D01*
X111836Y-52000D01*
X111696Y-51297D01*
X111298Y-50702D01*
X110703Y-50304D01*
X110000Y-50164D01*
D02*
G37*
G36*
X298000Y-52164D02*
X297297Y-52304D01*
X296702Y-52702D01*
X296304Y-53297D01*
X296164Y-54000D01*
X296304Y-54703D01*
X296702Y-55298D01*
X297297Y-55696D01*
X298000Y-55836D01*
X298703Y-55696D01*
X299298Y-55298D01*
X299696Y-54703D01*
X299836Y-54000D01*
X299696Y-53297D01*
X299298Y-52702D01*
X298703Y-52304D01*
X298000Y-52164D01*
D02*
G37*
G36*
X174500Y-53164D02*
X173797Y-53304D01*
X173202Y-53702D01*
X172804Y-54297D01*
X172664Y-55000D01*
X172804Y-55703D01*
X173202Y-56298D01*
X173797Y-56696D01*
X174500Y-56836D01*
X175203Y-56696D01*
X175798Y-56298D01*
X176196Y-55703D01*
X176336Y-55000D01*
X176196Y-54297D01*
X175798Y-53702D01*
X175203Y-53304D01*
X174500Y-53164D01*
D02*
G37*
G36*
X252382Y-53684D02*
X251687Y-53822D01*
X251098Y-54216D01*
X250704Y-54805D01*
X250566Y-55500D01*
X250704Y-56195D01*
X251098Y-56784D01*
X251687Y-57178D01*
X252382Y-57316D01*
X253077Y-57178D01*
X253666Y-56784D01*
X254060Y-56195D01*
X254198Y-55500D01*
X254060Y-54805D01*
X253666Y-54216D01*
X253077Y-53822D01*
X252382Y-53684D01*
D02*
G37*
G36*
X247264D02*
X246569Y-53822D01*
X245980Y-54216D01*
X245586Y-54805D01*
X245448Y-55500D01*
X245586Y-56195D01*
X245980Y-56784D01*
X246569Y-57178D01*
X247264Y-57316D01*
X247959Y-57178D01*
X248548Y-56784D01*
X248941Y-56195D01*
X249080Y-55500D01*
X248941Y-54805D01*
X248548Y-54216D01*
X247959Y-53822D01*
X247264Y-53684D01*
D02*
G37*
G36*
X178500Y-54164D02*
X177797Y-54304D01*
X177202Y-54702D01*
X176804Y-55297D01*
X176664Y-56000D01*
X176804Y-56703D01*
X177202Y-57298D01*
X177797Y-57696D01*
X178500Y-57836D01*
X179203Y-57696D01*
X179798Y-57298D01*
X180196Y-56703D01*
X180336Y-56000D01*
X180196Y-55297D01*
X179798Y-54702D01*
X179203Y-54304D01*
X178500Y-54164D01*
D02*
G37*
G36*
X231000Y-54664D02*
X230297Y-54804D01*
X229702Y-55202D01*
X229304Y-55797D01*
X229164Y-56500D01*
X229304Y-57203D01*
X229702Y-57798D01*
X230297Y-58196D01*
X231000Y-58336D01*
X231703Y-58196D01*
X232298Y-57798D01*
X232696Y-57203D01*
X232836Y-56500D01*
X232696Y-55797D01*
X232298Y-55202D01*
X231703Y-54804D01*
X231000Y-54664D01*
D02*
G37*
G36*
X35500Y-49424D02*
X34316Y-49580D01*
X33212Y-50037D01*
X32264Y-50764D01*
X31537Y-51712D01*
X31080Y-52816D01*
X30924Y-54000D01*
X31080Y-55184D01*
X31537Y-56288D01*
X32264Y-57236D01*
X33212Y-57963D01*
X34316Y-58420D01*
X35500Y-58576D01*
X36684Y-58420D01*
X37788Y-57963D01*
X38736Y-57236D01*
X39463Y-56288D01*
X39920Y-55184D01*
X40076Y-54000D01*
X39920Y-52816D01*
X39463Y-51712D01*
X38736Y-50764D01*
X37788Y-50037D01*
X36684Y-49580D01*
X35500Y-49424D01*
D02*
G37*
G36*
X304000Y-55164D02*
X303297Y-55304D01*
X302702Y-55702D01*
X302304Y-56297D01*
X302164Y-57000D01*
X302304Y-57703D01*
X302702Y-58298D01*
X303297Y-58696D01*
X304000Y-58836D01*
X304703Y-58696D01*
X305298Y-58298D01*
X305696Y-57703D01*
X305836Y-57000D01*
X305696Y-56297D01*
X305298Y-55702D01*
X304703Y-55304D01*
X304000Y-55164D01*
D02*
G37*
G36*
X266457Y-53170D02*
X265723Y-53316D01*
X265102Y-53732D01*
X264686Y-54353D01*
X264540Y-55087D01*
Y-57646D01*
X264686Y-58379D01*
X265102Y-59001D01*
X265723Y-59416D01*
X266457Y-59562D01*
X267190Y-59416D01*
X267812Y-59001D01*
X268227Y-58379D01*
X268373Y-57646D01*
Y-55087D01*
X268227Y-54353D01*
X267812Y-53732D01*
X267190Y-53316D01*
X266457Y-53170D01*
D02*
G37*
G36*
X238307D02*
X237574Y-53316D01*
X236952Y-53732D01*
X236537Y-54353D01*
X236391Y-55087D01*
Y-57646D01*
X236537Y-58379D01*
X236952Y-59001D01*
X237574Y-59416D01*
X238307Y-59562D01*
X239040Y-59416D01*
X239662Y-59001D01*
X240078Y-58379D01*
X240223Y-57646D01*
Y-55087D01*
X240078Y-54353D01*
X239662Y-53732D01*
X239040Y-53316D01*
X238307Y-53170D01*
D02*
G37*
G36*
X202000Y-56664D02*
X201297Y-56804D01*
X200702Y-57202D01*
X200304Y-57797D01*
X200164Y-58500D01*
X200304Y-59203D01*
X200702Y-59798D01*
X201297Y-60196D01*
X202000Y-60336D01*
X202703Y-60196D01*
X203298Y-59798D01*
X203696Y-59203D01*
X203836Y-58500D01*
X203696Y-57797D01*
X203298Y-57202D01*
X202703Y-56804D01*
X202000Y-56664D01*
D02*
G37*
G36*
X254941Y-57621D02*
X254246Y-57759D01*
X253657Y-58153D01*
X253263Y-58742D01*
X253125Y-59437D01*
X253263Y-60132D01*
X253657Y-60721D01*
X254246Y-61115D01*
X254941Y-61253D01*
X255636Y-61115D01*
X256225Y-60721D01*
X256619Y-60132D01*
X256757Y-59437D01*
X256619Y-58742D01*
X256225Y-58153D01*
X255636Y-57759D01*
X254941Y-57621D01*
D02*
G37*
G36*
X249823D02*
X249128Y-57759D01*
X248539Y-58153D01*
X248145Y-58742D01*
X248007Y-59437D01*
X248145Y-60132D01*
X248539Y-60721D01*
X249128Y-61115D01*
X249823Y-61253D01*
X250518Y-61115D01*
X251107Y-60721D01*
X251501Y-60132D01*
X251639Y-59437D01*
X251501Y-58742D01*
X251107Y-58153D01*
X250518Y-57759D01*
X249823Y-57621D01*
D02*
G37*
G36*
X134000Y-53664D02*
X133297Y-53804D01*
X132702Y-54202D01*
X132304Y-54797D01*
X132164Y-55500D01*
X132304Y-56203D01*
X132702Y-56798D01*
X133297Y-57196D01*
X133543Y-57245D01*
Y-57755D01*
X133297Y-57804D01*
X132702Y-58202D01*
X132304Y-58797D01*
X132164Y-59500D01*
X132304Y-60203D01*
X132702Y-60798D01*
X133297Y-61196D01*
X134000Y-61336D01*
X134703Y-61196D01*
X135298Y-60798D01*
X135696Y-60203D01*
X135836Y-59500D01*
X135696Y-58797D01*
X135298Y-58202D01*
X134703Y-57804D01*
X134457Y-57755D01*
Y-57245D01*
X134703Y-57196D01*
X135298Y-56798D01*
X135696Y-56203D01*
X135836Y-55500D01*
X135696Y-54797D01*
X135298Y-54202D01*
X134703Y-53804D01*
X134000Y-53664D01*
D02*
G37*
G36*
X166500Y-58164D02*
X165797Y-58304D01*
X165202Y-58702D01*
X164804Y-59297D01*
X164664Y-60000D01*
X164804Y-60703D01*
X165202Y-61298D01*
X165797Y-61696D01*
X166500Y-61836D01*
X167203Y-61696D01*
X167798Y-61298D01*
X168196Y-60703D01*
X168336Y-60000D01*
X168196Y-59297D01*
X167798Y-58702D01*
X167203Y-58304D01*
X166500Y-58164D01*
D02*
G37*
G36*
X102500Y-60664D02*
X101797Y-60804D01*
X101202Y-61202D01*
X100804Y-61797D01*
X100664Y-62500D01*
X100804Y-63203D01*
X101202Y-63798D01*
X101797Y-64196D01*
X102500Y-64336D01*
X103203Y-64196D01*
X103798Y-63798D01*
X104196Y-63203D01*
X104336Y-62500D01*
X104196Y-61797D01*
X103798Y-61202D01*
X103203Y-60804D01*
X102500Y-60664D01*
D02*
G37*
G36*
X164500Y-62164D02*
X163797Y-62304D01*
X163202Y-62702D01*
X162804Y-63297D01*
X162664Y-64000D01*
X162804Y-64703D01*
X163202Y-65298D01*
X163797Y-65696D01*
X164500Y-65836D01*
X165203Y-65696D01*
X165798Y-65298D01*
X166196Y-64703D01*
X166336Y-64000D01*
X166196Y-63297D01*
X165798Y-62702D01*
X165203Y-62304D01*
X164500Y-62164D01*
D02*
G37*
G36*
X172500Y-63664D02*
X171797Y-63804D01*
X171202Y-64202D01*
X170804Y-64797D01*
X170664Y-65500D01*
X170804Y-66203D01*
X171202Y-66798D01*
X171797Y-67196D01*
X172500Y-67336D01*
X173203Y-67196D01*
X173798Y-66798D01*
X174196Y-66203D01*
X174336Y-65500D01*
X174196Y-64797D01*
X173798Y-64202D01*
X173203Y-63804D01*
X172500Y-63664D01*
D02*
G37*
G36*
X73689Y-60218D02*
X72710Y-60347D01*
X71798Y-60725D01*
X71015Y-61326D01*
X70414Y-62109D01*
X70036Y-63021D01*
X69907Y-64000D01*
X70036Y-64979D01*
X70414Y-65891D01*
X71015Y-66674D01*
X71798Y-67275D01*
X72710Y-67653D01*
X73689Y-67782D01*
X74668Y-67653D01*
X75580Y-67275D01*
X76363Y-66674D01*
X76964Y-65891D01*
X77342Y-64979D01*
X77471Y-64000D01*
X77342Y-63021D01*
X76964Y-62109D01*
X76363Y-61326D01*
X75580Y-60725D01*
X74668Y-60347D01*
X73689Y-60218D01*
D02*
G37*
G36*
X241150Y-64664D02*
X240447Y-64804D01*
X239852Y-65202D01*
X239454Y-65797D01*
X239314Y-66500D01*
X239454Y-67203D01*
X239852Y-67798D01*
X240447Y-68196D01*
X241150Y-68336D01*
X241853Y-68196D01*
X242448Y-67798D01*
X242846Y-67203D01*
X242986Y-66500D01*
X242846Y-65797D01*
X242448Y-65202D01*
X241853Y-64804D01*
X241150Y-64664D01*
D02*
G37*
G36*
X235550D02*
X234847Y-64804D01*
X234252Y-65202D01*
X233854Y-65797D01*
X233714Y-66500D01*
X233854Y-67203D01*
X234252Y-67798D01*
X234847Y-68196D01*
X235550Y-68336D01*
X236253Y-68196D01*
X236848Y-67798D01*
X237246Y-67203D01*
X237386Y-66500D01*
X237246Y-65797D01*
X236848Y-65202D01*
X236253Y-64804D01*
X235550Y-64664D01*
D02*
G37*
G36*
X35500Y-59424D02*
X34316Y-59580D01*
X33212Y-60037D01*
X32264Y-60764D01*
X31537Y-61712D01*
X31080Y-62816D01*
X30924Y-64000D01*
X31080Y-65184D01*
X31537Y-66288D01*
X32264Y-67236D01*
X33212Y-67963D01*
X34316Y-68420D01*
X35500Y-68576D01*
X36684Y-68420D01*
X37788Y-67963D01*
X38736Y-67236D01*
X39463Y-66288D01*
X39920Y-65184D01*
X40076Y-64000D01*
X39920Y-62816D01*
X39463Y-61712D01*
X38736Y-60764D01*
X37788Y-60037D01*
X36684Y-59580D01*
X35500Y-59424D01*
D02*
G37*
G36*
X156500Y-66664D02*
X155797Y-66804D01*
X155202Y-67202D01*
X154804Y-67797D01*
X154664Y-68500D01*
X154804Y-69203D01*
X155202Y-69798D01*
X155797Y-70196D01*
X156500Y-70336D01*
X157203Y-70196D01*
X157798Y-69798D01*
X158196Y-69203D01*
X158336Y-68500D01*
X158196Y-67797D01*
X157798Y-67202D01*
X157203Y-66804D01*
X156500Y-66664D01*
D02*
G37*
G36*
X187500Y-69664D02*
X186797Y-69804D01*
X186202Y-70202D01*
X185804Y-70797D01*
X185664Y-71500D01*
X185804Y-72203D01*
X186202Y-72798D01*
X186797Y-73196D01*
X187500Y-73336D01*
X188203Y-73196D01*
X188798Y-72798D01*
X189196Y-72203D01*
X189336Y-71500D01*
X189196Y-70797D01*
X188798Y-70202D01*
X188203Y-69804D01*
X187500Y-69664D01*
D02*
G37*
G36*
X153000D02*
X152297Y-69804D01*
X151702Y-70202D01*
X151304Y-70797D01*
X151164Y-71500D01*
X151304Y-72203D01*
X151702Y-72798D01*
X152297Y-73196D01*
X153000Y-73336D01*
X153703Y-73196D01*
X154298Y-72798D01*
X154696Y-72203D01*
X154836Y-71500D01*
X154696Y-70797D01*
X154298Y-70202D01*
X153703Y-69804D01*
X153000Y-69664D01*
D02*
G37*
G36*
X149000Y-70664D02*
X148297Y-70804D01*
X147702Y-71202D01*
X147304Y-71797D01*
X147164Y-72500D01*
X147304Y-73203D01*
X147702Y-73798D01*
X148297Y-74196D01*
X149000Y-74336D01*
X149703Y-74196D01*
X150298Y-73798D01*
X150696Y-73203D01*
X150836Y-72500D01*
X150696Y-71797D01*
X150298Y-71202D01*
X149703Y-70804D01*
X149000Y-70664D01*
D02*
G37*
G36*
X344500Y-72164D02*
X343797Y-72304D01*
X343202Y-72702D01*
X342804Y-73297D01*
X342664Y-74000D01*
X342804Y-74703D01*
X343202Y-75298D01*
X343797Y-75696D01*
X344500Y-75836D01*
X345203Y-75696D01*
X345798Y-75298D01*
X346196Y-74703D01*
X346336Y-74000D01*
X346196Y-73297D01*
X345798Y-72702D01*
X345203Y-72304D01*
X344500Y-72164D01*
D02*
G37*
G36*
X204000Y-65664D02*
X203297Y-65804D01*
X202702Y-66202D01*
X202304Y-66797D01*
X202164Y-67500D01*
X202304Y-68203D01*
X202702Y-68798D01*
X203297Y-69196D01*
X203543Y-69245D01*
Y-69755D01*
X203297Y-69804D01*
X202702Y-70202D01*
X202304Y-70797D01*
X202164Y-71500D01*
X202304Y-72203D01*
X202702Y-72798D01*
X203297Y-73196D01*
X204000Y-73336D01*
X204589Y-73219D01*
X204861Y-73509D01*
X204919Y-73624D01*
X204804Y-73797D01*
X204664Y-74500D01*
X204804Y-75203D01*
X205202Y-75798D01*
X205797Y-76196D01*
X206500Y-76336D01*
X207203Y-76196D01*
X207798Y-75798D01*
X208196Y-75203D01*
X208336Y-74500D01*
X208196Y-73797D01*
X207798Y-73202D01*
X207203Y-72804D01*
X206500Y-72664D01*
X205911Y-72781D01*
X205639Y-72491D01*
X205581Y-72376D01*
X205696Y-72203D01*
X205836Y-71500D01*
X205696Y-70797D01*
X205298Y-70202D01*
X204703Y-69804D01*
X204457Y-69755D01*
Y-69245D01*
X204703Y-69196D01*
X205298Y-68798D01*
X205696Y-68203D01*
X205836Y-67500D01*
X205696Y-66797D01*
X205298Y-66202D01*
X204703Y-65804D01*
X204000Y-65664D01*
D02*
G37*
G36*
X35500Y-69424D02*
X34316Y-69580D01*
X33212Y-70037D01*
X32264Y-70764D01*
X31537Y-71712D01*
X31080Y-72816D01*
X30924Y-74000D01*
X31080Y-75184D01*
X31537Y-76288D01*
X32264Y-77236D01*
X33212Y-77963D01*
X34316Y-78420D01*
X35500Y-78576D01*
X36684Y-78420D01*
X37788Y-77963D01*
X38736Y-77236D01*
X39463Y-76288D01*
X39920Y-75184D01*
X40076Y-74000D01*
X39920Y-72816D01*
X39463Y-71712D01*
X38736Y-70764D01*
X37788Y-70037D01*
X36684Y-69580D01*
X35500Y-69424D01*
D02*
G37*
G36*
X285750Y-74914D02*
X285047Y-75054D01*
X284452Y-75452D01*
X284054Y-76047D01*
X283914Y-76750D01*
X284054Y-77453D01*
X284452Y-78048D01*
X285047Y-78446D01*
X285750Y-78586D01*
X286453Y-78446D01*
X287048Y-78048D01*
X287446Y-77453D01*
X287586Y-76750D01*
X287446Y-76047D01*
X287048Y-75452D01*
X286453Y-75054D01*
X285750Y-74914D01*
D02*
G37*
G36*
X210000Y-75664D02*
X209297Y-75804D01*
X208702Y-76202D01*
X208304Y-76797D01*
X208164Y-77500D01*
X208304Y-78203D01*
X208702Y-78798D01*
X209297Y-79196D01*
X210000Y-79336D01*
X210703Y-79196D01*
X211298Y-78798D01*
X211696Y-78203D01*
X211836Y-77500D01*
X211696Y-76797D01*
X211298Y-76202D01*
X210703Y-75804D01*
X210000Y-75664D01*
D02*
G37*
G36*
X148000Y-76164D02*
X147297Y-76304D01*
X146702Y-76702D01*
X146304Y-77297D01*
X146164Y-78000D01*
X146304Y-78703D01*
X146702Y-79298D01*
X147297Y-79696D01*
X148000Y-79836D01*
X148703Y-79696D01*
X149298Y-79298D01*
X149696Y-78703D01*
X149836Y-78000D01*
X149696Y-77297D01*
X149298Y-76702D01*
X148703Y-76304D01*
X148000Y-76164D01*
D02*
G37*
G36*
X104000D02*
X103297Y-76304D01*
X102702Y-76702D01*
X102304Y-77297D01*
X102164Y-78000D01*
X102304Y-78703D01*
X102702Y-79298D01*
X103297Y-79696D01*
X104000Y-79836D01*
X104703Y-79696D01*
X105298Y-79298D01*
X105696Y-78703D01*
X105836Y-78000D01*
X105696Y-77297D01*
X105298Y-76702D01*
X104703Y-76304D01*
X104000Y-76164D01*
D02*
G37*
G36*
X206000Y-79164D02*
X205297Y-79304D01*
X204702Y-79702D01*
X204304Y-80297D01*
X204164Y-81000D01*
X204304Y-81703D01*
X204702Y-82298D01*
X205297Y-82696D01*
X206000Y-82836D01*
X206703Y-82696D01*
X206876Y-82581D01*
X206991Y-82639D01*
X207281Y-82911D01*
X207164Y-83500D01*
X207213Y-83746D01*
X206788Y-84171D01*
X206750Y-84164D01*
X206047Y-84304D01*
X205452Y-84702D01*
X205054Y-85297D01*
X204914Y-86000D01*
X205054Y-86703D01*
X205452Y-87298D01*
X206047Y-87696D01*
X206750Y-87836D01*
X207453Y-87696D01*
X208048Y-87298D01*
X208446Y-86703D01*
X208586Y-86000D01*
X208537Y-85754D01*
X208962Y-85329D01*
X209000Y-85336D01*
X209703Y-85196D01*
X210298Y-84798D01*
X210696Y-84203D01*
X210836Y-83500D01*
X210696Y-82797D01*
X210298Y-82202D01*
X209703Y-81804D01*
X209000Y-81664D01*
X208297Y-81804D01*
X208124Y-81919D01*
X208009Y-81861D01*
X207719Y-81589D01*
X207836Y-81000D01*
X207696Y-80297D01*
X207298Y-79702D01*
X206703Y-79304D01*
X206000Y-79164D01*
D02*
G37*
G36*
X153500Y-81164D02*
X152797Y-81304D01*
X152202Y-81702D01*
X151804Y-82297D01*
X151664Y-83000D01*
X151804Y-83703D01*
X152202Y-84298D01*
X152797Y-84696D01*
X153500Y-84836D01*
X154203Y-84696D01*
X154798Y-84298D01*
X155196Y-83703D01*
X155336Y-83000D01*
X155196Y-82297D01*
X154798Y-81702D01*
X154203Y-81304D01*
X153500Y-81164D01*
D02*
G37*
G36*
X344500Y-82664D02*
X343797Y-82804D01*
X343202Y-83202D01*
X342804Y-83797D01*
X342664Y-84500D01*
X342804Y-85203D01*
X343202Y-85798D01*
X343797Y-86196D01*
X344500Y-86336D01*
X345203Y-86196D01*
X345798Y-85798D01*
X346196Y-85203D01*
X346336Y-84500D01*
X346196Y-83797D01*
X345798Y-83202D01*
X345203Y-82804D01*
X344500Y-82664D01*
D02*
G37*
G36*
X251000Y-79321D02*
X249918Y-79463D01*
X248910Y-79881D01*
X248045Y-80545D01*
X247381Y-81410D01*
X246963Y-82418D01*
X246821Y-83500D01*
X246963Y-84582D01*
X247381Y-85589D01*
X248045Y-86455D01*
X248910Y-87119D01*
X249918Y-87537D01*
X251000Y-87679D01*
X252082Y-87537D01*
X253089Y-87119D01*
X253955Y-86455D01*
X254619Y-85589D01*
X255037Y-84582D01*
X255179Y-83500D01*
X255037Y-82418D01*
X254619Y-81410D01*
X253955Y-80545D01*
X253089Y-79881D01*
X252082Y-79463D01*
X251000Y-79321D01*
D02*
G37*
G36*
X35500Y-79424D02*
X34316Y-79580D01*
X33212Y-80037D01*
X32264Y-80764D01*
X31537Y-81712D01*
X31080Y-82816D01*
X30924Y-84000D01*
X31080Y-85184D01*
X31537Y-86288D01*
X32264Y-87236D01*
X33212Y-87963D01*
X34316Y-88420D01*
X35500Y-88576D01*
X36684Y-88420D01*
X37788Y-87963D01*
X38736Y-87236D01*
X39463Y-86288D01*
X39920Y-85184D01*
X40076Y-84000D01*
X39920Y-82816D01*
X39463Y-81712D01*
X38736Y-80764D01*
X37788Y-80037D01*
X36684Y-79580D01*
X35500Y-79424D01*
D02*
G37*
G36*
X270000Y-86164D02*
X269297Y-86304D01*
X268702Y-86702D01*
X268304Y-87297D01*
X268164Y-88000D01*
X268304Y-88703D01*
X268702Y-89298D01*
X269297Y-89696D01*
X270000Y-89836D01*
X270703Y-89696D01*
X271298Y-89298D01*
X271696Y-88703D01*
X271836Y-88000D01*
X271696Y-87297D01*
X271298Y-86702D01*
X270703Y-86304D01*
X270000Y-86164D01*
D02*
G37*
G36*
X214000Y-87664D02*
X213297Y-87804D01*
X212702Y-88202D01*
X212304Y-88797D01*
X212164Y-89500D01*
X212304Y-90203D01*
X212702Y-90798D01*
X213297Y-91196D01*
X214000Y-91336D01*
X214703Y-91196D01*
X215298Y-90798D01*
X215696Y-90203D01*
X215836Y-89500D01*
X215696Y-88797D01*
X215298Y-88202D01*
X214703Y-87804D01*
X214000Y-87664D01*
D02*
G37*
G36*
X115000Y-89164D02*
X114297Y-89304D01*
X113702Y-89702D01*
X113304Y-90297D01*
X113164Y-91000D01*
X113304Y-91703D01*
X113702Y-92298D01*
X114297Y-92696D01*
X115000Y-92836D01*
X115703Y-92696D01*
X116298Y-92298D01*
X116696Y-91703D01*
X116836Y-91000D01*
X116696Y-90297D01*
X116298Y-89702D01*
X115703Y-89304D01*
X115000Y-89164D01*
D02*
G37*
G36*
X153000Y-90164D02*
X152297Y-90304D01*
X151702Y-90702D01*
X151304Y-91297D01*
X151164Y-92000D01*
X151304Y-92703D01*
X151702Y-93298D01*
X152297Y-93696D01*
X153000Y-93836D01*
X153703Y-93696D01*
X154298Y-93298D01*
X154696Y-92703D01*
X154836Y-92000D01*
X154696Y-91297D01*
X154298Y-90702D01*
X153703Y-90304D01*
X153000Y-90164D01*
D02*
G37*
G36*
X251000Y-89321D02*
X249918Y-89463D01*
X248910Y-89881D01*
X248045Y-90545D01*
X247381Y-91410D01*
X246963Y-92418D01*
X246821Y-93500D01*
X246963Y-94582D01*
X247381Y-95590D01*
X248045Y-96455D01*
X248910Y-97119D01*
X249918Y-97537D01*
X251000Y-97679D01*
X252082Y-97537D01*
X253089Y-97119D01*
X253955Y-96455D01*
X254619Y-95590D01*
X255037Y-94582D01*
X255179Y-93500D01*
X255037Y-92418D01*
X254619Y-91410D01*
X253955Y-90545D01*
X253089Y-89881D01*
X252082Y-89463D01*
X251000Y-89321D01*
D02*
G37*
G36*
X35500Y-89424D02*
X34316Y-89580D01*
X33212Y-90037D01*
X32264Y-90764D01*
X31537Y-91712D01*
X31080Y-92816D01*
X30924Y-94000D01*
X31080Y-95184D01*
X31537Y-96288D01*
X32264Y-97236D01*
X33212Y-97963D01*
X34316Y-98420D01*
X35500Y-98576D01*
X36684Y-98420D01*
X37788Y-97963D01*
X38736Y-97236D01*
X39463Y-96288D01*
X39920Y-95184D01*
X40076Y-94000D01*
X39920Y-92816D01*
X39463Y-91712D01*
X38736Y-90764D01*
X37788Y-90037D01*
X36684Y-89580D01*
X35500Y-89424D01*
D02*
G37*
G36*
X100500Y-95164D02*
X99797Y-95304D01*
X99202Y-95702D01*
X98804Y-96297D01*
X98664Y-97000D01*
X98804Y-97703D01*
X99202Y-98298D01*
X99797Y-98696D01*
X100500Y-98836D01*
X101203Y-98696D01*
X101798Y-98298D01*
X102196Y-97703D01*
X102336Y-97000D01*
X102196Y-96297D01*
X101798Y-95702D01*
X101203Y-95304D01*
X100500Y-95164D01*
D02*
G37*
G36*
X217653Y-95750D02*
X216951Y-95890D01*
X216355Y-96288D01*
X215957Y-96884D01*
X215817Y-97587D01*
X215957Y-98289D01*
X216355Y-98885D01*
X216951Y-99283D01*
X217653Y-99423D01*
X218356Y-99283D01*
X218952Y-98885D01*
X219350Y-98289D01*
X219490Y-97587D01*
X219350Y-96884D01*
X218952Y-96288D01*
X218356Y-95890D01*
X217653Y-95750D01*
D02*
G37*
G36*
X150000Y-96164D02*
X149297Y-96304D01*
X148702Y-96702D01*
X148304Y-97297D01*
X148164Y-98000D01*
X148304Y-98703D01*
X148702Y-99298D01*
X149297Y-99696D01*
X150000Y-99836D01*
X150703Y-99696D01*
X151298Y-99298D01*
X151696Y-98703D01*
X151836Y-98000D01*
X151696Y-97297D01*
X151298Y-96702D01*
X150703Y-96304D01*
X150000Y-96164D01*
D02*
G37*
G36*
X70189Y-94218D02*
X69210Y-94347D01*
X68298Y-94725D01*
X67515Y-95326D01*
X66914Y-96109D01*
X66536Y-97021D01*
X66407Y-98000D01*
X66536Y-98979D01*
X66914Y-99891D01*
X67515Y-100674D01*
X68298Y-101275D01*
X69210Y-101653D01*
X70189Y-101782D01*
X71168Y-101653D01*
X72080Y-101275D01*
X72863Y-100674D01*
X73464Y-99891D01*
X73842Y-98979D01*
X73971Y-98000D01*
X73842Y-97021D01*
X73464Y-96109D01*
X72863Y-95326D01*
X72080Y-94725D01*
X71168Y-94347D01*
X70189Y-94218D01*
D02*
G37*
G36*
X91000Y-98164D02*
X90297Y-98304D01*
X89702Y-98702D01*
X89304Y-99297D01*
X89164Y-100000D01*
X89304Y-100703D01*
X89702Y-101298D01*
X90297Y-101696D01*
X91000Y-101836D01*
X91703Y-101696D01*
X92298Y-101298D01*
X92696Y-100703D01*
X92836Y-100000D01*
X92696Y-99297D01*
X92298Y-98702D01*
X91703Y-98304D01*
X91000Y-98164D01*
D02*
G37*
G36*
X200000Y-101664D02*
X199297Y-101804D01*
X198702Y-102202D01*
X198384Y-102678D01*
X197966Y-102743D01*
X197810Y-102719D01*
X197798Y-102702D01*
X197203Y-102304D01*
X196500Y-102164D01*
X195797Y-102304D01*
X195202Y-102702D01*
X194804Y-103297D01*
X194755Y-103543D01*
X194245D01*
X194196Y-103297D01*
X193798Y-102702D01*
X193203Y-102304D01*
X192500Y-102164D01*
X191797Y-102304D01*
X191202Y-102702D01*
X190804Y-103297D01*
X190664Y-104000D01*
X190804Y-104703D01*
X191202Y-105298D01*
X191797Y-105696D01*
X192500Y-105836D01*
X193203Y-105696D01*
X193798Y-105298D01*
X194196Y-104703D01*
X194245Y-104457D01*
X194755D01*
X194804Y-104703D01*
X195202Y-105298D01*
X195797Y-105696D01*
X196500Y-105836D01*
X197203Y-105696D01*
X197798Y-105298D01*
X198116Y-104822D01*
X198534Y-104756D01*
X198690Y-104781D01*
X198702Y-104798D01*
X199297Y-105196D01*
X200000Y-105336D01*
X200703Y-105196D01*
X201298Y-104798D01*
X201696Y-104203D01*
X201836Y-103500D01*
X201696Y-102797D01*
X201298Y-102202D01*
X200703Y-101804D01*
X200000Y-101664D01*
D02*
G37*
G36*
X159000Y-101164D02*
X158297Y-101304D01*
X157702Y-101702D01*
X157304Y-102297D01*
X157164Y-103000D01*
X157304Y-103703D01*
X157702Y-104298D01*
X158297Y-104696D01*
X159000Y-104836D01*
X159703Y-104696D01*
X160298Y-104298D01*
X160696Y-103703D01*
X160836Y-103000D01*
X160696Y-102297D01*
X160298Y-101702D01*
X159703Y-101304D01*
X159000Y-101164D01*
D02*
G37*
G36*
X204500Y-101664D02*
X203797Y-101804D01*
X203202Y-102202D01*
X202804Y-102797D01*
X202664Y-103500D01*
X202804Y-104203D01*
X203202Y-104798D01*
X203797Y-105196D01*
X204500Y-105336D01*
X205203Y-105196D01*
X205798Y-104798D01*
X206196Y-104203D01*
X206336Y-103500D01*
X206196Y-102797D01*
X205798Y-102202D01*
X205203Y-101804D01*
X204500Y-101664D01*
D02*
G37*
G36*
X214500Y-102164D02*
X213797Y-102304D01*
X213202Y-102702D01*
X212804Y-103297D01*
X212664Y-104000D01*
X212804Y-104703D01*
X213202Y-105298D01*
X213797Y-105696D01*
X214500Y-105836D01*
X215203Y-105696D01*
X215798Y-105298D01*
X216196Y-104703D01*
X216336Y-104000D01*
X216196Y-103297D01*
X215798Y-102702D01*
X215203Y-102304D01*
X214500Y-102164D01*
D02*
G37*
G36*
X260000Y-97664D02*
X259297Y-97804D01*
X258702Y-98202D01*
X258304Y-98797D01*
X258164Y-99500D01*
X258304Y-100203D01*
X258702Y-100798D01*
X259297Y-101196D01*
X260000Y-101336D01*
X260703Y-101196D01*
X260876Y-101081D01*
X260991Y-101139D01*
X261281Y-101411D01*
X261164Y-102000D01*
X261304Y-102703D01*
X261702Y-103298D01*
X262297Y-103696D01*
X262903Y-103817D01*
X262981Y-103916D01*
X263064Y-104093D01*
X263122Y-104322D01*
X262804Y-104797D01*
X262664Y-105500D01*
X262804Y-106203D01*
X263202Y-106798D01*
X263797Y-107196D01*
X264500Y-107336D01*
X265203Y-107196D01*
X265798Y-106798D01*
X266196Y-106203D01*
X266336Y-105500D01*
X266196Y-104797D01*
X265798Y-104202D01*
X265203Y-103804D01*
X264597Y-103683D01*
X264520Y-103584D01*
X264436Y-103407D01*
X264378Y-103178D01*
X264696Y-102703D01*
X264836Y-102000D01*
X264696Y-101297D01*
X264298Y-100702D01*
X263703Y-100304D01*
X263000Y-100164D01*
X262297Y-100304D01*
X262124Y-100419D01*
X262009Y-100361D01*
X261719Y-100089D01*
X261836Y-99500D01*
X261696Y-98797D01*
X261298Y-98202D01*
X260703Y-97804D01*
X260000Y-97664D01*
D02*
G37*
G36*
X251000Y-99321D02*
X249918Y-99463D01*
X248910Y-99881D01*
X248045Y-100545D01*
X247381Y-101410D01*
X246963Y-102418D01*
X246821Y-103500D01*
X246963Y-104582D01*
X247381Y-105589D01*
X248045Y-106455D01*
X248910Y-107119D01*
X249918Y-107537D01*
X251000Y-107679D01*
X252082Y-107537D01*
X253089Y-107119D01*
X253955Y-106455D01*
X254619Y-105589D01*
X255037Y-104582D01*
X255179Y-103500D01*
X255037Y-102418D01*
X254619Y-101410D01*
X253955Y-100545D01*
X253089Y-99881D01*
X252082Y-99463D01*
X251000Y-99321D01*
D02*
G37*
G36*
X242500Y-104164D02*
X241797Y-104304D01*
X241202Y-104702D01*
X240804Y-105297D01*
X240664Y-106000D01*
X240804Y-106703D01*
X241202Y-107298D01*
X241797Y-107696D01*
X242500Y-107836D01*
X243203Y-107696D01*
X243798Y-107298D01*
X244196Y-106703D01*
X244336Y-106000D01*
X244196Y-105297D01*
X243798Y-104702D01*
X243203Y-104304D01*
X242500Y-104164D01*
D02*
G37*
G36*
X134500D02*
X133797Y-104304D01*
X133202Y-104702D01*
X132804Y-105297D01*
X132664Y-106000D01*
X132804Y-106703D01*
X133202Y-107298D01*
X133797Y-107696D01*
X134500Y-107836D01*
X135203Y-107696D01*
X135798Y-107298D01*
X136196Y-106703D01*
X136336Y-106000D01*
X136196Y-105297D01*
X135798Y-104702D01*
X135203Y-104304D01*
X134500Y-104164D01*
D02*
G37*
G36*
X236000Y-104664D02*
X235297Y-104804D01*
X234702Y-105202D01*
X234304Y-105797D01*
X234164Y-106500D01*
X234304Y-107203D01*
X234702Y-107798D01*
X235297Y-108196D01*
X236000Y-108336D01*
X236703Y-108196D01*
X237298Y-107798D01*
X237696Y-107203D01*
X237836Y-106500D01*
X237696Y-105797D01*
X237298Y-105202D01*
X236703Y-104804D01*
X236000Y-104664D01*
D02*
G37*
G36*
X35500Y-99424D02*
X34316Y-99580D01*
X33212Y-100037D01*
X32264Y-100764D01*
X31537Y-101712D01*
X31080Y-102816D01*
X30924Y-104000D01*
X31080Y-105184D01*
X31537Y-106288D01*
X32264Y-107236D01*
X33212Y-107963D01*
X34316Y-108420D01*
X35500Y-108576D01*
X36684Y-108420D01*
X37788Y-107963D01*
X38736Y-107236D01*
X39463Y-106288D01*
X39920Y-105184D01*
X40076Y-104000D01*
X39920Y-102816D01*
X39463Y-101712D01*
X38736Y-100764D01*
X37788Y-100037D01*
X36684Y-99580D01*
X35500Y-99424D01*
D02*
G37*
G36*
X152000Y-107164D02*
X151297Y-107304D01*
X150702Y-107702D01*
X150304Y-108297D01*
X150164Y-109000D01*
X150304Y-109703D01*
X150702Y-110298D01*
X151297Y-110696D01*
X152000Y-110836D01*
X152703Y-110696D01*
X153298Y-110298D01*
X153696Y-109703D01*
X153836Y-109000D01*
X153696Y-108297D01*
X153298Y-107702D01*
X152703Y-107304D01*
X152000Y-107164D01*
D02*
G37*
G36*
X329500Y-108164D02*
X328797Y-108304D01*
X328202Y-108702D01*
X327804Y-109297D01*
X327664Y-110000D01*
X327804Y-110703D01*
X328202Y-111298D01*
X328797Y-111696D01*
X329500Y-111836D01*
X330203Y-111696D01*
X330798Y-111298D01*
X331196Y-110703D01*
X331336Y-110000D01*
X331196Y-109297D01*
X330798Y-108702D01*
X330203Y-108304D01*
X329500Y-108164D01*
D02*
G37*
G36*
X133000Y-109664D02*
X132297Y-109804D01*
X131702Y-110202D01*
X131304Y-110797D01*
X131164Y-111500D01*
X131304Y-112203D01*
X131702Y-112798D01*
X132297Y-113196D01*
X133000Y-113336D01*
X133703Y-113196D01*
X134298Y-112798D01*
X134696Y-112203D01*
X134836Y-111500D01*
X134696Y-110797D01*
X134298Y-110202D01*
X133703Y-109804D01*
X133000Y-109664D01*
D02*
G37*
G36*
X260500Y-110164D02*
X259797Y-110304D01*
X259202Y-110702D01*
X258804Y-111297D01*
X258664Y-112000D01*
X258804Y-112703D01*
X259202Y-113298D01*
X259797Y-113696D01*
X260500Y-113836D01*
X261203Y-113696D01*
X261798Y-113298D01*
X262196Y-112703D01*
X262336Y-112000D01*
X262196Y-111297D01*
X261798Y-110702D01*
X261203Y-110304D01*
X260500Y-110164D01*
D02*
G37*
G36*
X159000Y-106164D02*
X158297Y-106304D01*
X157702Y-106702D01*
X157304Y-107297D01*
X157164Y-108000D01*
X157304Y-108703D01*
X157702Y-109298D01*
X158295Y-109695D01*
X158297Y-109705D01*
X158293Y-110205D01*
X157797Y-110304D01*
X157202Y-110702D01*
X156804Y-111297D01*
X156664Y-112000D01*
X156804Y-112703D01*
X157202Y-113298D01*
X157797Y-113696D01*
X158500Y-113836D01*
X159203Y-113696D01*
X159798Y-113298D01*
X160196Y-112703D01*
X160336Y-112000D01*
X160196Y-111297D01*
X159798Y-110702D01*
X159205Y-110305D01*
X159203Y-110295D01*
X159207Y-109795D01*
X159703Y-109696D01*
X160298Y-109298D01*
X160696Y-108703D01*
X160836Y-108000D01*
X160696Y-107297D01*
X160298Y-106702D01*
X159703Y-106304D01*
X159000Y-106164D01*
D02*
G37*
G36*
X233500Y-112664D02*
X232797Y-112804D01*
X232202Y-113202D01*
X231804Y-113797D01*
X231664Y-114500D01*
X231804Y-115203D01*
X232202Y-115798D01*
X232797Y-116196D01*
X233500Y-116336D01*
X234203Y-116196D01*
X234798Y-115798D01*
X235196Y-115203D01*
X235336Y-114500D01*
X235196Y-113797D01*
X234798Y-113202D01*
X234203Y-112804D01*
X233500Y-112664D01*
D02*
G37*
G36*
X153500Y-113164D02*
X152797Y-113304D01*
X152202Y-113702D01*
X151804Y-114297D01*
X151664Y-115000D01*
X151804Y-115703D01*
X152202Y-116298D01*
X152797Y-116696D01*
X153500Y-116836D01*
X154203Y-116696D01*
X154798Y-116298D01*
X155196Y-115703D01*
X155336Y-115000D01*
X155196Y-114297D01*
X154798Y-113702D01*
X154203Y-113304D01*
X153500Y-113164D01*
D02*
G37*
G36*
X177000Y-113664D02*
X176297Y-113804D01*
X175702Y-114202D01*
X175304Y-114797D01*
X175164Y-115500D01*
X175304Y-116203D01*
X175702Y-116798D01*
X176297Y-117196D01*
X177000Y-117336D01*
X177703Y-117196D01*
X178298Y-116798D01*
X178696Y-116203D01*
X178836Y-115500D01*
X178696Y-114797D01*
X178298Y-114202D01*
X177703Y-113804D01*
X177000Y-113664D01*
D02*
G37*
G36*
X251000Y-109321D02*
X249918Y-109463D01*
X248910Y-109881D01*
X248045Y-110545D01*
X247381Y-111410D01*
X246963Y-112418D01*
X246821Y-113500D01*
X246963Y-114582D01*
X247381Y-115589D01*
X248045Y-116455D01*
X248910Y-117119D01*
X249918Y-117537D01*
X251000Y-117679D01*
X252082Y-117537D01*
X253089Y-117119D01*
X253955Y-116455D01*
X254619Y-115589D01*
X255037Y-114582D01*
X255179Y-113500D01*
X255037Y-112418D01*
X254619Y-111410D01*
X253955Y-110545D01*
X253089Y-109881D01*
X252082Y-109463D01*
X251000Y-109321D01*
D02*
G37*
G36*
X172500Y-116664D02*
X171797Y-116804D01*
X171202Y-117202D01*
X170804Y-117797D01*
X170755Y-118043D01*
X170245D01*
X170196Y-117797D01*
X169798Y-117202D01*
X169203Y-116804D01*
X168500Y-116664D01*
X167797Y-116804D01*
X167202Y-117202D01*
X166804Y-117797D01*
X166664Y-118500D01*
X166804Y-119203D01*
X167202Y-119798D01*
X167797Y-120196D01*
X168500Y-120336D01*
X169203Y-120196D01*
X169798Y-119798D01*
X170196Y-119203D01*
X170245Y-118957D01*
X170755D01*
X170804Y-119203D01*
X171202Y-119798D01*
X171797Y-120196D01*
X172500Y-120336D01*
X173203Y-120196D01*
X173798Y-119798D01*
X174196Y-119203D01*
X174336Y-118500D01*
X174196Y-117797D01*
X173798Y-117202D01*
X173203Y-116804D01*
X172500Y-116664D01*
D02*
G37*
G36*
X35500Y-109424D02*
X34316Y-109580D01*
X33212Y-110037D01*
X32264Y-110764D01*
X31537Y-111712D01*
X31080Y-112816D01*
X30924Y-114000D01*
X31080Y-115184D01*
X31537Y-116288D01*
X32264Y-117236D01*
X33212Y-117963D01*
X34316Y-118420D01*
X35500Y-118576D01*
X36684Y-118420D01*
X37788Y-117963D01*
X38736Y-117236D01*
X39463Y-116288D01*
X39920Y-115184D01*
X40076Y-114000D01*
X39920Y-112816D01*
X39463Y-111712D01*
X38736Y-110764D01*
X37788Y-110037D01*
X36684Y-109580D01*
X35500Y-109424D01*
D02*
G37*
G36*
X100400Y-115064D02*
X99697Y-115204D01*
X99102Y-115602D01*
X98704Y-116197D01*
X98564Y-116900D01*
X98704Y-117603D01*
X99102Y-118198D01*
X99697Y-118596D01*
X100400Y-118736D01*
X101103Y-118596D01*
X101698Y-118198D01*
X102096Y-117603D01*
X102236Y-116900D01*
X102096Y-116197D01*
X101698Y-115602D01*
X101103Y-115204D01*
X100400Y-115064D01*
D02*
G37*
G36*
X91000Y-115164D02*
X90297Y-115304D01*
X89702Y-115702D01*
X89304Y-116297D01*
X89164Y-117000D01*
X89304Y-117703D01*
X89702Y-118298D01*
X90297Y-118696D01*
X91000Y-118836D01*
X91703Y-118696D01*
X92298Y-118298D01*
X92696Y-117703D01*
X92836Y-117000D01*
X92696Y-116297D01*
X92298Y-115702D01*
X91703Y-115304D01*
X91000Y-115164D01*
D02*
G37*
G36*
X297406Y-111619D02*
X296401Y-111751D01*
X295465Y-112139D01*
X294661Y-112756D01*
X294044Y-113559D01*
X293656Y-114496D01*
X293524Y-115500D01*
X293656Y-116505D01*
X294044Y-117441D01*
X294661Y-118244D01*
X295465Y-118861D01*
X296401Y-119249D01*
X297406Y-119381D01*
X298410Y-119249D01*
X299346Y-118861D01*
X300150Y-118244D01*
X300767Y-117441D01*
X301154Y-116505D01*
X301287Y-115500D01*
X301154Y-114496D01*
X300767Y-113559D01*
X300150Y-112756D01*
X299346Y-112139D01*
X298410Y-111751D01*
X297406Y-111619D01*
D02*
G37*
G36*
X105400Y-115732D02*
X104697Y-115872D01*
X104102Y-116270D01*
X103704Y-116866D01*
X103564Y-117569D01*
X103704Y-118271D01*
X104102Y-118867D01*
X104697Y-119265D01*
X105400Y-119404D01*
X106103Y-119265D01*
X106698Y-118867D01*
X107096Y-118271D01*
X107236Y-117569D01*
X107096Y-116866D01*
X106698Y-116270D01*
X106103Y-115872D01*
X105400Y-115732D01*
D02*
G37*
G36*
X152500Y-117664D02*
X151797Y-117804D01*
X151202Y-118202D01*
X150804Y-118797D01*
X150664Y-119500D01*
X150804Y-120203D01*
X151202Y-120798D01*
X151797Y-121196D01*
X152500Y-121336D01*
X153203Y-121196D01*
X153798Y-120798D01*
X154196Y-120203D01*
X154336Y-119500D01*
X154196Y-118797D01*
X153798Y-118202D01*
X153203Y-117804D01*
X152500Y-117664D01*
D02*
G37*
G36*
X214000Y-118164D02*
X213297Y-118304D01*
X212702Y-118702D01*
X212304Y-119297D01*
X212164Y-120000D01*
X212304Y-120703D01*
X212702Y-121298D01*
X213297Y-121696D01*
X214000Y-121836D01*
X214703Y-121696D01*
X215298Y-121298D01*
X215696Y-120703D01*
X215836Y-120000D01*
X215696Y-119297D01*
X215298Y-118702D01*
X214703Y-118304D01*
X214000Y-118164D01*
D02*
G37*
G36*
X218500Y-119164D02*
X217797Y-119304D01*
X217202Y-119702D01*
X216804Y-120297D01*
X216664Y-121000D01*
X216804Y-121703D01*
X217202Y-122298D01*
X217797Y-122696D01*
X218500Y-122836D01*
X219203Y-122696D01*
X219798Y-122298D01*
X220196Y-121703D01*
X220336Y-121000D01*
X220196Y-120297D01*
X219798Y-119702D01*
X219203Y-119304D01*
X218500Y-119164D01*
D02*
G37*
G36*
X146500D02*
X145797Y-119304D01*
X145202Y-119702D01*
X144804Y-120297D01*
X144664Y-121000D01*
X144804Y-121703D01*
X145202Y-122298D01*
X145797Y-122696D01*
X146500Y-122836D01*
X147203Y-122696D01*
X147798Y-122298D01*
X148196Y-121703D01*
X148336Y-121000D01*
X148196Y-120297D01*
X147798Y-119702D01*
X147203Y-119304D01*
X146500Y-119164D01*
D02*
G37*
G36*
X368000Y-119664D02*
X367297Y-119804D01*
X366702Y-120202D01*
X366304Y-120797D01*
X366164Y-121500D01*
X366304Y-122203D01*
X366702Y-122798D01*
X367297Y-123196D01*
X368000Y-123336D01*
X368703Y-123196D01*
X369298Y-122798D01*
X369696Y-122203D01*
X369836Y-121500D01*
X369696Y-120797D01*
X369298Y-120202D01*
X368703Y-119804D01*
X368000Y-119664D01*
D02*
G37*
G36*
X183500D02*
X182797Y-119804D01*
X182202Y-120202D01*
X181804Y-120797D01*
X181664Y-121500D01*
X181804Y-122203D01*
X182202Y-122798D01*
X182797Y-123196D01*
X183500Y-123336D01*
X184203Y-123196D01*
X184798Y-122798D01*
X185196Y-122203D01*
X185336Y-121500D01*
X185196Y-120797D01*
X184798Y-120202D01*
X184203Y-119804D01*
X183500Y-119664D01*
D02*
G37*
G36*
X188718Y-120036D02*
X188016Y-120176D01*
X187420Y-120574D01*
X187022Y-121169D01*
X186882Y-121872D01*
X187022Y-122574D01*
X187420Y-123170D01*
X188016Y-123568D01*
X188718Y-123708D01*
X189421Y-123568D01*
X190017Y-123170D01*
X190415Y-122574D01*
X190554Y-121872D01*
X190415Y-121169D01*
X190017Y-120574D01*
X189421Y-120176D01*
X188718Y-120036D01*
D02*
G37*
G36*
X159000Y-120664D02*
X158297Y-120804D01*
X157702Y-121202D01*
X157304Y-121797D01*
X157164Y-122500D01*
X157304Y-123203D01*
X157702Y-123798D01*
X158297Y-124196D01*
X159000Y-124336D01*
X159703Y-124196D01*
X160298Y-123798D01*
X160696Y-123203D01*
X160836Y-122500D01*
X160696Y-121797D01*
X160298Y-121202D01*
X159703Y-120804D01*
X159000Y-120664D01*
D02*
G37*
G36*
X228500Y-121164D02*
X227797Y-121304D01*
X227202Y-121702D01*
X226804Y-122297D01*
X226664Y-123000D01*
X226804Y-123703D01*
X227202Y-124298D01*
X227797Y-124696D01*
X228500Y-124836D01*
X229203Y-124696D01*
X229798Y-124298D01*
X230196Y-123703D01*
X230336Y-123000D01*
X230196Y-122297D01*
X229798Y-121702D01*
X229203Y-121304D01*
X228500Y-121164D01*
D02*
G37*
G36*
X335935Y-122099D02*
X335232Y-122239D01*
X334637Y-122637D01*
X334239Y-123232D01*
X334099Y-123935D01*
X334239Y-124638D01*
X334637Y-125233D01*
X335232Y-125631D01*
X335935Y-125771D01*
X336638Y-125631D01*
X337233Y-125233D01*
X337632Y-124638D01*
X337771Y-123935D01*
X337632Y-123232D01*
X337233Y-122637D01*
X336638Y-122239D01*
X335935Y-122099D01*
D02*
G37*
G36*
X205000Y-122164D02*
X204297Y-122304D01*
X203702Y-122702D01*
X203304Y-123297D01*
X203164Y-124000D01*
X203304Y-124703D01*
X203702Y-125298D01*
X204297Y-125696D01*
X205000Y-125836D01*
X205703Y-125696D01*
X206298Y-125298D01*
X206696Y-124703D01*
X206836Y-124000D01*
X206696Y-123297D01*
X206298Y-122702D01*
X205703Y-122304D01*
X205000Y-122164D01*
D02*
G37*
G36*
X176000D02*
X175297Y-122304D01*
X174702Y-122702D01*
X174304Y-123297D01*
X174164Y-124000D01*
X174304Y-124703D01*
X174702Y-125298D01*
X175297Y-125696D01*
X176000Y-125836D01*
X176703Y-125696D01*
X177298Y-125298D01*
X177696Y-124703D01*
X177836Y-124000D01*
X177696Y-123297D01*
X177298Y-122702D01*
X176703Y-122304D01*
X176000Y-122164D01*
D02*
G37*
G36*
X306827Y-122337D02*
X306124Y-122477D01*
X305528Y-122875D01*
X305131Y-123471D01*
X304991Y-124173D01*
X305131Y-124876D01*
X305528Y-125471D01*
X306124Y-125870D01*
X306827Y-126009D01*
X307529Y-125870D01*
X308125Y-125471D01*
X308523Y-124876D01*
X308663Y-124173D01*
X308523Y-123471D01*
X308125Y-122875D01*
X307529Y-122477D01*
X306827Y-122337D01*
D02*
G37*
G36*
X153000Y-122664D02*
X152297Y-122804D01*
X151702Y-123202D01*
X151304Y-123797D01*
X151164Y-124500D01*
X151304Y-125203D01*
X151702Y-125798D01*
X152297Y-126196D01*
X153000Y-126336D01*
X153703Y-126196D01*
X154298Y-125798D01*
X154696Y-125203D01*
X154836Y-124500D01*
X154696Y-123797D01*
X154298Y-123202D01*
X153703Y-122804D01*
X153000Y-122664D01*
D02*
G37*
G36*
X251000Y-119321D02*
X249918Y-119463D01*
X248910Y-119881D01*
X248045Y-120545D01*
X247381Y-121411D01*
X246963Y-122418D01*
X246821Y-123500D01*
X246963Y-124582D01*
X247381Y-125590D01*
X248045Y-126455D01*
X248910Y-127119D01*
X249918Y-127537D01*
X251000Y-127679D01*
X252082Y-127537D01*
X253089Y-127119D01*
X253955Y-126455D01*
X254619Y-125590D01*
X255037Y-124582D01*
X255179Y-123500D01*
X255037Y-122418D01*
X254619Y-121411D01*
X253955Y-120545D01*
X253089Y-119881D01*
X252082Y-119463D01*
X251000Y-119321D01*
D02*
G37*
G36*
X297406Y-121619D02*
X296401Y-121751D01*
X295465Y-122139D01*
X294661Y-122756D01*
X294044Y-123559D01*
X293656Y-124495D01*
X293524Y-125500D01*
X293656Y-126505D01*
X294044Y-127441D01*
X294661Y-128244D01*
X295465Y-128861D01*
X296401Y-129249D01*
X297406Y-129381D01*
X298410Y-129249D01*
X299346Y-128861D01*
X300150Y-128244D01*
X300767Y-127441D01*
X301154Y-126505D01*
X301287Y-125500D01*
X301154Y-124495D01*
X300767Y-123559D01*
X300150Y-122756D01*
X299346Y-122139D01*
X298410Y-121751D01*
X297406Y-121619D01*
D02*
G37*
G36*
X125458Y-123900D02*
X121858D01*
X120057Y-125700D01*
Y-129300D01*
X121858Y-131100D01*
X125458D01*
X127258Y-129300D01*
Y-125700D01*
X125458Y-123900D01*
D02*
G37*
G36*
X143342Y-123869D02*
X142403Y-123993D01*
X141527Y-124355D01*
X140775Y-124932D01*
X140198Y-125684D01*
X139835Y-126560D01*
X139711Y-127500D01*
X139835Y-128440D01*
X140198Y-129315D01*
X140775Y-130068D01*
X141527Y-130645D01*
X142403Y-131007D01*
X143342Y-131131D01*
X144282Y-131007D01*
X145158Y-130645D01*
X145910Y-130068D01*
X146487Y-129315D01*
X146850Y-128440D01*
X146974Y-127500D01*
X146850Y-126560D01*
X146487Y-125684D01*
X145910Y-124932D01*
X145158Y-124355D01*
X144282Y-123993D01*
X143342Y-123869D01*
D02*
G37*
G36*
X324500Y-127664D02*
X323797Y-127804D01*
X323202Y-128202D01*
X322804Y-128797D01*
X322664Y-129500D01*
X322804Y-130203D01*
X323202Y-130798D01*
X323797Y-131196D01*
X324500Y-131336D01*
X325203Y-131196D01*
X325798Y-130798D01*
X326196Y-130203D01*
X326336Y-129500D01*
X326196Y-128797D01*
X325798Y-128202D01*
X325203Y-127804D01*
X324500Y-127664D01*
D02*
G37*
G36*
X315000D02*
X314297Y-127804D01*
X313702Y-128202D01*
X313304Y-128797D01*
X313164Y-129500D01*
X313304Y-130203D01*
X313702Y-130798D01*
X314297Y-131196D01*
X315000Y-131336D01*
X315703Y-131196D01*
X316298Y-130798D01*
X316696Y-130203D01*
X316836Y-129500D01*
X316696Y-128797D01*
X316298Y-128202D01*
X315703Y-127804D01*
X315000Y-127664D01*
D02*
G37*
G36*
X216000Y-133664D02*
X215297Y-133804D01*
X214702Y-134202D01*
X214304Y-134797D01*
X214164Y-135500D01*
X214304Y-136203D01*
X214702Y-136798D01*
X215297Y-137196D01*
X216000Y-137336D01*
X216703Y-137196D01*
X217298Y-136798D01*
X217696Y-136203D01*
X217836Y-135500D01*
X217696Y-134797D01*
X217298Y-134202D01*
X216703Y-133804D01*
X216000Y-133664D01*
D02*
G37*
G36*
X251000Y-129321D02*
X249918Y-129463D01*
X248910Y-129881D01*
X248045Y-130545D01*
X247381Y-131411D01*
X246963Y-132418D01*
X246821Y-133500D01*
X246963Y-134582D01*
X247381Y-135590D01*
X248045Y-136455D01*
X248910Y-137119D01*
X249918Y-137537D01*
X251000Y-137679D01*
X252082Y-137537D01*
X253089Y-137119D01*
X253955Y-136455D01*
X254619Y-135590D01*
X255037Y-134582D01*
X255179Y-133500D01*
X255037Y-132418D01*
X254619Y-131411D01*
X253955Y-130545D01*
X253089Y-129881D01*
X252082Y-129463D01*
X251000Y-129321D01*
D02*
G37*
G36*
X355500Y-135164D02*
X354797Y-135304D01*
X354202Y-135702D01*
X353804Y-136297D01*
X353664Y-137000D01*
X353804Y-137703D01*
X354202Y-138298D01*
X354797Y-138696D01*
X355500Y-138836D01*
X356203Y-138696D01*
X356798Y-138298D01*
X357196Y-137703D01*
X357336Y-137000D01*
X357196Y-136297D01*
X356798Y-135702D01*
X356203Y-135304D01*
X355500Y-135164D01*
D02*
G37*
G36*
X301254Y-131652D02*
X293558D01*
Y-139348D01*
X301254D01*
Y-131652D01*
D02*
G37*
G36*
X170000Y-136164D02*
X169297Y-136304D01*
X168702Y-136702D01*
X168304Y-137297D01*
X168164Y-138000D01*
X168304Y-138703D01*
X168702Y-139298D01*
X169297Y-139696D01*
X170000Y-139836D01*
X170703Y-139696D01*
X171298Y-139298D01*
X171696Y-138703D01*
X171836Y-138000D01*
X171696Y-137297D01*
X171298Y-136702D01*
X170703Y-136304D01*
X170000Y-136164D01*
D02*
G37*
G36*
X159000D02*
X158297Y-136304D01*
X157702Y-136702D01*
X157304Y-137297D01*
X157164Y-138000D01*
X157304Y-138703D01*
X157702Y-139298D01*
X158297Y-139696D01*
X159000Y-139836D01*
X159703Y-139696D01*
X160298Y-139298D01*
X160696Y-138703D01*
X160836Y-138000D01*
X160696Y-137297D01*
X160298Y-136702D01*
X159703Y-136304D01*
X159000Y-136164D01*
D02*
G37*
G36*
X181500Y-136664D02*
X180797Y-136804D01*
X180202Y-137202D01*
X179804Y-137797D01*
X179664Y-138500D01*
X179804Y-139203D01*
X180202Y-139798D01*
X180797Y-140196D01*
X181500Y-140336D01*
X182203Y-140196D01*
X182798Y-139798D01*
X183196Y-139203D01*
X183336Y-138500D01*
X183196Y-137797D01*
X182798Y-137202D01*
X182203Y-136804D01*
X181500Y-136664D01*
D02*
G37*
G36*
X193500Y-137164D02*
X192797Y-137304D01*
X192202Y-137702D01*
X191804Y-138297D01*
X191664Y-139000D01*
X191804Y-139703D01*
X192202Y-140298D01*
X192797Y-140696D01*
X193500Y-140836D01*
X194203Y-140696D01*
X194798Y-140298D01*
X195196Y-139703D01*
X195336Y-139000D01*
X195196Y-138297D01*
X194798Y-137702D01*
X194203Y-137304D01*
X193500Y-137164D01*
D02*
G37*
G36*
X269376Y-139788D02*
X268673Y-139928D01*
X268078Y-140326D01*
X267680Y-140921D01*
X267540Y-141624D01*
X267680Y-142327D01*
X268078Y-142922D01*
X268673Y-143320D01*
X269376Y-143460D01*
X270079Y-143320D01*
X270674Y-142922D01*
X271072Y-142327D01*
X271212Y-141624D01*
X271072Y-140921D01*
X270674Y-140326D01*
X270079Y-139928D01*
X269376Y-139788D01*
D02*
G37*
G36*
X124000Y-135321D02*
X122918Y-135463D01*
X121911Y-135881D01*
X121045Y-136545D01*
X120381Y-137410D01*
X119963Y-138418D01*
X119821Y-139500D01*
X119963Y-140582D01*
X120381Y-141589D01*
X121045Y-142455D01*
X121911Y-143119D01*
X122918Y-143537D01*
X124000Y-143679D01*
X125082Y-143537D01*
X126090Y-143119D01*
X126955Y-142455D01*
X127619Y-141589D01*
X128037Y-140582D01*
X128179Y-139500D01*
X128037Y-138418D01*
X127619Y-137410D01*
X126955Y-136545D01*
X126090Y-135881D01*
X125082Y-135463D01*
X124000Y-135321D01*
D02*
G37*
G36*
X112469D02*
X111387Y-135463D01*
X110379Y-135881D01*
X109513Y-136545D01*
X108849Y-137410D01*
X108432Y-138418D01*
X108290Y-139500D01*
X108432Y-140582D01*
X108849Y-141589D01*
X109513Y-142455D01*
X110379Y-143119D01*
X111387Y-143537D01*
X112469Y-143679D01*
X113550Y-143537D01*
X114558Y-143119D01*
X115424Y-142455D01*
X116088Y-141589D01*
X116505Y-140582D01*
X116648Y-139500D01*
X116505Y-138418D01*
X116088Y-137410D01*
X115424Y-136545D01*
X114558Y-135881D01*
X113550Y-135463D01*
X112469Y-135321D01*
D02*
G37*
G36*
X100969D02*
X99887Y-135463D01*
X98879Y-135881D01*
X98014Y-136545D01*
X97349Y-137410D01*
X96932Y-138418D01*
X96789Y-139500D01*
X96932Y-140582D01*
X97349Y-141589D01*
X98014Y-142455D01*
X98879Y-143119D01*
X99887Y-143537D01*
X100969Y-143679D01*
X102050Y-143537D01*
X103058Y-143119D01*
X103923Y-142455D01*
X104588Y-141589D01*
X105005Y-140582D01*
X105148Y-139500D01*
X105005Y-138418D01*
X104588Y-137410D01*
X103923Y-136545D01*
X103058Y-135881D01*
X102050Y-135463D01*
X100969Y-135321D01*
D02*
G37*
G36*
X202500Y-140164D02*
X201797Y-140304D01*
X201202Y-140702D01*
X200804Y-141297D01*
X200664Y-142000D01*
X200804Y-142703D01*
X201202Y-143298D01*
X201797Y-143696D01*
X202500Y-143836D01*
X203203Y-143696D01*
X203798Y-143298D01*
X204196Y-142703D01*
X204336Y-142000D01*
X204196Y-141297D01*
X203798Y-140702D01*
X203203Y-140304D01*
X202500Y-140164D01*
D02*
G37*
G36*
X188000Y-141164D02*
X187297Y-141304D01*
X186702Y-141702D01*
X186304Y-142297D01*
X186164Y-143000D01*
X186304Y-143703D01*
X186702Y-144298D01*
X187297Y-144696D01*
X188000Y-144836D01*
X188703Y-144696D01*
X189298Y-144298D01*
X189696Y-143703D01*
X189836Y-143000D01*
X189696Y-142297D01*
X189298Y-141702D01*
X188703Y-141304D01*
X188000Y-141164D01*
D02*
G37*
G36*
X276000Y-143664D02*
X275297Y-143804D01*
X274702Y-144202D01*
X274304Y-144797D01*
X274164Y-145500D01*
X274304Y-146203D01*
X274702Y-146798D01*
X275297Y-147196D01*
X276000Y-147336D01*
X276703Y-147196D01*
X277298Y-146798D01*
X277696Y-146203D01*
X277836Y-145500D01*
X277696Y-144797D01*
X277298Y-144202D01*
X276703Y-143804D01*
X276000Y-143664D01*
D02*
G37*
G36*
X253658Y-139328D02*
X248342D01*
X247763Y-139443D01*
X247271Y-139771D01*
X246943Y-140263D01*
X246828Y-140842D01*
Y-146158D01*
X246943Y-146737D01*
X247271Y-147229D01*
X247763Y-147557D01*
X248342Y-147672D01*
X253658D01*
X254237Y-147557D01*
X254729Y-147229D01*
X255057Y-146737D01*
X255172Y-146158D01*
Y-140842D01*
X255057Y-140263D01*
X254729Y-139771D01*
X254237Y-139443D01*
X253658Y-139328D01*
D02*
G37*
G36*
X306500Y-144164D02*
X305797Y-144304D01*
X305202Y-144702D01*
X304804Y-145297D01*
X304664Y-146000D01*
X304804Y-146703D01*
X305202Y-147298D01*
X305797Y-147696D01*
X306500Y-147836D01*
X307203Y-147696D01*
X307798Y-147298D01*
X308196Y-146703D01*
X308336Y-146000D01*
X308196Y-145297D01*
X307798Y-144702D01*
X307203Y-144304D01*
X306500Y-144164D01*
D02*
G37*
G36*
X35500Y-139424D02*
X34316Y-139580D01*
X33212Y-140037D01*
X32264Y-140764D01*
X31537Y-141712D01*
X31080Y-142816D01*
X30924Y-144000D01*
X31080Y-145184D01*
X31537Y-146288D01*
X32264Y-147236D01*
X33212Y-147963D01*
X34316Y-148420D01*
X35500Y-148576D01*
X36684Y-148420D01*
X37788Y-147963D01*
X38736Y-147236D01*
X39463Y-146288D01*
X39920Y-145184D01*
X40076Y-144000D01*
X39920Y-142816D01*
X39463Y-141712D01*
X38736Y-140764D01*
X37788Y-140037D01*
X36684Y-139580D01*
X35500Y-139424D01*
D02*
G37*
G36*
X165884Y-147164D02*
X165181Y-147304D01*
X164586Y-147702D01*
X164188Y-148297D01*
X164048Y-149000D01*
X164188Y-149703D01*
X164586Y-150298D01*
X165181Y-150696D01*
X165884Y-150836D01*
X166586Y-150696D01*
X167182Y-150298D01*
X167580Y-149703D01*
X167720Y-149000D01*
X167580Y-148297D01*
X167182Y-147702D01*
X166586Y-147304D01*
X165884Y-147164D01*
D02*
G37*
G36*
X297000Y-148164D02*
X296297Y-148304D01*
X295702Y-148702D01*
X295304Y-149297D01*
X295164Y-150000D01*
X295304Y-150703D01*
X295702Y-151298D01*
X296297Y-151696D01*
X297000Y-151836D01*
X297703Y-151696D01*
X298298Y-151298D01*
X298696Y-150703D01*
X298836Y-150000D01*
X298696Y-149297D01*
X298298Y-148702D01*
X297703Y-148304D01*
X297000Y-148164D01*
D02*
G37*
G36*
X153000D02*
X152297Y-148304D01*
X151702Y-148702D01*
X151304Y-149297D01*
X151164Y-150000D01*
X151304Y-150703D01*
X151702Y-151298D01*
X152297Y-151696D01*
X153000Y-151836D01*
X153703Y-151696D01*
X154298Y-151298D01*
X154696Y-150703D01*
X154836Y-150000D01*
X154696Y-149297D01*
X154298Y-148702D01*
X153703Y-148304D01*
X153000Y-148164D01*
D02*
G37*
G36*
X126657Y-145328D02*
X121343D01*
X120763Y-145443D01*
X120271Y-145771D01*
X119943Y-146263D01*
X119828Y-146843D01*
Y-152157D01*
X119943Y-152737D01*
X120271Y-153229D01*
X120763Y-153557D01*
X121343Y-153672D01*
X126657D01*
X127237Y-153557D01*
X127729Y-153229D01*
X128057Y-152737D01*
X128172Y-152157D01*
Y-146843D01*
X128057Y-146263D01*
X127729Y-145771D01*
X127237Y-145443D01*
X126657Y-145328D01*
D02*
G37*
G36*
X115126D02*
X109811D01*
X109231Y-145443D01*
X108740Y-145771D01*
X108411Y-146263D01*
X108296Y-146843D01*
Y-152157D01*
X108411Y-152737D01*
X108740Y-153229D01*
X109231Y-153557D01*
X109811Y-153672D01*
X115126D01*
X115706Y-153557D01*
X116197Y-153229D01*
X116526Y-152737D01*
X116641Y-152157D01*
Y-146843D01*
X116526Y-146263D01*
X116197Y-145771D01*
X115706Y-145443D01*
X115126Y-145328D01*
D02*
G37*
G36*
X103626D02*
X98311D01*
X97731Y-145443D01*
X97240Y-145771D01*
X96911Y-146263D01*
X96796Y-146843D01*
Y-152157D01*
X96911Y-152737D01*
X97240Y-153229D01*
X97731Y-153557D01*
X98311Y-153672D01*
X103626D01*
X104206Y-153557D01*
X104697Y-153229D01*
X105026Y-152737D01*
X105141Y-152157D01*
Y-146843D01*
X105026Y-146263D01*
X104697Y-145771D01*
X104206Y-145443D01*
X103626Y-145328D01*
D02*
G37*
G36*
X173500Y-150664D02*
X172797Y-150804D01*
X172202Y-151202D01*
X171804Y-151797D01*
X171664Y-152500D01*
X171804Y-153203D01*
X172202Y-153798D01*
X172797Y-154196D01*
X173500Y-154336D01*
X174203Y-154196D01*
X174798Y-153798D01*
X175196Y-153203D01*
X175336Y-152500D01*
X175196Y-151797D01*
X174798Y-151202D01*
X174203Y-150804D01*
X173500Y-150664D01*
D02*
G37*
G36*
X204500Y-152164D02*
X203797Y-152304D01*
X203202Y-152702D01*
X202804Y-153297D01*
X202664Y-154000D01*
X202804Y-154703D01*
X203202Y-155298D01*
X203797Y-155696D01*
X204500Y-155836D01*
X205203Y-155696D01*
X205798Y-155298D01*
X206196Y-154703D01*
X206336Y-154000D01*
X206196Y-153297D01*
X205798Y-152702D01*
X205203Y-152304D01*
X204500Y-152164D01*
D02*
G37*
G36*
X35500Y-149424D02*
X34316Y-149580D01*
X33212Y-150037D01*
X32264Y-150764D01*
X31537Y-151712D01*
X31080Y-152816D01*
X30924Y-154000D01*
X31080Y-155184D01*
X31537Y-156288D01*
X32264Y-157236D01*
X33212Y-157963D01*
X34316Y-158420D01*
X35500Y-158576D01*
X36684Y-158420D01*
X37788Y-157963D01*
X38736Y-157236D01*
X39463Y-156288D01*
X39920Y-155184D01*
X40076Y-154000D01*
X39920Y-152816D01*
X39463Y-151712D01*
X38736Y-150764D01*
X37788Y-150037D01*
X36684Y-149580D01*
X35500Y-149424D01*
D02*
G37*
G36*
X296913Y-156251D02*
X296211Y-156390D01*
X295615Y-156788D01*
X295217Y-157384D01*
X295077Y-158087D01*
X295217Y-158789D01*
X295615Y-159385D01*
X296211Y-159783D01*
X296913Y-159923D01*
X297616Y-159783D01*
X298212Y-159385D01*
X298610Y-158789D01*
X298749Y-158087D01*
X298610Y-157384D01*
X298212Y-156788D01*
X297616Y-156390D01*
X296913Y-156251D01*
D02*
G37*
G36*
X269000Y-156664D02*
X268297Y-156804D01*
X267702Y-157202D01*
X267304Y-157797D01*
X267164Y-158500D01*
X267304Y-159203D01*
X267702Y-159798D01*
X268297Y-160196D01*
X269000Y-160336D01*
X269703Y-160196D01*
X270298Y-159798D01*
X270696Y-159203D01*
X270836Y-158500D01*
X270696Y-157797D01*
X270298Y-157202D01*
X269703Y-156804D01*
X269000Y-156664D01*
D02*
G37*
G36*
X188500Y-157164D02*
X187797Y-157304D01*
X187202Y-157702D01*
X186804Y-158297D01*
X186664Y-159000D01*
X186804Y-159703D01*
X187202Y-160298D01*
X187797Y-160696D01*
X188500Y-160836D01*
X189203Y-160696D01*
X189798Y-160298D01*
X190196Y-159703D01*
X190336Y-159000D01*
X190196Y-158297D01*
X189798Y-157702D01*
X189203Y-157304D01*
X188500Y-157164D01*
D02*
G37*
G36*
X263000Y-159164D02*
X262297Y-159304D01*
X261702Y-159702D01*
X261304Y-160297D01*
X261164Y-161000D01*
X261304Y-161703D01*
X261702Y-162298D01*
X262297Y-162696D01*
X263000Y-162836D01*
X263703Y-162696D01*
X264298Y-162298D01*
X264696Y-161703D01*
X264836Y-161000D01*
X264696Y-160297D01*
X264298Y-159702D01*
X263703Y-159304D01*
X263000Y-159164D01*
D02*
G37*
G36*
X285500Y-160664D02*
X284797Y-160804D01*
X284202Y-161202D01*
X283804Y-161797D01*
X283664Y-162500D01*
X283804Y-163203D01*
X284202Y-163798D01*
X284797Y-164196D01*
X285500Y-164336D01*
X286203Y-164196D01*
X286798Y-163798D01*
X287196Y-163203D01*
X287336Y-162500D01*
X287196Y-161797D01*
X286798Y-161202D01*
X286203Y-160804D01*
X285500Y-160664D01*
D02*
G37*
G36*
X138500Y-163376D02*
X137560Y-163500D01*
X136685Y-163863D01*
X135932Y-164440D01*
X135355Y-165192D01*
X134993Y-166068D01*
X134869Y-167008D01*
X134993Y-167947D01*
X135355Y-168823D01*
X135932Y-169575D01*
X136685Y-170152D01*
X137560Y-170515D01*
X138500Y-170639D01*
X139440Y-170515D01*
X140315Y-170152D01*
X141068Y-169575D01*
X141645Y-168823D01*
X142007Y-167947D01*
X142131Y-167008D01*
X142007Y-166068D01*
X141645Y-165192D01*
X141068Y-164440D01*
X140315Y-163863D01*
X139440Y-163500D01*
X138500Y-163376D01*
D02*
G37*
G36*
X127800Y-163558D02*
X124200D01*
X122400Y-165357D01*
Y-168957D01*
X124200Y-170757D01*
X127800D01*
X129600Y-168957D01*
Y-165357D01*
X127800Y-163558D01*
D02*
G37*
G36*
X289000Y-167164D02*
X288297Y-167304D01*
X287702Y-167702D01*
X287304Y-168297D01*
X287164Y-169000D01*
X287304Y-169703D01*
X287702Y-170298D01*
X288297Y-170696D01*
X289000Y-170836D01*
X289703Y-170696D01*
X290298Y-170298D01*
X290696Y-169703D01*
X290836Y-169000D01*
X290696Y-168297D01*
X290298Y-167702D01*
X289703Y-167304D01*
X289000Y-167164D01*
D02*
G37*
G36*
X202813Y-167477D02*
X202110Y-167617D01*
X201515Y-168015D01*
X201117Y-168610D01*
X200977Y-169313D01*
X201117Y-170016D01*
X201515Y-170611D01*
X202110Y-171009D01*
X202813Y-171149D01*
X203516Y-171009D01*
X204111Y-170611D01*
X204509Y-170016D01*
X204649Y-169313D01*
X204509Y-168610D01*
X204111Y-168015D01*
X203516Y-167617D01*
X202813Y-167477D01*
D02*
G37*
G36*
X251000Y-173664D02*
X250297Y-173804D01*
X249702Y-174202D01*
X249304Y-174797D01*
X249164Y-175500D01*
X249304Y-176203D01*
X249702Y-176798D01*
X250297Y-177196D01*
X251000Y-177336D01*
X251703Y-177196D01*
X252298Y-176798D01*
X252696Y-176203D01*
X252836Y-175500D01*
X252696Y-174797D01*
X252298Y-174202D01*
X251703Y-173804D01*
X251000Y-173664D01*
D02*
G37*
G36*
X271929Y-174235D02*
X271227Y-174374D01*
X270631Y-174773D01*
X270233Y-175368D01*
X270093Y-176071D01*
X270233Y-176774D01*
X270631Y-177369D01*
X271227Y-177767D01*
X271929Y-177907D01*
X272632Y-177767D01*
X273227Y-177369D01*
X273625Y-176774D01*
X273765Y-176071D01*
X273625Y-175368D01*
X273227Y-174773D01*
X272632Y-174374D01*
X271929Y-174235D01*
D02*
G37*
G36*
X138500Y-173219D02*
X137560Y-173343D01*
X136685Y-173705D01*
X135932Y-174282D01*
X135355Y-175034D01*
X134993Y-175910D01*
X134869Y-176850D01*
X134993Y-177790D01*
X135355Y-178665D01*
X135932Y-179418D01*
X136685Y-179995D01*
X137560Y-180357D01*
X138500Y-180481D01*
X139440Y-180357D01*
X140315Y-179995D01*
X141068Y-179418D01*
X141645Y-178665D01*
X142007Y-177790D01*
X142131Y-176850D01*
X142007Y-175910D01*
X141645Y-175034D01*
X141068Y-174282D01*
X140315Y-173705D01*
X139440Y-173343D01*
X138500Y-173219D01*
D02*
G37*
G36*
X126000Y-173369D02*
X125060Y-173493D01*
X124185Y-173855D01*
X123432Y-174432D01*
X122855Y-175185D01*
X122493Y-176060D01*
X122369Y-177000D01*
X122493Y-177940D01*
X122855Y-178815D01*
X123432Y-179568D01*
X124185Y-180145D01*
X125060Y-180507D01*
X126000Y-180631D01*
X126940Y-180507D01*
X127815Y-180145D01*
X128568Y-179568D01*
X129145Y-178815D01*
X129507Y-177940D01*
X129631Y-177000D01*
X129507Y-176060D01*
X129145Y-175185D01*
X128568Y-174432D01*
X127815Y-173855D01*
X126940Y-173493D01*
X126000Y-173369D01*
D02*
G37*
G36*
X258000Y-177664D02*
X257297Y-177804D01*
X256702Y-178202D01*
X256304Y-178797D01*
X256164Y-179500D01*
X256304Y-180203D01*
X256702Y-180798D01*
X257297Y-181196D01*
X258000Y-181336D01*
X258703Y-181196D01*
X259298Y-180798D01*
X259696Y-180203D01*
X259836Y-179500D01*
X259696Y-178797D01*
X259298Y-178202D01*
X258703Y-177804D01*
X258000Y-177664D01*
D02*
G37*
G36*
X279500Y-177664D02*
X278797Y-177804D01*
X278202Y-178202D01*
X277804Y-178797D01*
X277664Y-179500D01*
X277804Y-180203D01*
X278202Y-180798D01*
X278797Y-181196D01*
X279500Y-181336D01*
X280203Y-181196D01*
X280798Y-180798D01*
X281196Y-180203D01*
X281336Y-179500D01*
X281196Y-178797D01*
X280798Y-178202D01*
X280203Y-177804D01*
X279500Y-177664D01*
D02*
G37*
G36*
X230658Y-172993D02*
X225342D01*
X224763Y-173108D01*
X224271Y-173437D01*
X223943Y-173928D01*
X223828Y-174508D01*
Y-179823D01*
X223943Y-180403D01*
X224271Y-180894D01*
X224763Y-181222D01*
X225342Y-181338D01*
X230658D01*
X231237Y-181222D01*
X231729Y-180894D01*
X232057Y-180403D01*
X232172Y-179823D01*
Y-174508D01*
X232057Y-173928D01*
X231729Y-173437D01*
X231237Y-173108D01*
X230658Y-172993D01*
D02*
G37*
G36*
X218000Y-172986D02*
X216918Y-173129D01*
X215911Y-173546D01*
X215045Y-174210D01*
X214381Y-175076D01*
X213963Y-176084D01*
X213821Y-177165D01*
X213963Y-178247D01*
X214381Y-179255D01*
X215045Y-180120D01*
X215911Y-180784D01*
X216918Y-181202D01*
X218000Y-181344D01*
X219082Y-181202D01*
X220090Y-180784D01*
X220955Y-180120D01*
X221619Y-179255D01*
X222037Y-178247D01*
X222179Y-177165D01*
X222037Y-176084D01*
X221619Y-175076D01*
X220955Y-174210D01*
X220090Y-173546D01*
X219082Y-173129D01*
X218000Y-172986D01*
D02*
G37*
G36*
X188000D02*
X186918Y-173129D01*
X185910Y-173546D01*
X185045Y-174210D01*
X184381Y-175076D01*
X183963Y-176084D01*
X183821Y-177165D01*
X183963Y-178247D01*
X184381Y-179255D01*
X185045Y-180120D01*
X185910Y-180784D01*
X186918Y-181202D01*
X188000Y-181344D01*
X189082Y-181202D01*
X190089Y-180784D01*
X190955Y-180120D01*
X191619Y-179255D01*
X192037Y-178247D01*
X192179Y-177165D01*
X192037Y-176084D01*
X191619Y-175076D01*
X190955Y-174210D01*
X190089Y-173546D01*
X189082Y-173129D01*
X188000Y-172986D01*
D02*
G37*
G36*
X178000D02*
X176918Y-173129D01*
X175910Y-173546D01*
X175045Y-174210D01*
X174381Y-175076D01*
X173963Y-176084D01*
X173821Y-177165D01*
X173963Y-178247D01*
X174381Y-179255D01*
X175045Y-180120D01*
X175910Y-180784D01*
X176918Y-181202D01*
X178000Y-181344D01*
X179082Y-181202D01*
X180089Y-180784D01*
X180955Y-180120D01*
X181619Y-179255D01*
X182037Y-178247D01*
X182179Y-177165D01*
X182037Y-176084D01*
X181619Y-175076D01*
X180955Y-174210D01*
X180089Y-173546D01*
X179082Y-173129D01*
X178000Y-172986D01*
D02*
G37*
G36*
X168000D02*
X166918Y-173129D01*
X165910Y-173546D01*
X165045Y-174210D01*
X164381Y-175076D01*
X163963Y-176084D01*
X163821Y-177165D01*
X163963Y-178247D01*
X164381Y-179255D01*
X165045Y-180120D01*
X165910Y-180784D01*
X166918Y-181202D01*
X168000Y-181344D01*
X169082Y-181202D01*
X170089Y-180784D01*
X170955Y-180120D01*
X171619Y-179255D01*
X172037Y-178247D01*
X172179Y-177165D01*
X172037Y-176084D01*
X171619Y-175076D01*
X170955Y-174210D01*
X170089Y-173546D01*
X169082Y-173129D01*
X168000Y-172986D01*
D02*
G37*
G36*
X158000D02*
X156918Y-173129D01*
X155911Y-173546D01*
X155045Y-174210D01*
X154381Y-175076D01*
X153963Y-176084D01*
X153821Y-177165D01*
X153963Y-178247D01*
X154381Y-179255D01*
X155045Y-180120D01*
X155911Y-180784D01*
X156918Y-181202D01*
X158000Y-181344D01*
X159082Y-181202D01*
X160090Y-180784D01*
X160955Y-180120D01*
X161619Y-179255D01*
X162037Y-178247D01*
X162179Y-177165D01*
X162037Y-176084D01*
X161619Y-175076D01*
X160955Y-174210D01*
X160090Y-173546D01*
X159082Y-173129D01*
X158000Y-172986D01*
D02*
G37*
G36*
X103000Y-159551D02*
X101052Y-159704D01*
X99153Y-160160D01*
X97348Y-160907D01*
X95682Y-161928D01*
X94197Y-163197D01*
X92928Y-164682D01*
X91908Y-166348D01*
X91160Y-168153D01*
X90704Y-170053D01*
X90551Y-172000D01*
X90704Y-173948D01*
X91160Y-175847D01*
X91908Y-177652D01*
X92928Y-179318D01*
X94197Y-180803D01*
X95682Y-182072D01*
X97348Y-183092D01*
X99153Y-183840D01*
X101052Y-184296D01*
X103000Y-184449D01*
X104947Y-184296D01*
X106847Y-183840D01*
X108652Y-183092D01*
X110318Y-182072D01*
X111803Y-180803D01*
X113072Y-179318D01*
X114093Y-177652D01*
X114840Y-175847D01*
X115296Y-173948D01*
X115449Y-172000D01*
X115296Y-170053D01*
X114840Y-168153D01*
X114093Y-166348D01*
X113072Y-164682D01*
X111803Y-163197D01*
X110318Y-161928D01*
X108652Y-160907D01*
X106847Y-160160D01*
X104947Y-159704D01*
X103000Y-159551D01*
D02*
G37*
G36*
X297837Y-184501D02*
X297134Y-184640D01*
X296538Y-185038D01*
X296140Y-185634D01*
X296001Y-186337D01*
X296140Y-187039D01*
X296538Y-187635D01*
X297134Y-188033D01*
X297837Y-188173D01*
X298539Y-188033D01*
X299135Y-187635D01*
X299533Y-187039D01*
X299673Y-186337D01*
X299533Y-185634D01*
X299135Y-185038D01*
X298539Y-184640D01*
X297837Y-184501D01*
D02*
G37*
G36*
X140300Y-183092D02*
X136700D01*
X134900Y-184892D01*
Y-188493D01*
X136700Y-190293D01*
X140300D01*
X142100Y-188493D01*
Y-184892D01*
X140300Y-183092D01*
D02*
G37*
G36*
X126000Y-183212D02*
X125060Y-183335D01*
X124185Y-183698D01*
X123432Y-184275D01*
X122855Y-185027D01*
X122493Y-185903D01*
X122369Y-186843D01*
X122493Y-187782D01*
X122855Y-188658D01*
X123432Y-189410D01*
X124185Y-189987D01*
X125060Y-190350D01*
X126000Y-190474D01*
X126940Y-190350D01*
X127815Y-189987D01*
X128568Y-189410D01*
X129145Y-188658D01*
X129507Y-187782D01*
X129631Y-186843D01*
X129507Y-185903D01*
X129145Y-185027D01*
X128568Y-184275D01*
X127815Y-183698D01*
X126940Y-183335D01*
X126000Y-183212D01*
D02*
G37*
%LPD*%
D129*
X257500Y-55500D02*
D03*
X254941Y-59437D02*
D03*
X252382Y-55500D02*
D03*
X249823Y-59437D02*
D03*
X247264Y-55500D02*
D03*
D130*
X238307Y-56366D02*
D03*
X266457D02*
D03*
D131*
X103000Y-172000D02*
D03*
X272500Y-24000D02*
D03*
D132*
X35500Y-94000D02*
D03*
Y-54000D02*
D03*
Y-64000D02*
D03*
Y-74000D02*
D03*
Y-84000D02*
D03*
Y-104000D02*
D03*
Y-114000D02*
D03*
Y-124000D02*
D03*
Y-134000D02*
D03*
Y-144000D02*
D03*
Y-154000D02*
D03*
D133*
Y-44000D02*
D03*
D134*
X82000Y-98000D02*
D03*
X70189D02*
D03*
X85500Y-64000D02*
D03*
X73689D02*
D03*
D135*
X100969Y-149500D02*
D03*
X124000D02*
D03*
X112469D02*
D03*
X251000Y-143500D02*
D03*
D136*
X100969Y-139500D02*
D03*
X124000D02*
D03*
X112469D02*
D03*
X251000Y-133500D02*
D03*
Y-123500D02*
D03*
Y-113500D02*
D03*
Y-103500D02*
D03*
Y-93500D02*
D03*
Y-73500D02*
D03*
Y-83500D02*
D03*
X218000Y-19685D02*
D03*
X208000D02*
D03*
X198000D02*
D03*
X188000D02*
D03*
X178000D02*
D03*
X158000D02*
D03*
X168000D02*
D03*
X218000Y-177165D02*
D03*
X208000D02*
D03*
X198000D02*
D03*
X188000D02*
D03*
X178000D02*
D03*
X158000D02*
D03*
X168000D02*
D03*
D137*
X138500Y-176850D02*
D03*
Y-167008D02*
D03*
X126000Y-177000D02*
D03*
Y-186843D02*
D03*
X143342Y-127500D02*
D03*
X133500D02*
D03*
D138*
X138500Y-186693D02*
D03*
X126000Y-167157D02*
D03*
D139*
X297406Y-105500D02*
D03*
Y-115500D02*
D03*
Y-125500D02*
D03*
D140*
Y-135500D02*
D03*
D141*
X123658Y-127500D02*
D03*
D142*
X228000Y-19685D02*
D03*
Y-177165D02*
D03*
D143*
X102000Y-4000D02*
D03*
X115000Y-3500D02*
D03*
X127000D02*
D03*
X139000D02*
D03*
X310000Y-13000D02*
D03*
Y-24333D02*
D03*
Y-47000D02*
D03*
X278500Y-39500D02*
D03*
X269000Y-46500D02*
D03*
X278500Y-62167D02*
D03*
Y-73500D02*
D03*
X387500Y-16000D02*
D03*
Y-27333D02*
D03*
Y-38667D02*
D03*
Y-50000D02*
D03*
X369000Y-20000D02*
D03*
X357667D02*
D03*
X346333D02*
D03*
X335000D02*
D03*
X350500Y-60500D02*
D03*
X339167D02*
D03*
X327833D02*
D03*
X316500D02*
D03*
X387000Y-190000D02*
D03*
Y-178667D02*
D03*
Y-167333D02*
D03*
Y-156000D02*
D03*
X314000Y-153000D02*
D03*
X325333D02*
D03*
X336667D02*
D03*
X348000D02*
D03*
X86500Y-178000D02*
D03*
X92500Y-184500D02*
D03*
X105500Y-187000D02*
D03*
X115000Y-186000D02*
D03*
X7000Y-148000D02*
D03*
Y-159333D02*
D03*
Y-170667D02*
D03*
Y-182000D02*
D03*
X6500Y-102000D02*
D03*
Y-113333D02*
D03*
Y-124667D02*
D03*
Y-136000D02*
D03*
X7000Y-58000D02*
D03*
Y-69333D02*
D03*
Y-80667D02*
D03*
Y-92000D02*
D03*
Y-48000D02*
D03*
Y-36667D02*
D03*
Y-25333D02*
D03*
Y-14000D02*
D03*
X236000Y-38000D02*
D03*
X242500Y-23500D02*
D03*
X224500Y-53500D02*
D03*
X255500Y-28500D02*
D03*
X241150Y-66500D02*
D03*
X235550D02*
D03*
X129500Y-69500D02*
D03*
X150000Y-35000D02*
D03*
X146500Y-30500D02*
D03*
X153000Y-150000D02*
D03*
X64500Y-58500D02*
D03*
X285750Y-76750D02*
D03*
X187500Y-71500D02*
D03*
X172500Y-65500D02*
D03*
X183500Y-49500D02*
D03*
X134000Y-55500D02*
D03*
Y-59500D02*
D03*
X94500Y-10500D02*
D03*
X297000Y-150000D02*
D03*
X192500Y-104000D02*
D03*
X65500Y-27500D02*
D03*
Y-21500D02*
D03*
X196000Y-11500D02*
D03*
X115000Y-91000D02*
D03*
X134500Y-106000D02*
D03*
X148000Y-78000D02*
D03*
X110000Y-52000D02*
D03*
X149000Y-72500D02*
D03*
X196500Y-104000D02*
D03*
X165884Y-149000D02*
D03*
X153500Y-115000D02*
D03*
X159000Y-122500D02*
D03*
X176000Y-124000D02*
D03*
X153500Y-83000D02*
D03*
X271929Y-176071D02*
D03*
X258000Y-179500D02*
D03*
X251000Y-175500D02*
D03*
X150000Y-98000D02*
D03*
X91000Y-100000D02*
D03*
X100500Y-97000D02*
D03*
X133000Y-111500D02*
D03*
X102500Y-62500D02*
D03*
X104000Y-78000D02*
D03*
X96000Y-48500D02*
D03*
X87000Y-28500D02*
D03*
X119000Y-13500D02*
D03*
X135500Y-22000D02*
D03*
X92000Y-82000D02*
D03*
X94500Y-71500D02*
D03*
X86000Y-36000D02*
D03*
X67500Y-34500D02*
D03*
X58500Y-39500D02*
D03*
X57500Y-50500D02*
D03*
X54500Y-38000D02*
D03*
X42000Y-88000D02*
D03*
X105400Y-117569D02*
D03*
X114969Y-122468D02*
D03*
X100400Y-116900D02*
D03*
X91000Y-117000D02*
D03*
X89555Y-133555D02*
D03*
X65610Y-174110D02*
D03*
X206750Y-86000D02*
D03*
X214000Y-89500D02*
D03*
X217653Y-97587D02*
D03*
X214500Y-104000D02*
D03*
X153000Y-124500D02*
D03*
Y-92000D02*
D03*
X152000Y-109000D02*
D03*
X269000Y-158500D02*
D03*
X276000Y-145500D02*
D03*
X214000Y-120000D02*
D03*
X218500Y-121000D02*
D03*
X200000Y-103500D02*
D03*
X204500D02*
D03*
X306500Y-146000D02*
D03*
X222500Y-131000D02*
D03*
X164500Y-136000D02*
D03*
X199000D02*
D03*
X187500Y-136500D02*
D03*
X175500D02*
D03*
X202500Y-142000D02*
D03*
X236000Y-106500D02*
D03*
X242500Y-106000D02*
D03*
X152500Y-119500D02*
D03*
X158500Y-112000D02*
D03*
X159000Y-108000D02*
D03*
Y-103000D02*
D03*
X146500Y-121000D02*
D03*
X233500Y-114500D02*
D03*
X228500Y-123000D02*
D03*
X188500Y-159000D02*
D03*
X183500Y-121500D02*
D03*
X188718Y-121872D02*
D03*
X190500Y-149000D02*
D03*
X188000Y-143000D02*
D03*
X172500Y-118500D02*
D03*
X168500D02*
D03*
X177000Y-115500D02*
D03*
X196500Y-34000D02*
D03*
X178500Y-56000D02*
D03*
X174500Y-55000D02*
D03*
X231000Y-56500D02*
D03*
X173500Y-152500D02*
D03*
X165500Y-161500D02*
D03*
X188500Y-165000D02*
D03*
X204500Y-154000D02*
D03*
X202813Y-169313D02*
D03*
X269376Y-141624D02*
D03*
X273500Y-156500D02*
D03*
X296913Y-158087D02*
D03*
X285500Y-162500D02*
D03*
X263000Y-161000D02*
D03*
X261000Y-172500D02*
D03*
X289000Y-169000D02*
D03*
X299474Y-173974D02*
D03*
X297837Y-186337D02*
D03*
X279500Y-179500D02*
D03*
X148500Y-26000D02*
D03*
X166500Y-60000D02*
D03*
X153000Y-71500D02*
D03*
X156500Y-68500D02*
D03*
X164500Y-64000D02*
D03*
X157500Y-62000D02*
D03*
X152500Y-64500D02*
D03*
X152000Y-57500D02*
D03*
X131000Y-35500D02*
D03*
Y-31500D02*
D03*
X210000Y-77500D02*
D03*
X209000Y-83500D02*
D03*
X206000Y-81000D02*
D03*
X206500Y-74500D02*
D03*
X204000Y-71500D02*
D03*
Y-67500D02*
D03*
X324500Y-129500D02*
D03*
X260500Y-112000D02*
D03*
X329500Y-110000D02*
D03*
X315000Y-129500D02*
D03*
X260000Y-99500D02*
D03*
X306827Y-124173D02*
D03*
X264500Y-105500D02*
D03*
X263000Y-102000D02*
D03*
X316953Y-171453D02*
D03*
X317000Y-111000D02*
D03*
X304000Y-57000D02*
D03*
X298000Y-54000D02*
D03*
X202000Y-58500D02*
D03*
X148500Y-149000D02*
D03*
X162000Y-142000D02*
D03*
X84876Y-110530D02*
D03*
X205000Y-124000D02*
D03*
X210500Y-123000D02*
D03*
X193500Y-139000D02*
D03*
X181500Y-138500D02*
D03*
X170000Y-138000D02*
D03*
X159000D02*
D03*
X240500Y-140500D02*
D03*
X270000Y-88000D02*
D03*
X270500Y-93500D02*
D03*
X350500Y-137000D02*
D03*
X360750Y-137250D02*
D03*
X355500Y-137000D02*
D03*
X216000Y-135500D02*
D03*
X205000Y-136327D02*
D03*
X153000Y-137000D02*
D03*
X168000Y-86500D02*
D03*
X179500Y-93500D02*
D03*
X173000Y-87000D02*
D03*
X196000Y-67000D02*
D03*
X230500Y-71500D02*
D03*
X230500Y-77500D02*
D03*
X231000Y-83000D02*
D03*
X235000Y-103000D02*
D03*
X231000Y-118000D02*
D03*
X235000Y-110500D02*
D03*
X138625Y-105000D02*
D03*
X138500Y-99000D02*
D03*
X140500Y-84000D02*
D03*
X126000Y-101000D02*
D03*
X119000Y-90500D02*
D03*
X274000Y-59500D02*
D03*
X368000Y-121500D02*
D03*
X376500Y-116500D02*
D03*
X335000Y-84000D02*
D03*
X344500Y-84500D02*
D03*
Y-74000D02*
D03*
X293000Y-46000D02*
D03*
X292673Y-40500D02*
D03*
X296000Y-96500D02*
D03*
X301000D02*
D03*
X334907Y-171407D02*
D03*
X336000Y-108000D02*
D03*
X335935Y-123935D02*
D03*
D144*
X119411Y-120411D02*
D03*
M02*
