G04*
G04 #@! TF.GenerationSoftware,Altium Limited,Altium Designer,20.0.2 (26)*
G04*
G04 Layer_Color=2752767*
%FSLAX25Y25*%
%MOIN*%
G70*
G01*
G75*
%ADD21C,0.00600*%
%ADD153C,0.00200*%
%ADD154C,0.00267*%
%ADD155C,0.00960*%
%ADD156C,0.00667*%
%ADD157C,0.00840*%
D21*
X529924Y-93691D02*
Y-93453D01*
X530162Y-92977D01*
X530401Y-92739D01*
X530877Y-92501D01*
X531829D01*
X532305Y-92739D01*
X532543Y-92977D01*
X532781Y-93453D01*
Y-93929D01*
X532543Y-94405D01*
X532067Y-95120D01*
X529686Y-97500D01*
X533019D01*
X536518Y-92501D02*
X534138Y-95834D01*
X537709D01*
X536518Y-92501D02*
Y-97500D01*
X540970Y-92501D02*
X538589Y-95834D01*
X542160D01*
X540970Y-92501D02*
Y-97500D01*
X576987Y-93453D02*
X577463Y-93215D01*
X578177Y-92501D01*
Y-97500D01*
X581129Y-92501D02*
X583747D01*
X582319Y-94405D01*
X583033D01*
X583509Y-94643D01*
X583747Y-94881D01*
X583985Y-95596D01*
Y-96072D01*
X583747Y-96786D01*
X583271Y-97262D01*
X582557Y-97500D01*
X581843D01*
X581129Y-97262D01*
X580891Y-97024D01*
X580653Y-96548D01*
X585342Y-97024D02*
X585104Y-97262D01*
X585342Y-97500D01*
X585580Y-97262D01*
X585342Y-97024D01*
X590008Y-92501D02*
X587627Y-97500D01*
X586675Y-92501D02*
X590008D01*
X592317D02*
X591603Y-92739D01*
X591365Y-93215D01*
Y-93691D01*
X591603Y-94167D01*
X592079Y-94405D01*
X593031Y-94643D01*
X593745Y-94881D01*
X594221Y-95358D01*
X594459Y-95834D01*
Y-96548D01*
X594221Y-97024D01*
X593983Y-97262D01*
X593269Y-97500D01*
X592317D01*
X591603Y-97262D01*
X591365Y-97024D01*
X591127Y-96548D01*
Y-95834D01*
X591365Y-95358D01*
X591841Y-94881D01*
X592555Y-94643D01*
X593507Y-94405D01*
X593983Y-94167D01*
X594221Y-93691D01*
Y-93215D01*
X593983Y-92739D01*
X593269Y-92501D01*
X592317D01*
X595578Y-94167D02*
Y-97500D01*
Y-95120D02*
X596292Y-94405D01*
X596768Y-94167D01*
X597482D01*
X597958Y-94405D01*
X598197Y-95120D01*
Y-97500D01*
Y-95120D02*
X598911Y-94405D01*
X599387Y-94167D01*
X600101D01*
X600577Y-94405D01*
X600815Y-95120D01*
Y-97500D01*
X602862Y-92501D02*
X603100Y-92739D01*
X603338Y-92501D01*
X603100Y-92263D01*
X602862Y-92501D01*
X603100Y-94167D02*
Y-97500D01*
X604219Y-92501D02*
Y-97500D01*
X610860Y-91549D02*
X610384Y-92025D01*
X609908Y-92739D01*
X609432Y-93691D01*
X609194Y-94881D01*
Y-95834D01*
X609432Y-97024D01*
X609908Y-97976D01*
X610384Y-98690D01*
X610860Y-99166D01*
X610384Y-92025D02*
X609908Y-92977D01*
X609670Y-93691D01*
X609432Y-94881D01*
Y-95834D01*
X609670Y-97024D01*
X609908Y-97738D01*
X610384Y-98690D01*
X613241Y-92501D02*
X612527Y-92739D01*
X612051Y-93453D01*
X611813Y-94643D01*
Y-95358D01*
X612051Y-96548D01*
X612527Y-97262D01*
X613241Y-97500D01*
X613717D01*
X614431Y-97262D01*
X614907Y-96548D01*
X615145Y-95358D01*
Y-94643D01*
X614907Y-93453D01*
X614431Y-92739D01*
X613717Y-92501D01*
X613241D01*
X616502Y-97024D02*
X616264Y-97262D01*
X616502Y-97500D01*
X616740Y-97262D01*
X616502Y-97024D01*
X618311Y-92501D02*
X620930D01*
X619501Y-94405D01*
X620216D01*
X620692Y-94643D01*
X620930Y-94881D01*
X621168Y-95596D01*
Y-96072D01*
X620930Y-96786D01*
X620454Y-97262D01*
X619739Y-97500D01*
X619025D01*
X618311Y-97262D01*
X618073Y-97024D01*
X617835Y-96548D01*
X625143Y-92501D02*
X622763D01*
X622525Y-94643D01*
X622763Y-94405D01*
X623477Y-94167D01*
X624191D01*
X624905Y-94405D01*
X625381Y-94881D01*
X625619Y-95596D01*
Y-96072D01*
X625381Y-96786D01*
X624905Y-97262D01*
X624191Y-97500D01*
X623477D01*
X622763Y-97262D01*
X622525Y-97024D01*
X622287Y-96548D01*
X626738Y-94167D02*
Y-97500D01*
Y-95120D02*
X627452Y-94405D01*
X627928Y-94167D01*
X628642D01*
X629118Y-94405D01*
X629356Y-95120D01*
Y-97500D01*
Y-95120D02*
X630071Y-94405D01*
X630547Y-94167D01*
X631261D01*
X631737Y-94405D01*
X631975Y-95120D01*
Y-97500D01*
X633546Y-94167D02*
Y-97500D01*
Y-95120D02*
X634260Y-94405D01*
X634736Y-94167D01*
X635450D01*
X635926Y-94405D01*
X636165Y-95120D01*
Y-97500D01*
Y-95120D02*
X636879Y-94405D01*
X637355Y-94167D01*
X638069D01*
X638545Y-94405D01*
X638783Y-95120D01*
Y-97500D01*
X640354Y-91549D02*
X640830Y-92025D01*
X641306Y-92739D01*
X641782Y-93691D01*
X642020Y-94881D01*
Y-95834D01*
X641782Y-97024D01*
X641306Y-97976D01*
X640830Y-98690D01*
X640354Y-99166D01*
X640830Y-92025D02*
X641306Y-92977D01*
X641544Y-93691D01*
X641782Y-94881D01*
Y-95834D01*
X641544Y-97024D01*
X641306Y-97738D01*
X640830Y-98690D01*
X810040Y-95120D02*
X812182D01*
X812896Y-94881D01*
X813134Y-94643D01*
X813372Y-94167D01*
Y-93453D01*
X813134Y-92977D01*
X812896Y-92739D01*
X812182Y-92501D01*
X810040D01*
Y-97500D01*
X816157Y-92501D02*
Y-97500D01*
X814491Y-92501D02*
X817824D01*
X818419D02*
Y-97500D01*
X821751Y-92501D02*
Y-97500D01*
X818419Y-94881D02*
X821751D01*
X841829Y-92501D02*
Y-97500D01*
Y-92501D02*
X843971D01*
X844686Y-92739D01*
X844924Y-92977D01*
X845162Y-93453D01*
Y-93929D01*
X844924Y-94405D01*
X844686Y-94643D01*
X843971Y-94881D01*
X841829D01*
X843495D02*
X845162Y-97500D01*
X847471Y-94167D02*
X846995Y-94405D01*
X846519Y-94881D01*
X846280Y-95596D01*
Y-96072D01*
X846519Y-96786D01*
X846995Y-97262D01*
X847471Y-97500D01*
X848185D01*
X848661Y-97262D01*
X849137Y-96786D01*
X849375Y-96072D01*
Y-95596D01*
X849137Y-94881D01*
X848661Y-94405D01*
X848185Y-94167D01*
X847471D01*
X850470D02*
Y-96548D01*
X850708Y-97262D01*
X851184Y-97500D01*
X851898D01*
X852374Y-97262D01*
X853088Y-96548D01*
Y-94167D02*
Y-97500D01*
X854398Y-94167D02*
Y-97500D01*
Y-95120D02*
X855112Y-94405D01*
X855588Y-94167D01*
X856302D01*
X856778Y-94405D01*
X857016Y-95120D01*
Y-97500D01*
X861182Y-92501D02*
Y-97500D01*
Y-94881D02*
X860706Y-94405D01*
X860230Y-94167D01*
X859516D01*
X859040Y-94405D01*
X858564Y-94881D01*
X858325Y-95596D01*
Y-96072D01*
X858564Y-96786D01*
X859040Y-97262D01*
X859516Y-97500D01*
X860230D01*
X860706Y-97262D01*
X861182Y-96786D01*
X532543Y-102501D02*
X530162D01*
X529924Y-104643D01*
X530162Y-104405D01*
X530877Y-104167D01*
X531591D01*
X532305Y-104405D01*
X532781Y-104882D01*
X533019Y-105596D01*
Y-106072D01*
X532781Y-106786D01*
X532305Y-107262D01*
X531591Y-107500D01*
X530877D01*
X530162Y-107262D01*
X529924Y-107024D01*
X529686Y-106548D01*
X576987Y-103453D02*
X577463Y-103215D01*
X578177Y-102501D01*
Y-107500D01*
X583509Y-102501D02*
X581129D01*
X580891Y-104643D01*
X581129Y-104405D01*
X581843Y-104167D01*
X582557D01*
X583271Y-104405D01*
X583747Y-104882D01*
X583985Y-105596D01*
Y-106072D01*
X583747Y-106786D01*
X583271Y-107262D01*
X582557Y-107500D01*
X581843D01*
X581129Y-107262D01*
X580891Y-107024D01*
X580653Y-106548D01*
X585342Y-107024D02*
X585104Y-107262D01*
X585342Y-107500D01*
X585580Y-107262D01*
X585342Y-107024D01*
X590008Y-102501D02*
X587627Y-107500D01*
X586675Y-102501D02*
X590008D01*
X593507D02*
X591127Y-105834D01*
X594697D01*
X593507Y-102501D02*
Y-107500D01*
X596768Y-102501D02*
X596054Y-102739D01*
X595816Y-103215D01*
Y-103691D01*
X596054Y-104167D01*
X596530Y-104405D01*
X597482Y-104643D01*
X598197Y-104882D01*
X598673Y-105358D01*
X598911Y-105834D01*
Y-106548D01*
X598673Y-107024D01*
X598434Y-107262D01*
X597720Y-107500D01*
X596768D01*
X596054Y-107262D01*
X595816Y-107024D01*
X595578Y-106548D01*
Y-105834D01*
X595816Y-105358D01*
X596292Y-104882D01*
X597006Y-104643D01*
X597958Y-104405D01*
X598434Y-104167D01*
X598673Y-103691D01*
Y-103215D01*
X598434Y-102739D01*
X597720Y-102501D01*
X596768D01*
X600029Y-104167D02*
Y-107500D01*
Y-105120D02*
X600743Y-104405D01*
X601220Y-104167D01*
X601934D01*
X602410Y-104405D01*
X602648Y-105120D01*
Y-107500D01*
Y-105120D02*
X603362Y-104405D01*
X603838Y-104167D01*
X604552D01*
X605028Y-104405D01*
X605266Y-105120D01*
Y-107500D01*
X607314Y-102501D02*
X607552Y-102739D01*
X607790Y-102501D01*
X607552Y-102263D01*
X607314Y-102501D01*
X607552Y-104167D02*
Y-107500D01*
X608670Y-102501D02*
Y-107500D01*
X615312Y-101549D02*
X614836Y-102025D01*
X614360Y-102739D01*
X613884Y-103691D01*
X613646Y-104882D01*
Y-105834D01*
X613884Y-107024D01*
X614360Y-107976D01*
X614836Y-108690D01*
X615312Y-109166D01*
X614836Y-102025D02*
X614360Y-102977D01*
X614122Y-103691D01*
X613884Y-104882D01*
Y-105834D01*
X614122Y-107024D01*
X614360Y-107738D01*
X614836Y-108690D01*
X617692Y-102501D02*
X616978Y-102739D01*
X616502Y-103453D01*
X616264Y-104643D01*
Y-105358D01*
X616502Y-106548D01*
X616978Y-107262D01*
X617692Y-107500D01*
X618168D01*
X618883Y-107262D01*
X619359Y-106548D01*
X619597Y-105358D01*
Y-104643D01*
X619359Y-103453D01*
X618883Y-102739D01*
X618168Y-102501D01*
X617692D01*
X620954Y-107024D02*
X620716Y-107262D01*
X620954Y-107500D01*
X621192Y-107262D01*
X620954Y-107024D01*
X624667Y-102501D02*
X622287Y-105834D01*
X625857D01*
X624667Y-102501D02*
Y-107500D01*
X626738Y-104167D02*
Y-107500D01*
Y-105120D02*
X627452Y-104405D01*
X627928Y-104167D01*
X628642D01*
X629118Y-104405D01*
X629356Y-105120D01*
Y-107500D01*
Y-105120D02*
X630071Y-104405D01*
X630547Y-104167D01*
X631261D01*
X631737Y-104405D01*
X631975Y-105120D01*
Y-107500D01*
X633546Y-104167D02*
Y-107500D01*
Y-105120D02*
X634260Y-104405D01*
X634736Y-104167D01*
X635450D01*
X635926Y-104405D01*
X636165Y-105120D01*
Y-107500D01*
Y-105120D02*
X636879Y-104405D01*
X637355Y-104167D01*
X638069D01*
X638545Y-104405D01*
X638783Y-105120D01*
Y-107500D01*
X640354Y-101549D02*
X640830Y-102025D01*
X641306Y-102739D01*
X641782Y-103691D01*
X642020Y-104882D01*
Y-105834D01*
X641782Y-107024D01*
X641306Y-107976D01*
X640830Y-108690D01*
X640354Y-109166D01*
X640830Y-102025D02*
X641306Y-102977D01*
X641544Y-103691D01*
X641782Y-104882D01*
Y-105834D01*
X641544Y-107024D01*
X641306Y-107738D01*
X640830Y-108690D01*
X810040Y-105120D02*
X812182D01*
X812896Y-104882D01*
X813134Y-104643D01*
X813372Y-104167D01*
Y-103453D01*
X813134Y-102977D01*
X812896Y-102739D01*
X812182Y-102501D01*
X810040D01*
Y-107500D01*
X816157Y-102501D02*
Y-107500D01*
X814491Y-102501D02*
X817824D01*
X818419D02*
Y-107500D01*
X821751Y-102501D02*
Y-107500D01*
X818419Y-104882D02*
X821751D01*
X841829Y-102501D02*
Y-107500D01*
Y-102501D02*
X843971D01*
X844686Y-102739D01*
X844924Y-102977D01*
X845162Y-103453D01*
Y-103929D01*
X844924Y-104405D01*
X844686Y-104643D01*
X843971Y-104882D01*
X841829D01*
X843495D02*
X845162Y-107500D01*
X847471Y-104167D02*
X846995Y-104405D01*
X846519Y-104882D01*
X846280Y-105596D01*
Y-106072D01*
X846519Y-106786D01*
X846995Y-107262D01*
X847471Y-107500D01*
X848185D01*
X848661Y-107262D01*
X849137Y-106786D01*
X849375Y-106072D01*
Y-105596D01*
X849137Y-104882D01*
X848661Y-104405D01*
X848185Y-104167D01*
X847471D01*
X850470D02*
Y-106548D01*
X850708Y-107262D01*
X851184Y-107500D01*
X851898D01*
X852374Y-107262D01*
X853088Y-106548D01*
Y-104167D02*
Y-107500D01*
X854398Y-104167D02*
Y-107500D01*
Y-105120D02*
X855112Y-104405D01*
X855588Y-104167D01*
X856302D01*
X856778Y-104405D01*
X857016Y-105120D01*
Y-107500D01*
X861182Y-102501D02*
Y-107500D01*
Y-104882D02*
X860706Y-104405D01*
X860230Y-104167D01*
X859516D01*
X859040Y-104405D01*
X858564Y-104882D01*
X858325Y-105596D01*
Y-106072D01*
X858564Y-106786D01*
X859040Y-107262D01*
X859516Y-107500D01*
X860230D01*
X860706Y-107262D01*
X861182Y-106786D01*
X532067Y-112501D02*
X529686Y-115834D01*
X533257D01*
X532067Y-112501D02*
Y-117500D01*
X577225Y-113691D02*
Y-113453D01*
X577463Y-112977D01*
X577701Y-112739D01*
X578177Y-112501D01*
X579129D01*
X579605Y-112739D01*
X579843Y-112977D01*
X580081Y-113453D01*
Y-113929D01*
X579843Y-114405D01*
X579367Y-115120D01*
X576987Y-117500D01*
X580319D01*
X581914Y-112501D02*
X584533D01*
X583105Y-114405D01*
X583819D01*
X584295Y-114644D01*
X584533Y-114882D01*
X584771Y-115596D01*
Y-116072D01*
X584533Y-116786D01*
X584057Y-117262D01*
X583343Y-117500D01*
X582628D01*
X581914Y-117262D01*
X581676Y-117024D01*
X581438Y-116548D01*
X586128Y-117024D02*
X585890Y-117262D01*
X586128Y-117500D01*
X586366Y-117262D01*
X586128Y-117024D01*
X590317Y-113215D02*
X590079Y-112739D01*
X589365Y-112501D01*
X588889D01*
X588175Y-112739D01*
X587699Y-113453D01*
X587461Y-114644D01*
Y-115834D01*
X587699Y-116786D01*
X588175Y-117262D01*
X588889Y-117500D01*
X589127D01*
X589841Y-117262D01*
X590317Y-116786D01*
X590555Y-116072D01*
Y-115834D01*
X590317Y-115120D01*
X589841Y-114644D01*
X589127Y-114405D01*
X588889D01*
X588175Y-114644D01*
X587699Y-115120D01*
X587461Y-115834D01*
X591888Y-113691D02*
Y-113453D01*
X592126Y-112977D01*
X592364Y-112739D01*
X592840Y-112501D01*
X593793D01*
X594269Y-112739D01*
X594507Y-112977D01*
X594745Y-113453D01*
Y-113929D01*
X594507Y-114405D01*
X594031Y-115120D01*
X591650Y-117500D01*
X594983D01*
X596340Y-113691D02*
Y-113453D01*
X596578Y-112977D01*
X596816Y-112739D01*
X597292Y-112501D01*
X598244D01*
X598720Y-112739D01*
X598958Y-112977D01*
X599196Y-113453D01*
Y-113929D01*
X598958Y-114405D01*
X598482Y-115120D01*
X596102Y-117500D01*
X599434D01*
X600553Y-114167D02*
Y-117500D01*
Y-115120D02*
X601267Y-114405D01*
X601743Y-114167D01*
X602458D01*
X602934Y-114405D01*
X603172Y-115120D01*
Y-117500D01*
Y-115120D02*
X603886Y-114405D01*
X604362Y-114167D01*
X605076D01*
X605552Y-114405D01*
X605790Y-115120D01*
Y-117500D01*
X607837Y-112501D02*
X608075Y-112739D01*
X608313Y-112501D01*
X608075Y-112263D01*
X607837Y-112501D01*
X608075Y-114167D02*
Y-117500D01*
X609194Y-112501D02*
Y-117500D01*
X615836Y-111549D02*
X615359Y-112025D01*
X614883Y-112739D01*
X614407Y-113691D01*
X614169Y-114882D01*
Y-115834D01*
X614407Y-117024D01*
X614883Y-117976D01*
X615359Y-118690D01*
X615836Y-119166D01*
X615359Y-112025D02*
X614883Y-112977D01*
X614645Y-113691D01*
X614407Y-114882D01*
Y-115834D01*
X614645Y-117024D01*
X614883Y-117738D01*
X615359Y-118690D01*
X618216Y-112501D02*
X617502Y-112739D01*
X617026Y-113453D01*
X616788Y-114644D01*
Y-115358D01*
X617026Y-116548D01*
X617502Y-117262D01*
X618216Y-117500D01*
X618692D01*
X619406Y-117262D01*
X619882Y-116548D01*
X620120Y-115358D01*
Y-114644D01*
X619882Y-113453D01*
X619406Y-112739D01*
X618692Y-112501D01*
X618216D01*
X621477Y-117024D02*
X621239Y-117262D01*
X621477Y-117500D01*
X621715Y-117262D01*
X621477Y-117024D01*
X625667Y-113215D02*
X625429Y-112739D01*
X624715Y-112501D01*
X624238D01*
X623524Y-112739D01*
X623048Y-113453D01*
X622810Y-114644D01*
Y-115834D01*
X623048Y-116786D01*
X623524Y-117262D01*
X624238Y-117500D01*
X624477D01*
X625191Y-117262D01*
X625667Y-116786D01*
X625905Y-116072D01*
Y-115834D01*
X625667Y-115120D01*
X625191Y-114644D01*
X624477Y-114405D01*
X624238D01*
X623524Y-114644D01*
X623048Y-115120D01*
X622810Y-115834D01*
X627000Y-114167D02*
Y-117500D01*
Y-115120D02*
X627714Y-114405D01*
X628190Y-114167D01*
X628904D01*
X629380Y-114405D01*
X629618Y-115120D01*
Y-117500D01*
Y-115120D02*
X630332Y-114405D01*
X630808Y-114167D01*
X631523D01*
X631999Y-114405D01*
X632237Y-115120D01*
Y-117500D01*
X633808Y-114167D02*
Y-117500D01*
Y-115120D02*
X634522Y-114405D01*
X634998Y-114167D01*
X635712D01*
X636188Y-114405D01*
X636426Y-115120D01*
Y-117500D01*
Y-115120D02*
X637141Y-114405D01*
X637617Y-114167D01*
X638331D01*
X638807Y-114405D01*
X639045Y-115120D01*
Y-117500D01*
X640616Y-111549D02*
X641092Y-112025D01*
X641568Y-112739D01*
X642044Y-113691D01*
X642282Y-114882D01*
Y-115834D01*
X642044Y-117024D01*
X641568Y-117976D01*
X641092Y-118690D01*
X640616Y-119166D01*
X641092Y-112025D02*
X641568Y-112977D01*
X641806Y-113691D01*
X642044Y-114882D01*
Y-115834D01*
X641806Y-117024D01*
X641568Y-117738D01*
X641092Y-118690D01*
X810040Y-115120D02*
X812182D01*
X812896Y-114882D01*
X813134Y-114644D01*
X813372Y-114167D01*
Y-113453D01*
X813134Y-112977D01*
X812896Y-112739D01*
X812182Y-112501D01*
X810040D01*
Y-117500D01*
X816157Y-112501D02*
Y-117500D01*
X814491Y-112501D02*
X817824D01*
X818419D02*
Y-117500D01*
X821751Y-112501D02*
Y-117500D01*
X818419Y-114882D02*
X821751D01*
X841829Y-112501D02*
Y-117500D01*
Y-112501D02*
X843971D01*
X844686Y-112739D01*
X844924Y-112977D01*
X845162Y-113453D01*
Y-113929D01*
X844924Y-114405D01*
X844686Y-114644D01*
X843971Y-114882D01*
X841829D01*
X843495D02*
X845162Y-117500D01*
X847471Y-114167D02*
X846995Y-114405D01*
X846519Y-114882D01*
X846280Y-115596D01*
Y-116072D01*
X846519Y-116786D01*
X846995Y-117262D01*
X847471Y-117500D01*
X848185D01*
X848661Y-117262D01*
X849137Y-116786D01*
X849375Y-116072D01*
Y-115596D01*
X849137Y-114882D01*
X848661Y-114405D01*
X848185Y-114167D01*
X847471D01*
X850470D02*
Y-116548D01*
X850708Y-117262D01*
X851184Y-117500D01*
X851898D01*
X852374Y-117262D01*
X853088Y-116548D01*
Y-114167D02*
Y-117500D01*
X854398Y-114167D02*
Y-117500D01*
Y-115120D02*
X855112Y-114405D01*
X855588Y-114167D01*
X856302D01*
X856778Y-114405D01*
X857016Y-115120D01*
Y-117500D01*
X861182Y-112501D02*
Y-117500D01*
Y-114882D02*
X860706Y-114405D01*
X860230Y-114167D01*
X859516D01*
X859040Y-114405D01*
X858564Y-114882D01*
X858325Y-115596D01*
Y-116072D01*
X858564Y-116786D01*
X859040Y-117262D01*
X859516Y-117500D01*
X860230D01*
X860706Y-117262D01*
X861182Y-116786D01*
X532781Y-124167D02*
X532543Y-124881D01*
X532067Y-125358D01*
X531353Y-125596D01*
X531115D01*
X530401Y-125358D01*
X529924Y-124881D01*
X529686Y-124167D01*
Y-123929D01*
X529924Y-123215D01*
X530401Y-122739D01*
X531115Y-122501D01*
X531353D01*
X532067Y-122739D01*
X532543Y-123215D01*
X532781Y-124167D01*
Y-125358D01*
X532543Y-126548D01*
X532067Y-127262D01*
X531353Y-127500D01*
X530877D01*
X530162Y-127262D01*
X529924Y-126786D01*
X577463Y-122501D02*
X580081D01*
X578653Y-124405D01*
X579367D01*
X579843Y-124644D01*
X580081Y-124881D01*
X580319Y-125596D01*
Y-126072D01*
X580081Y-126786D01*
X579605Y-127262D01*
X578891Y-127500D01*
X578177D01*
X577463Y-127262D01*
X577225Y-127024D01*
X576987Y-126548D01*
X584295Y-122501D02*
X581914D01*
X581676Y-124644D01*
X581914Y-124405D01*
X582628Y-124167D01*
X583343D01*
X584057Y-124405D01*
X584533Y-124881D01*
X584771Y-125596D01*
Y-126072D01*
X584533Y-126786D01*
X584057Y-127262D01*
X583343Y-127500D01*
X582628D01*
X581914Y-127262D01*
X581676Y-127024D01*
X581438Y-126548D01*
X586128Y-127024D02*
X585890Y-127262D01*
X586128Y-127500D01*
X586366Y-127262D01*
X586128Y-127024D01*
X589841Y-122501D02*
X587461Y-125834D01*
X591031D01*
X589841Y-122501D02*
Y-127500D01*
X592388Y-122501D02*
X595007D01*
X593578Y-124405D01*
X594292D01*
X594769Y-124644D01*
X595007Y-124881D01*
X595245Y-125596D01*
Y-126072D01*
X595007Y-126786D01*
X594531Y-127262D01*
X593816Y-127500D01*
X593102D01*
X592388Y-127262D01*
X592150Y-127024D01*
X591912Y-126548D01*
X596840Y-122501D02*
X599458D01*
X598030Y-124405D01*
X598744D01*
X599220Y-124644D01*
X599458Y-124881D01*
X599696Y-125596D01*
Y-126072D01*
X599458Y-126786D01*
X598982Y-127262D01*
X598268Y-127500D01*
X597554D01*
X596840Y-127262D01*
X596602Y-127024D01*
X596363Y-126548D01*
X600815Y-124167D02*
Y-127500D01*
Y-125120D02*
X601529Y-124405D01*
X602005Y-124167D01*
X602719D01*
X603195Y-124405D01*
X603433Y-125120D01*
Y-127500D01*
Y-125120D02*
X604148Y-124405D01*
X604624Y-124167D01*
X605338D01*
X605814Y-124405D01*
X606052Y-125120D01*
Y-127500D01*
X608099Y-122501D02*
X608337Y-122739D01*
X608575Y-122501D01*
X608337Y-122263D01*
X608099Y-122501D01*
X608337Y-124167D02*
Y-127500D01*
X609456Y-122501D02*
Y-127500D01*
X616097Y-121549D02*
X615621Y-122025D01*
X615145Y-122739D01*
X614669Y-123691D01*
X614431Y-124881D01*
Y-125834D01*
X614669Y-127024D01*
X615145Y-127976D01*
X615621Y-128690D01*
X616097Y-129166D01*
X615621Y-122025D02*
X615145Y-122977D01*
X614907Y-123691D01*
X614669Y-124881D01*
Y-125834D01*
X614907Y-127024D01*
X615145Y-127738D01*
X615621Y-128690D01*
X618478Y-122501D02*
X617764Y-122739D01*
X617288Y-123453D01*
X617050Y-124644D01*
Y-125358D01*
X617288Y-126548D01*
X617764Y-127262D01*
X618478Y-127500D01*
X618954D01*
X619668Y-127262D01*
X620144Y-126548D01*
X620382Y-125358D01*
Y-124644D01*
X620144Y-123453D01*
X619668Y-122739D01*
X618954Y-122501D01*
X618478D01*
X621739Y-127024D02*
X621501Y-127262D01*
X621739Y-127500D01*
X621977Y-127262D01*
X621739Y-127024D01*
X626167Y-124167D02*
X625929Y-124881D01*
X625453Y-125358D01*
X624738Y-125596D01*
X624500D01*
X623786Y-125358D01*
X623310Y-124881D01*
X623072Y-124167D01*
Y-123929D01*
X623310Y-123215D01*
X623786Y-122739D01*
X624500Y-122501D01*
X624738D01*
X625453Y-122739D01*
X625929Y-123215D01*
X626167Y-124167D01*
Y-125358D01*
X625929Y-126548D01*
X625453Y-127262D01*
X624738Y-127500D01*
X624262D01*
X623548Y-127262D01*
X623310Y-126786D01*
X627524Y-124167D02*
Y-127500D01*
Y-125120D02*
X628238Y-124405D01*
X628714Y-124167D01*
X629428D01*
X629904Y-124405D01*
X630142Y-125120D01*
Y-127500D01*
Y-125120D02*
X630856Y-124405D01*
X631332Y-124167D01*
X632046D01*
X632522Y-124405D01*
X632760Y-125120D01*
Y-127500D01*
X634332Y-124167D02*
Y-127500D01*
Y-125120D02*
X635046Y-124405D01*
X635522Y-124167D01*
X636236D01*
X636712Y-124405D01*
X636950Y-125120D01*
Y-127500D01*
Y-125120D02*
X637664Y-124405D01*
X638140Y-124167D01*
X638854D01*
X639330Y-124405D01*
X639569Y-125120D01*
Y-127500D01*
X641140Y-121549D02*
X641616Y-122025D01*
X642092Y-122739D01*
X642568Y-123691D01*
X642806Y-124881D01*
Y-125834D01*
X642568Y-127024D01*
X642092Y-127976D01*
X641616Y-128690D01*
X641140Y-129166D01*
X641616Y-122025D02*
X642092Y-122977D01*
X642330Y-123691D01*
X642568Y-124881D01*
Y-125834D01*
X642330Y-127024D01*
X642092Y-127738D01*
X641616Y-128690D01*
X810040Y-125120D02*
X812182D01*
X812896Y-124881D01*
X813134Y-124644D01*
X813372Y-124167D01*
Y-123453D01*
X813134Y-122977D01*
X812896Y-122739D01*
X812182Y-122501D01*
X810040D01*
Y-127500D01*
X816157Y-122501D02*
Y-127500D01*
X814491Y-122501D02*
X817824D01*
X818419D02*
Y-127500D01*
X821751Y-122501D02*
Y-127500D01*
X818419Y-124881D02*
X821751D01*
X841829Y-122501D02*
Y-127500D01*
Y-122501D02*
X843971D01*
X844686Y-122739D01*
X844924Y-122977D01*
X845162Y-123453D01*
Y-123929D01*
X844924Y-124405D01*
X844686Y-124644D01*
X843971Y-124881D01*
X841829D01*
X843495D02*
X845162Y-127500D01*
X847471Y-124167D02*
X846995Y-124405D01*
X846519Y-124881D01*
X846280Y-125596D01*
Y-126072D01*
X846519Y-126786D01*
X846995Y-127262D01*
X847471Y-127500D01*
X848185D01*
X848661Y-127262D01*
X849137Y-126786D01*
X849375Y-126072D01*
Y-125596D01*
X849137Y-124881D01*
X848661Y-124405D01*
X848185Y-124167D01*
X847471D01*
X850470D02*
Y-126548D01*
X850708Y-127262D01*
X851184Y-127500D01*
X851898D01*
X852374Y-127262D01*
X853088Y-126548D01*
Y-124167D02*
Y-127500D01*
X854398Y-124167D02*
Y-127500D01*
Y-125120D02*
X855112Y-124405D01*
X855588Y-124167D01*
X856302D01*
X856778Y-124405D01*
X857016Y-125120D01*
Y-127500D01*
X861182Y-122501D02*
Y-127500D01*
Y-124881D02*
X860706Y-124405D01*
X860230Y-124167D01*
X859516D01*
X859040Y-124405D01*
X858564Y-124881D01*
X858325Y-125596D01*
Y-126072D01*
X858564Y-126786D01*
X859040Y-127262D01*
X859516Y-127500D01*
X860230D01*
X860706Y-127262D01*
X861182Y-126786D01*
X530162Y-132501D02*
X532781D01*
X531353Y-134405D01*
X532067D01*
X532543Y-134643D01*
X532781Y-134881D01*
X533019Y-135596D01*
Y-136072D01*
X532781Y-136786D01*
X532305Y-137262D01*
X531591Y-137500D01*
X530877D01*
X530162Y-137262D01*
X529924Y-137024D01*
X529686Y-136548D01*
X535566Y-132501D02*
X534852Y-132739D01*
X534376Y-133453D01*
X534138Y-134643D01*
Y-135358D01*
X534376Y-136548D01*
X534852Y-137262D01*
X535566Y-137500D01*
X536042D01*
X536756Y-137262D01*
X537232Y-136548D01*
X537470Y-135358D01*
Y-134643D01*
X537232Y-133453D01*
X536756Y-132739D01*
X536042Y-132501D01*
X535566D01*
X577463D02*
X580081D01*
X578653Y-134405D01*
X579367D01*
X579843Y-134643D01*
X580081Y-134881D01*
X580319Y-135596D01*
Y-136072D01*
X580081Y-136786D01*
X579605Y-137262D01*
X578891Y-137500D01*
X578177D01*
X577463Y-137262D01*
X577225Y-137024D01*
X576987Y-136548D01*
X584533Y-134167D02*
X584295Y-134881D01*
X583819Y-135358D01*
X583105Y-135596D01*
X582866D01*
X582152Y-135358D01*
X581676Y-134881D01*
X581438Y-134167D01*
Y-133929D01*
X581676Y-133215D01*
X582152Y-132739D01*
X582866Y-132501D01*
X583105D01*
X583819Y-132739D01*
X584295Y-133215D01*
X584533Y-134167D01*
Y-135358D01*
X584295Y-136548D01*
X583819Y-137262D01*
X583105Y-137500D01*
X582628D01*
X581914Y-137262D01*
X581676Y-136786D01*
X586128Y-137024D02*
X585890Y-137262D01*
X586128Y-137500D01*
X586366Y-137262D01*
X586128Y-137024D01*
X587937Y-132501D02*
X590555D01*
X589127Y-134405D01*
X589841D01*
X590317Y-134643D01*
X590555Y-134881D01*
X590793Y-135596D01*
Y-136072D01*
X590555Y-136786D01*
X590079Y-137262D01*
X589365Y-137500D01*
X588651D01*
X587937Y-137262D01*
X587699Y-137024D01*
X587461Y-136548D01*
X595245Y-132501D02*
X592864Y-137500D01*
X591912Y-132501D02*
X595245D01*
X596363Y-134167D02*
Y-137500D01*
Y-135120D02*
X597078Y-134405D01*
X597554Y-134167D01*
X598268D01*
X598744Y-134405D01*
X598982Y-135120D01*
Y-137500D01*
Y-135120D02*
X599696Y-134405D01*
X600172Y-134167D01*
X600886D01*
X601363Y-134405D01*
X601601Y-135120D01*
Y-137500D01*
X603648Y-132501D02*
X603886Y-132739D01*
X604124Y-132501D01*
X603886Y-132263D01*
X603648Y-132501D01*
X603886Y-134167D02*
Y-137500D01*
X605005Y-132501D02*
Y-137500D01*
X611646Y-131549D02*
X611170Y-132025D01*
X610694Y-132739D01*
X610218Y-133691D01*
X609980Y-134881D01*
Y-135834D01*
X610218Y-137024D01*
X610694Y-137976D01*
X611170Y-138690D01*
X611646Y-139166D01*
X611170Y-132025D02*
X610694Y-132977D01*
X610456Y-133691D01*
X610218Y-134881D01*
Y-135834D01*
X610456Y-137024D01*
X610694Y-137738D01*
X611170Y-138690D01*
X612598Y-133453D02*
X613074Y-133215D01*
X613788Y-132501D01*
Y-137500D01*
X616264Y-134167D02*
Y-137500D01*
Y-135120D02*
X616978Y-134405D01*
X617454Y-134167D01*
X618168D01*
X618645Y-134405D01*
X618883Y-135120D01*
Y-137500D01*
Y-135120D02*
X619597Y-134405D01*
X620073Y-134167D01*
X620787D01*
X621263Y-134405D01*
X621501Y-135120D01*
Y-137500D01*
X623072Y-134167D02*
Y-137500D01*
Y-135120D02*
X623786Y-134405D01*
X624262Y-134167D01*
X624976D01*
X625453Y-134405D01*
X625691Y-135120D01*
Y-137500D01*
Y-135120D02*
X626405Y-134405D01*
X626881Y-134167D01*
X627595D01*
X628071Y-134405D01*
X628309Y-135120D01*
Y-137500D01*
X629880Y-131549D02*
X630356Y-132025D01*
X630832Y-132739D01*
X631308Y-133691D01*
X631546Y-134881D01*
Y-135834D01*
X631308Y-137024D01*
X630832Y-137976D01*
X630356Y-138690D01*
X629880Y-139166D01*
X630356Y-132025D02*
X630832Y-132977D01*
X631070Y-133691D01*
X631308Y-134881D01*
Y-135834D01*
X631070Y-137024D01*
X630832Y-137738D01*
X630356Y-138690D01*
X810040Y-135120D02*
X812182D01*
X812896Y-134881D01*
X813134Y-134643D01*
X813372Y-134167D01*
Y-133453D01*
X813134Y-132977D01*
X812896Y-132739D01*
X812182Y-132501D01*
X810040D01*
Y-137500D01*
X816157Y-132501D02*
Y-137500D01*
X814491Y-132501D02*
X817824D01*
X818419D02*
Y-137500D01*
X821751Y-132501D02*
Y-137500D01*
X818419Y-134881D02*
X821751D01*
X841829Y-132501D02*
Y-137500D01*
Y-132501D02*
X843971D01*
X844686Y-132739D01*
X844924Y-132977D01*
X845162Y-133453D01*
Y-133929D01*
X844924Y-134405D01*
X844686Y-134643D01*
X843971Y-134881D01*
X841829D01*
X843495D02*
X845162Y-137500D01*
X847471Y-134167D02*
X846995Y-134405D01*
X846519Y-134881D01*
X846280Y-135596D01*
Y-136072D01*
X846519Y-136786D01*
X846995Y-137262D01*
X847471Y-137500D01*
X848185D01*
X848661Y-137262D01*
X849137Y-136786D01*
X849375Y-136072D01*
Y-135596D01*
X849137Y-134881D01*
X848661Y-134405D01*
X848185Y-134167D01*
X847471D01*
X850470D02*
Y-136548D01*
X850708Y-137262D01*
X851184Y-137500D01*
X851898D01*
X852374Y-137262D01*
X853088Y-136548D01*
Y-134167D02*
Y-137500D01*
X854398Y-134167D02*
Y-137500D01*
Y-135120D02*
X855112Y-134405D01*
X855588Y-134167D01*
X856302D01*
X856778Y-134405D01*
X857016Y-135120D01*
Y-137500D01*
X861182Y-132501D02*
Y-137500D01*
Y-134881D02*
X860706Y-134405D01*
X860230Y-134167D01*
X859516D01*
X859040Y-134405D01*
X858564Y-134881D01*
X858325Y-135596D01*
Y-136072D01*
X858564Y-136786D01*
X859040Y-137262D01*
X859516Y-137500D01*
X860230D01*
X860706Y-137262D01*
X861182Y-136786D01*
X529686Y-143453D02*
X530162Y-143215D01*
X530877Y-142501D01*
Y-147500D01*
X536209Y-143215D02*
X535971Y-142739D01*
X535257Y-142501D01*
X534781D01*
X534066Y-142739D01*
X533590Y-143453D01*
X533352Y-144643D01*
Y-145834D01*
X533590Y-146786D01*
X534066Y-147262D01*
X534781Y-147500D01*
X535019D01*
X535733Y-147262D01*
X536209Y-146786D01*
X536447Y-146072D01*
Y-145834D01*
X536209Y-145120D01*
X535733Y-144643D01*
X535019Y-144405D01*
X534781D01*
X534066Y-144643D01*
X533590Y-145120D01*
X533352Y-145834D01*
X579367Y-142501D02*
X576987Y-145834D01*
X580557D01*
X579367Y-142501D02*
Y-147500D01*
X581914Y-142501D02*
X584533D01*
X583105Y-144405D01*
X583819D01*
X584295Y-144643D01*
X584533Y-144881D01*
X584771Y-145596D01*
Y-146072D01*
X584533Y-146786D01*
X584057Y-147262D01*
X583343Y-147500D01*
X582628D01*
X581914Y-147262D01*
X581676Y-147024D01*
X581438Y-146548D01*
X586128Y-147024D02*
X585890Y-147262D01*
X586128Y-147500D01*
X586366Y-147262D01*
X586128Y-147024D01*
X587937Y-142501D02*
X590555D01*
X589127Y-144405D01*
X589841D01*
X590317Y-144643D01*
X590555Y-144881D01*
X590793Y-145596D01*
Y-146072D01*
X590555Y-146786D01*
X590079Y-147262D01*
X589365Y-147500D01*
X588651D01*
X587937Y-147262D01*
X587699Y-147024D01*
X587461Y-146548D01*
X593340Y-142501D02*
X592626Y-142739D01*
X592150Y-143453D01*
X591912Y-144643D01*
Y-145358D01*
X592150Y-146548D01*
X592626Y-147262D01*
X593340Y-147500D01*
X593816D01*
X594531Y-147262D01*
X595007Y-146548D01*
X595245Y-145358D01*
Y-144643D01*
X595007Y-143453D01*
X594531Y-142739D01*
X593816Y-142501D01*
X593340D01*
X599696D02*
X597316Y-147500D01*
X596363Y-142501D02*
X599696D01*
X600815Y-144167D02*
Y-147500D01*
Y-145120D02*
X601529Y-144405D01*
X602005Y-144167D01*
X602719D01*
X603195Y-144405D01*
X603433Y-145120D01*
Y-147500D01*
Y-145120D02*
X604148Y-144405D01*
X604624Y-144167D01*
X605338D01*
X605814Y-144405D01*
X606052Y-145120D01*
Y-147500D01*
X608099Y-142501D02*
X608337Y-142739D01*
X608575Y-142501D01*
X608337Y-142263D01*
X608099Y-142501D01*
X608337Y-144167D02*
Y-147500D01*
X609456Y-142501D02*
Y-147500D01*
X616097Y-141549D02*
X615621Y-142025D01*
X615145Y-142739D01*
X614669Y-143691D01*
X614431Y-144881D01*
Y-145834D01*
X614669Y-147024D01*
X615145Y-147976D01*
X615621Y-148690D01*
X616097Y-149166D01*
X615621Y-142025D02*
X615145Y-142977D01*
X614907Y-143691D01*
X614669Y-144881D01*
Y-145834D01*
X614907Y-147024D01*
X615145Y-147738D01*
X615621Y-148690D01*
X617050Y-143453D02*
X617526Y-143215D01*
X618240Y-142501D01*
Y-147500D01*
X620954Y-147024D02*
X620716Y-147262D01*
X620954Y-147500D01*
X621192Y-147262D01*
X620954Y-147024D01*
X622287Y-143453D02*
X622763Y-143215D01*
X623477Y-142501D01*
Y-147500D01*
X625952Y-144167D02*
Y-147500D01*
Y-145120D02*
X626667Y-144405D01*
X627143Y-144167D01*
X627857D01*
X628333Y-144405D01*
X628571Y-145120D01*
Y-147500D01*
Y-145120D02*
X629285Y-144405D01*
X629761Y-144167D01*
X630475D01*
X630951Y-144405D01*
X631189Y-145120D01*
Y-147500D01*
X632760Y-144167D02*
Y-147500D01*
Y-145120D02*
X633475Y-144405D01*
X633951Y-144167D01*
X634665D01*
X635141Y-144405D01*
X635379Y-145120D01*
Y-147500D01*
Y-145120D02*
X636093Y-144405D01*
X636569Y-144167D01*
X637283D01*
X637759Y-144405D01*
X637997Y-145120D01*
Y-147500D01*
X639569Y-141549D02*
X640045Y-142025D01*
X640521Y-142739D01*
X640997Y-143691D01*
X641235Y-144881D01*
Y-145834D01*
X640997Y-147024D01*
X640521Y-147976D01*
X640045Y-148690D01*
X639569Y-149166D01*
X640045Y-142025D02*
X640521Y-142977D01*
X640759Y-143691D01*
X640997Y-144881D01*
Y-145834D01*
X640759Y-147024D01*
X640521Y-147738D01*
X640045Y-148690D01*
X810040Y-145120D02*
X812182D01*
X812896Y-144881D01*
X813134Y-144643D01*
X813372Y-144167D01*
Y-143453D01*
X813134Y-142977D01*
X812896Y-142739D01*
X812182Y-142501D01*
X810040D01*
Y-147500D01*
X816157Y-142501D02*
Y-147500D01*
X814491Y-142501D02*
X817824D01*
X818419D02*
Y-147500D01*
X821751Y-142501D02*
Y-147500D01*
X818419Y-144881D02*
X821751D01*
X841829Y-142501D02*
Y-147500D01*
Y-142501D02*
X843971D01*
X844686Y-142739D01*
X844924Y-142977D01*
X845162Y-143453D01*
Y-143929D01*
X844924Y-144405D01*
X844686Y-144643D01*
X843971Y-144881D01*
X841829D01*
X843495D02*
X845162Y-147500D01*
X847471Y-144167D02*
X846995Y-144405D01*
X846519Y-144881D01*
X846280Y-145596D01*
Y-146072D01*
X846519Y-146786D01*
X846995Y-147262D01*
X847471Y-147500D01*
X848185D01*
X848661Y-147262D01*
X849137Y-146786D01*
X849375Y-146072D01*
Y-145596D01*
X849137Y-144881D01*
X848661Y-144405D01*
X848185Y-144167D01*
X847471D01*
X850470D02*
Y-146548D01*
X850708Y-147262D01*
X851184Y-147500D01*
X851898D01*
X852374Y-147262D01*
X853088Y-146548D01*
Y-144167D02*
Y-147500D01*
X854398Y-144167D02*
Y-147500D01*
Y-145120D02*
X855112Y-144405D01*
X855588Y-144167D01*
X856302D01*
X856778Y-144405D01*
X857016Y-145120D01*
Y-147500D01*
X861182Y-142501D02*
Y-147500D01*
Y-144881D02*
X860706Y-144405D01*
X860230Y-144167D01*
X859516D01*
X859040Y-144405D01*
X858564Y-144881D01*
X858325Y-145596D01*
Y-146072D01*
X858564Y-146786D01*
X859040Y-147262D01*
X859516Y-147500D01*
X860230D01*
X860706Y-147262D01*
X861182Y-146786D01*
X529924Y-153691D02*
Y-153453D01*
X530162Y-152977D01*
X530401Y-152739D01*
X530877Y-152501D01*
X531829D01*
X532305Y-152739D01*
X532543Y-152977D01*
X532781Y-153453D01*
Y-153929D01*
X532543Y-154405D01*
X532067Y-155120D01*
X529686Y-157500D01*
X533019D01*
X576987Y-153453D02*
X577463Y-153215D01*
X578177Y-152501D01*
Y-157500D01*
X580653Y-153453D02*
X581129Y-153215D01*
X581843Y-152501D01*
Y-157500D01*
X585509Y-152501D02*
X584795Y-152739D01*
X584556Y-153215D01*
Y-153691D01*
X584795Y-154167D01*
X585271Y-154405D01*
X586223Y-154643D01*
X586937Y-154882D01*
X587413Y-155358D01*
X587651Y-155834D01*
Y-156548D01*
X587413Y-157024D01*
X587175Y-157262D01*
X586461Y-157500D01*
X585509D01*
X584795Y-157262D01*
X584556Y-157024D01*
X584318Y-156548D01*
Y-155834D01*
X584556Y-155358D01*
X585033Y-154882D01*
X585747Y-154643D01*
X586699Y-154405D01*
X587175Y-154167D01*
X587413Y-153691D01*
Y-153215D01*
X587175Y-152739D01*
X586461Y-152501D01*
X585509D01*
X589008Y-157024D02*
X588770Y-157262D01*
X589008Y-157500D01*
X589246Y-157262D01*
X589008Y-157024D01*
X590341Y-153453D02*
X590817Y-153215D01*
X591531Y-152501D01*
Y-157500D01*
X594007Y-153453D02*
X594483Y-153215D01*
X595197Y-152501D01*
Y-157500D01*
X597673Y-154167D02*
Y-157500D01*
Y-155120D02*
X598387Y-154405D01*
X598863Y-154167D01*
X599577D01*
X600053Y-154405D01*
X600291Y-155120D01*
Y-157500D01*
Y-155120D02*
X601005Y-154405D01*
X601481Y-154167D01*
X602196D01*
X602672Y-154405D01*
X602910Y-155120D01*
Y-157500D01*
X604957Y-152501D02*
X605195Y-152739D01*
X605433Y-152501D01*
X605195Y-152263D01*
X604957Y-152501D01*
X605195Y-154167D02*
Y-157500D01*
X606314Y-152501D02*
Y-157500D01*
X612955Y-151549D02*
X612479Y-152025D01*
X612003Y-152739D01*
X611527Y-153691D01*
X611289Y-154882D01*
Y-155834D01*
X611527Y-157024D01*
X612003Y-157976D01*
X612479Y-158690D01*
X612955Y-159166D01*
X612479Y-152025D02*
X612003Y-152977D01*
X611765Y-153691D01*
X611527Y-154882D01*
Y-155834D01*
X611765Y-157024D01*
X612003Y-157738D01*
X612479Y-158690D01*
X614384Y-152501D02*
X617002D01*
X615574Y-154405D01*
X616288D01*
X616764Y-154643D01*
X617002Y-154882D01*
X617240Y-155596D01*
Y-156072D01*
X617002Y-156786D01*
X616526Y-157262D01*
X615812Y-157500D01*
X615098D01*
X614384Y-157262D01*
X614145Y-157024D01*
X613907Y-156548D01*
X618359Y-154167D02*
Y-157500D01*
Y-155120D02*
X619073Y-154405D01*
X619549Y-154167D01*
X620263D01*
X620739Y-154405D01*
X620977Y-155120D01*
Y-157500D01*
Y-155120D02*
X621691Y-154405D01*
X622167Y-154167D01*
X622882D01*
X623358Y-154405D01*
X623596Y-155120D01*
Y-157500D01*
X625167Y-154167D02*
Y-157500D01*
Y-155120D02*
X625881Y-154405D01*
X626357Y-154167D01*
X627071D01*
X627547Y-154405D01*
X627785Y-155120D01*
Y-157500D01*
Y-155120D02*
X628500Y-154405D01*
X628976Y-154167D01*
X629690D01*
X630166Y-154405D01*
X630404Y-155120D01*
Y-157500D01*
X631975Y-151549D02*
X632451Y-152025D01*
X632927Y-152739D01*
X633403Y-153691D01*
X633641Y-154882D01*
Y-155834D01*
X633403Y-157024D01*
X632927Y-157976D01*
X632451Y-158690D01*
X631975Y-159166D01*
X632451Y-152025D02*
X632927Y-152977D01*
X633165Y-153691D01*
X633403Y-154882D01*
Y-155834D01*
X633165Y-157024D01*
X632927Y-157738D01*
X632451Y-158690D01*
X810040Y-155120D02*
X812182D01*
X812896Y-154882D01*
X813134Y-154643D01*
X813372Y-154167D01*
Y-153453D01*
X813134Y-152977D01*
X812896Y-152739D01*
X812182Y-152501D01*
X810040D01*
Y-157500D01*
X816157Y-152501D02*
Y-157500D01*
X814491Y-152501D02*
X817824D01*
X818419D02*
Y-157500D01*
X821751Y-152501D02*
Y-157500D01*
X818419Y-154882D02*
X821751D01*
X841829Y-152501D02*
Y-157500D01*
Y-152501D02*
X843971D01*
X844686Y-152739D01*
X844924Y-152977D01*
X845162Y-153453D01*
Y-153929D01*
X844924Y-154405D01*
X844686Y-154643D01*
X843971Y-154882D01*
X841829D01*
X843495D02*
X845162Y-157500D01*
X847471Y-154167D02*
X846995Y-154405D01*
X846519Y-154882D01*
X846280Y-155596D01*
Y-156072D01*
X846519Y-156786D01*
X846995Y-157262D01*
X847471Y-157500D01*
X848185D01*
X848661Y-157262D01*
X849137Y-156786D01*
X849375Y-156072D01*
Y-155596D01*
X849137Y-154882D01*
X848661Y-154405D01*
X848185Y-154167D01*
X847471D01*
X850470D02*
Y-156548D01*
X850708Y-157262D01*
X851184Y-157500D01*
X851898D01*
X852374Y-157262D01*
X853088Y-156548D01*
Y-154167D02*
Y-157500D01*
X854398Y-154167D02*
Y-157500D01*
Y-155120D02*
X855112Y-154405D01*
X855588Y-154167D01*
X856302D01*
X856778Y-154405D01*
X857016Y-155120D01*
Y-157500D01*
X861182Y-152501D02*
Y-157500D01*
Y-154882D02*
X860706Y-154405D01*
X860230Y-154167D01*
X859516D01*
X859040Y-154405D01*
X858564Y-154882D01*
X858325Y-155596D01*
Y-156072D01*
X858564Y-156786D01*
X859040Y-157262D01*
X859516Y-157500D01*
X860230D01*
X860706Y-157262D01*
X861182Y-156786D01*
X529924Y-163691D02*
Y-163453D01*
X530162Y-162977D01*
X530401Y-162739D01*
X530877Y-162501D01*
X531829D01*
X532305Y-162739D01*
X532543Y-162977D01*
X532781Y-163453D01*
Y-163929D01*
X532543Y-164405D01*
X532067Y-165120D01*
X529686Y-167500D01*
X533019D01*
X576987Y-163453D02*
X577463Y-163215D01*
X578177Y-162501D01*
Y-167500D01*
X581129Y-162501D02*
X583747D01*
X582319Y-164405D01*
X583033D01*
X583509Y-164644D01*
X583747Y-164882D01*
X583985Y-165596D01*
Y-166072D01*
X583747Y-166786D01*
X583271Y-167262D01*
X582557Y-167500D01*
X581843D01*
X581129Y-167262D01*
X580891Y-167024D01*
X580653Y-166548D01*
X585342Y-167024D02*
X585104Y-167262D01*
X585342Y-167500D01*
X585580Y-167262D01*
X585342Y-167024D01*
X590008Y-162501D02*
X587627Y-167500D01*
X586675Y-162501D02*
X590008D01*
X592317D02*
X591603Y-162739D01*
X591365Y-163215D01*
Y-163691D01*
X591603Y-164167D01*
X592079Y-164405D01*
X593031Y-164644D01*
X593745Y-164882D01*
X594221Y-165358D01*
X594459Y-165834D01*
Y-166548D01*
X594221Y-167024D01*
X593983Y-167262D01*
X593269Y-167500D01*
X592317D01*
X591603Y-167262D01*
X591365Y-167024D01*
X591127Y-166548D01*
Y-165834D01*
X591365Y-165358D01*
X591841Y-164882D01*
X592555Y-164644D01*
X593507Y-164405D01*
X593983Y-164167D01*
X594221Y-163691D01*
Y-163215D01*
X593983Y-162739D01*
X593269Y-162501D01*
X592317D01*
X595578Y-164167D02*
Y-167500D01*
Y-165120D02*
X596292Y-164405D01*
X596768Y-164167D01*
X597482D01*
X597958Y-164405D01*
X598197Y-165120D01*
Y-167500D01*
Y-165120D02*
X598911Y-164405D01*
X599387Y-164167D01*
X600101D01*
X600577Y-164405D01*
X600815Y-165120D01*
Y-167500D01*
X602862Y-162501D02*
X603100Y-162739D01*
X603338Y-162501D01*
X603100Y-162263D01*
X602862Y-162501D01*
X603100Y-164167D02*
Y-167500D01*
X604219Y-162501D02*
Y-167500D01*
X610860Y-161549D02*
X610384Y-162025D01*
X609908Y-162739D01*
X609432Y-163691D01*
X609194Y-164882D01*
Y-165834D01*
X609432Y-167024D01*
X609908Y-167976D01*
X610384Y-168690D01*
X610860Y-169166D01*
X610384Y-162025D02*
X609908Y-162977D01*
X609670Y-163691D01*
X609432Y-164882D01*
Y-165834D01*
X609670Y-167024D01*
X609908Y-167738D01*
X610384Y-168690D01*
X613241Y-162501D02*
X612527Y-162739D01*
X612051Y-163453D01*
X611813Y-164644D01*
Y-165358D01*
X612051Y-166548D01*
X612527Y-167262D01*
X613241Y-167500D01*
X613717D01*
X614431Y-167262D01*
X614907Y-166548D01*
X615145Y-165358D01*
Y-164644D01*
X614907Y-163453D01*
X614431Y-162739D01*
X613717Y-162501D01*
X613241D01*
X616502Y-167024D02*
X616264Y-167262D01*
X616502Y-167500D01*
X616740Y-167262D01*
X616502Y-167024D01*
X618311Y-162501D02*
X620930D01*
X619501Y-164405D01*
X620216D01*
X620692Y-164644D01*
X620930Y-164882D01*
X621168Y-165596D01*
Y-166072D01*
X620930Y-166786D01*
X620454Y-167262D01*
X619739Y-167500D01*
X619025D01*
X618311Y-167262D01*
X618073Y-167024D01*
X617835Y-166548D01*
X625143Y-162501D02*
X622763D01*
X622525Y-164644D01*
X622763Y-164405D01*
X623477Y-164167D01*
X624191D01*
X624905Y-164405D01*
X625381Y-164882D01*
X625619Y-165596D01*
Y-166072D01*
X625381Y-166786D01*
X624905Y-167262D01*
X624191Y-167500D01*
X623477D01*
X622763Y-167262D01*
X622525Y-167024D01*
X622287Y-166548D01*
X626738Y-164167D02*
Y-167500D01*
Y-165120D02*
X627452Y-164405D01*
X627928Y-164167D01*
X628642D01*
X629118Y-164405D01*
X629356Y-165120D01*
Y-167500D01*
Y-165120D02*
X630071Y-164405D01*
X630547Y-164167D01*
X631261D01*
X631737Y-164405D01*
X631975Y-165120D01*
Y-167500D01*
X633546Y-164167D02*
Y-167500D01*
Y-165120D02*
X634260Y-164405D01*
X634736Y-164167D01*
X635450D01*
X635926Y-164405D01*
X636165Y-165120D01*
Y-167500D01*
Y-165120D02*
X636879Y-164405D01*
X637355Y-164167D01*
X638069D01*
X638545Y-164405D01*
X638783Y-165120D01*
Y-167500D01*
X640354Y-161549D02*
X640830Y-162025D01*
X641306Y-162739D01*
X641782Y-163691D01*
X642020Y-164882D01*
Y-165834D01*
X641782Y-167024D01*
X641306Y-167976D01*
X640830Y-168690D01*
X640354Y-169166D01*
X640830Y-162025D02*
X641306Y-162977D01*
X641544Y-163691D01*
X641782Y-164882D01*
Y-165834D01*
X641544Y-167024D01*
X641306Y-167738D01*
X640830Y-168690D01*
X660156Y-162501D02*
X662774D01*
X661346Y-164405D01*
X662060D01*
X662536Y-164644D01*
X662774Y-164882D01*
X663012Y-165596D01*
Y-166072D01*
X662774Y-166786D01*
X662298Y-167262D01*
X661584Y-167500D01*
X660870D01*
X660156Y-167262D01*
X659917Y-167024D01*
X659680Y-166548D01*
X667226Y-164167D02*
X666988Y-164882D01*
X666511Y-165358D01*
X665797Y-165596D01*
X665559D01*
X664845Y-165358D01*
X664369Y-164882D01*
X664131Y-164167D01*
Y-163929D01*
X664369Y-163215D01*
X664845Y-162739D01*
X665559Y-162501D01*
X665797D01*
X666511Y-162739D01*
X666988Y-163215D01*
X667226Y-164167D01*
Y-165358D01*
X666988Y-166548D01*
X666511Y-167262D01*
X665797Y-167500D01*
X665321D01*
X664607Y-167262D01*
X664369Y-166786D01*
X668820Y-167024D02*
X668582Y-167262D01*
X668820Y-167500D01*
X669058Y-167262D01*
X668820Y-167024D01*
X670630Y-162501D02*
X673248D01*
X671820Y-164405D01*
X672534D01*
X673010Y-164644D01*
X673248Y-164882D01*
X673486Y-165596D01*
Y-166072D01*
X673248Y-166786D01*
X672772Y-167262D01*
X672058Y-167500D01*
X671344D01*
X670630Y-167262D01*
X670392Y-167024D01*
X670153Y-166548D01*
X677938Y-162501D02*
X675557Y-167500D01*
X674605Y-162501D02*
X677938D01*
X679056Y-164167D02*
Y-167500D01*
Y-165120D02*
X679770Y-164405D01*
X680246Y-164167D01*
X680961D01*
X681437Y-164405D01*
X681675Y-165120D01*
Y-167500D01*
Y-165120D02*
X682389Y-164405D01*
X682865Y-164167D01*
X683579D01*
X684055Y-164405D01*
X684293Y-165120D01*
Y-167500D01*
X686341Y-162501D02*
X686579Y-162739D01*
X686817Y-162501D01*
X686579Y-162263D01*
X686341Y-162501D01*
X686579Y-164167D02*
Y-167500D01*
X687697Y-162501D02*
Y-167500D01*
X694339Y-161549D02*
X693863Y-162025D01*
X693387Y-162739D01*
X692910Y-163691D01*
X692672Y-164882D01*
Y-165834D01*
X692910Y-167024D01*
X693387Y-167976D01*
X693863Y-168690D01*
X694339Y-169166D01*
X693863Y-162025D02*
X693387Y-162977D01*
X693149Y-163691D01*
X692910Y-164882D01*
Y-165834D01*
X693149Y-167024D01*
X693387Y-167738D01*
X693863Y-168690D01*
X695291Y-163453D02*
X695767Y-163215D01*
X696481Y-162501D01*
Y-167500D01*
X698957Y-164167D02*
Y-167500D01*
Y-165120D02*
X699671Y-164405D01*
X700147Y-164167D01*
X700861D01*
X701337Y-164405D01*
X701575Y-165120D01*
Y-167500D01*
Y-165120D02*
X702289Y-164405D01*
X702766Y-164167D01*
X703480D01*
X703956Y-164405D01*
X704194Y-165120D01*
Y-167500D01*
X705765Y-164167D02*
Y-167500D01*
Y-165120D02*
X706479Y-164405D01*
X706955Y-164167D01*
X707669D01*
X708145Y-164405D01*
X708383Y-165120D01*
Y-167500D01*
Y-165120D02*
X709097Y-164405D01*
X709574Y-164167D01*
X710288D01*
X710764Y-164405D01*
X711002Y-165120D01*
Y-167500D01*
X712573Y-161549D02*
X713049Y-162025D01*
X713525Y-162739D01*
X714001Y-163691D01*
X714239Y-164882D01*
Y-165834D01*
X714001Y-167024D01*
X713525Y-167976D01*
X713049Y-168690D01*
X712573Y-169166D01*
X713049Y-162025D02*
X713525Y-162977D01*
X713763Y-163691D01*
X714001Y-164882D01*
Y-165834D01*
X713763Y-167024D01*
X713525Y-167738D01*
X713049Y-168690D01*
X730699Y-163691D02*
Y-163453D01*
X730937Y-162977D01*
X731175Y-162739D01*
X731651Y-162501D01*
X732603D01*
X733079Y-162739D01*
X733317Y-162977D01*
X733555Y-163453D01*
Y-163929D01*
X733317Y-164405D01*
X732841Y-165120D01*
X730461Y-167500D01*
X733793D01*
X737769Y-162501D02*
X735388D01*
X735150Y-164644D01*
X735388Y-164405D01*
X736102Y-164167D01*
X736816D01*
X737531Y-164405D01*
X738006Y-164882D01*
X738245Y-165596D01*
Y-166072D01*
X738006Y-166786D01*
X737531Y-167262D01*
X736816Y-167500D01*
X736102D01*
X735388Y-167262D01*
X735150Y-167024D01*
X734912Y-166548D01*
X739601Y-167024D02*
X739363Y-167262D01*
X739601Y-167500D01*
X739840Y-167262D01*
X739601Y-167024D01*
X743791Y-162501D02*
X741411D01*
X741173Y-164644D01*
X741411Y-164405D01*
X742125Y-164167D01*
X742839D01*
X743553Y-164405D01*
X744029Y-164882D01*
X744267Y-165596D01*
Y-166072D01*
X744029Y-166786D01*
X743553Y-167262D01*
X742839Y-167500D01*
X742125D01*
X741411Y-167262D01*
X741173Y-167024D01*
X740935Y-166548D01*
X748481Y-164167D02*
X748242Y-164882D01*
X747766Y-165358D01*
X747052Y-165596D01*
X746814D01*
X746100Y-165358D01*
X745624Y-164882D01*
X745386Y-164167D01*
Y-163929D01*
X745624Y-163215D01*
X746100Y-162739D01*
X746814Y-162501D01*
X747052D01*
X747766Y-162739D01*
X748242Y-163215D01*
X748481Y-164167D01*
Y-165358D01*
X748242Y-166548D01*
X747766Y-167262D01*
X747052Y-167500D01*
X746576D01*
X745862Y-167262D01*
X745624Y-166786D01*
X749837Y-163453D02*
X750313Y-163215D01*
X751028Y-162501D01*
Y-167500D01*
X753503Y-164167D02*
Y-167500D01*
Y-165120D02*
X754217Y-164405D01*
X754693Y-164167D01*
X755408D01*
X755884Y-164405D01*
X756122Y-165120D01*
Y-167500D01*
Y-165120D02*
X756836Y-164405D01*
X757312Y-164167D01*
X758026D01*
X758502Y-164405D01*
X758740Y-165120D01*
Y-167500D01*
X760787Y-162501D02*
X761025Y-162739D01*
X761264Y-162501D01*
X761025Y-162263D01*
X760787Y-162501D01*
X761025Y-164167D02*
Y-167500D01*
X762144Y-162501D02*
Y-167500D01*
X768786Y-161549D02*
X768310Y-162025D01*
X767834Y-162739D01*
X767357Y-163691D01*
X767119Y-164882D01*
Y-165834D01*
X767357Y-167024D01*
X767834Y-167976D01*
X768310Y-168690D01*
X768786Y-169166D01*
X768310Y-162025D02*
X767834Y-162977D01*
X767595Y-163691D01*
X767357Y-164882D01*
Y-165834D01*
X767595Y-167024D01*
X767834Y-167738D01*
X768310Y-168690D01*
X771166Y-162501D02*
X770452Y-162739D01*
X769976Y-163453D01*
X769738Y-164644D01*
Y-165358D01*
X769976Y-166548D01*
X770452Y-167262D01*
X771166Y-167500D01*
X771642D01*
X772356Y-167262D01*
X772832Y-166548D01*
X773070Y-165358D01*
Y-164644D01*
X772832Y-163453D01*
X772356Y-162739D01*
X771642Y-162501D01*
X771166D01*
X774427Y-167024D02*
X774189Y-167262D01*
X774427Y-167500D01*
X774665Y-167262D01*
X774427Y-167024D01*
X778617Y-163215D02*
X778379Y-162739D01*
X777665Y-162501D01*
X777189D01*
X776475Y-162739D01*
X775998Y-163453D01*
X775760Y-164644D01*
Y-165834D01*
X775998Y-166786D01*
X776475Y-167262D01*
X777189Y-167500D01*
X777427D01*
X778141Y-167262D01*
X778617Y-166786D01*
X778855Y-166072D01*
Y-165834D01*
X778617Y-165120D01*
X778141Y-164644D01*
X777427Y-164405D01*
X777189D01*
X776475Y-164644D01*
X775998Y-165120D01*
X775760Y-165834D01*
X782806Y-162501D02*
X780426D01*
X780188Y-164644D01*
X780426Y-164405D01*
X781140Y-164167D01*
X781854D01*
X782568Y-164405D01*
X783044Y-164882D01*
X783283Y-165596D01*
Y-166072D01*
X783044Y-166786D01*
X782568Y-167262D01*
X781854Y-167500D01*
X781140D01*
X780426Y-167262D01*
X780188Y-167024D01*
X779950Y-166548D01*
X784401Y-164167D02*
Y-167500D01*
Y-165120D02*
X785115Y-164405D01*
X785592Y-164167D01*
X786306D01*
X786782Y-164405D01*
X787020Y-165120D01*
Y-167500D01*
Y-165120D02*
X787734Y-164405D01*
X788210Y-164167D01*
X788924D01*
X789400Y-164405D01*
X789638Y-165120D01*
Y-167500D01*
X791209Y-164167D02*
Y-167500D01*
Y-165120D02*
X791924Y-164405D01*
X792400Y-164167D01*
X793114D01*
X793590Y-164405D01*
X793828Y-165120D01*
Y-167500D01*
Y-165120D02*
X794542Y-164405D01*
X795018Y-164167D01*
X795732D01*
X796208Y-164405D01*
X796446Y-165120D01*
Y-167500D01*
X798018Y-161549D02*
X798494Y-162025D01*
X798970Y-162739D01*
X799446Y-163691D01*
X799684Y-164882D01*
Y-165834D01*
X799446Y-167024D01*
X798970Y-167976D01*
X798494Y-168690D01*
X798018Y-169166D01*
X798494Y-162025D02*
X798970Y-162977D01*
X799208Y-163691D01*
X799446Y-164882D01*
Y-165834D01*
X799208Y-167024D01*
X798970Y-167738D01*
X798494Y-168690D01*
X810040Y-165120D02*
X812182D01*
X812896Y-164882D01*
X813134Y-164644D01*
X813372Y-164167D01*
Y-163453D01*
X813134Y-162977D01*
X812896Y-162739D01*
X812182Y-162501D01*
X810040D01*
Y-167500D01*
X816157Y-162501D02*
Y-167500D01*
X814491Y-162501D02*
X817824D01*
X818419D02*
Y-167500D01*
X821751Y-162501D02*
Y-167500D01*
X818419Y-164882D02*
X821751D01*
X845162Y-163215D02*
X844686Y-162739D01*
X843971Y-162501D01*
X843019D01*
X842305Y-162739D01*
X841829Y-163215D01*
Y-163691D01*
X842067Y-164167D01*
X842305Y-164405D01*
X842781Y-164644D01*
X844209Y-165120D01*
X844686Y-165358D01*
X844924Y-165596D01*
X845162Y-166072D01*
Y-166786D01*
X844686Y-167262D01*
X843971Y-167500D01*
X843019D01*
X842305Y-167262D01*
X841829Y-166786D01*
X846280Y-162501D02*
Y-167500D01*
X848518Y-164167D02*
X848042Y-164405D01*
X847566Y-164882D01*
X847328Y-165596D01*
Y-166072D01*
X847566Y-166786D01*
X848042Y-167262D01*
X848518Y-167500D01*
X849232D01*
X849708Y-167262D01*
X850184Y-166786D01*
X850422Y-166072D01*
Y-165596D01*
X850184Y-164882D01*
X849708Y-164405D01*
X849232Y-164167D01*
X848518D01*
X852232Y-162501D02*
Y-166548D01*
X852470Y-167262D01*
X852946Y-167500D01*
X853422D01*
X851517Y-164167D02*
X853184D01*
X530162Y-172501D02*
X532781D01*
X531353Y-174405D01*
X532067D01*
X532543Y-174644D01*
X532781Y-174881D01*
X533019Y-175596D01*
Y-176072D01*
X532781Y-176786D01*
X532305Y-177262D01*
X531591Y-177500D01*
X530877D01*
X530162Y-177262D01*
X529924Y-177024D01*
X529686Y-176548D01*
X534138Y-173453D02*
X534614Y-173215D01*
X535328Y-172501D01*
Y-177500D01*
X538042Y-173691D02*
Y-173453D01*
X538280Y-172977D01*
X538518Y-172739D01*
X538994Y-172501D01*
X539946D01*
X540422Y-172739D01*
X540660Y-172977D01*
X540898Y-173453D01*
Y-173929D01*
X540660Y-174405D01*
X540184Y-175120D01*
X537804Y-177500D01*
X541136D01*
X550963Y-172501D02*
Y-177500D01*
X549296Y-172501D02*
X552629D01*
X554414Y-174167D02*
X553938Y-174405D01*
X553462Y-174881D01*
X553224Y-175596D01*
Y-176072D01*
X553462Y-176786D01*
X553938Y-177262D01*
X554414Y-177500D01*
X555128D01*
X555605Y-177262D01*
X556081Y-176786D01*
X556319Y-176072D01*
Y-175596D01*
X556081Y-174881D01*
X555605Y-174405D01*
X555128Y-174167D01*
X554414D01*
X558128Y-172501D02*
Y-176548D01*
X558366Y-177262D01*
X558842Y-177500D01*
X559318D01*
X557414Y-174167D02*
X559080D01*
X562889D02*
Y-177500D01*
Y-174881D02*
X562413Y-174405D01*
X561937Y-174167D01*
X561222D01*
X560746Y-174405D01*
X560270Y-174881D01*
X560032Y-175596D01*
Y-176072D01*
X560270Y-176786D01*
X560746Y-177262D01*
X561222Y-177500D01*
X561937D01*
X562413Y-177262D01*
X562889Y-176786D01*
X564222Y-172501D02*
Y-177500D01*
X621207Y-184643D02*
X625492D01*
X621207Y-186072D02*
X625492D01*
X634466Y-183691D02*
X634228Y-183215D01*
X633752Y-182739D01*
X633276Y-182501D01*
X632324D01*
X631848Y-182739D01*
X631372Y-183215D01*
X631134Y-183691D01*
X630896Y-184405D01*
Y-185596D01*
X631134Y-186310D01*
X631372Y-186786D01*
X631848Y-187262D01*
X632324Y-187500D01*
X633276D01*
X633752Y-187262D01*
X634228Y-186786D01*
X634466Y-186310D01*
X638727Y-184167D02*
Y-187500D01*
Y-184881D02*
X638251Y-184405D01*
X637775Y-184167D01*
X637061D01*
X636585Y-184405D01*
X636109Y-184881D01*
X635871Y-185596D01*
Y-186072D01*
X636109Y-186786D01*
X636585Y-187262D01*
X637061Y-187500D01*
X637775D01*
X638251Y-187262D01*
X638727Y-186786D01*
X640060Y-182501D02*
Y-187500D01*
X643964Y-184881D02*
X643488Y-184405D01*
X643012Y-184167D01*
X642298D01*
X641822Y-184405D01*
X641346Y-184881D01*
X641108Y-185596D01*
Y-186072D01*
X641346Y-186786D01*
X641822Y-187262D01*
X642298Y-187500D01*
X643012D01*
X643488Y-187262D01*
X643964Y-186786D01*
X645035Y-184167D02*
Y-186548D01*
X645273Y-187262D01*
X645750Y-187500D01*
X646464D01*
X646940Y-187262D01*
X647654Y-186548D01*
Y-184167D02*
Y-187500D01*
X648963Y-182501D02*
Y-187500D01*
X652867Y-184167D02*
Y-187500D01*
Y-184881D02*
X652391Y-184405D01*
X651915Y-184167D01*
X651201D01*
X650725Y-184405D01*
X650248Y-184881D01*
X650010Y-185596D01*
Y-186072D01*
X650248Y-186786D01*
X650725Y-187262D01*
X651201Y-187500D01*
X651915D01*
X652391Y-187262D01*
X652867Y-186786D01*
X654914Y-182501D02*
Y-186548D01*
X655152Y-187262D01*
X655628Y-187500D01*
X656104D01*
X654200Y-184167D02*
X655866D01*
X656818Y-185596D02*
X659675D01*
Y-185120D01*
X659437Y-184643D01*
X659199Y-184405D01*
X658723Y-184167D01*
X658009D01*
X657533Y-184405D01*
X657057Y-184881D01*
X656818Y-185596D01*
Y-186072D01*
X657057Y-186786D01*
X657533Y-187262D01*
X658009Y-187500D01*
X658723D01*
X659199Y-187262D01*
X659675Y-186786D01*
X663603Y-182501D02*
Y-187500D01*
Y-184881D02*
X663127Y-184405D01*
X662651Y-184167D01*
X661937D01*
X661460Y-184405D01*
X660984Y-184881D01*
X660746Y-185596D01*
Y-186072D01*
X660984Y-186786D01*
X661460Y-187262D01*
X661937Y-187500D01*
X662651D01*
X663127Y-187262D01*
X663603Y-186786D01*
X670768Y-182501D02*
X670292D01*
X669816Y-182739D01*
X669578Y-183453D01*
Y-187500D01*
X668864Y-184167D02*
X670530D01*
X671482D02*
Y-187500D01*
Y-185596D02*
X671720Y-184881D01*
X672196Y-184405D01*
X672672Y-184167D01*
X673386D01*
X675029D02*
X674553Y-184405D01*
X674077Y-184881D01*
X673839Y-185596D01*
Y-186072D01*
X674077Y-186786D01*
X674553Y-187262D01*
X675029Y-187500D01*
X675743D01*
X676219Y-187262D01*
X676695Y-186786D01*
X676933Y-186072D01*
Y-185596D01*
X676695Y-184881D01*
X676219Y-184405D01*
X675743Y-184167D01*
X675029D01*
X678028D02*
Y-187500D01*
Y-185120D02*
X678742Y-184405D01*
X679218Y-184167D01*
X679933D01*
X680409Y-184405D01*
X680647Y-185120D01*
Y-187500D01*
Y-185120D02*
X681361Y-184405D01*
X681837Y-184167D01*
X682551D01*
X683027Y-184405D01*
X683265Y-185120D01*
Y-187500D01*
X689478Y-182501D02*
Y-186548D01*
X689716Y-187262D01*
X690192Y-187500D01*
X690668D01*
X688764Y-184167D02*
X690430D01*
X692573D02*
X692097Y-184405D01*
X691621Y-184881D01*
X691383Y-185596D01*
Y-186072D01*
X691621Y-186786D01*
X692097Y-187262D01*
X692573Y-187500D01*
X693287D01*
X693763Y-187262D01*
X694239Y-186786D01*
X694477Y-186072D01*
Y-185596D01*
X694239Y-184881D01*
X693763Y-184405D01*
X693287Y-184167D01*
X692573D01*
X696762D02*
X696286Y-184405D01*
X695810Y-184881D01*
X695572Y-185596D01*
Y-186072D01*
X695810Y-186786D01*
X696286Y-187262D01*
X696762Y-187500D01*
X697476D01*
X697953Y-187262D01*
X698429Y-186786D01*
X698667Y-186072D01*
Y-185596D01*
X698429Y-184881D01*
X697953Y-184405D01*
X697476Y-184167D01*
X696762D01*
X699762Y-182501D02*
Y-187500D01*
X707355Y-184881D02*
X707117Y-184405D01*
X706403Y-184167D01*
X705689D01*
X704975Y-184405D01*
X704737Y-184881D01*
X704975Y-185358D01*
X705451Y-185596D01*
X706641Y-185834D01*
X707117Y-186072D01*
X707355Y-186548D01*
Y-186786D01*
X707117Y-187262D01*
X706403Y-187500D01*
X705689D01*
X704975Y-187262D01*
X704737Y-186786D01*
X709117Y-182501D02*
Y-186548D01*
X709355Y-187262D01*
X709831Y-187500D01*
X710307D01*
X708403Y-184167D02*
X710069D01*
X713878D02*
Y-187500D01*
Y-184881D02*
X713402Y-184405D01*
X712926Y-184167D01*
X712211D01*
X711735Y-184405D01*
X711259Y-184881D01*
X711021Y-185596D01*
Y-186072D01*
X711259Y-186786D01*
X711735Y-187262D01*
X712211Y-187500D01*
X712926D01*
X713402Y-187262D01*
X713878Y-186786D01*
X715211Y-184167D02*
Y-187500D01*
Y-185596D02*
X715449Y-184881D01*
X715925Y-184405D01*
X716401Y-184167D01*
X717115D01*
X718282Y-182501D02*
Y-186548D01*
X718520Y-187262D01*
X718996Y-187500D01*
X719472D01*
X717567Y-184167D02*
X719234D01*
X726970Y-184881D02*
X726494Y-184405D01*
X726018Y-184167D01*
X725304D01*
X724828Y-184405D01*
X724352Y-184881D01*
X724114Y-185596D01*
Y-186072D01*
X724352Y-186786D01*
X724828Y-187262D01*
X725304Y-187500D01*
X726018D01*
X726494Y-187262D01*
X726970Y-186786D01*
X728041Y-185596D02*
X730898D01*
Y-185120D01*
X730660Y-184643D01*
X730422Y-184405D01*
X729946Y-184167D01*
X729232D01*
X728756Y-184405D01*
X728279Y-184881D01*
X728041Y-185596D01*
Y-186072D01*
X728279Y-186786D01*
X728756Y-187262D01*
X729232Y-187500D01*
X729946D01*
X730422Y-187262D01*
X730898Y-186786D01*
X731969Y-184167D02*
Y-187500D01*
Y-185120D02*
X732683Y-184405D01*
X733159Y-184167D01*
X733874D01*
X734349Y-184405D01*
X734588Y-185120D01*
Y-187500D01*
X736611Y-182501D02*
Y-186548D01*
X736849Y-187262D01*
X737325Y-187500D01*
X737801D01*
X735897Y-184167D02*
X737563D01*
X738515D02*
Y-187500D01*
Y-185596D02*
X738753Y-184881D01*
X739229Y-184405D01*
X739706Y-184167D01*
X740420D01*
X740872Y-185596D02*
X743728D01*
Y-185120D01*
X743491Y-184643D01*
X743252Y-184405D01*
X742776Y-184167D01*
X742062D01*
X741586Y-184405D01*
X741110Y-184881D01*
X740872Y-185596D01*
Y-186072D01*
X741110Y-186786D01*
X741586Y-187262D01*
X742062Y-187500D01*
X742776D01*
X743252Y-187262D01*
X743728Y-186786D01*
X748727Y-184167D02*
Y-189166D01*
Y-184881D02*
X749203Y-184405D01*
X749680Y-184167D01*
X750394D01*
X750870Y-184405D01*
X751346Y-184881D01*
X751584Y-185596D01*
Y-186072D01*
X751346Y-186786D01*
X750870Y-187262D01*
X750394Y-187500D01*
X749680D01*
X749203Y-187262D01*
X748727Y-186786D01*
X753845Y-184167D02*
X753369Y-184405D01*
X752893Y-184881D01*
X752655Y-185596D01*
Y-186072D01*
X752893Y-186786D01*
X753369Y-187262D01*
X753845Y-187500D01*
X754560D01*
X755036Y-187262D01*
X755512Y-186786D01*
X755750Y-186072D01*
Y-185596D01*
X755512Y-184881D01*
X755036Y-184405D01*
X754560Y-184167D01*
X753845D01*
X759463Y-184881D02*
X759225Y-184405D01*
X758511Y-184167D01*
X757797D01*
X757083Y-184405D01*
X756845Y-184881D01*
X757083Y-185358D01*
X757559Y-185596D01*
X758749Y-185834D01*
X759225Y-186072D01*
X759463Y-186548D01*
Y-186786D01*
X759225Y-187262D01*
X758511Y-187500D01*
X757797D01*
X757083Y-187262D01*
X756845Y-186786D01*
X760987Y-182501D02*
X761225Y-182739D01*
X761463Y-182501D01*
X761225Y-182263D01*
X760987Y-182501D01*
X761225Y-184167D02*
Y-187500D01*
X763058Y-182501D02*
Y-186548D01*
X763296Y-187262D01*
X763772Y-187500D01*
X764248D01*
X762344Y-184167D02*
X764010D01*
X765438Y-182501D02*
X765676Y-182739D01*
X765914Y-182501D01*
X765676Y-182263D01*
X765438Y-182501D01*
X765676Y-184167D02*
Y-187500D01*
X767985Y-184167D02*
X767509Y-184405D01*
X767033Y-184881D01*
X766795Y-185596D01*
Y-186072D01*
X767033Y-186786D01*
X767509Y-187262D01*
X767985Y-187500D01*
X768699D01*
X769175Y-187262D01*
X769652Y-186786D01*
X769890Y-186072D01*
Y-185596D01*
X769652Y-184881D01*
X769175Y-184405D01*
X768699Y-184167D01*
X767985D01*
X770985D02*
Y-187500D01*
Y-185120D02*
X771699Y-184405D01*
X772175Y-184167D01*
X772889D01*
X773365Y-184405D01*
X773603Y-185120D01*
Y-187500D01*
X779554Y-182501D02*
Y-186548D01*
X779792Y-187262D01*
X780268Y-187500D01*
X780744D01*
X778840Y-184167D02*
X780506D01*
X782649D02*
X782173Y-184405D01*
X781697Y-184881D01*
X781459Y-185596D01*
Y-186072D01*
X781697Y-186786D01*
X782173Y-187262D01*
X782649Y-187500D01*
X783363D01*
X783839Y-187262D01*
X784315Y-186786D01*
X784553Y-186072D01*
Y-185596D01*
X784315Y-184881D01*
X783839Y-184405D01*
X783363Y-184167D01*
X782649D01*
X790290Y-182501D02*
Y-186548D01*
X790528Y-187262D01*
X791004Y-187500D01*
X791480D01*
X789576Y-184167D02*
X791242D01*
X793385D02*
X792908Y-184405D01*
X792432Y-184881D01*
X792194Y-185596D01*
Y-186072D01*
X792432Y-186786D01*
X792908Y-187262D01*
X793385Y-187500D01*
X794099D01*
X794575Y-187262D01*
X795051Y-186786D01*
X795289Y-186072D01*
Y-185596D01*
X795051Y-184881D01*
X794575Y-184405D01*
X794099Y-184167D01*
X793385D01*
X797574D02*
X797098Y-184405D01*
X796622Y-184881D01*
X796384Y-185596D01*
Y-186072D01*
X796622Y-186786D01*
X797098Y-187262D01*
X797574Y-187500D01*
X798288D01*
X798764Y-187262D01*
X799240Y-186786D01*
X799478Y-186072D01*
Y-185596D01*
X799240Y-184881D01*
X798764Y-184405D01*
X798288Y-184167D01*
X797574D01*
X800574Y-182501D02*
Y-187500D01*
X805549Y-185596D02*
X808405D01*
Y-185120D01*
X808167Y-184643D01*
X807929Y-184405D01*
X807453Y-184167D01*
X806739D01*
X806263Y-184405D01*
X805787Y-184881D01*
X805549Y-185596D01*
Y-186072D01*
X805787Y-186786D01*
X806263Y-187262D01*
X806739Y-187500D01*
X807453D01*
X807929Y-187262D01*
X808405Y-186786D01*
X809476Y-184167D02*
Y-187500D01*
Y-185120D02*
X810190Y-184405D01*
X810667Y-184167D01*
X811381D01*
X811857Y-184405D01*
X812095Y-185120D01*
Y-187500D01*
X816261Y-182501D02*
Y-187500D01*
Y-184881D02*
X815784Y-184405D01*
X815308Y-184167D01*
X814594D01*
X814118Y-184405D01*
X813642Y-184881D01*
X813404Y-185596D01*
Y-186072D01*
X813642Y-186786D01*
X814118Y-187262D01*
X814594Y-187500D01*
X815308D01*
X815784Y-187262D01*
X816261Y-186786D01*
X824378Y-184881D02*
X823902Y-184405D01*
X823426Y-184167D01*
X822712D01*
X822235Y-184405D01*
X821759Y-184881D01*
X821521Y-185596D01*
Y-186072D01*
X821759Y-186786D01*
X822235Y-187262D01*
X822712Y-187500D01*
X823426D01*
X823902Y-187262D01*
X824378Y-186786D01*
X825449Y-185596D02*
X828306D01*
Y-185120D01*
X828068Y-184643D01*
X827829Y-184405D01*
X827353Y-184167D01*
X826639D01*
X826163Y-184405D01*
X825687Y-184881D01*
X825449Y-185596D01*
Y-186072D01*
X825687Y-186786D01*
X826163Y-187262D01*
X826639Y-187500D01*
X827353D01*
X827829Y-187262D01*
X828306Y-186786D01*
X829377Y-184167D02*
Y-187500D01*
Y-185120D02*
X830091Y-184405D01*
X830567Y-184167D01*
X831281D01*
X831757Y-184405D01*
X831995Y-185120D01*
Y-187500D01*
X834019Y-182501D02*
Y-186548D01*
X834257Y-187262D01*
X834733Y-187500D01*
X835209D01*
X833305Y-184167D02*
X834971D01*
X835923D02*
Y-187500D01*
Y-185596D02*
X836161Y-184881D01*
X836637Y-184405D01*
X837113Y-184167D01*
X837827D01*
X838280Y-185596D02*
X841136D01*
Y-185120D01*
X840898Y-184643D01*
X840660Y-184405D01*
X840184Y-184167D01*
X839470D01*
X838994Y-184405D01*
X838518Y-184881D01*
X838280Y-185596D01*
Y-186072D01*
X838518Y-186786D01*
X838994Y-187262D01*
X839470Y-187500D01*
X840184D01*
X840660Y-187262D01*
X841136Y-186786D01*
X846135Y-184167D02*
Y-189166D01*
Y-184881D02*
X846611Y-184405D01*
X847087Y-184167D01*
X847801D01*
X848277Y-184405D01*
X848754Y-184881D01*
X848992Y-185596D01*
Y-186072D01*
X848754Y-186786D01*
X848277Y-187262D01*
X847801Y-187500D01*
X847087D01*
X846611Y-187262D01*
X846135Y-186786D01*
X851253Y-184167D02*
X850777Y-184405D01*
X850301Y-184881D01*
X850063Y-185596D01*
Y-186072D01*
X850301Y-186786D01*
X850777Y-187262D01*
X851253Y-187500D01*
X851967D01*
X852443Y-187262D01*
X852919Y-186786D01*
X853158Y-186072D01*
Y-185596D01*
X852919Y-184881D01*
X852443Y-184405D01*
X851967Y-184167D01*
X851253D01*
X856871Y-184881D02*
X856633Y-184405D01*
X855919Y-184167D01*
X855205D01*
X854490Y-184405D01*
X854253Y-184881D01*
X854490Y-185358D01*
X854967Y-185596D01*
X856157Y-185834D01*
X856633Y-186072D01*
X856871Y-186548D01*
Y-186786D01*
X856633Y-187262D01*
X855919Y-187500D01*
X855205D01*
X854490Y-187262D01*
X854253Y-186786D01*
X858394Y-182501D02*
X858632Y-182739D01*
X858871Y-182501D01*
X858632Y-182263D01*
X858394Y-182501D01*
X858632Y-184167D02*
Y-187500D01*
X860465Y-182501D02*
Y-186548D01*
X860703Y-187262D01*
X861180Y-187500D01*
X861656D01*
X859751Y-184167D02*
X861418D01*
X862846Y-182501D02*
X863084Y-182739D01*
X863322Y-182501D01*
X863084Y-182263D01*
X862846Y-182501D01*
X863084Y-184167D02*
Y-187500D01*
X865393Y-184167D02*
X864917Y-184405D01*
X864441Y-184881D01*
X864203Y-185596D01*
Y-186072D01*
X864441Y-186786D01*
X864917Y-187262D01*
X865393Y-187500D01*
X866107D01*
X866583Y-187262D01*
X867059Y-186786D01*
X867297Y-186072D01*
Y-185596D01*
X867059Y-184881D01*
X866583Y-184405D01*
X866107Y-184167D01*
X865393D01*
X868392D02*
Y-187500D01*
Y-185120D02*
X869106Y-184405D01*
X869582Y-184167D01*
X870297D01*
X870773Y-184405D01*
X871011Y-185120D01*
Y-187500D01*
X872558Y-187024D02*
X872320Y-187262D01*
X872558Y-187500D01*
X872796Y-187262D01*
X872558Y-187024D01*
X621207Y-194643D02*
X625492D01*
X621207Y-196072D02*
X625492D01*
X630896Y-192501D02*
Y-197500D01*
Y-192501D02*
X633038D01*
X633752Y-192739D01*
X633990Y-192977D01*
X634228Y-193453D01*
Y-193929D01*
X633990Y-194405D01*
X633752Y-194643D01*
X633038Y-194881D01*
X630896D01*
X632562D02*
X634228Y-197500D01*
X636537Y-194167D02*
X636061Y-194405D01*
X635585Y-194881D01*
X635347Y-195596D01*
Y-196072D01*
X635585Y-196786D01*
X636061Y-197262D01*
X636537Y-197500D01*
X637251D01*
X637727Y-197262D01*
X638203Y-196786D01*
X638442Y-196072D01*
Y-195596D01*
X638203Y-194881D01*
X637727Y-194405D01*
X637251Y-194167D01*
X636537D01*
X639537D02*
Y-196548D01*
X639775Y-197262D01*
X640251Y-197500D01*
X640965D01*
X641441Y-197262D01*
X642155Y-196548D01*
Y-194167D02*
Y-197500D01*
X644178Y-192501D02*
Y-196548D01*
X644416Y-197262D01*
X644893Y-197500D01*
X645369D01*
X643464Y-194167D02*
X645131D01*
X650010Y-195120D02*
X652153D01*
X652867Y-194881D01*
X653105Y-194643D01*
X653343Y-194167D01*
Y-193453D01*
X653105Y-192977D01*
X652867Y-192739D01*
X652153Y-192501D01*
X650010D01*
Y-197500D01*
X657318Y-194167D02*
Y-197500D01*
Y-194881D02*
X656842Y-194405D01*
X656366Y-194167D01*
X655652D01*
X655176Y-194405D01*
X654700Y-194881D01*
X654462Y-195596D01*
Y-196072D01*
X654700Y-196786D01*
X655176Y-197262D01*
X655652Y-197500D01*
X656366D01*
X656842Y-197262D01*
X657318Y-196786D01*
X659366Y-192501D02*
Y-196548D01*
X659604Y-197262D01*
X660080Y-197500D01*
X660556D01*
X658651Y-194167D02*
X660318D01*
X661270Y-192501D02*
Y-197500D01*
Y-195120D02*
X661984Y-194405D01*
X662460Y-194167D01*
X663174D01*
X663650Y-194405D01*
X663889Y-195120D01*
Y-197500D01*
X669125Y-192501D02*
Y-197500D01*
X671982D01*
X672530Y-195596D02*
X675386D01*
Y-195120D01*
X675148Y-194643D01*
X674910Y-194405D01*
X674434Y-194167D01*
X673720D01*
X673244Y-194405D01*
X672767Y-194881D01*
X672530Y-195596D01*
Y-196072D01*
X672767Y-196786D01*
X673244Y-197262D01*
X673720Y-197500D01*
X674434D01*
X674910Y-197262D01*
X675386Y-196786D01*
X676457Y-194167D02*
Y-197500D01*
Y-195120D02*
X677171Y-194405D01*
X677647Y-194167D01*
X678362D01*
X678838Y-194405D01*
X679076Y-195120D01*
Y-197500D01*
X683241Y-194167D02*
Y-197976D01*
X683003Y-198690D01*
X682765Y-198928D01*
X682289Y-199166D01*
X681575D01*
X681099Y-198928D01*
X683241Y-194881D02*
X682765Y-194405D01*
X682289Y-194167D01*
X681575D01*
X681099Y-194405D01*
X680623Y-194881D01*
X680385Y-195596D01*
Y-196072D01*
X680623Y-196786D01*
X681099Y-197262D01*
X681575Y-197500D01*
X682289D01*
X682765Y-197262D01*
X683241Y-196786D01*
X685289Y-192501D02*
Y-196548D01*
X685527Y-197262D01*
X686003Y-197500D01*
X686479D01*
X684575Y-194167D02*
X686241D01*
X687193Y-192501D02*
Y-197500D01*
Y-195120D02*
X687907Y-194405D01*
X688383Y-194167D01*
X689097D01*
X689573Y-194405D01*
X689812Y-195120D01*
Y-197500D01*
X697191Y-193215D02*
Y-197500D01*
X695048Y-195358D02*
X699333D01*
X706403Y-192501D02*
Y-197500D01*
X704737Y-192501D02*
X708070D01*
X709855Y-194167D02*
X709379Y-194405D01*
X708903Y-194881D01*
X708665Y-195596D01*
Y-196072D01*
X708903Y-196786D01*
X709379Y-197262D01*
X709855Y-197500D01*
X710569D01*
X711045Y-197262D01*
X711521Y-196786D01*
X711759Y-196072D01*
Y-195596D01*
X711521Y-194881D01*
X711045Y-194405D01*
X710569Y-194167D01*
X709855D01*
X714044D02*
X713568Y-194405D01*
X713092Y-194881D01*
X712854Y-195596D01*
Y-196072D01*
X713092Y-196786D01*
X713568Y-197262D01*
X714044Y-197500D01*
X714758D01*
X715235Y-197262D01*
X715711Y-196786D01*
X715949Y-196072D01*
Y-195596D01*
X715711Y-194881D01*
X715235Y-194405D01*
X714758Y-194167D01*
X714044D01*
X717044Y-192501D02*
Y-197500D01*
X725351Y-193215D02*
X724875Y-192739D01*
X724161Y-192501D01*
X723209D01*
X722495Y-192739D01*
X722019Y-193215D01*
Y-193691D01*
X722257Y-194167D01*
X722495Y-194405D01*
X722971Y-194643D01*
X724399Y-195120D01*
X724875Y-195358D01*
X725113Y-195596D01*
X725351Y-196072D01*
Y-196786D01*
X724875Y-197262D01*
X724161Y-197500D01*
X723209D01*
X722495Y-197262D01*
X722019Y-196786D01*
X726946Y-192501D02*
X727184Y-192739D01*
X727423Y-192501D01*
X727184Y-192263D01*
X726946Y-192501D01*
X727184Y-194167D02*
Y-197500D01*
X730922Y-194167D02*
X728303Y-197500D01*
Y-194167D02*
X730922D01*
X728303Y-197500D02*
X730922D01*
X731969Y-195596D02*
X734826D01*
Y-195120D01*
X734588Y-194643D01*
X734349Y-194405D01*
X733874Y-194167D01*
X733159D01*
X732683Y-194405D01*
X732207Y-194881D01*
X731969Y-195596D01*
Y-196072D01*
X732207Y-196786D01*
X732683Y-197262D01*
X733159Y-197500D01*
X733874D01*
X734349Y-197262D01*
X734826Y-196786D01*
X739825Y-194643D02*
X744109D01*
X739825Y-196072D02*
X744109D01*
X752846Y-193215D02*
X752369Y-192739D01*
X751655Y-192501D01*
X750703D01*
X749989Y-192739D01*
X749513Y-193215D01*
Y-193691D01*
X749751Y-194167D01*
X749989Y-194405D01*
X750465Y-194643D01*
X751893Y-195120D01*
X752369Y-195358D01*
X752607Y-195596D01*
X752846Y-196072D01*
Y-196786D01*
X752369Y-197262D01*
X751655Y-197500D01*
X750703D01*
X749989Y-197262D01*
X749513Y-196786D01*
X753964Y-192501D02*
Y-197500D01*
X756202Y-194167D02*
X755726Y-194405D01*
X755250Y-194881D01*
X755012Y-195596D01*
Y-196072D01*
X755250Y-196786D01*
X755726Y-197262D01*
X756202Y-197500D01*
X756916D01*
X757392Y-197262D01*
X757868Y-196786D01*
X758106Y-196072D01*
Y-195596D01*
X757868Y-194881D01*
X757392Y-194405D01*
X756916Y-194167D01*
X756202D01*
X759915Y-192501D02*
Y-196548D01*
X760153Y-197262D01*
X760630Y-197500D01*
X761106D01*
X759201Y-194167D02*
X760868D01*
X765748Y-192501D02*
Y-197500D01*
X766795Y-195596D02*
X769652D01*
Y-195120D01*
X769414Y-194643D01*
X769175Y-194405D01*
X768699Y-194167D01*
X767985D01*
X767509Y-194405D01*
X767033Y-194881D01*
X766795Y-195596D01*
Y-196072D01*
X767033Y-196786D01*
X767509Y-197262D01*
X767985Y-197500D01*
X768699D01*
X769175Y-197262D01*
X769652Y-196786D01*
X770723Y-194167D02*
Y-197500D01*
Y-195120D02*
X771437Y-194405D01*
X771913Y-194167D01*
X772627D01*
X773103Y-194405D01*
X773341Y-195120D01*
Y-197500D01*
X777507Y-194167D02*
Y-197976D01*
X777269Y-198690D01*
X777031Y-198928D01*
X776555Y-199166D01*
X775841D01*
X775365Y-198928D01*
X777507Y-194881D02*
X777031Y-194405D01*
X776555Y-194167D01*
X775841D01*
X775365Y-194405D01*
X774889Y-194881D01*
X774650Y-195596D01*
Y-196072D01*
X774889Y-196786D01*
X775365Y-197262D01*
X775841Y-197500D01*
X776555D01*
X777031Y-197262D01*
X777507Y-196786D01*
X779554Y-192501D02*
Y-196548D01*
X779792Y-197262D01*
X780268Y-197500D01*
X780744D01*
X778840Y-194167D02*
X780506D01*
X781459Y-192501D02*
Y-197500D01*
Y-195120D02*
X782173Y-194405D01*
X782649Y-194167D01*
X783363D01*
X783839Y-194405D01*
X784077Y-195120D01*
Y-197500D01*
X792170Y-194167D02*
Y-197500D01*
Y-194881D02*
X791694Y-194405D01*
X791218Y-194167D01*
X790504D01*
X790028Y-194405D01*
X789552Y-194881D01*
X789314Y-195596D01*
Y-196072D01*
X789552Y-196786D01*
X790028Y-197262D01*
X790504Y-197500D01*
X791218D01*
X791694Y-197262D01*
X792170Y-196786D01*
X796122Y-194881D02*
X795884Y-194405D01*
X795170Y-194167D01*
X794456D01*
X793742Y-194405D01*
X793504Y-194881D01*
X793742Y-195358D01*
X794218Y-195596D01*
X795408Y-195834D01*
X795884Y-196072D01*
X796122Y-196548D01*
Y-196786D01*
X795884Y-197262D01*
X795170Y-197500D01*
X794456D01*
X793742Y-197262D01*
X793504Y-196786D01*
X803954Y-192501D02*
Y-197500D01*
Y-194881D02*
X803478Y-194405D01*
X803001Y-194167D01*
X802287D01*
X801811Y-194405D01*
X801335Y-194881D01*
X801097Y-195596D01*
Y-196072D01*
X801335Y-196786D01*
X801811Y-197262D01*
X802287Y-197500D01*
X803001D01*
X803478Y-197262D01*
X803954Y-196786D01*
X805287Y-195596D02*
X808143D01*
Y-195120D01*
X807905Y-194643D01*
X807667Y-194405D01*
X807191Y-194167D01*
X806477D01*
X806001Y-194405D01*
X805525Y-194881D01*
X805287Y-195596D01*
Y-196072D01*
X805525Y-196786D01*
X806001Y-197262D01*
X806477Y-197500D01*
X807191D01*
X807667Y-197262D01*
X808143Y-196786D01*
X811119Y-192501D02*
X810643D01*
X810167Y-192739D01*
X809929Y-193453D01*
Y-197500D01*
X809214Y-194167D02*
X810881D01*
X812309Y-192501D02*
X812547Y-192739D01*
X812785Y-192501D01*
X812547Y-192263D01*
X812309Y-192501D01*
X812547Y-194167D02*
Y-197500D01*
X813666Y-194167D02*
Y-197500D01*
Y-195120D02*
X814380Y-194405D01*
X814856Y-194167D01*
X815570D01*
X816046Y-194405D01*
X816284Y-195120D01*
Y-197500D01*
X817594Y-195596D02*
X820450D01*
Y-195120D01*
X820212Y-194643D01*
X819974Y-194405D01*
X819498Y-194167D01*
X818784D01*
X818308Y-194405D01*
X817832Y-194881D01*
X817594Y-195596D01*
Y-196072D01*
X817832Y-196786D01*
X818308Y-197262D01*
X818784Y-197500D01*
X819498D01*
X819974Y-197262D01*
X820450Y-196786D01*
X824378Y-192501D02*
Y-197500D01*
Y-194881D02*
X823902Y-194405D01*
X823426Y-194167D01*
X822712D01*
X822235Y-194405D01*
X821759Y-194881D01*
X821521Y-195596D01*
Y-196072D01*
X821759Y-196786D01*
X822235Y-197262D01*
X822712Y-197500D01*
X823426D01*
X823902Y-197262D01*
X824378Y-196786D01*
X830115Y-192501D02*
X830353Y-192739D01*
X830591Y-192501D01*
X830353Y-192263D01*
X830115Y-192501D01*
X830353Y-194167D02*
Y-197500D01*
X831472Y-194167D02*
Y-197500D01*
Y-195120D02*
X832186Y-194405D01*
X832662Y-194167D01*
X833376D01*
X833852Y-194405D01*
X834090Y-195120D01*
Y-197500D01*
X840041Y-192501D02*
Y-196548D01*
X840279Y-197262D01*
X840755Y-197500D01*
X841231D01*
X839327Y-194167D02*
X840993D01*
X841946Y-192501D02*
Y-197500D01*
Y-195120D02*
X842660Y-194405D01*
X843136Y-194167D01*
X843850D01*
X844326Y-194405D01*
X844564Y-195120D01*
Y-197500D01*
X845873Y-195596D02*
X848730D01*
Y-195120D01*
X848492Y-194643D01*
X848254Y-194405D01*
X847778Y-194167D01*
X847064D01*
X846587Y-194405D01*
X846111Y-194881D01*
X845873Y-195596D01*
Y-196072D01*
X846111Y-196786D01*
X846587Y-197262D01*
X847064Y-197500D01*
X847778D01*
X848254Y-197262D01*
X848730Y-196786D01*
X853729Y-195120D02*
X855871D01*
X856585Y-194881D01*
X856823Y-194643D01*
X857061Y-194167D01*
Y-193453D01*
X856823Y-192977D01*
X856585Y-192739D01*
X855871Y-192501D01*
X853729D01*
Y-197500D01*
X861751Y-193691D02*
X861513Y-193215D01*
X861037Y-192739D01*
X860561Y-192501D01*
X859608D01*
X859132Y-192739D01*
X858656Y-193215D01*
X858418Y-193691D01*
X858180Y-194405D01*
Y-195596D01*
X858418Y-196310D01*
X858656Y-196786D01*
X859132Y-197262D01*
X859608Y-197500D01*
X860561D01*
X861037Y-197262D01*
X861513Y-196786D01*
X861751Y-196310D01*
X863155Y-192501D02*
Y-197500D01*
Y-192501D02*
X865298D01*
X866012Y-192739D01*
X866250Y-192977D01*
X866488Y-193453D01*
Y-193929D01*
X866250Y-194405D01*
X866012Y-194643D01*
X865298Y-194881D01*
X863155D02*
X865298D01*
X866012Y-195120D01*
X866250Y-195358D01*
X866488Y-195834D01*
Y-196548D01*
X866250Y-197024D01*
X866012Y-197262D01*
X865298Y-197500D01*
X863155D01*
X871535Y-192501D02*
Y-197500D01*
X875438Y-194167D02*
Y-197500D01*
Y-194881D02*
X874962Y-194405D01*
X874486Y-194167D01*
X873772D01*
X873296Y-194405D01*
X872820Y-194881D01*
X872582Y-195596D01*
Y-196072D01*
X872820Y-196786D01*
X873296Y-197262D01*
X873772Y-197500D01*
X874486D01*
X874962Y-197262D01*
X875438Y-196786D01*
X877009Y-194167D02*
X878438Y-197500D01*
X879866Y-194167D02*
X878438Y-197500D01*
X877962Y-198452D01*
X877486Y-198928D01*
X877009Y-199166D01*
X876771D01*
X881889Y-194167D02*
X881413Y-194405D01*
X880937Y-194881D01*
X880699Y-195596D01*
Y-196072D01*
X880937Y-196786D01*
X881413Y-197262D01*
X881889Y-197500D01*
X882603D01*
X883080Y-197262D01*
X883556Y-196786D01*
X883794Y-196072D01*
Y-195596D01*
X883556Y-194881D01*
X883080Y-194405D01*
X882603Y-194167D01*
X881889D01*
X884889D02*
Y-196548D01*
X885127Y-197262D01*
X885603Y-197500D01*
X886317D01*
X886793Y-197262D01*
X887507Y-196548D01*
Y-194167D02*
Y-197500D01*
X889531Y-192501D02*
Y-196548D01*
X889769Y-197262D01*
X890245Y-197500D01*
X890721D01*
X888817Y-194167D02*
X890483D01*
D153*
X256700Y-56300D02*
Y-54700D01*
X258300D01*
Y-56300D01*
X256700D01*
X254141Y-60237D02*
Y-58637D01*
X255741D01*
Y-60237D01*
X254141D01*
X251582Y-56300D02*
Y-54700D01*
X253182D01*
Y-56300D01*
X251582D01*
X249023Y-60237D02*
Y-58637D01*
X250623D01*
Y-60237D01*
X249023D01*
X246464Y-56300D02*
Y-54700D01*
X248064D01*
Y-56300D01*
X246464D01*
X103000Y-172800D02*
X102200Y-171200D01*
X103800D01*
X103000Y-172800D01*
X35500Y-94800D02*
X35900Y-94400D01*
X36300D01*
X35900Y-94000D01*
X36300Y-93600D01*
X35900D01*
X35500Y-93200D01*
X35100Y-93600D01*
X34700D01*
X35100Y-94000D01*
X34700Y-94400D01*
X35100D01*
X35500Y-94800D01*
Y-44800D02*
X35900Y-44400D01*
X36300D01*
X35900Y-44000D01*
X36300Y-43600D01*
X35900D01*
X35500Y-43200D01*
X35100Y-43600D01*
X34700D01*
X35100Y-44000D01*
X34700Y-44400D01*
X35100D01*
X35500Y-44800D01*
Y-54800D02*
X35900Y-54400D01*
X36300D01*
X35900Y-54000D01*
X36300Y-53600D01*
X35900D01*
X35500Y-53200D01*
X35100Y-53600D01*
X34700D01*
X35100Y-54000D01*
X34700Y-54400D01*
X35100D01*
X35500Y-54800D01*
Y-64800D02*
X35900Y-64400D01*
X36300D01*
X35900Y-64000D01*
X36300Y-63600D01*
X35900D01*
X35500Y-63200D01*
X35100Y-63600D01*
X34700D01*
X35100Y-64000D01*
X34700Y-64400D01*
X35100D01*
X35500Y-64800D01*
Y-74800D02*
X35900Y-74400D01*
X36300D01*
X35900Y-74000D01*
X36300Y-73600D01*
X35900D01*
X35500Y-73200D01*
X35100Y-73600D01*
X34700D01*
X35100Y-74000D01*
X34700Y-74400D01*
X35100D01*
X35500Y-74800D01*
Y-84800D02*
X35900Y-84400D01*
X36300D01*
X35900Y-84000D01*
X36300Y-83600D01*
X35900D01*
X35500Y-83200D01*
X35100Y-83600D01*
X34700D01*
X35100Y-84000D01*
X34700Y-84400D01*
X35100D01*
X35500Y-84800D01*
Y-104800D02*
X35900Y-104400D01*
X36300D01*
X35900Y-104000D01*
X36300Y-103600D01*
X35900D01*
X35500Y-103200D01*
X35100Y-103600D01*
X34700D01*
X35100Y-104000D01*
X34700Y-104400D01*
X35100D01*
X35500Y-104800D01*
Y-114800D02*
X35900Y-114400D01*
X36300D01*
X35900Y-114000D01*
X36300Y-113600D01*
X35900D01*
X35500Y-113200D01*
X35100Y-113600D01*
X34700D01*
X35100Y-114000D01*
X34700Y-114400D01*
X35100D01*
X35500Y-114800D01*
Y-124800D02*
X35900Y-124400D01*
X36300D01*
X35900Y-124000D01*
X36300Y-123600D01*
X35900D01*
X35500Y-123200D01*
X35100Y-123600D01*
X34700D01*
X35100Y-124000D01*
X34700Y-124400D01*
X35100D01*
X35500Y-124800D01*
Y-134800D02*
X35900Y-134400D01*
X36300D01*
X35900Y-134000D01*
X36300Y-133600D01*
X35900D01*
X35500Y-133200D01*
X35100Y-133600D01*
X34700D01*
X35100Y-134000D01*
X34700Y-134400D01*
X35100D01*
X35500Y-134800D01*
Y-144800D02*
X35900Y-144400D01*
X36300D01*
X35900Y-144000D01*
X36300Y-143600D01*
X35900D01*
X35500Y-143200D01*
X35100Y-143600D01*
X34700D01*
X35100Y-144000D01*
X34700Y-144400D01*
X35100D01*
X35500Y-144800D01*
Y-154800D02*
X35900Y-154400D01*
X36300D01*
X35900Y-154000D01*
X36300Y-153600D01*
X35900D01*
X35500Y-153200D01*
X35100Y-153600D01*
X34700D01*
X35100Y-154000D01*
X34700Y-154400D01*
X35100D01*
X35500Y-154800D01*
X81200Y-98800D02*
X81600Y-98000D01*
X81200Y-97200D01*
X82000Y-97600D01*
X82800Y-97200D01*
X82400Y-98000D01*
X82800Y-98800D01*
X82000Y-98400D01*
X81200Y-98800D01*
X69389D02*
X69789Y-98000D01*
X69389Y-97200D01*
X70189Y-97600D01*
X70989Y-97200D01*
X70589Y-98000D01*
X70989Y-98800D01*
X70189Y-98400D01*
X69389Y-98800D01*
X84700Y-64800D02*
X85100Y-64000D01*
X84700Y-63200D01*
X85500Y-63600D01*
X86300Y-63200D01*
X85900Y-64000D01*
X86300Y-64800D01*
X85500Y-64400D01*
X84700Y-64800D01*
X72889D02*
X73289Y-64000D01*
X72889Y-63200D01*
X73689Y-63600D01*
X74489Y-63200D01*
X74089Y-64000D01*
X74489Y-64800D01*
X73689Y-64400D01*
X72889Y-64800D01*
X100568Y-149900D02*
Y-150300D01*
X101368D01*
Y-149900D01*
X101769D01*
Y-149100D01*
X101368D01*
Y-148700D01*
X100568D01*
Y-149100D01*
X100169D01*
Y-149900D01*
X100568D01*
Y-139900D02*
Y-140300D01*
X101368D01*
Y-139900D01*
X101769D01*
Y-139100D01*
X101368D01*
Y-138700D01*
X100568D01*
Y-139100D01*
X100169D01*
Y-139900D01*
X100568D01*
X123600Y-149900D02*
Y-150300D01*
X124400D01*
Y-149900D01*
X124800D01*
Y-149100D01*
X124400D01*
Y-148700D01*
X123600D01*
Y-149100D01*
X123200D01*
Y-149900D01*
X123600D01*
Y-139900D02*
Y-140300D01*
X124400D01*
Y-139900D01*
X124800D01*
Y-139100D01*
X124400D01*
Y-138700D01*
X123600D01*
Y-139100D01*
X123200D01*
Y-139900D01*
X123600D01*
X112068Y-149900D02*
Y-150300D01*
X112868D01*
Y-149900D01*
X113268D01*
Y-149100D01*
X112868D01*
Y-148700D01*
X112068D01*
Y-149100D01*
X111669D01*
Y-149900D01*
X112068D01*
Y-139900D02*
Y-140300D01*
X112868D01*
Y-139900D01*
X113268D01*
Y-139100D01*
X112868D01*
Y-138700D01*
X112068D01*
Y-139100D01*
X111669D01*
Y-139900D01*
X112068D01*
X272500Y-24800D02*
X271700Y-23200D01*
X273300D01*
X272500Y-24800D01*
X250600Y-143900D02*
Y-144300D01*
X251400D01*
Y-143900D01*
X251800D01*
Y-143100D01*
X251400D01*
Y-142700D01*
X250600D01*
Y-143100D01*
X250200D01*
Y-143900D01*
X250600D01*
Y-133900D02*
Y-134300D01*
X251400D01*
Y-133900D01*
X251800D01*
Y-133100D01*
X251400D01*
Y-132700D01*
X250600D01*
Y-133100D01*
X250200D01*
Y-133900D01*
X250600D01*
Y-123900D02*
Y-124300D01*
X251400D01*
Y-123900D01*
X251800D01*
Y-123100D01*
X251400D01*
Y-122700D01*
X250600D01*
Y-123100D01*
X250200D01*
Y-123900D01*
X250600D01*
Y-113900D02*
Y-114300D01*
X251400D01*
Y-113900D01*
X251800D01*
Y-113100D01*
X251400D01*
Y-112700D01*
X250600D01*
Y-113100D01*
X250200D01*
Y-113900D01*
X250600D01*
Y-103900D02*
Y-104300D01*
X251400D01*
Y-103900D01*
X251800D01*
Y-103100D01*
X251400D01*
Y-102700D01*
X250600D01*
Y-103100D01*
X250200D01*
Y-103900D01*
X250600D01*
Y-93900D02*
Y-94300D01*
X251400D01*
Y-93900D01*
X251800D01*
Y-93100D01*
X251400D01*
Y-92700D01*
X250600D01*
Y-93100D01*
X250200D01*
Y-93900D01*
X250600D01*
Y-73900D02*
Y-74300D01*
X251400D01*
Y-73900D01*
X251800D01*
Y-73100D01*
X251400D01*
Y-72700D01*
X250600D01*
Y-73100D01*
X250200D01*
Y-73900D01*
X250600D01*
Y-83900D02*
Y-84300D01*
X251400D01*
Y-83900D01*
X251800D01*
Y-83100D01*
X251400D01*
Y-82700D01*
X250600D01*
Y-83100D01*
X250200D01*
Y-83900D01*
X250600D01*
X137700Y-177650D02*
X138100D01*
X138500Y-177250D01*
X138900Y-177650D01*
X139300D01*
Y-177250D01*
X138900Y-176850D01*
X139300Y-176450D01*
Y-176050D01*
X138900D01*
X138500Y-176450D01*
X138100Y-176050D01*
X137700D01*
Y-176450D01*
X138100Y-176850D01*
X137700Y-177250D01*
Y-177650D01*
Y-187493D02*
X138100D01*
X138500Y-187092D01*
X138900Y-187493D01*
X139300D01*
Y-187092D01*
X138900Y-186693D01*
X139300Y-186293D01*
Y-185892D01*
X138900D01*
X138500Y-186293D01*
X138100Y-185892D01*
X137700D01*
Y-186293D01*
X138100Y-186693D01*
X137700Y-187092D01*
Y-187493D01*
Y-167807D02*
X138100D01*
X138500Y-167408D01*
X138900Y-167807D01*
X139300D01*
Y-167408D01*
X138900Y-167008D01*
X139300Y-166607D01*
Y-166208D01*
X138900D01*
X138500Y-166607D01*
X138100Y-166208D01*
X137700D01*
Y-166607D01*
X138100Y-167008D01*
X137700Y-167408D01*
Y-167807D01*
X125200Y-177800D02*
X125600D01*
X126000Y-177400D01*
X126400Y-177800D01*
X126800D01*
Y-177400D01*
X126400Y-177000D01*
X126800Y-176600D01*
Y-176200D01*
X126400D01*
X126000Y-176600D01*
X125600Y-176200D01*
X125200D01*
Y-176600D01*
X125600Y-177000D01*
X125200Y-177400D01*
Y-177800D01*
Y-167957D02*
X125600D01*
X126000Y-167558D01*
X126400Y-167957D01*
X126800D01*
Y-167558D01*
X126400Y-167157D01*
X126800Y-166758D01*
Y-166358D01*
X126400D01*
X126000Y-166758D01*
X125600Y-166358D01*
X125200D01*
Y-166758D01*
X125600Y-167157D01*
X125200Y-167558D01*
Y-167957D01*
Y-187643D02*
X125600D01*
X126000Y-187242D01*
X126400Y-187643D01*
X126800D01*
Y-187242D01*
X126400Y-186843D01*
X126800Y-186442D01*
Y-186042D01*
X126400D01*
X126000Y-186442D01*
X125600Y-186042D01*
X125200D01*
Y-186442D01*
X125600Y-186843D01*
X125200Y-187242D01*
Y-187643D01*
X297406Y-106300D02*
X297806Y-105900D01*
X298205D01*
X297806Y-105500D01*
X298205Y-105100D01*
X297806D01*
X297406Y-104700D01*
X297006Y-105100D01*
X296605D01*
X297006Y-105500D01*
X296605Y-105900D01*
X297006D01*
X297406Y-106300D01*
Y-116300D02*
X297806Y-115900D01*
X298205D01*
X297806Y-115500D01*
X298205Y-115100D01*
X297806D01*
X297406Y-114700D01*
X297006Y-115100D01*
X296605D01*
X297006Y-115500D01*
X296605Y-115900D01*
X297006D01*
X297406Y-116300D01*
Y-136300D02*
X297806Y-135900D01*
X298205D01*
X297806Y-135500D01*
X298205Y-135100D01*
X297806D01*
X297406Y-134700D01*
X297006Y-135100D01*
X296605D01*
X297006Y-135500D01*
X296605Y-135900D01*
X297006D01*
X297406Y-136300D01*
Y-126300D02*
X297806Y-125900D01*
X298205D01*
X297806Y-125500D01*
X298205Y-125100D01*
X297806D01*
X297406Y-124700D01*
X297006Y-125100D01*
X296605D01*
X297006Y-125500D01*
X296605Y-125900D01*
X297006D01*
X297406Y-126300D01*
X142543Y-128300D02*
X142943D01*
X143342Y-127900D01*
X143743Y-128300D01*
X144142D01*
Y-127900D01*
X143743Y-127500D01*
X144142Y-127100D01*
Y-126700D01*
X143743D01*
X143342Y-127100D01*
X142943Y-126700D01*
X142543D01*
Y-127100D01*
X142943Y-127500D01*
X142543Y-127900D01*
Y-128300D01*
X122857D02*
X123258D01*
X123658Y-127900D01*
X124057Y-128300D01*
X124458D01*
Y-127900D01*
X124057Y-127500D01*
X124458Y-127100D01*
Y-126700D01*
X124057D01*
X123658Y-127100D01*
X123258Y-126700D01*
X122857D01*
Y-127100D01*
X123258Y-127500D01*
X122857Y-127900D01*
Y-128300D01*
X132700D02*
X133100D01*
X133500Y-127900D01*
X133900Y-128300D01*
X134300D01*
Y-127900D01*
X133900Y-127500D01*
X134300Y-127100D01*
Y-126700D01*
X133900D01*
X133500Y-127100D01*
X133100Y-126700D01*
X132700D01*
Y-127100D01*
X133100Y-127500D01*
X132700Y-127900D01*
Y-128300D01*
X227600Y-20085D02*
Y-20485D01*
X228400D01*
Y-20085D01*
X228800D01*
Y-19285D01*
X228400D01*
Y-18885D01*
X227600D01*
Y-19285D01*
X227200D01*
Y-20085D01*
X227600D01*
X217600D02*
Y-20485D01*
X218400D01*
Y-20085D01*
X218800D01*
Y-19285D01*
X218400D01*
Y-18885D01*
X217600D01*
Y-19285D01*
X217200D01*
Y-20085D01*
X217600D01*
X207600D02*
Y-20485D01*
X208400D01*
Y-20085D01*
X208800D01*
Y-19285D01*
X208400D01*
Y-18885D01*
X207600D01*
Y-19285D01*
X207200D01*
Y-20085D01*
X207600D01*
X197600D02*
Y-20485D01*
X198400D01*
Y-20085D01*
X198800D01*
Y-19285D01*
X198400D01*
Y-18885D01*
X197600D01*
Y-19285D01*
X197200D01*
Y-20085D01*
X197600D01*
X187600D02*
Y-20485D01*
X188400D01*
Y-20085D01*
X188800D01*
Y-19285D01*
X188400D01*
Y-18885D01*
X187600D01*
Y-19285D01*
X187200D01*
Y-20085D01*
X187600D01*
X177600D02*
Y-20485D01*
X178400D01*
Y-20085D01*
X178800D01*
Y-19285D01*
X178400D01*
Y-18885D01*
X177600D01*
Y-19285D01*
X177200D01*
Y-20085D01*
X177600D01*
X157600D02*
Y-20485D01*
X158400D01*
Y-20085D01*
X158800D01*
Y-19285D01*
X158400D01*
Y-18885D01*
X157600D01*
Y-19285D01*
X157200D01*
Y-20085D01*
X157600D01*
X167600D02*
Y-20485D01*
X168400D01*
Y-20085D01*
X168800D01*
Y-19285D01*
X168400D01*
Y-18885D01*
X167600D01*
Y-19285D01*
X167200D01*
Y-20085D01*
X167600D01*
X227600Y-177565D02*
Y-177965D01*
X228400D01*
Y-177565D01*
X228800D01*
Y-176765D01*
X228400D01*
Y-176365D01*
X227600D01*
Y-176765D01*
X227200D01*
Y-177565D01*
X227600D01*
X217600D02*
Y-177965D01*
X218400D01*
Y-177565D01*
X218800D01*
Y-176765D01*
X218400D01*
Y-176365D01*
X217600D01*
Y-176765D01*
X217200D01*
Y-177565D01*
X217600D01*
X207600D02*
Y-177965D01*
X208400D01*
Y-177565D01*
X208800D01*
Y-176765D01*
X208400D01*
Y-176365D01*
X207600D01*
Y-176765D01*
X207200D01*
Y-177565D01*
X207600D01*
X197600D02*
Y-177965D01*
X198400D01*
Y-177565D01*
X198800D01*
Y-176765D01*
X198400D01*
Y-176365D01*
X197600D01*
Y-176765D01*
X197200D01*
Y-177565D01*
X197600D01*
X187600D02*
Y-177965D01*
X188400D01*
Y-177565D01*
X188800D01*
Y-176765D01*
X188400D01*
Y-176365D01*
X187600D01*
Y-176765D01*
X187200D01*
Y-177565D01*
X187600D01*
X177600D02*
Y-177965D01*
X178400D01*
Y-177565D01*
X178800D01*
Y-176765D01*
X178400D01*
Y-176365D01*
X177600D01*
Y-176765D01*
X177200D01*
Y-177565D01*
X177600D01*
X157600D02*
Y-177965D01*
X158400D01*
Y-177565D01*
X158800D01*
Y-176765D01*
X158400D01*
Y-176365D01*
X157600D01*
Y-176765D01*
X157200D01*
Y-177565D01*
X157600D01*
X167600D02*
Y-177965D01*
X168400D01*
Y-177565D01*
X168800D01*
Y-176765D01*
X168400D01*
Y-176365D01*
X167600D01*
Y-176765D01*
X167200D01*
Y-177565D01*
X167600D01*
X101200Y-4000D02*
X102000Y-3200D01*
X102800Y-4000D01*
X102000Y-4800D01*
X101200Y-4000D01*
X114200Y-3500D02*
X115000Y-2700D01*
X115800Y-3500D01*
X115000Y-4300D01*
X114200Y-3500D01*
X126200D02*
X127000Y-2700D01*
X127800Y-3500D01*
X127000Y-4300D01*
X126200Y-3500D01*
X138200D02*
X139000Y-2700D01*
X139800Y-3500D01*
X139000Y-4300D01*
X138200Y-3500D01*
X309200Y-13000D02*
X310000Y-12200D01*
X310800Y-13000D01*
X310000Y-13800D01*
X309200Y-13000D01*
Y-24333D02*
X310000Y-23533D01*
X310800Y-24333D01*
X310000Y-25133D01*
X309200Y-24333D01*
Y-47000D02*
X310000Y-46200D01*
X310800Y-47000D01*
X310000Y-47800D01*
X309200Y-47000D01*
X277700Y-39500D02*
X278500Y-38700D01*
X279300Y-39500D01*
X278500Y-40300D01*
X277700Y-39500D01*
X268200Y-46500D02*
X269000Y-45700D01*
X269800Y-46500D01*
X269000Y-47300D01*
X268200Y-46500D01*
X277700Y-62167D02*
X278500Y-61367D01*
X279300Y-62167D01*
X278500Y-62967D01*
X277700Y-62167D01*
Y-73500D02*
X278500Y-72700D01*
X279300Y-73500D01*
X278500Y-74300D01*
X277700Y-73500D01*
X386700Y-16000D02*
X387500Y-15200D01*
X388300Y-16000D01*
X387500Y-16800D01*
X386700Y-16000D01*
Y-27333D02*
X387500Y-26533D01*
X388300Y-27333D01*
X387500Y-28133D01*
X386700Y-27333D01*
Y-38667D02*
X387500Y-37867D01*
X388300Y-38667D01*
X387500Y-39467D01*
X386700Y-38667D01*
Y-50000D02*
X387500Y-49200D01*
X388300Y-50000D01*
X387500Y-50800D01*
X386700Y-50000D01*
X368200Y-20000D02*
X369000Y-19200D01*
X369800Y-20000D01*
X369000Y-20800D01*
X368200Y-20000D01*
X356867D02*
X357667Y-19200D01*
X358467Y-20000D01*
X357667Y-20800D01*
X356867Y-20000D01*
X345533D02*
X346333Y-19200D01*
X347133Y-20000D01*
X346333Y-20800D01*
X345533Y-20000D01*
X334200D02*
X335000Y-19200D01*
X335800Y-20000D01*
X335000Y-20800D01*
X334200Y-20000D01*
X349700Y-60500D02*
X350500Y-59700D01*
X351300Y-60500D01*
X350500Y-61300D01*
X349700Y-60500D01*
X338367D02*
X339167Y-59700D01*
X339967Y-60500D01*
X339167Y-61300D01*
X338367Y-60500D01*
X327033D02*
X327833Y-59700D01*
X328633Y-60500D01*
X327833Y-61300D01*
X327033Y-60500D01*
X315700D02*
X316500Y-59700D01*
X317300Y-60500D01*
X316500Y-61300D01*
X315700Y-60500D01*
X386200Y-190000D02*
X387000Y-189200D01*
X387800Y-190000D01*
X387000Y-190800D01*
X386200Y-190000D01*
Y-178667D02*
X387000Y-177867D01*
X387800Y-178667D01*
X387000Y-179467D01*
X386200Y-178667D01*
Y-167333D02*
X387000Y-166533D01*
X387800Y-167333D01*
X387000Y-168133D01*
X386200Y-167333D01*
Y-156000D02*
X387000Y-155200D01*
X387800Y-156000D01*
X387000Y-156800D01*
X386200Y-156000D01*
X313200Y-153000D02*
X314000Y-152200D01*
X314800Y-153000D01*
X314000Y-153800D01*
X313200Y-153000D01*
X324533D02*
X325333Y-152200D01*
X326133Y-153000D01*
X325333Y-153800D01*
X324533Y-153000D01*
X335867D02*
X336667Y-152200D01*
X337467Y-153000D01*
X336667Y-153800D01*
X335867Y-153000D01*
X347200D02*
X348000Y-152200D01*
X348800Y-153000D01*
X348000Y-153800D01*
X347200Y-153000D01*
X85700Y-178000D02*
X86500Y-177200D01*
X87300Y-178000D01*
X86500Y-178800D01*
X85700Y-178000D01*
X91700Y-184500D02*
X92500Y-183700D01*
X93300Y-184500D01*
X92500Y-185300D01*
X91700Y-184500D01*
X104700Y-187000D02*
X105500Y-186200D01*
X106300Y-187000D01*
X105500Y-187800D01*
X104700Y-187000D01*
X114200Y-186000D02*
X115000Y-185200D01*
X115800Y-186000D01*
X115000Y-186800D01*
X114200Y-186000D01*
X6200Y-148000D02*
X7000Y-147200D01*
X7800Y-148000D01*
X7000Y-148800D01*
X6200Y-148000D01*
Y-159333D02*
X7000Y-158533D01*
X7800Y-159333D01*
X7000Y-160133D01*
X6200Y-159333D01*
Y-170667D02*
X7000Y-169867D01*
X7800Y-170667D01*
X7000Y-171467D01*
X6200Y-170667D01*
Y-182000D02*
X7000Y-181200D01*
X7800Y-182000D01*
X7000Y-182800D01*
X6200Y-182000D01*
X5700Y-102000D02*
X6500Y-101200D01*
X7300Y-102000D01*
X6500Y-102800D01*
X5700Y-102000D01*
Y-113333D02*
X6500Y-112533D01*
X7300Y-113333D01*
X6500Y-114133D01*
X5700Y-113333D01*
Y-124667D02*
X6500Y-123867D01*
X7300Y-124667D01*
X6500Y-125467D01*
X5700Y-124667D01*
Y-136000D02*
X6500Y-135200D01*
X7300Y-136000D01*
X6500Y-136800D01*
X5700Y-136000D01*
X6200Y-58000D02*
X7000Y-57200D01*
X7800Y-58000D01*
X7000Y-58800D01*
X6200Y-58000D01*
Y-69333D02*
X7000Y-68533D01*
X7800Y-69333D01*
X7000Y-70133D01*
X6200Y-69333D01*
Y-80667D02*
X7000Y-79867D01*
X7800Y-80667D01*
X7000Y-81467D01*
X6200Y-80667D01*
Y-92000D02*
X7000Y-91200D01*
X7800Y-92000D01*
X7000Y-92800D01*
X6200Y-92000D01*
Y-48000D02*
X7000Y-47200D01*
X7800Y-48000D01*
X7000Y-48800D01*
X6200Y-48000D01*
Y-36667D02*
X7000Y-35867D01*
X7800Y-36667D01*
X7000Y-37467D01*
X6200Y-36667D01*
Y-25333D02*
X7000Y-24533D01*
X7800Y-25333D01*
X7000Y-26133D01*
X6200Y-25333D01*
Y-14000D02*
X7000Y-13200D01*
X7800Y-14000D01*
X7000Y-14800D01*
X6200Y-14000D01*
X235200Y-38000D02*
X236000Y-37200D01*
X236800Y-38000D01*
X236000Y-38800D01*
X235200Y-38000D01*
X241700Y-23500D02*
X242500Y-22700D01*
X243300Y-23500D01*
X242500Y-24300D01*
X241700Y-23500D01*
X223700Y-53500D02*
X224500Y-52700D01*
X225300Y-53500D01*
X224500Y-54300D01*
X223700Y-53500D01*
X254700Y-28500D02*
X255500Y-27700D01*
X256300Y-28500D01*
X255500Y-29300D01*
X254700Y-28500D01*
X240350Y-66500D02*
X241150Y-65700D01*
X241950Y-66500D01*
X241150Y-67300D01*
X240350Y-66500D01*
X234750D02*
X235550Y-65700D01*
X236350Y-66500D01*
X235550Y-67300D01*
X234750Y-66500D01*
X128700Y-69500D02*
X129500Y-68700D01*
X130300Y-69500D01*
X129500Y-70300D01*
X128700Y-69500D01*
X149200Y-35000D02*
X150000Y-34200D01*
X150800Y-35000D01*
X150000Y-35800D01*
X149200Y-35000D01*
X145700Y-30500D02*
X146500Y-29700D01*
X147300Y-30500D01*
X146500Y-31300D01*
X145700Y-30500D01*
X152200Y-150000D02*
X153000Y-149200D01*
X153800Y-150000D01*
X153000Y-150800D01*
X152200Y-150000D01*
X63700Y-58500D02*
X64500Y-57700D01*
X65300Y-58500D01*
X64500Y-59300D01*
X63700Y-58500D01*
X284950Y-76750D02*
X285750Y-75950D01*
X286550Y-76750D01*
X285750Y-77550D01*
X284950Y-76750D01*
X186700Y-71500D02*
X187500Y-70700D01*
X188300Y-71500D01*
X187500Y-72300D01*
X186700Y-71500D01*
X171700Y-65500D02*
X172500Y-64700D01*
X173300Y-65500D01*
X172500Y-66300D01*
X171700Y-65500D01*
X182700Y-49500D02*
X183500Y-48700D01*
X184300Y-49500D01*
X183500Y-50300D01*
X182700Y-49500D01*
X133200Y-55500D02*
X134000Y-54700D01*
X134800Y-55500D01*
X134000Y-56300D01*
X133200Y-55500D01*
Y-59500D02*
X134000Y-58700D01*
X134800Y-59500D01*
X134000Y-60300D01*
X133200Y-59500D01*
X93700Y-10500D02*
X94500Y-9700D01*
X95300Y-10500D01*
X94500Y-11300D01*
X93700Y-10500D01*
X296200Y-150000D02*
X297000Y-149200D01*
X297800Y-150000D01*
X297000Y-150800D01*
X296200Y-150000D01*
X191700Y-104000D02*
X192500Y-103200D01*
X193300Y-104000D01*
X192500Y-104800D01*
X191700Y-104000D01*
X64700Y-27500D02*
X65500Y-26700D01*
X66300Y-27500D01*
X65500Y-28300D01*
X64700Y-27500D01*
Y-21500D02*
X65500Y-20700D01*
X66300Y-21500D01*
X65500Y-22300D01*
X64700Y-21500D01*
X195200Y-11500D02*
X196000Y-10700D01*
X196800Y-11500D01*
X196000Y-12300D01*
X195200Y-11500D01*
X114200Y-91000D02*
X115000Y-90200D01*
X115800Y-91000D01*
X115000Y-91800D01*
X114200Y-91000D01*
X133700Y-106000D02*
X134500Y-105200D01*
X135300Y-106000D01*
X134500Y-106800D01*
X133700Y-106000D01*
X147200Y-78000D02*
X148000Y-77200D01*
X148800Y-78000D01*
X148000Y-78800D01*
X147200Y-78000D01*
X109200Y-52000D02*
X110000Y-51200D01*
X110800Y-52000D01*
X110000Y-52800D01*
X109200Y-52000D01*
X148200Y-72500D02*
X149000Y-71700D01*
X149800Y-72500D01*
X149000Y-73300D01*
X148200Y-72500D01*
X195700Y-104000D02*
X196500Y-103200D01*
X197300Y-104000D01*
X196500Y-104800D01*
X195700Y-104000D01*
X165084Y-149000D02*
X165884Y-148200D01*
X166684Y-149000D01*
X165884Y-149800D01*
X165084Y-149000D01*
X152700Y-115000D02*
X153500Y-114200D01*
X154300Y-115000D01*
X153500Y-115800D01*
X152700Y-115000D01*
X158200Y-122500D02*
X159000Y-121700D01*
X159800Y-122500D01*
X159000Y-123300D01*
X158200Y-122500D01*
X175200Y-124000D02*
X176000Y-123200D01*
X176800Y-124000D01*
X176000Y-124800D01*
X175200Y-124000D01*
X152700Y-83000D02*
X153500Y-82200D01*
X154300Y-83000D01*
X153500Y-83800D01*
X152700Y-83000D01*
X271129Y-176071D02*
X271929Y-175271D01*
X272729Y-176071D01*
X271929Y-176871D01*
X271129Y-176071D01*
X257200Y-179500D02*
X258000Y-178700D01*
X258800Y-179500D01*
X258000Y-180300D01*
X257200Y-179500D01*
X250200Y-175500D02*
X251000Y-174700D01*
X251800Y-175500D01*
X251000Y-176300D01*
X250200Y-175500D01*
X149200Y-98000D02*
X150000Y-97200D01*
X150800Y-98000D01*
X150000Y-98800D01*
X149200Y-98000D01*
X90200Y-100000D02*
X91000Y-99200D01*
X91800Y-100000D01*
X91000Y-100800D01*
X90200Y-100000D01*
X99700Y-97000D02*
X100500Y-96200D01*
X101300Y-97000D01*
X100500Y-97800D01*
X99700Y-97000D01*
X132200Y-111500D02*
X133000Y-110700D01*
X133800Y-111500D01*
X133000Y-112300D01*
X132200Y-111500D01*
X101700Y-62500D02*
X102500Y-61700D01*
X103300Y-62500D01*
X102500Y-63300D01*
X101700Y-62500D01*
X103200Y-78000D02*
X104000Y-77200D01*
X104800Y-78000D01*
X104000Y-78800D01*
X103200Y-78000D01*
X95200Y-48500D02*
X96000Y-47700D01*
X96800Y-48500D01*
X96000Y-49300D01*
X95200Y-48500D01*
X86200Y-28500D02*
X87000Y-27700D01*
X87800Y-28500D01*
X87000Y-29300D01*
X86200Y-28500D01*
X118200Y-13500D02*
X119000Y-12700D01*
X119800Y-13500D01*
X119000Y-14300D01*
X118200Y-13500D01*
X134700Y-22000D02*
X135500Y-21200D01*
X136300Y-22000D01*
X135500Y-22800D01*
X134700Y-22000D01*
X91200Y-82000D02*
X92000Y-81200D01*
X92800Y-82000D01*
X92000Y-82800D01*
X91200Y-82000D01*
X93700Y-71500D02*
X94500Y-70700D01*
X95300Y-71500D01*
X94500Y-72300D01*
X93700Y-71500D01*
X85200Y-36000D02*
X86000Y-35200D01*
X86800Y-36000D01*
X86000Y-36800D01*
X85200Y-36000D01*
X66700Y-34500D02*
X67500Y-33700D01*
X68300Y-34500D01*
X67500Y-35300D01*
X66700Y-34500D01*
X57700Y-39500D02*
X58500Y-38700D01*
X59300Y-39500D01*
X58500Y-40300D01*
X57700Y-39500D01*
X56700Y-50500D02*
X57500Y-49700D01*
X58300Y-50500D01*
X57500Y-51300D01*
X56700Y-50500D01*
X53700Y-38000D02*
X54500Y-37200D01*
X55300Y-38000D01*
X54500Y-38800D01*
X53700Y-38000D01*
X41200Y-88000D02*
X42000Y-87200D01*
X42800Y-88000D01*
X42000Y-88800D01*
X41200Y-88000D01*
X104600Y-117569D02*
X105400Y-116769D01*
X106200Y-117569D01*
X105400Y-118368D01*
X104600Y-117569D01*
X114169Y-122468D02*
X114969Y-121669D01*
X115769Y-122468D01*
X114969Y-123268D01*
X114169Y-122468D01*
X99600Y-116900D02*
X100400Y-116100D01*
X101200Y-116900D01*
X100400Y-117700D01*
X99600Y-116900D01*
X90200Y-117000D02*
X91000Y-116200D01*
X91800Y-117000D01*
X91000Y-117800D01*
X90200Y-117000D01*
X88755Y-133555D02*
X89555Y-132755D01*
X90355Y-133555D01*
X89555Y-134355D01*
X88755Y-133555D01*
X64810Y-174110D02*
X65610Y-173310D01*
X66410Y-174110D01*
X65610Y-174910D01*
X64810Y-174110D01*
X205950Y-86000D02*
X206750Y-85200D01*
X207550Y-86000D01*
X206750Y-86800D01*
X205950Y-86000D01*
X213200Y-89500D02*
X214000Y-88700D01*
X214800Y-89500D01*
X214000Y-90300D01*
X213200Y-89500D01*
X216853Y-97587D02*
X217653Y-96787D01*
X218454Y-97587D01*
X217653Y-98387D01*
X216853Y-97587D01*
X213700Y-104000D02*
X214500Y-103200D01*
X215300Y-104000D01*
X214500Y-104800D01*
X213700Y-104000D01*
X152200Y-124500D02*
X153000Y-123700D01*
X153800Y-124500D01*
X153000Y-125300D01*
X152200Y-124500D01*
Y-92000D02*
X153000Y-91200D01*
X153800Y-92000D01*
X153000Y-92800D01*
X152200Y-92000D01*
X151200Y-109000D02*
X152000Y-108200D01*
X152800Y-109000D01*
X152000Y-109800D01*
X151200Y-109000D01*
X268200Y-158500D02*
X269000Y-157700D01*
X269800Y-158500D01*
X269000Y-159300D01*
X268200Y-158500D01*
X275200Y-145500D02*
X276000Y-144700D01*
X276800Y-145500D01*
X276000Y-146300D01*
X275200Y-145500D01*
X213200Y-120000D02*
X214000Y-119200D01*
X214800Y-120000D01*
X214000Y-120800D01*
X213200Y-120000D01*
X217700Y-121000D02*
X218500Y-120200D01*
X219300Y-121000D01*
X218500Y-121800D01*
X217700Y-121000D01*
X199200Y-103500D02*
X200000Y-102700D01*
X200800Y-103500D01*
X200000Y-104300D01*
X199200Y-103500D01*
X203700D02*
X204500Y-102700D01*
X205300Y-103500D01*
X204500Y-104300D01*
X203700Y-103500D01*
X305700Y-146000D02*
X306500Y-145200D01*
X307300Y-146000D01*
X306500Y-146800D01*
X305700Y-146000D01*
X221700Y-131000D02*
X222500Y-130200D01*
X223300Y-131000D01*
X222500Y-131800D01*
X221700Y-131000D01*
X163700Y-136000D02*
X164500Y-135200D01*
X165300Y-136000D01*
X164500Y-136800D01*
X163700Y-136000D01*
X198200D02*
X199000Y-135200D01*
X199800Y-136000D01*
X199000Y-136800D01*
X198200Y-136000D01*
X186700Y-136500D02*
X187500Y-135700D01*
X188300Y-136500D01*
X187500Y-137300D01*
X186700Y-136500D01*
X174700D02*
X175500Y-135700D01*
X176300Y-136500D01*
X175500Y-137300D01*
X174700Y-136500D01*
X201700Y-142000D02*
X202500Y-141200D01*
X203300Y-142000D01*
X202500Y-142800D01*
X201700Y-142000D01*
X235200Y-106500D02*
X236000Y-105700D01*
X236800Y-106500D01*
X236000Y-107300D01*
X235200Y-106500D01*
X241700Y-106000D02*
X242500Y-105200D01*
X243300Y-106000D01*
X242500Y-106800D01*
X241700Y-106000D01*
X151700Y-119500D02*
X152500Y-118700D01*
X153300Y-119500D01*
X152500Y-120300D01*
X151700Y-119500D01*
X157700Y-112000D02*
X158500Y-111200D01*
X159300Y-112000D01*
X158500Y-112800D01*
X157700Y-112000D01*
X158200Y-108000D02*
X159000Y-107200D01*
X159800Y-108000D01*
X159000Y-108800D01*
X158200Y-108000D01*
Y-103000D02*
X159000Y-102200D01*
X159800Y-103000D01*
X159000Y-103800D01*
X158200Y-103000D01*
X145700Y-121000D02*
X146500Y-120200D01*
X147300Y-121000D01*
X146500Y-121800D01*
X145700Y-121000D01*
X232700Y-114500D02*
X233500Y-113700D01*
X234300Y-114500D01*
X233500Y-115300D01*
X232700Y-114500D01*
X227700Y-123000D02*
X228500Y-122200D01*
X229300Y-123000D01*
X228500Y-123800D01*
X227700Y-123000D01*
X187700Y-159000D02*
X188500Y-158200D01*
X189300Y-159000D01*
X188500Y-159800D01*
X187700Y-159000D01*
X182700Y-121500D02*
X183500Y-120700D01*
X184300Y-121500D01*
X183500Y-122300D01*
X182700Y-121500D01*
X187918Y-121872D02*
X188718Y-121072D01*
X189518Y-121872D01*
X188718Y-122672D01*
X187918Y-121872D01*
X189700Y-149000D02*
X190500Y-148200D01*
X191300Y-149000D01*
X190500Y-149800D01*
X189700Y-149000D01*
X187200Y-143000D02*
X188000Y-142200D01*
X188800Y-143000D01*
X188000Y-143800D01*
X187200Y-143000D01*
X171700Y-118500D02*
X172500Y-117700D01*
X173300Y-118500D01*
X172500Y-119300D01*
X171700Y-118500D01*
X167700D02*
X168500Y-117700D01*
X169300Y-118500D01*
X168500Y-119300D01*
X167700Y-118500D01*
X176200Y-115500D02*
X177000Y-114700D01*
X177800Y-115500D01*
X177000Y-116300D01*
X176200Y-115500D01*
X195700Y-34000D02*
X196500Y-33200D01*
X197300Y-34000D01*
X196500Y-34800D01*
X195700Y-34000D01*
X177700Y-56000D02*
X178500Y-55200D01*
X179300Y-56000D01*
X178500Y-56800D01*
X177700Y-56000D01*
X173700Y-55000D02*
X174500Y-54200D01*
X175300Y-55000D01*
X174500Y-55800D01*
X173700Y-55000D01*
X230200Y-56500D02*
X231000Y-55700D01*
X231800Y-56500D01*
X231000Y-57300D01*
X230200Y-56500D01*
X172700Y-152500D02*
X173500Y-151700D01*
X174300Y-152500D01*
X173500Y-153300D01*
X172700Y-152500D01*
X164700Y-161500D02*
X165500Y-160700D01*
X166300Y-161500D01*
X165500Y-162300D01*
X164700Y-161500D01*
X187700Y-165000D02*
X188500Y-164200D01*
X189300Y-165000D01*
X188500Y-165800D01*
X187700Y-165000D01*
X203700Y-154000D02*
X204500Y-153200D01*
X205300Y-154000D01*
X204500Y-154800D01*
X203700Y-154000D01*
X202013Y-169313D02*
X202813Y-168513D01*
X203613Y-169313D01*
X202813Y-170113D01*
X202013Y-169313D01*
X268576Y-141624D02*
X269376Y-140824D01*
X270176Y-141624D01*
X269376Y-142424D01*
X268576Y-141624D01*
X272700Y-156500D02*
X273500Y-155700D01*
X274300Y-156500D01*
X273500Y-157300D01*
X272700Y-156500D01*
X296113Y-158087D02*
X296913Y-157287D01*
X297713Y-158087D01*
X296913Y-158887D01*
X296113Y-158087D01*
X284700Y-162500D02*
X285500Y-161700D01*
X286300Y-162500D01*
X285500Y-163300D01*
X284700Y-162500D01*
X262200Y-161000D02*
X263000Y-160200D01*
X263800Y-161000D01*
X263000Y-161800D01*
X262200Y-161000D01*
X260200Y-172500D02*
X261000Y-171700D01*
X261800Y-172500D01*
X261000Y-173300D01*
X260200Y-172500D01*
X288200Y-169000D02*
X289000Y-168200D01*
X289800Y-169000D01*
X289000Y-169800D01*
X288200Y-169000D01*
X298674Y-173974D02*
X299474Y-173174D01*
X300274Y-173974D01*
X299474Y-174774D01*
X298674Y-173974D01*
X297037Y-186337D02*
X297837Y-185537D01*
X298637Y-186337D01*
X297837Y-187137D01*
X297037Y-186337D01*
X278700Y-179500D02*
X279500Y-178700D01*
X280300Y-179500D01*
X279500Y-180300D01*
X278700Y-179500D01*
X147700Y-26000D02*
X148500Y-25200D01*
X149300Y-26000D01*
X148500Y-26800D01*
X147700Y-26000D01*
X165700Y-60000D02*
X166500Y-59200D01*
X167300Y-60000D01*
X166500Y-60800D01*
X165700Y-60000D01*
X152200Y-71500D02*
X153000Y-70700D01*
X153800Y-71500D01*
X153000Y-72300D01*
X152200Y-71500D01*
X155700Y-68500D02*
X156500Y-67700D01*
X157300Y-68500D01*
X156500Y-69300D01*
X155700Y-68500D01*
X163700Y-64000D02*
X164500Y-63200D01*
X165300Y-64000D01*
X164500Y-64800D01*
X163700Y-64000D01*
X156700Y-62000D02*
X157500Y-61200D01*
X158300Y-62000D01*
X157500Y-62800D01*
X156700Y-62000D01*
X151700Y-64500D02*
X152500Y-63700D01*
X153300Y-64500D01*
X152500Y-65300D01*
X151700Y-64500D01*
X151200Y-57500D02*
X152000Y-56700D01*
X152800Y-57500D01*
X152000Y-58300D01*
X151200Y-57500D01*
X130200Y-35500D02*
X131000Y-34700D01*
X131800Y-35500D01*
X131000Y-36300D01*
X130200Y-35500D01*
Y-31500D02*
X131000Y-30700D01*
X131800Y-31500D01*
X131000Y-32300D01*
X130200Y-31500D01*
X209200Y-77500D02*
X210000Y-76700D01*
X210800Y-77500D01*
X210000Y-78300D01*
X209200Y-77500D01*
X208200Y-83500D02*
X209000Y-82700D01*
X209800Y-83500D01*
X209000Y-84300D01*
X208200Y-83500D01*
X205200Y-81000D02*
X206000Y-80200D01*
X206800Y-81000D01*
X206000Y-81800D01*
X205200Y-81000D01*
X205700Y-74500D02*
X206500Y-73700D01*
X207300Y-74500D01*
X206500Y-75300D01*
X205700Y-74500D01*
X203200Y-71500D02*
X204000Y-70700D01*
X204800Y-71500D01*
X204000Y-72300D01*
X203200Y-71500D01*
Y-67500D02*
X204000Y-66700D01*
X204800Y-67500D01*
X204000Y-68300D01*
X203200Y-67500D01*
X323700Y-129500D02*
X324500Y-128700D01*
X325300Y-129500D01*
X324500Y-130300D01*
X323700Y-129500D01*
X259700Y-112000D02*
X260500Y-111200D01*
X261300Y-112000D01*
X260500Y-112800D01*
X259700Y-112000D01*
X328700Y-110000D02*
X329500Y-109200D01*
X330300Y-110000D01*
X329500Y-110800D01*
X328700Y-110000D01*
X314200Y-129500D02*
X315000Y-128700D01*
X315800Y-129500D01*
X315000Y-130300D01*
X314200Y-129500D01*
X259200Y-99500D02*
X260000Y-98700D01*
X260800Y-99500D01*
X260000Y-100300D01*
X259200Y-99500D01*
X306027Y-124173D02*
X306827Y-123373D01*
X307627Y-124173D01*
X306827Y-124973D01*
X306027Y-124173D01*
X263700Y-105500D02*
X264500Y-104700D01*
X265300Y-105500D01*
X264500Y-106300D01*
X263700Y-105500D01*
X262200Y-102000D02*
X263000Y-101200D01*
X263800Y-102000D01*
X263000Y-102800D01*
X262200Y-102000D01*
X316154Y-171453D02*
X316953Y-170653D01*
X317754Y-171453D01*
X316953Y-172254D01*
X316154Y-171453D01*
X316200Y-111000D02*
X317000Y-110200D01*
X317800Y-111000D01*
X317000Y-111800D01*
X316200Y-111000D01*
X303200Y-57000D02*
X304000Y-56200D01*
X304800Y-57000D01*
X304000Y-57800D01*
X303200Y-57000D01*
X297200Y-54000D02*
X298000Y-53200D01*
X298800Y-54000D01*
X298000Y-54800D01*
X297200Y-54000D01*
X201200Y-58500D02*
X202000Y-57700D01*
X202800Y-58500D01*
X202000Y-59300D01*
X201200Y-58500D01*
X147700Y-149000D02*
X148500Y-148200D01*
X149300Y-149000D01*
X148500Y-149800D01*
X147700Y-149000D01*
X161200Y-142000D02*
X162000Y-141200D01*
X162800Y-142000D01*
X162000Y-142800D01*
X161200Y-142000D01*
X84076Y-110530D02*
X84876Y-109730D01*
X85676Y-110530D01*
X84876Y-111330D01*
X84076Y-110530D01*
X118611Y-120411D02*
X119411Y-119611D01*
X120211Y-120411D01*
X119411Y-121211D01*
X118611Y-120411D01*
X204200Y-124000D02*
X205000Y-123200D01*
X205800Y-124000D01*
X205000Y-124800D01*
X204200Y-124000D01*
X209700Y-123000D02*
X210500Y-122200D01*
X211300Y-123000D01*
X210500Y-123800D01*
X209700Y-123000D01*
X192700Y-139000D02*
X193500Y-138200D01*
X194300Y-139000D01*
X193500Y-139800D01*
X192700Y-139000D01*
X180700Y-138500D02*
X181500Y-137700D01*
X182300Y-138500D01*
X181500Y-139300D01*
X180700Y-138500D01*
X169200Y-138000D02*
X170000Y-137200D01*
X170800Y-138000D01*
X170000Y-138800D01*
X169200Y-138000D01*
X158200D02*
X159000Y-137200D01*
X159800Y-138000D01*
X159000Y-138800D01*
X158200Y-138000D01*
X239700Y-140500D02*
X240500Y-139700D01*
X241300Y-140500D01*
X240500Y-141300D01*
X239700Y-140500D01*
X269200Y-88000D02*
X270000Y-87200D01*
X270800Y-88000D01*
X270000Y-88800D01*
X269200Y-88000D01*
X269700Y-93500D02*
X270500Y-92700D01*
X271300Y-93500D01*
X270500Y-94300D01*
X269700Y-93500D01*
X349700Y-137000D02*
X350500Y-136200D01*
X351300Y-137000D01*
X350500Y-137800D01*
X349700Y-137000D01*
X359950Y-137250D02*
X360750Y-136450D01*
X361550Y-137250D01*
X360750Y-138050D01*
X359950Y-137250D01*
X354700Y-137000D02*
X355500Y-136200D01*
X356300Y-137000D01*
X355500Y-137800D01*
X354700Y-137000D01*
X215200Y-135500D02*
X216000Y-134700D01*
X216800Y-135500D01*
X216000Y-136300D01*
X215200Y-135500D01*
X204200Y-136327D02*
X205000Y-135527D01*
X205800Y-136327D01*
X205000Y-137127D01*
X204200Y-136327D01*
X152200Y-137000D02*
X153000Y-136200D01*
X153800Y-137000D01*
X153000Y-137800D01*
X152200Y-137000D01*
X167200Y-86500D02*
X168000Y-85700D01*
X168800Y-86500D01*
X168000Y-87300D01*
X167200Y-86500D01*
X178700Y-93500D02*
X179500Y-92700D01*
X180300Y-93500D01*
X179500Y-94300D01*
X178700Y-93500D01*
X172200Y-87000D02*
X173000Y-86200D01*
X173800Y-87000D01*
X173000Y-87800D01*
X172200Y-87000D01*
X195200Y-67000D02*
X196000Y-66200D01*
X196800Y-67000D01*
X196000Y-67800D01*
X195200Y-67000D01*
X229700Y-71500D02*
X230500Y-70700D01*
X231300Y-71500D01*
X230500Y-72300D01*
X229700Y-71500D01*
X229700Y-77500D02*
X230500Y-76700D01*
X231300Y-77500D01*
X230500Y-78300D01*
X229700Y-77500D01*
X230200Y-83000D02*
X231000Y-82200D01*
X231800Y-83000D01*
X231000Y-83800D01*
X230200Y-83000D01*
X234200Y-103000D02*
X235000Y-102200D01*
X235800Y-103000D01*
X235000Y-103800D01*
X234200Y-103000D01*
X230200Y-118000D02*
X231000Y-117200D01*
X231800Y-118000D01*
X231000Y-118800D01*
X230200Y-118000D01*
X234200Y-110500D02*
X235000Y-109700D01*
X235800Y-110500D01*
X235000Y-111300D01*
X234200Y-110500D01*
X137825Y-105000D02*
X138625Y-104200D01*
X139425Y-105000D01*
X138625Y-105800D01*
X137825Y-105000D01*
X137700Y-99000D02*
X138500Y-98200D01*
X139300Y-99000D01*
X138500Y-99800D01*
X137700Y-99000D01*
X139700Y-84000D02*
X140500Y-83200D01*
X141300Y-84000D01*
X140500Y-84800D01*
X139700Y-84000D01*
X125200Y-101000D02*
X126000Y-100200D01*
X126800Y-101000D01*
X126000Y-101800D01*
X125200Y-101000D01*
X118200Y-90500D02*
X119000Y-89700D01*
X119800Y-90500D01*
X119000Y-91300D01*
X118200Y-90500D01*
X273200Y-59500D02*
X274000Y-58700D01*
X274800Y-59500D01*
X274000Y-60300D01*
X273200Y-59500D01*
X367200Y-121500D02*
X368000Y-120700D01*
X368800Y-121500D01*
X368000Y-122300D01*
X367200Y-121500D01*
X375700Y-116500D02*
X376500Y-115700D01*
X377300Y-116500D01*
X376500Y-117300D01*
X375700Y-116500D01*
X334200Y-84000D02*
X335000Y-83200D01*
X335800Y-84000D01*
X335000Y-84800D01*
X334200Y-84000D01*
X343700Y-84500D02*
X344500Y-83700D01*
X345300Y-84500D01*
X344500Y-85300D01*
X343700Y-84500D01*
Y-74000D02*
X344500Y-73200D01*
X345300Y-74000D01*
X344500Y-74800D01*
X343700Y-74000D01*
X292200Y-46000D02*
X293000Y-45200D01*
X293800Y-46000D01*
X293000Y-46800D01*
X292200Y-46000D01*
X291873Y-40500D02*
X292673Y-39700D01*
X293473Y-40500D01*
X292673Y-41300D01*
X291873Y-40500D01*
X295200Y-96500D02*
X296000Y-95700D01*
X296800Y-96500D01*
X296000Y-97300D01*
X295200Y-96500D01*
X300200D02*
X301000Y-95700D01*
X301800Y-96500D01*
X301000Y-97300D01*
X300200Y-96500D01*
X334107Y-171407D02*
X334907Y-170607D01*
X335707Y-171407D01*
X334907Y-172207D01*
X334107Y-171407D01*
X335200Y-108000D02*
X336000Y-107200D01*
X336800Y-108000D01*
X336000Y-108800D01*
X335200Y-108000D01*
X335135Y-123935D02*
X335935Y-123135D01*
X336735Y-123935D01*
X335935Y-124735D01*
X335135Y-123935D01*
X492841Y-95000D02*
X494841Y-93000D01*
X496841Y-95000D01*
X494841Y-97000D01*
X492841Y-95000D01*
Y-107000D02*
Y-103000D01*
X496841D01*
Y-107000D01*
X492841D01*
Y-117000D02*
X493841Y-115000D01*
X492841Y-113000D01*
X494841Y-114000D01*
X496841Y-113000D01*
X495841Y-115000D01*
X496841Y-117000D01*
X494841Y-116000D01*
X492841Y-117000D01*
Y-127000D02*
X493841D01*
X494841Y-126000D01*
X495841Y-127000D01*
X496841D01*
Y-126000D01*
X495841Y-125000D01*
X496841Y-124000D01*
Y-123000D01*
X495841D01*
X494841Y-124000D01*
X493841Y-123000D01*
X492841D01*
Y-124000D01*
X493841Y-125000D01*
X492841Y-126000D01*
Y-127000D01*
X493841Y-136000D02*
Y-137000D01*
X495841D01*
Y-136000D01*
X496841D01*
Y-134000D01*
X495841D01*
Y-133000D01*
X493841D01*
Y-134000D01*
X492841D01*
Y-136000D01*
X493841D01*
X494841Y-147000D02*
X495841Y-146000D01*
X496841D01*
X495841Y-145000D01*
X496841Y-144000D01*
X495841D01*
X494841Y-143000D01*
X493841Y-144000D01*
X492841D01*
X493841Y-145000D01*
X492841Y-146000D01*
X493841D01*
X494841Y-147000D01*
Y-157000D02*
X492841Y-153000D01*
X496841D01*
X494841Y-157000D01*
D154*
X239107Y-56366D02*
G03*
X239107Y-56366I-800J0D01*
G01*
X267257D02*
G03*
X267257Y-56366I-800J0D01*
G01*
D155*
X496840Y-80358D02*
X496269Y-79787D01*
X495412Y-79501D01*
X494269D01*
X493412Y-79787D01*
X492841Y-80358D01*
Y-80929D01*
X493127Y-81501D01*
X493412Y-81787D01*
X493984Y-82072D01*
X495697Y-82644D01*
X496269Y-82929D01*
X496554Y-83215D01*
X496840Y-83786D01*
Y-84643D01*
X496269Y-85214D01*
X495412Y-85500D01*
X494269D01*
X493412Y-85214D01*
X492841Y-84643D01*
X498468Y-81501D02*
X500182Y-85500D01*
X501896Y-81501D02*
X500182Y-85500D01*
X499611Y-86643D01*
X499040Y-87214D01*
X498468Y-87500D01*
X498183D01*
X502896Y-81501D02*
Y-85500D01*
Y-82644D02*
X503753Y-81787D01*
X504324Y-81501D01*
X505181D01*
X505753Y-81787D01*
X506038Y-82644D01*
Y-85500D01*
Y-82644D02*
X506895Y-81787D01*
X507466Y-81501D01*
X508323D01*
X508895Y-81787D01*
X509180Y-82644D01*
Y-85500D01*
X511066Y-79501D02*
Y-85500D01*
Y-82358D02*
X511637Y-81787D01*
X512208Y-81501D01*
X513065D01*
X513636Y-81787D01*
X514208Y-82358D01*
X514494Y-83215D01*
Y-83786D01*
X514208Y-84643D01*
X513636Y-85214D01*
X513065Y-85500D01*
X512208D01*
X511637Y-85214D01*
X511066Y-84643D01*
X517207Y-81501D02*
X516636Y-81787D01*
X516065Y-82358D01*
X515779Y-83215D01*
Y-83786D01*
X516065Y-84643D01*
X516636Y-85214D01*
X517207Y-85500D01*
X518064D01*
X518635Y-85214D01*
X519207Y-84643D01*
X519492Y-83786D01*
Y-83215D01*
X519207Y-82358D01*
X518635Y-81787D01*
X518064Y-81501D01*
X517207D01*
X520806Y-79501D02*
Y-85500D01*
X529686Y-79501D02*
Y-85500D01*
X533685Y-79501D02*
Y-85500D01*
X529686Y-82358D02*
X533685D01*
X535914Y-79501D02*
X536199Y-79787D01*
X536485Y-79501D01*
X536199Y-79216D01*
X535914Y-79501D01*
X536199Y-81501D02*
Y-85500D01*
X538399Y-79501D02*
Y-84357D01*
X538685Y-85214D01*
X539256Y-85500D01*
X539827D01*
X537542Y-81501D02*
X539541D01*
X549682Y-80929D02*
X549396Y-80358D01*
X548825Y-79787D01*
X548254Y-79501D01*
X547111D01*
X546540Y-79787D01*
X545969Y-80358D01*
X545683Y-80929D01*
X545397Y-81787D01*
Y-83215D01*
X545683Y-84072D01*
X545969Y-84643D01*
X546540Y-85214D01*
X547111Y-85500D01*
X548254D01*
X548825Y-85214D01*
X549396Y-84643D01*
X549682Y-84072D01*
X552796Y-81501D02*
X552224Y-81787D01*
X551653Y-82358D01*
X551368Y-83215D01*
Y-83786D01*
X551653Y-84643D01*
X552224Y-85214D01*
X552796Y-85500D01*
X553653D01*
X554224Y-85214D01*
X554795Y-84643D01*
X555081Y-83786D01*
Y-83215D01*
X554795Y-82358D01*
X554224Y-81787D01*
X553653Y-81501D01*
X552796D01*
X556395D02*
Y-84357D01*
X556681Y-85214D01*
X557252Y-85500D01*
X558109D01*
X558680Y-85214D01*
X559537Y-84357D01*
Y-81501D02*
Y-85500D01*
X561108Y-81501D02*
Y-85500D01*
Y-82644D02*
X561965Y-81787D01*
X562536Y-81501D01*
X563393D01*
X563965Y-81787D01*
X564250Y-82644D01*
Y-85500D01*
X566678Y-79501D02*
Y-84357D01*
X566964Y-85214D01*
X567535Y-85500D01*
X568107D01*
X565822Y-81501D02*
X567821D01*
X576987Y-79501D02*
Y-85500D01*
Y-79501D02*
X580700D01*
X576987Y-82358D02*
X579272D01*
X581957Y-79501D02*
X582243Y-79787D01*
X582528Y-79501D01*
X582243Y-79216D01*
X581957Y-79501D01*
X582243Y-81501D02*
Y-85500D01*
X583585Y-81501D02*
Y-85500D01*
Y-82644D02*
X584442Y-81787D01*
X585014Y-81501D01*
X585871D01*
X586442Y-81787D01*
X586728Y-82644D01*
Y-85500D01*
X588870Y-79501D02*
X589156Y-79787D01*
X589441Y-79501D01*
X589156Y-79216D01*
X588870Y-79501D01*
X589156Y-81501D02*
Y-85500D01*
X593640Y-82358D02*
X593355Y-81787D01*
X592498Y-81501D01*
X591641D01*
X590784Y-81787D01*
X590498Y-82358D01*
X590784Y-82929D01*
X591355Y-83215D01*
X592783Y-83500D01*
X593355Y-83786D01*
X593640Y-84357D01*
Y-84643D01*
X593355Y-85214D01*
X592498Y-85500D01*
X591641D01*
X590784Y-85214D01*
X590498Y-84643D01*
X594897Y-79501D02*
Y-85500D01*
Y-82644D02*
X595754Y-81787D01*
X596325Y-81501D01*
X597182D01*
X597754Y-81787D01*
X598039Y-82644D01*
Y-85500D01*
X599611Y-83215D02*
X603038D01*
Y-82644D01*
X602753Y-82072D01*
X602467Y-81787D01*
X601896Y-81501D01*
X601039D01*
X600467Y-81787D01*
X599896Y-82358D01*
X599611Y-83215D01*
Y-83786D01*
X599896Y-84643D01*
X600467Y-85214D01*
X601039Y-85500D01*
X601896D01*
X602467Y-85214D01*
X603038Y-84643D01*
X607752Y-79501D02*
Y-85500D01*
Y-82358D02*
X607180Y-81787D01*
X606609Y-81501D01*
X605752D01*
X605181Y-81787D01*
X604609Y-82358D01*
X604324Y-83215D01*
Y-83786D01*
X604609Y-84643D01*
X605181Y-85214D01*
X605752Y-85500D01*
X606609D01*
X607180Y-85214D01*
X607752Y-84643D01*
X614065Y-79501D02*
Y-85500D01*
X618064Y-79501D02*
Y-85500D01*
X614065Y-82358D02*
X618064D01*
X621149Y-81501D02*
X620577Y-81787D01*
X620006Y-82358D01*
X619720Y-83215D01*
Y-83786D01*
X620006Y-84643D01*
X620577Y-85214D01*
X621149Y-85500D01*
X622006D01*
X622577Y-85214D01*
X623148Y-84643D01*
X623434Y-83786D01*
Y-83215D01*
X623148Y-82358D01*
X622577Y-81787D01*
X622006Y-81501D01*
X621149D01*
X624748Y-79501D02*
Y-85500D01*
X626005Y-83215D02*
X629433D01*
Y-82644D01*
X629147Y-82072D01*
X628861Y-81787D01*
X628290Y-81501D01*
X627433D01*
X626862Y-81787D01*
X626290Y-82358D01*
X626005Y-83215D01*
Y-83786D01*
X626290Y-84643D01*
X626862Y-85214D01*
X627433Y-85500D01*
X628290D01*
X628861Y-85214D01*
X629433Y-84643D01*
X639431Y-80358D02*
X638859Y-79787D01*
X638002Y-79501D01*
X636860D01*
X636003Y-79787D01*
X635431Y-80358D01*
Y-80929D01*
X635717Y-81501D01*
X636003Y-81787D01*
X636574Y-82072D01*
X638288Y-82644D01*
X638859Y-82929D01*
X639145Y-83215D01*
X639431Y-83786D01*
Y-84643D01*
X638859Y-85214D01*
X638002Y-85500D01*
X636860D01*
X636003Y-85214D01*
X635431Y-84643D01*
X641344Y-79501D02*
X641630Y-79787D01*
X641916Y-79501D01*
X641630Y-79216D01*
X641344Y-79501D01*
X641630Y-81501D02*
Y-85500D01*
X646115Y-81501D02*
X642973Y-85500D01*
Y-81501D02*
X646115D01*
X642973Y-85500D02*
X646115D01*
X647372Y-83215D02*
X650800D01*
Y-82644D01*
X650514Y-82072D01*
X650228Y-81787D01*
X649657Y-81501D01*
X648800D01*
X648229Y-81787D01*
X647657Y-82358D01*
X647372Y-83215D01*
Y-83786D01*
X647657Y-84643D01*
X648229Y-85214D01*
X648800Y-85500D01*
X649657D01*
X650228Y-85214D01*
X650800Y-84643D01*
X659680Y-82644D02*
X662250D01*
X663107Y-82358D01*
X663393Y-82072D01*
X663679Y-81501D01*
Y-80644D01*
X663393Y-80073D01*
X663107Y-79787D01*
X662250Y-79501D01*
X659680D01*
Y-85500D01*
X665021Y-79501D02*
Y-85500D01*
Y-82644D02*
X665878Y-81787D01*
X666449Y-81501D01*
X667306D01*
X667878Y-81787D01*
X668163Y-82644D01*
Y-85500D01*
X670020Y-81501D02*
X671734Y-85500D01*
X673448Y-81501D02*
X671734Y-85500D01*
X671163Y-86643D01*
X670591Y-87214D01*
X670020Y-87500D01*
X669734D01*
X677590Y-82358D02*
X677304Y-81787D01*
X676447Y-81501D01*
X675590D01*
X674733Y-81787D01*
X674448Y-82358D01*
X674733Y-82929D01*
X675305Y-83215D01*
X676733Y-83500D01*
X677304Y-83786D01*
X677590Y-84357D01*
Y-84643D01*
X677304Y-85214D01*
X676447Y-85500D01*
X675590D01*
X674733Y-85214D01*
X674448Y-84643D01*
X679418Y-79501D02*
X679704Y-79787D01*
X679989Y-79501D01*
X679704Y-79216D01*
X679418Y-79501D01*
X679704Y-81501D02*
Y-85500D01*
X684474Y-82358D02*
X683903Y-81787D01*
X683332Y-81501D01*
X682475D01*
X681903Y-81787D01*
X681332Y-82358D01*
X681046Y-83215D01*
Y-83786D01*
X681332Y-84643D01*
X681903Y-85214D01*
X682475Y-85500D01*
X683332D01*
X683903Y-85214D01*
X684474Y-84643D01*
X689187Y-81501D02*
Y-85500D01*
Y-82358D02*
X688616Y-81787D01*
X688045Y-81501D01*
X687188D01*
X686617Y-81787D01*
X686045Y-82358D01*
X685760Y-83215D01*
Y-83786D01*
X686045Y-84643D01*
X686617Y-85214D01*
X687188Y-85500D01*
X688045D01*
X688616Y-85214D01*
X689187Y-84643D01*
X690787Y-79501D02*
Y-85500D01*
X696757Y-79501D02*
Y-85500D01*
X700185D01*
X700842Y-83215D02*
X704270D01*
Y-82644D01*
X703984Y-82072D01*
X703699Y-81787D01*
X703127Y-81501D01*
X702270D01*
X701699Y-81787D01*
X701128Y-82358D01*
X700842Y-83215D01*
Y-83786D01*
X701128Y-84643D01*
X701699Y-85214D01*
X702270Y-85500D01*
X703127D01*
X703699Y-85214D01*
X704270Y-84643D01*
X705555Y-81501D02*
Y-85500D01*
Y-82644D02*
X706412Y-81787D01*
X706984Y-81501D01*
X707841D01*
X708412Y-81787D01*
X708698Y-82644D01*
Y-85500D01*
X713696Y-81501D02*
Y-86071D01*
X713411Y-86928D01*
X713125Y-87214D01*
X712554Y-87500D01*
X711697D01*
X711126Y-87214D01*
X713696Y-82358D02*
X713125Y-81787D01*
X712554Y-81501D01*
X711697D01*
X711126Y-81787D01*
X710554Y-82358D01*
X710269Y-83215D01*
Y-83786D01*
X710554Y-84643D01*
X711126Y-85214D01*
X711697Y-85500D01*
X712554D01*
X713125Y-85214D01*
X713696Y-84643D01*
X716153Y-79501D02*
Y-84357D01*
X716439Y-85214D01*
X717010Y-85500D01*
X717581D01*
X715296Y-81501D02*
X717296D01*
X718438Y-79501D02*
Y-85500D01*
Y-82644D02*
X719295Y-81787D01*
X719867Y-81501D01*
X720724D01*
X721295Y-81787D01*
X721581Y-82644D01*
Y-85500D01*
X730461Y-79501D02*
Y-85500D01*
Y-79501D02*
X733031D01*
X733888Y-79787D01*
X734174Y-80073D01*
X734460Y-80644D01*
Y-81215D01*
X734174Y-81787D01*
X733888Y-82072D01*
X733031Y-82358D01*
X730461D01*
X732460D02*
X734460Y-85500D01*
X737230Y-81501D02*
X736659Y-81787D01*
X736088Y-82358D01*
X735802Y-83215D01*
Y-83786D01*
X736088Y-84643D01*
X736659Y-85214D01*
X737230Y-85500D01*
X738088D01*
X738659Y-85214D01*
X739230Y-84643D01*
X739516Y-83786D01*
Y-83215D01*
X739230Y-82358D01*
X738659Y-81787D01*
X738088Y-81501D01*
X737230D01*
X740830D02*
Y-84357D01*
X741115Y-85214D01*
X741687Y-85500D01*
X742544D01*
X743115Y-85214D01*
X743972Y-84357D01*
Y-81501D02*
Y-85500D01*
X746400Y-79501D02*
Y-84357D01*
X746686Y-85214D01*
X747257Y-85500D01*
X747828D01*
X745543Y-81501D02*
X747543D01*
X753399Y-82644D02*
X755969D01*
X756826Y-82358D01*
X757112Y-82072D01*
X757398Y-81501D01*
Y-80644D01*
X757112Y-80073D01*
X756826Y-79787D01*
X755969Y-79501D01*
X753399D01*
Y-85500D01*
X762168Y-81501D02*
Y-85500D01*
Y-82358D02*
X761597Y-81787D01*
X761025Y-81501D01*
X760169D01*
X759597Y-81787D01*
X759026Y-82358D01*
X758740Y-83215D01*
Y-83786D01*
X759026Y-84643D01*
X759597Y-85214D01*
X760169Y-85500D01*
X761025D01*
X761597Y-85214D01*
X762168Y-84643D01*
X764625Y-79501D02*
Y-84357D01*
X764910Y-85214D01*
X765482Y-85500D01*
X766053D01*
X763768Y-81501D02*
X765767D01*
X766910Y-79501D02*
Y-85500D01*
Y-82644D02*
X767767Y-81787D01*
X768338Y-81501D01*
X769195D01*
X769766Y-81787D01*
X770052Y-82644D01*
Y-85500D01*
X776336Y-79501D02*
Y-85500D01*
X779764D01*
X780421Y-83215D02*
X783849D01*
Y-82644D01*
X783563Y-82072D01*
X783278Y-81787D01*
X782706Y-81501D01*
X781849D01*
X781278Y-81787D01*
X780707Y-82358D01*
X780421Y-83215D01*
Y-83786D01*
X780707Y-84643D01*
X781278Y-85214D01*
X781849Y-85500D01*
X782706D01*
X783278Y-85214D01*
X783849Y-84643D01*
X785135Y-81501D02*
Y-85500D01*
Y-82644D02*
X785991Y-81787D01*
X786563Y-81501D01*
X787420D01*
X787991Y-81787D01*
X788277Y-82644D01*
Y-85500D01*
X793276Y-81501D02*
Y-86071D01*
X792990Y-86928D01*
X792704Y-87214D01*
X792133Y-87500D01*
X791276D01*
X790705Y-87214D01*
X793276Y-82358D02*
X792704Y-81787D01*
X792133Y-81501D01*
X791276D01*
X790705Y-81787D01*
X790133Y-82358D01*
X789848Y-83215D01*
Y-83786D01*
X790133Y-84643D01*
X790705Y-85214D01*
X791276Y-85500D01*
X792133D01*
X792704Y-85214D01*
X793276Y-84643D01*
X795732Y-79501D02*
Y-84357D01*
X796018Y-85214D01*
X796589Y-85500D01*
X797160D01*
X794875Y-81501D02*
X796875D01*
X798018Y-79501D02*
Y-85500D01*
Y-82644D02*
X798874Y-81787D01*
X799446Y-81501D01*
X800303D01*
X800874Y-81787D01*
X801160Y-82644D01*
Y-85500D01*
X810040Y-82644D02*
X812611D01*
X813468Y-82358D01*
X813753Y-82072D01*
X814039Y-81501D01*
Y-80644D01*
X813753Y-80073D01*
X813468Y-79787D01*
X812611Y-79501D01*
X810040D01*
Y-85500D01*
X815381Y-79501D02*
Y-85500D01*
X820066Y-81501D02*
Y-85500D01*
Y-82358D02*
X819495Y-81787D01*
X818923Y-81501D01*
X818067D01*
X817495Y-81787D01*
X816924Y-82358D01*
X816638Y-83215D01*
Y-83786D01*
X816924Y-84643D01*
X817495Y-85214D01*
X818067Y-85500D01*
X818923D01*
X819495Y-85214D01*
X820066Y-84643D01*
X822523Y-79501D02*
Y-84357D01*
X822808Y-85214D01*
X823380Y-85500D01*
X823951D01*
X821666Y-81501D02*
X823665D01*
X824808Y-83215D02*
X828236D01*
Y-82644D01*
X827950Y-82072D01*
X827664Y-81787D01*
X827093Y-81501D01*
X826236D01*
X825665Y-81787D01*
X825094Y-82358D01*
X824808Y-83215D01*
Y-83786D01*
X825094Y-84643D01*
X825665Y-85214D01*
X826236Y-85500D01*
X827093D01*
X827664Y-85214D01*
X828236Y-84643D01*
X832949Y-79501D02*
Y-85500D01*
Y-82358D02*
X832378Y-81787D01*
X831806Y-81501D01*
X830949D01*
X830378Y-81787D01*
X829807Y-82358D01*
X829521Y-83215D01*
Y-83786D01*
X829807Y-84643D01*
X830378Y-85214D01*
X830949Y-85500D01*
X831806D01*
X832378Y-85214D01*
X832949Y-84643D01*
X841829Y-79501D02*
Y-85500D01*
X845828Y-79501D02*
Y-85500D01*
X841829Y-82358D02*
X845828D01*
X848913Y-81501D02*
X848342Y-81787D01*
X847771Y-82358D01*
X847485Y-83215D01*
Y-83786D01*
X847771Y-84643D01*
X848342Y-85214D01*
X848913Y-85500D01*
X849770D01*
X850342Y-85214D01*
X850913Y-84643D01*
X851198Y-83786D01*
Y-83215D01*
X850913Y-82358D01*
X850342Y-81787D01*
X849770Y-81501D01*
X848913D01*
X852512Y-79501D02*
Y-85500D01*
X853769Y-83215D02*
X857197D01*
Y-82644D01*
X856911Y-82072D01*
X856626Y-81787D01*
X856054Y-81501D01*
X855198D01*
X854626Y-81787D01*
X854055Y-82358D01*
X853769Y-83215D01*
Y-83786D01*
X854055Y-84643D01*
X854626Y-85214D01*
X855198Y-85500D01*
X856054D01*
X856626Y-85214D01*
X857197Y-84643D01*
X865195Y-79501D02*
Y-85500D01*
X863196Y-79501D02*
X867195D01*
X868195Y-81501D02*
X869909Y-85500D01*
X871623Y-81501D02*
X869909Y-85500D01*
X869337Y-86643D01*
X868766Y-87214D01*
X868195Y-87500D01*
X867909D01*
X872622Y-81501D02*
Y-87500D01*
Y-82358D02*
X873194Y-81787D01*
X873765Y-81501D01*
X874622D01*
X875193Y-81787D01*
X875765Y-82358D01*
X876050Y-83215D01*
Y-83786D01*
X875765Y-84643D01*
X875193Y-85214D01*
X874622Y-85500D01*
X873765D01*
X873194Y-85214D01*
X872622Y-84643D01*
X877336Y-83215D02*
X880764D01*
Y-82644D01*
X880478Y-82072D01*
X880192Y-81787D01*
X879621Y-81501D01*
X878764D01*
X878193Y-81787D01*
X877621Y-82358D01*
X877336Y-83215D01*
Y-83786D01*
X877621Y-84643D01*
X878193Y-85214D01*
X878764Y-85500D01*
X879621D01*
X880192Y-85214D01*
X880764Y-84643D01*
X485881Y-76500D02*
X889644D01*
X485881Y-90000D02*
X889644D01*
X485881Y-76500D02*
Y-180000D01*
X889644Y-76500D02*
Y-180000D01*
X526206Y-76500D02*
Y-180000D01*
X573507Y-76500D02*
Y-180000D01*
X656200Y-76500D02*
Y-180000D01*
X726980Y-76500D02*
Y-180000D01*
X806560Y-76500D02*
Y-180000D01*
X838349Y-76500D02*
Y-180000D01*
X485881Y-170000D02*
X889644D01*
X485881Y-180000D02*
X889644D01*
D156*
X496841Y-165000D02*
G03*
X496841Y-165000I-2000J0D01*
G01*
D157*
X496174Y-183215D02*
X495697Y-182739D01*
X494983Y-182501D01*
X494031D01*
X493317Y-182739D01*
X492841Y-183215D01*
Y-183691D01*
X493079Y-184167D01*
X493317Y-184405D01*
X493793Y-184643D01*
X495221Y-185120D01*
X495697Y-185358D01*
X495935Y-185596D01*
X496174Y-186072D01*
Y-186786D01*
X495697Y-187262D01*
X494983Y-187500D01*
X494031D01*
X493317Y-187262D01*
X492841Y-186786D01*
X497292Y-182501D02*
Y-187500D01*
X499530Y-184167D02*
X499054Y-184405D01*
X498578Y-184881D01*
X498340Y-185596D01*
Y-186072D01*
X498578Y-186786D01*
X499054Y-187262D01*
X499530Y-187500D01*
X500244D01*
X500720Y-187262D01*
X501196Y-186786D01*
X501434Y-186072D01*
Y-185596D01*
X501196Y-184881D01*
X500720Y-184405D01*
X500244Y-184167D01*
X499530D01*
X503243Y-182501D02*
Y-186548D01*
X503481Y-187262D01*
X503958Y-187500D01*
X504434D01*
X502529Y-184167D02*
X504196D01*
X511932Y-182501D02*
Y-187500D01*
Y-184881D02*
X511456Y-184405D01*
X510980Y-184167D01*
X510266D01*
X509790Y-184405D01*
X509314Y-184881D01*
X509076Y-185596D01*
Y-186072D01*
X509314Y-186786D01*
X509790Y-187262D01*
X510266Y-187500D01*
X510980D01*
X511456Y-187262D01*
X511932Y-186786D01*
X513265Y-185596D02*
X516122D01*
Y-185120D01*
X515884Y-184643D01*
X515646Y-184405D01*
X515169Y-184167D01*
X514455D01*
X513979Y-184405D01*
X513503Y-184881D01*
X513265Y-185596D01*
Y-186072D01*
X513503Y-186786D01*
X513979Y-187262D01*
X514455Y-187500D01*
X515169D01*
X515646Y-187262D01*
X516122Y-186786D01*
X519097Y-182501D02*
X518621D01*
X518145Y-182739D01*
X517907Y-183453D01*
Y-187500D01*
X517193Y-184167D02*
X518859D01*
X520287Y-182501D02*
X520526Y-182739D01*
X520763Y-182501D01*
X520526Y-182263D01*
X520287Y-182501D01*
X520526Y-184167D02*
Y-187500D01*
X521644Y-184167D02*
Y-187500D01*
Y-185120D02*
X522358Y-184405D01*
X522834Y-184167D01*
X523549D01*
X524025Y-184405D01*
X524263Y-185120D01*
Y-187500D01*
X526048Y-182501D02*
X526286Y-182739D01*
X526524Y-182501D01*
X526286Y-182263D01*
X526048Y-182501D01*
X526286Y-184167D02*
Y-187500D01*
X528119Y-182501D02*
Y-186548D01*
X528357Y-187262D01*
X528833Y-187500D01*
X529309D01*
X527405Y-184167D02*
X529071D01*
X530500Y-182501D02*
X530738Y-182739D01*
X530976Y-182501D01*
X530738Y-182263D01*
X530500Y-182501D01*
X530738Y-184167D02*
Y-187500D01*
X533047Y-184167D02*
X532571Y-184405D01*
X532094Y-184881D01*
X531856Y-185596D01*
Y-186072D01*
X532094Y-186786D01*
X532571Y-187262D01*
X533047Y-187500D01*
X533761D01*
X534237Y-187262D01*
X534713Y-186786D01*
X534951Y-186072D01*
Y-185596D01*
X534713Y-184881D01*
X534237Y-184405D01*
X533761Y-184167D01*
X533047D01*
X536046D02*
Y-187500D01*
Y-185120D02*
X536760Y-184405D01*
X537236Y-184167D01*
X537950D01*
X538426Y-184405D01*
X538664Y-185120D01*
Y-187500D01*
X542592Y-184881D02*
X542354Y-184405D01*
X541640Y-184167D01*
X540926D01*
X540212Y-184405D01*
X539974Y-184881D01*
X540212Y-185358D01*
X540688Y-185596D01*
X541878Y-185834D01*
X542354Y-186072D01*
X542592Y-186548D01*
Y-186786D01*
X542354Y-187262D01*
X541640Y-187500D01*
X540926D01*
X540212Y-187262D01*
X539974Y-186786D01*
X547805Y-184167D02*
X547567Y-184405D01*
X547805Y-184643D01*
X548043Y-184405D01*
X547805Y-184167D01*
Y-187024D02*
X547567Y-187262D01*
X547805Y-187500D01*
X548043Y-187262D01*
X547805Y-187024D01*
X556683Y-182501D02*
Y-187500D01*
Y-182501D02*
X558826D01*
X559540Y-182739D01*
X559778Y-182977D01*
X560016Y-183453D01*
Y-183929D01*
X559778Y-184405D01*
X559540Y-184643D01*
X558826Y-184881D01*
X556683D01*
X558350D02*
X560016Y-187500D01*
X562325Y-184167D02*
X561849Y-184405D01*
X561373Y-184881D01*
X561135Y-185596D01*
Y-186072D01*
X561373Y-186786D01*
X561849Y-187262D01*
X562325Y-187500D01*
X563039D01*
X563515Y-187262D01*
X563991Y-186786D01*
X564229Y-186072D01*
Y-185596D01*
X563991Y-184881D01*
X563515Y-184405D01*
X563039Y-184167D01*
X562325D01*
X565324D02*
Y-186548D01*
X565562Y-187262D01*
X566039Y-187500D01*
X566753D01*
X567229Y-187262D01*
X567943Y-186548D01*
Y-184167D02*
Y-187500D01*
X569966Y-182501D02*
Y-186548D01*
X570204Y-187262D01*
X570680Y-187500D01*
X571157D01*
X569252Y-184167D02*
X570919D01*
X575798Y-185120D02*
X577941D01*
X578655Y-184881D01*
X578893Y-184643D01*
X579131Y-184167D01*
Y-183453D01*
X578893Y-182977D01*
X578655Y-182739D01*
X577941Y-182501D01*
X575798D01*
Y-187500D01*
X583106Y-184167D02*
Y-187500D01*
Y-184881D02*
X582630Y-184405D01*
X582154Y-184167D01*
X581440D01*
X580964Y-184405D01*
X580488Y-184881D01*
X580250Y-185596D01*
Y-186072D01*
X580488Y-186786D01*
X580964Y-187262D01*
X581440Y-187500D01*
X582154D01*
X582630Y-187262D01*
X583106Y-186786D01*
X585153Y-182501D02*
Y-186548D01*
X585392Y-187262D01*
X585868Y-187500D01*
X586344D01*
X584439Y-184167D02*
X586106D01*
X587058Y-182501D02*
Y-187500D01*
Y-185120D02*
X587772Y-184405D01*
X588248Y-184167D01*
X588962D01*
X589438Y-184405D01*
X589676Y-185120D01*
Y-187500D01*
X594913Y-182501D02*
Y-187500D01*
X597770D01*
X598317Y-185596D02*
X601174D01*
Y-185120D01*
X600936Y-184643D01*
X600698Y-184405D01*
X600222Y-184167D01*
X599508D01*
X599031Y-184405D01*
X598555Y-184881D01*
X598317Y-185596D01*
Y-186072D01*
X598555Y-186786D01*
X599031Y-187262D01*
X599508Y-187500D01*
X600222D01*
X600698Y-187262D01*
X601174Y-186786D01*
X602245Y-184167D02*
Y-187500D01*
Y-185120D02*
X602959Y-184405D01*
X603435Y-184167D01*
X604149D01*
X604626Y-184405D01*
X604864Y-185120D01*
Y-187500D01*
X609029Y-184167D02*
Y-187976D01*
X608791Y-188690D01*
X608553Y-188928D01*
X608077Y-189166D01*
X607363D01*
X606887Y-188928D01*
X609029Y-184881D02*
X608553Y-184405D01*
X608077Y-184167D01*
X607363D01*
X606887Y-184405D01*
X606411Y-184881D01*
X606173Y-185596D01*
Y-186072D01*
X606411Y-186786D01*
X606887Y-187262D01*
X607363Y-187500D01*
X608077D01*
X608553Y-187262D01*
X609029Y-186786D01*
X611076Y-182501D02*
Y-186548D01*
X611315Y-187262D01*
X611791Y-187500D01*
X612267D01*
X610362Y-184167D02*
X612029D01*
X612981Y-182501D02*
Y-187500D01*
Y-185120D02*
X613695Y-184405D01*
X614171Y-184167D01*
X614885D01*
X615361Y-184405D01*
X615599Y-185120D01*
Y-187500D01*
X556683Y-195120D02*
X558826D01*
X559540Y-194881D01*
X559778Y-194643D01*
X560016Y-194167D01*
Y-193453D01*
X559778Y-192977D01*
X559540Y-192739D01*
X558826Y-192501D01*
X556683D01*
Y-197500D01*
X561135Y-192501D02*
Y-197500D01*
Y-195120D02*
X561849Y-194405D01*
X562325Y-194167D01*
X563039D01*
X563515Y-194405D01*
X563753Y-195120D01*
Y-197500D01*
X565301Y-194167D02*
X566729Y-197500D01*
X568157Y-194167D02*
X566729Y-197500D01*
X566253Y-198452D01*
X565777Y-198928D01*
X565301Y-199166D01*
X565063D01*
X571609Y-194881D02*
X571371Y-194405D01*
X570657Y-194167D01*
X569943D01*
X569228Y-194405D01*
X568990Y-194881D01*
X569228Y-195358D01*
X569704Y-195596D01*
X570895Y-195834D01*
X571371Y-196072D01*
X571609Y-196548D01*
Y-196786D01*
X571371Y-197262D01*
X570657Y-197500D01*
X569943D01*
X569228Y-197262D01*
X568990Y-196786D01*
X573132Y-192501D02*
X573370Y-192739D01*
X573608Y-192501D01*
X573370Y-192263D01*
X573132Y-192501D01*
X573370Y-194167D02*
Y-197500D01*
X577346Y-194881D02*
X576870Y-194405D01*
X576394Y-194167D01*
X575679D01*
X575203Y-194405D01*
X574727Y-194881D01*
X574489Y-195596D01*
Y-196072D01*
X574727Y-196786D01*
X575203Y-197262D01*
X575679Y-197500D01*
X576394D01*
X576870Y-197262D01*
X577346Y-196786D01*
X581273Y-194167D02*
Y-197500D01*
Y-194881D02*
X580797Y-194405D01*
X580321Y-194167D01*
X579607D01*
X579131Y-194405D01*
X578655Y-194881D01*
X578417Y-195596D01*
Y-196072D01*
X578655Y-196786D01*
X579131Y-197262D01*
X579607Y-197500D01*
X580321D01*
X580797Y-197262D01*
X581273Y-196786D01*
X582606Y-192501D02*
Y-197500D01*
X587581Y-192501D02*
Y-197500D01*
X590438D01*
X590986Y-195596D02*
X593842D01*
Y-195120D01*
X593604Y-194643D01*
X593366Y-194405D01*
X592890Y-194167D01*
X592176D01*
X591700Y-194405D01*
X591224Y-194881D01*
X590986Y-195596D01*
Y-196072D01*
X591224Y-196786D01*
X591700Y-197262D01*
X592176Y-197500D01*
X592890D01*
X593366Y-197262D01*
X593842Y-196786D01*
X594913Y-194167D02*
Y-197500D01*
Y-195120D02*
X595627Y-194405D01*
X596103Y-194167D01*
X596818D01*
X597294Y-194405D01*
X597532Y-195120D01*
Y-197500D01*
X601698Y-194167D02*
Y-197976D01*
X601460Y-198690D01*
X601222Y-198928D01*
X600745Y-199166D01*
X600031D01*
X599555Y-198928D01*
X601698Y-194881D02*
X601222Y-194405D01*
X600745Y-194167D01*
X600031D01*
X599555Y-194405D01*
X599079Y-194881D01*
X598841Y-195596D01*
Y-196072D01*
X599079Y-196786D01*
X599555Y-197262D01*
X600031Y-197500D01*
X600745D01*
X601222Y-197262D01*
X601698Y-196786D01*
X603745Y-192501D02*
Y-196548D01*
X603983Y-197262D01*
X604459Y-197500D01*
X604935D01*
X603031Y-194167D02*
X604697D01*
X605649Y-192501D02*
Y-197500D01*
Y-195120D02*
X606363Y-194405D01*
X606839Y-194167D01*
X607553D01*
X608030Y-194405D01*
X608268Y-195120D01*
Y-197500D01*
M02*
