G04*
G04 #@! TF.GenerationSoftware,Altium Limited,Altium Designer,20.0.2 (26)*
G04*
G04 Layer_Physical_Order=3*
G04 Layer_Color=16440176*
%FSLAX25Y25*%
%MOIN*%
G70*
G01*
G75*
%ADD14C,0.01000*%
%ADD120C,0.02000*%
%ADD129C,0.02362*%
%ADD130O,0.02559X0.05118*%
%ADD131C,0.23622*%
%ADD132C,0.07874*%
%ADD133R,0.07874X0.07874*%
%ADD134C,0.06299*%
G04:AMPARAMS|DCode=135|XSize=70.87mil|YSize=70.87mil|CornerRadius=8.86mil|HoleSize=0mil|Usage=FLASHONLY|Rotation=90.000|XOffset=0mil|YOffset=0mil|HoleType=Round|Shape=RoundedRectangle|*
%AMROUNDEDRECTD135*
21,1,0.07087,0.05315,0,0,90.0*
21,1,0.05315,0.07087,0,0,90.0*
1,1,0.01772,0.02657,0.02657*
1,1,0.01772,0.02657,-0.02657*
1,1,0.01772,-0.02657,-0.02657*
1,1,0.01772,-0.02657,0.02657*
%
%ADD135ROUNDEDRECTD135*%
%ADD136C,0.07087*%
%ADD137C,0.06000*%
%ADD138P,0.06494X8X112.5*%
%ADD139C,0.06496*%
%ADD140R,0.06496X0.06496*%
%ADD141P,0.06494X8X22.5*%
G04:AMPARAMS|DCode=142|XSize=70.87mil|YSize=70.87mil|CornerRadius=8.86mil|HoleSize=0mil|Usage=FLASHONLY|Rotation=180.000|XOffset=0mil|YOffset=0mil|HoleType=Round|Shape=RoundedRectangle|*
%AMROUNDEDRECTD142*
21,1,0.07087,0.05315,0,0,180.0*
21,1,0.05315,0.07087,0,0,180.0*
1,1,0.01772,-0.02657,0.02657*
1,1,0.01772,0.02657,0.02657*
1,1,0.01772,0.02657,-0.02657*
1,1,0.01772,-0.02657,-0.02657*
%
%ADD142ROUNDEDRECTD142*%
%ADD143C,0.02402*%
%ADD144C,0.02400*%
G36*
X157365Y-103928D02*
X157448Y-103840D01*
X157523Y-103751D01*
X157589Y-103661D01*
X157645Y-103571D01*
X157693Y-103479D01*
X157732Y-103387D01*
X157762Y-103295D01*
X157783Y-103201D01*
X157796Y-103107D01*
X157799Y-103012D01*
X158988Y-104201D01*
X158893Y-104204D01*
X158799Y-104217D01*
X158705Y-104238D01*
X158613Y-104268D01*
X158521Y-104307D01*
X158429Y-104355D01*
X158339Y-104411D01*
X158249Y-104477D01*
X158160Y-104552D01*
X158072Y-104635D01*
X157365Y-103928D01*
D02*
G37*
G36*
X160635Y-121572D02*
X160552Y-121660D01*
X160477Y-121749D01*
X160412Y-121839D01*
X160355Y-121929D01*
X160307Y-122021D01*
X160268Y-122113D01*
X160238Y-122205D01*
X160217Y-122299D01*
X160204Y-122393D01*
X160201Y-122488D01*
X159012Y-121299D01*
X159107Y-121296D01*
X159201Y-121283D01*
X159295Y-121262D01*
X159387Y-121232D01*
X159479Y-121193D01*
X159571Y-121145D01*
X159661Y-121089D01*
X159751Y-121023D01*
X159840Y-120948D01*
X159928Y-120865D01*
X160635Y-121572D01*
D02*
G37*
G36*
X176500Y-117312D02*
X176497Y-117191D01*
X176486Y-117075D01*
X176469Y-116965D01*
X176445Y-116861D01*
X176415Y-116763D01*
X176377Y-116671D01*
X176333Y-116584D01*
X176282Y-116502D01*
X176224Y-116427D01*
X176159Y-116358D01*
X177841D01*
X177776Y-116427D01*
X177718Y-116502D01*
X177667Y-116584D01*
X177623Y-116671D01*
X177585Y-116763D01*
X177555Y-116861D01*
X177531Y-116965D01*
X177514Y-117075D01*
X177503Y-117191D01*
X177500Y-117312D01*
X176500D01*
D02*
G37*
G36*
X153668Y-92766D02*
X153634Y-92857D01*
X153841D01*
X153776Y-92927D01*
X153718Y-93002D01*
X153667Y-93084D01*
X153623Y-93170D01*
X153585Y-93263D01*
X153555Y-93361D01*
X153533Y-93584D01*
X153502Y-94493D01*
X153500Y-94866D01*
X152500D01*
X152498Y-94493D01*
X152417Y-93270D01*
X152415Y-93263D01*
X152377Y-93170D01*
X152333Y-93084D01*
X152282Y-93002D01*
X152224Y-92927D01*
X152159Y-92857D01*
X152366D01*
X152332Y-92766D01*
X152293Y-92707D01*
X153708D01*
X153668Y-92766D01*
D02*
G37*
G36*
X149812Y-78500D02*
X149691Y-78503D01*
X149575Y-78514D01*
X149466Y-78531D01*
X149361Y-78554D01*
X149263Y-78585D01*
X149170Y-78623D01*
X149084Y-78667D01*
X149003Y-78718D01*
X148927Y-78776D01*
X148857Y-78841D01*
Y-77160D01*
X148927Y-77224D01*
X149003Y-77282D01*
X149084Y-77333D01*
X149170Y-77377D01*
X149263Y-77415D01*
X149361Y-77446D01*
X149466Y-77469D01*
X149575Y-77486D01*
X149691Y-77497D01*
X149812Y-77500D01*
Y-78500D01*
D02*
G37*
G36*
X250072Y-173865D02*
X250160Y-173948D01*
X250249Y-174023D01*
X250339Y-174089D01*
X250429Y-174145D01*
X250521Y-174193D01*
X250613Y-174232D01*
X250705Y-174262D01*
X250799Y-174283D01*
X250893Y-174296D01*
X250988Y-174299D01*
X249799Y-175488D01*
X249796Y-175393D01*
X249783Y-175299D01*
X249762Y-175205D01*
X249732Y-175113D01*
X249693Y-175021D01*
X249645Y-174929D01*
X249588Y-174839D01*
X249523Y-174749D01*
X249448Y-174660D01*
X249365Y-174572D01*
X250072Y-173865D01*
D02*
G37*
G36*
X196000Y-105812D02*
X195997Y-105691D01*
X195986Y-105575D01*
X195969Y-105465D01*
X195946Y-105361D01*
X195915Y-105263D01*
X195877Y-105171D01*
X195833Y-105084D01*
X195782Y-105002D01*
X195724Y-104927D01*
X195659Y-104858D01*
X197341D01*
X197276Y-104927D01*
X197218Y-105002D01*
X197167Y-105084D01*
X197123Y-105171D01*
X197085Y-105263D01*
X197055Y-105361D01*
X197031Y-105465D01*
X197014Y-105575D01*
X197003Y-105691D01*
X197000Y-105812D01*
X196000D01*
D02*
G37*
G36*
X193000Y-102188D02*
X193003Y-102309D01*
X193014Y-102425D01*
X193031Y-102534D01*
X193054Y-102639D01*
X193085Y-102737D01*
X193123Y-102830D01*
X193167Y-102916D01*
X193218Y-102998D01*
X193276Y-103073D01*
X193341Y-103142D01*
X191659D01*
X191724Y-103073D01*
X191782Y-102998D01*
X191833Y-102916D01*
X191877Y-102830D01*
X191915Y-102737D01*
X191946Y-102639D01*
X191969Y-102534D01*
X191986Y-102425D01*
X191997Y-102309D01*
X192000Y-102188D01*
X193000D01*
D02*
G37*
G36*
X215841Y-97087D02*
X215963Y-97083D01*
X216078Y-97073D01*
X216188Y-97056D01*
X216292Y-97032D01*
X216390Y-97001D01*
X216483Y-96964D01*
X216570Y-96920D01*
X216651Y-96869D01*
X216726Y-96811D01*
X216796Y-96746D01*
Y-98427D01*
X216726Y-98362D01*
X216651Y-98305D01*
X216570Y-98254D01*
X216483Y-98209D01*
X216390Y-98172D01*
X216292Y-98141D01*
X216188Y-98117D01*
X216078Y-98100D01*
X215963Y-98090D01*
X215841Y-98087D01*
Y-97087D01*
D02*
G37*
G36*
X206518Y-87899D02*
X206514Y-87776D01*
X206502Y-87661D01*
X206483Y-87554D01*
X206455Y-87455D01*
X206419Y-87364D01*
X206376Y-87280D01*
X206324Y-87204D01*
X206265Y-87136D01*
X206197Y-87076D01*
X206122Y-87024D01*
X207761Y-86648D01*
X207715Y-86726D01*
X207674Y-86809D01*
X207637Y-86897D01*
X207606Y-86989D01*
X207579Y-87086D01*
X207557Y-87188D01*
X207540Y-87295D01*
X207521Y-87522D01*
X207518Y-87643D01*
X206518Y-87899D01*
D02*
G37*
G36*
X204938Y-85500D02*
X205059Y-85497D01*
X205175Y-85486D01*
X205285Y-85469D01*
X205389Y-85445D01*
X205487Y-85415D01*
X205579Y-85377D01*
X205666Y-85333D01*
X205748Y-85282D01*
X205823Y-85224D01*
X205892Y-85159D01*
Y-86840D01*
X205823Y-86776D01*
X205748Y-86718D01*
X205666Y-86667D01*
X205579Y-86623D01*
X205487Y-86585D01*
X205389Y-86554D01*
X205285Y-86531D01*
X205175Y-86514D01*
X205059Y-86503D01*
X204938Y-86500D01*
Y-85500D01*
D02*
G37*
G36*
X258500Y-177688D02*
X258503Y-177809D01*
X258514Y-177925D01*
X258531Y-178034D01*
X258555Y-178139D01*
X258585Y-178237D01*
X258623Y-178330D01*
X258667Y-178416D01*
X258718Y-178498D01*
X258776Y-178573D01*
X258840Y-178642D01*
X257159D01*
X257224Y-178573D01*
X257282Y-178498D01*
X257333Y-178416D01*
X257377Y-178330D01*
X257415Y-178237D01*
X257446Y-178139D01*
X257469Y-178034D01*
X257486Y-177925D01*
X257497Y-177809D01*
X257500Y-177688D01*
X258500D01*
D02*
G37*
G36*
X271001Y-174436D02*
X271090Y-174519D01*
X271178Y-174594D01*
X271268Y-174659D01*
X271359Y-174716D01*
X271450Y-174764D01*
X271542Y-174803D01*
X271634Y-174833D01*
X271728Y-174854D01*
X271822Y-174867D01*
X271917Y-174870D01*
X270728Y-176059D01*
X270725Y-175964D01*
X270713Y-175870D01*
X270691Y-175776D01*
X270661Y-175683D01*
X270622Y-175592D01*
X270574Y-175500D01*
X270518Y-175410D01*
X270452Y-175320D01*
X270377Y-175231D01*
X270294Y-175143D01*
X271001Y-174436D01*
D02*
G37*
G36*
X263500Y-159188D02*
X263503Y-159309D01*
X263514Y-159425D01*
X263531Y-159535D01*
X263555Y-159639D01*
X263585Y-159737D01*
X263623Y-159829D01*
X263667Y-159916D01*
X263718Y-159997D01*
X263776Y-160073D01*
X263841Y-160143D01*
X262159D01*
X262224Y-160073D01*
X262282Y-159997D01*
X262333Y-159916D01*
X262377Y-159829D01*
X262415Y-159737D01*
X262445Y-159639D01*
X262469Y-159535D01*
X262486Y-159425D01*
X262497Y-159309D01*
X262500Y-159188D01*
X263500D01*
D02*
G37*
G36*
X281312Y-180000D02*
X281191Y-180003D01*
X281075Y-180014D01*
X280965Y-180031D01*
X280861Y-180054D01*
X280763Y-180085D01*
X280670Y-180123D01*
X280584Y-180167D01*
X280503Y-180218D01*
X280427Y-180276D01*
X280358Y-180341D01*
Y-178659D01*
X280427Y-178724D01*
X280503Y-178782D01*
X280584Y-178833D01*
X280670Y-178877D01*
X280763Y-178915D01*
X280861Y-178946D01*
X280965Y-178969D01*
X281075Y-178986D01*
X281191Y-178997D01*
X281312Y-179000D01*
Y-180000D01*
D02*
G37*
G36*
X287188Y-168500D02*
X287309Y-168497D01*
X287425Y-168486D01*
X287534Y-168469D01*
X287639Y-168446D01*
X287737Y-168415D01*
X287829Y-168377D01*
X287916Y-168333D01*
X287998Y-168282D01*
X288073Y-168224D01*
X288142Y-168159D01*
Y-169841D01*
X288073Y-169776D01*
X287998Y-169718D01*
X287916Y-169667D01*
X287829Y-169623D01*
X287737Y-169585D01*
X287639Y-169554D01*
X287534Y-169531D01*
X287425Y-169514D01*
X287309Y-169503D01*
X287188Y-169500D01*
Y-168500D01*
D02*
G37*
G36*
X296413Y-159899D02*
X296410Y-159777D01*
X296400Y-159662D01*
X296383Y-159552D01*
X296359Y-159448D01*
X296328Y-159350D01*
X296291Y-159257D01*
X296247Y-159170D01*
X296195Y-159089D01*
X296137Y-159014D01*
X296073Y-158944D01*
X297754D01*
X297689Y-159014D01*
X297631Y-159089D01*
X297580Y-159170D01*
X297536Y-159257D01*
X297498Y-159350D01*
X297468Y-159448D01*
X297444Y-159552D01*
X297427Y-159662D01*
X297417Y-159777D01*
X297413Y-159899D01*
X296413D01*
D02*
G37*
G36*
X267741Y-142552D02*
X267824Y-142464D01*
X267899Y-142375D01*
X267965Y-142285D01*
X268021Y-142195D01*
X268069Y-142103D01*
X268108Y-142011D01*
X268138Y-141919D01*
X268159Y-141825D01*
X268172Y-141731D01*
X268175Y-141636D01*
X269364Y-142825D01*
X269269Y-142828D01*
X269175Y-142841D01*
X269081Y-142862D01*
X268989Y-142892D01*
X268897Y-142931D01*
X268805Y-142979D01*
X268715Y-143035D01*
X268625Y-143101D01*
X268536Y-143176D01*
X268448Y-143259D01*
X267741Y-142552D01*
D02*
G37*
G36*
X271188Y-142124D02*
X271067Y-142127D01*
X270951Y-142138D01*
X270842Y-142155D01*
X270737Y-142178D01*
X270639Y-142209D01*
X270547Y-142247D01*
X270460Y-142291D01*
X270378Y-142342D01*
X270303Y-142400D01*
X270233Y-142465D01*
Y-140783D01*
X270303Y-140848D01*
X270378Y-140906D01*
X270460Y-140957D01*
X270547Y-141001D01*
X270639Y-141039D01*
X270737Y-141069D01*
X270842Y-141093D01*
X270951Y-141110D01*
X271067Y-141121D01*
X271188Y-141124D01*
Y-142124D01*
D02*
G37*
G36*
X295986Y-156452D02*
X296074Y-156535D01*
X296163Y-156609D01*
X296252Y-156675D01*
X296343Y-156732D01*
X296434Y-156780D01*
X296526Y-156819D01*
X296619Y-156849D01*
X296712Y-156870D01*
X296806Y-156882D01*
X296901Y-156886D01*
X295713Y-158075D01*
X295709Y-157980D01*
X295697Y-157885D01*
X295676Y-157792D01*
X295645Y-157699D01*
X295606Y-157607D01*
X295559Y-157516D01*
X295502Y-157426D01*
X295436Y-157336D01*
X295362Y-157247D01*
X295278Y-157159D01*
X295986Y-156452D01*
D02*
G37*
G36*
X278643Y-43355D02*
X279488Y-44201D01*
X279393Y-44204D01*
X279299Y-44217D01*
X279205Y-44238D01*
X279113Y-44268D01*
X279021Y-44307D01*
X278929Y-44355D01*
X278839Y-44412D01*
X278749Y-44477D01*
X278660Y-44552D01*
X278572Y-44635D01*
X277865Y-43928D01*
X277948Y-43840D01*
X278023Y-43751D01*
X278088Y-43661D01*
X278145Y-43571D01*
X278152Y-43558D01*
X278139Y-43554D01*
X278034Y-43531D01*
X277925Y-43514D01*
X277809Y-43503D01*
X277688Y-43500D01*
Y-42500D01*
X277809Y-42497D01*
X277925Y-42486D01*
X278034Y-42469D01*
X278139Y-42445D01*
X278237Y-42415D01*
X278329Y-42377D01*
X278416Y-42333D01*
X278498Y-42282D01*
X278573Y-42224D01*
X278643Y-42159D01*
Y-43355D01*
D02*
G37*
G36*
X269879Y-139933D02*
X269890Y-140049D01*
X269907Y-140158D01*
X269931Y-140263D01*
X269961Y-140361D01*
X269999Y-140454D01*
X270043Y-140540D01*
X270094Y-140621D01*
X270152Y-140697D01*
X270217Y-140767D01*
X268535D01*
X268600Y-140697D01*
X268658Y-140621D01*
X268709Y-140540D01*
X268753Y-140454D01*
X268791Y-140361D01*
X268822Y-140263D01*
X268845Y-140158D01*
X268862Y-140049D01*
X268873Y-139933D01*
X268876Y-139812D01*
X269876D01*
X269879Y-139933D01*
D02*
G37*
D14*
X221815Y-33500D02*
X254000D01*
X208000Y-19685D02*
X221815Y-33500D01*
X254000D02*
X263500Y-43000D01*
X279500D01*
X270500Y-52000D02*
X279500Y-43000D01*
X270500Y-68500D02*
Y-52000D01*
X265500Y-73500D02*
X270500Y-68500D01*
X265500Y-97000D02*
Y-73500D01*
Y-97000D02*
X269376Y-100876D01*
Y-141624D02*
Y-100876D01*
X263000Y-161000D02*
Y-148000D01*
X269376Y-141624D01*
X280451D01*
X296913Y-158087D01*
Y-170587D02*
Y-158087D01*
X288000Y-179500D02*
X296913Y-170587D01*
X279500Y-179500D02*
X288000D01*
X149500Y-105500D02*
X153000Y-102000D01*
Y-92000D01*
X149500Y-121000D02*
Y-105500D01*
Y-121000D02*
X153000Y-124500D01*
X200000Y-86000D02*
X206750D01*
X192500Y-93500D02*
X200000Y-86000D01*
X192500Y-104000D02*
Y-93500D01*
X214087Y-97587D02*
X217653D01*
X207018Y-90518D02*
X214087Y-97587D01*
X207018Y-90518D02*
Y-86268D01*
X206750Y-86000D02*
X207018Y-86268D01*
X145000Y-75500D02*
X147732Y-72768D01*
X145000Y-84000D02*
Y-75500D01*
Y-84000D02*
X149000Y-88000D01*
X159000Y-122500D02*
X165500Y-116000D01*
Y-98000D01*
X155500Y-88000D02*
X165500Y-98000D01*
X149000Y-88000D02*
X155500D01*
X147732Y-72768D02*
X148732D01*
X149000Y-72500D01*
X148000Y-78000D02*
X155500D01*
X181500Y-104000D01*
Y-118500D02*
Y-104000D01*
X176000Y-124000D02*
X181500Y-118500D01*
X196500Y-124500D02*
X214500Y-142500D01*
X196500Y-124500D02*
Y-104000D01*
X179500Y-162500D02*
X238000D01*
X172000Y-155000D02*
X179500Y-162500D01*
X162000Y-155000D02*
X172000D01*
X148500Y-141500D02*
X162000Y-155000D01*
X169000Y-151500D02*
X170500Y-150000D01*
X163000Y-151500D02*
X169000D01*
X170500Y-150000D02*
X188246D01*
X156000Y-144500D02*
X163000Y-151500D01*
X167000Y-147713D02*
Y-128500D01*
X165884Y-148830D02*
X167000Y-147713D01*
X165884Y-149000D02*
Y-148830D01*
X188246Y-150000D02*
X194996Y-156750D01*
X244250D02*
X256500Y-169000D01*
X194996Y-156750D02*
X244250D01*
X156000Y-144500D02*
Y-106000D01*
X159000Y-103000D01*
X148500Y-141500D02*
Y-123344D01*
X167000Y-128500D02*
X177000Y-118500D01*
Y-115500D01*
X214500Y-142500D02*
X236500D01*
X259000Y-165000D01*
X271500D01*
X275500Y-169000D01*
X264858D02*
X271929Y-176071D01*
X256500Y-169000D02*
X264858D01*
X275500D02*
X289000D01*
X243000Y-160500D02*
X258000Y-175500D01*
Y-179500D02*
Y-175500D01*
X195500Y-160500D02*
X243000D01*
X187500Y-152500D02*
X195500Y-160500D01*
X173500Y-152500D02*
X187500D01*
X146500Y-121344D02*
X148500Y-123344D01*
X146500Y-121344D02*
Y-121000D01*
X238000Y-162500D02*
X251000Y-175500D01*
D120*
X105400Y-117569D02*
Y-100600D01*
X115000Y-91000D01*
X140500Y-92000D02*
X153000D01*
X134000Y-85500D02*
X140500Y-92000D01*
X134000Y-85500D02*
Y-59500D01*
X302500Y-88000D02*
X306827Y-92327D01*
Y-124173D02*
Y-92327D01*
X270000Y-88000D02*
X302500D01*
X172500Y-65500D02*
Y-60000D01*
X167199Y-54699D02*
X172500Y-60000D01*
X134909Y-54699D02*
X167199D01*
X134109Y-55500D02*
X134909Y-54699D01*
X134000Y-55500D02*
X134109D01*
X214000Y-89500D02*
Y-70000D01*
X207500Y-63500D02*
X214000Y-70000D01*
X194000Y-63500D02*
X207500D01*
X187577Y-69923D02*
X194000Y-63500D01*
X187577Y-71423D02*
Y-69923D01*
X187500Y-71500D02*
X187577Y-71423D01*
X172500Y-65500D02*
X181500D01*
X187500Y-71500D01*
X214500Y-104000D02*
X219000D01*
X221500Y-101500D01*
Y-94000D01*
X217000Y-89500D02*
X221500Y-94000D01*
X214000Y-89500D02*
X217000D01*
X205000Y-113500D02*
X214500Y-104000D01*
X205000Y-124000D02*
Y-113500D01*
D129*
X257500Y-55500D02*
D03*
X254941Y-59437D02*
D03*
X252382Y-55500D02*
D03*
X249823Y-59437D02*
D03*
X247264Y-55500D02*
D03*
D130*
X238307Y-56366D02*
D03*
X266457D02*
D03*
D131*
X103000Y-172000D02*
D03*
X272500Y-24000D02*
D03*
D132*
X35500Y-94000D02*
D03*
Y-54000D02*
D03*
Y-64000D02*
D03*
Y-74000D02*
D03*
Y-84000D02*
D03*
Y-104000D02*
D03*
Y-114000D02*
D03*
Y-124000D02*
D03*
Y-134000D02*
D03*
Y-144000D02*
D03*
Y-154000D02*
D03*
D133*
Y-44000D02*
D03*
D134*
X82000Y-98000D02*
D03*
X70189D02*
D03*
X85500Y-64000D02*
D03*
X73689D02*
D03*
D135*
X100969Y-149500D02*
D03*
X124000D02*
D03*
X112469D02*
D03*
X251000Y-143500D02*
D03*
D136*
X100969Y-139500D02*
D03*
X124000D02*
D03*
X112469D02*
D03*
X251000Y-133500D02*
D03*
Y-123500D02*
D03*
Y-113500D02*
D03*
Y-103500D02*
D03*
Y-93500D02*
D03*
Y-73500D02*
D03*
Y-83500D02*
D03*
X218000Y-19685D02*
D03*
X208000D02*
D03*
X198000D02*
D03*
X188000D02*
D03*
X178000D02*
D03*
X158000D02*
D03*
X168000D02*
D03*
X218000Y-177165D02*
D03*
X208000D02*
D03*
X198000D02*
D03*
X188000D02*
D03*
X178000D02*
D03*
X158000D02*
D03*
X168000D02*
D03*
D137*
X138500Y-176850D02*
D03*
Y-167008D02*
D03*
X126000Y-177000D02*
D03*
Y-186843D02*
D03*
X143342Y-127500D02*
D03*
X133500D02*
D03*
D138*
X138500Y-186693D02*
D03*
X126000Y-167157D02*
D03*
D139*
X297406Y-105500D02*
D03*
Y-115500D02*
D03*
Y-125500D02*
D03*
D140*
Y-135500D02*
D03*
D141*
X123658Y-127500D02*
D03*
D142*
X228000Y-19685D02*
D03*
Y-177165D02*
D03*
D143*
X102000Y-4000D02*
D03*
X115000Y-3500D02*
D03*
X127000D02*
D03*
X139000D02*
D03*
X310000Y-13000D02*
D03*
Y-24333D02*
D03*
Y-47000D02*
D03*
X278500Y-39500D02*
D03*
X269000Y-46500D02*
D03*
X278500Y-62167D02*
D03*
Y-73500D02*
D03*
X387500Y-16000D02*
D03*
Y-27333D02*
D03*
Y-38667D02*
D03*
Y-50000D02*
D03*
X369000Y-20000D02*
D03*
X357667D02*
D03*
X346333D02*
D03*
X335000D02*
D03*
X350500Y-60500D02*
D03*
X339167D02*
D03*
X327833D02*
D03*
X316500D02*
D03*
X387000Y-190000D02*
D03*
Y-178667D02*
D03*
Y-167333D02*
D03*
Y-156000D02*
D03*
X314000Y-153000D02*
D03*
X325333D02*
D03*
X336667D02*
D03*
X348000D02*
D03*
X86500Y-178000D02*
D03*
X92500Y-184500D02*
D03*
X105500Y-187000D02*
D03*
X115000Y-186000D02*
D03*
X7000Y-148000D02*
D03*
Y-159333D02*
D03*
Y-170667D02*
D03*
Y-182000D02*
D03*
X6500Y-102000D02*
D03*
Y-113333D02*
D03*
Y-124667D02*
D03*
Y-136000D02*
D03*
X7000Y-58000D02*
D03*
Y-69333D02*
D03*
Y-80667D02*
D03*
Y-92000D02*
D03*
Y-48000D02*
D03*
Y-36667D02*
D03*
Y-25333D02*
D03*
Y-14000D02*
D03*
X236000Y-38000D02*
D03*
X242500Y-23500D02*
D03*
X224500Y-53500D02*
D03*
X255500Y-28500D02*
D03*
X241150Y-66500D02*
D03*
X235550D02*
D03*
X129500Y-69500D02*
D03*
X150000Y-35000D02*
D03*
X146500Y-30500D02*
D03*
X153000Y-150000D02*
D03*
X64500Y-58500D02*
D03*
X285750Y-76750D02*
D03*
X187500Y-71500D02*
D03*
X172500Y-65500D02*
D03*
X183500Y-49500D02*
D03*
X134000Y-55500D02*
D03*
Y-59500D02*
D03*
X94500Y-10500D02*
D03*
X297000Y-150000D02*
D03*
X192500Y-104000D02*
D03*
X65500Y-27500D02*
D03*
Y-21500D02*
D03*
X196000Y-11500D02*
D03*
X115000Y-91000D02*
D03*
X134500Y-106000D02*
D03*
X148000Y-78000D02*
D03*
X110000Y-52000D02*
D03*
X149000Y-72500D02*
D03*
X196500Y-104000D02*
D03*
X165884Y-149000D02*
D03*
X153500Y-115000D02*
D03*
X159000Y-122500D02*
D03*
X176000Y-124000D02*
D03*
X153500Y-83000D02*
D03*
X271929Y-176071D02*
D03*
X258000Y-179500D02*
D03*
X251000Y-175500D02*
D03*
X150000Y-98000D02*
D03*
X91000Y-100000D02*
D03*
X100500Y-97000D02*
D03*
X133000Y-111500D02*
D03*
X102500Y-62500D02*
D03*
X104000Y-78000D02*
D03*
X96000Y-48500D02*
D03*
X87000Y-28500D02*
D03*
X119000Y-13500D02*
D03*
X135500Y-22000D02*
D03*
X92000Y-82000D02*
D03*
X94500Y-71500D02*
D03*
X86000Y-36000D02*
D03*
X67500Y-34500D02*
D03*
X58500Y-39500D02*
D03*
X57500Y-50500D02*
D03*
X54500Y-38000D02*
D03*
X42000Y-88000D02*
D03*
X105400Y-117569D02*
D03*
X114969Y-122468D02*
D03*
X100400Y-116900D02*
D03*
X91000Y-117000D02*
D03*
X89555Y-133555D02*
D03*
X65610Y-174110D02*
D03*
X206750Y-86000D02*
D03*
X214000Y-89500D02*
D03*
X217653Y-97587D02*
D03*
X214500Y-104000D02*
D03*
X153000Y-124500D02*
D03*
Y-92000D02*
D03*
X152000Y-109000D02*
D03*
X269000Y-158500D02*
D03*
X276000Y-145500D02*
D03*
X214000Y-120000D02*
D03*
X218500Y-121000D02*
D03*
X200000Y-103500D02*
D03*
X204500D02*
D03*
X306500Y-146000D02*
D03*
X222500Y-131000D02*
D03*
X164500Y-136000D02*
D03*
X199000D02*
D03*
X187500Y-136500D02*
D03*
X175500D02*
D03*
X202500Y-142000D02*
D03*
X236000Y-106500D02*
D03*
X242500Y-106000D02*
D03*
X152500Y-119500D02*
D03*
X158500Y-112000D02*
D03*
X159000Y-108000D02*
D03*
Y-103000D02*
D03*
X146500Y-121000D02*
D03*
X233500Y-114500D02*
D03*
X228500Y-123000D02*
D03*
X188500Y-159000D02*
D03*
X183500Y-121500D02*
D03*
X188718Y-121872D02*
D03*
X190500Y-149000D02*
D03*
X188000Y-143000D02*
D03*
X172500Y-118500D02*
D03*
X168500D02*
D03*
X177000Y-115500D02*
D03*
X196500Y-34000D02*
D03*
X178500Y-56000D02*
D03*
X174500Y-55000D02*
D03*
X231000Y-56500D02*
D03*
X173500Y-152500D02*
D03*
X165500Y-161500D02*
D03*
X188500Y-165000D02*
D03*
X204500Y-154000D02*
D03*
X202813Y-169313D02*
D03*
X269376Y-141624D02*
D03*
X273500Y-156500D02*
D03*
X296913Y-158087D02*
D03*
X285500Y-162500D02*
D03*
X263000Y-161000D02*
D03*
X261000Y-172500D02*
D03*
X289000Y-169000D02*
D03*
X299474Y-173974D02*
D03*
X297837Y-186337D02*
D03*
X279500Y-179500D02*
D03*
X148500Y-26000D02*
D03*
X166500Y-60000D02*
D03*
X153000Y-71500D02*
D03*
X156500Y-68500D02*
D03*
X164500Y-64000D02*
D03*
X157500Y-62000D02*
D03*
X152500Y-64500D02*
D03*
X152000Y-57500D02*
D03*
X131000Y-35500D02*
D03*
Y-31500D02*
D03*
X210000Y-77500D02*
D03*
X209000Y-83500D02*
D03*
X206000Y-81000D02*
D03*
X206500Y-74500D02*
D03*
X204000Y-71500D02*
D03*
Y-67500D02*
D03*
X324500Y-129500D02*
D03*
X260500Y-112000D02*
D03*
X329500Y-110000D02*
D03*
X315000Y-129500D02*
D03*
X260000Y-99500D02*
D03*
X306827Y-124173D02*
D03*
X264500Y-105500D02*
D03*
X263000Y-102000D02*
D03*
X316953Y-171453D02*
D03*
X317000Y-111000D02*
D03*
X304000Y-57000D02*
D03*
X298000Y-54000D02*
D03*
X202000Y-58500D02*
D03*
X148500Y-149000D02*
D03*
X162000Y-142000D02*
D03*
X84876Y-110530D02*
D03*
X205000Y-124000D02*
D03*
X210500Y-123000D02*
D03*
X193500Y-139000D02*
D03*
X181500Y-138500D02*
D03*
X170000Y-138000D02*
D03*
X159000D02*
D03*
X240500Y-140500D02*
D03*
X270000Y-88000D02*
D03*
X270500Y-93500D02*
D03*
X350500Y-137000D02*
D03*
X360750Y-137250D02*
D03*
X355500Y-137000D02*
D03*
X216000Y-135500D02*
D03*
X205000Y-136327D02*
D03*
X153000Y-137000D02*
D03*
X168000Y-86500D02*
D03*
X179500Y-93500D02*
D03*
X173000Y-87000D02*
D03*
X196000Y-67000D02*
D03*
X230500Y-71500D02*
D03*
X230500Y-77500D02*
D03*
X231000Y-83000D02*
D03*
X235000Y-103000D02*
D03*
X231000Y-118000D02*
D03*
X235000Y-110500D02*
D03*
X138625Y-105000D02*
D03*
X138500Y-99000D02*
D03*
X140500Y-84000D02*
D03*
X126000Y-101000D02*
D03*
X119000Y-90500D02*
D03*
X274000Y-59500D02*
D03*
X368000Y-121500D02*
D03*
X376500Y-116500D02*
D03*
X335000Y-84000D02*
D03*
X344500Y-84500D02*
D03*
Y-74000D02*
D03*
X293000Y-46000D02*
D03*
X292673Y-40500D02*
D03*
X296000Y-96500D02*
D03*
X301000D02*
D03*
X334907Y-171407D02*
D03*
X336000Y-108000D02*
D03*
X335935Y-123935D02*
D03*
D144*
X119411Y-120411D02*
D03*
M02*
