G04*
G04 #@! TF.GenerationSoftware,Altium Limited,Altium Designer,20.0.2 (26)*
G04*
G04 Layer_Color=32768*
%FSLAX25Y25*%
%MOIN*%
G70*
G01*
G75*
%ADD10C,0.00394*%
%ADD12C,0.00787*%
%ADD17C,0.00500*%
%ADD20C,0.00197*%
D10*
X117500Y-58469D02*
Y-54532D01*
X115532Y-56500D02*
X119468D01*
X152000Y-48469D02*
Y-44532D01*
X150031Y-46500D02*
X153969D01*
X293500Y-79481D02*
Y-75544D01*
X291531Y-77512D02*
X295468D01*
X268000Y-167968D02*
Y-164032D01*
X266032Y-166000D02*
X269969D01*
X280276Y-152209D02*
Y-148272D01*
X278307Y-150240D02*
X282244D01*
X85500Y-23968D02*
Y-20031D01*
X83531Y-22000D02*
X87468D01*
X107500Y-23968D02*
Y-20031D01*
X105532Y-22000D02*
X109468D01*
X225756Y-130740D02*
X229693D01*
X227724Y-132709D02*
Y-128772D01*
X131000Y-88500D02*
Y-86531D01*
Y-88500D02*
X132969D01*
X129032D02*
X131000D01*
Y-90468D02*
Y-88500D01*
X137103Y-86925D02*
Y-81413D01*
X132378D02*
X137103D01*
X132378Y-86925D02*
Y-81413D01*
Y-86925D02*
X137103D01*
X132772Y-84169D02*
X134740D01*
Y-82201D01*
Y-86138D02*
Y-84169D01*
X136709D01*
X137103Y-95587D02*
Y-90075D01*
X132378D02*
X137103D01*
X132378Y-95587D02*
Y-90075D01*
Y-95587D02*
X137103D01*
X132772Y-92831D02*
X134740D01*
Y-90862D01*
Y-94799D02*
Y-92831D01*
X136709D01*
X129622Y-86925D02*
Y-81413D01*
X124898D02*
X129622D01*
X124898Y-86925D02*
Y-81413D01*
Y-86925D02*
X129622D01*
X125292Y-84169D02*
X127260D01*
Y-82201D01*
Y-86138D02*
Y-84169D01*
X129229D01*
X129622Y-95587D02*
Y-90075D01*
X124898D02*
X129622D01*
X124898Y-95587D02*
Y-90075D01*
Y-95587D02*
X129622D01*
X125292Y-92831D02*
X127260D01*
Y-90862D01*
Y-94799D02*
Y-92831D01*
X129229D01*
X290531Y-169224D02*
X294468D01*
X292500Y-171193D02*
Y-167256D01*
X323158Y-118961D02*
Y-115024D01*
X321189Y-116992D02*
X325126D01*
D12*
X219200Y-45500D02*
X220800D01*
X220000Y-46500D02*
Y-44500D01*
X65000Y-50500D02*
Y-48500D01*
X64200Y-49500D02*
X65800D01*
X98200Y-62500D02*
X99800D01*
X99000Y-63500D02*
Y-61500D01*
X251874Y-166560D02*
Y-164960D01*
X250874Y-165760D02*
X252874D01*
X264626Y-151300D02*
Y-149700D01*
X263626Y-150500D02*
X265626D01*
X99200Y-77500D02*
X100800D01*
X100000Y-78500D02*
Y-76500D01*
X193200Y-164500D02*
X194800D01*
X194000Y-165500D02*
Y-163500D01*
X194700Y-149500D02*
X196300D01*
X195500Y-150500D02*
Y-148500D01*
D17*
X219701Y-155200D02*
X232299D01*
X219701Y-162800D02*
X232299D01*
X219701Y-144200D02*
X232299D01*
X219701Y-151800D02*
X232299D01*
D20*
X249173Y-22968D02*
Y-19031D01*
X247205Y-21000D02*
X251142D01*
X249173Y-16468D02*
Y-12531D01*
X247205Y-14500D02*
X251142D01*
X231500Y-52469D02*
Y-48531D01*
X229532Y-50500D02*
X233469D01*
X45472Y-125000D02*
X49409D01*
X47441Y-126969D02*
Y-123031D01*
X96500Y-36142D02*
Y-32205D01*
X94532Y-34173D02*
X98469D01*
X110000Y-38642D02*
Y-34705D01*
X108031Y-36673D02*
X111969D01*
X115532Y-33000D02*
X119468D01*
X117500Y-34969D02*
Y-31032D01*
X115532Y-39000D02*
X119468D01*
X117500Y-40968D02*
Y-37031D01*
X85532Y-10500D02*
X89468D01*
X87500Y-12468D02*
Y-8531D01*
X47358Y-54000D02*
X51295D01*
X49327Y-55968D02*
Y-52031D01*
X47358Y-46000D02*
X51295D01*
X49327Y-47969D02*
Y-44032D01*
X315531Y-137500D02*
X319468D01*
X317500Y-139469D02*
Y-135531D01*
X308327Y-131468D02*
Y-127532D01*
X306358Y-129500D02*
X310295D01*
X77000Y-36468D02*
Y-32531D01*
X75032Y-34500D02*
X78969D01*
X98532Y-125500D02*
X102469D01*
X100500Y-127469D02*
Y-123531D01*
X134031Y-148563D02*
X137969D01*
X136000Y-150531D02*
Y-146595D01*
X107531Y-125500D02*
X111469D01*
X109500Y-127469D02*
Y-123531D01*
X268358Y-70500D02*
X272295D01*
X270327Y-72469D02*
Y-68532D01*
X278532Y-172173D02*
X282469D01*
X280500Y-174142D02*
Y-170205D01*
X264000Y-89969D02*
Y-86032D01*
X262032Y-88000D02*
X265968D01*
X278532Y-162673D02*
X282469D01*
X280500Y-164642D02*
Y-160705D01*
X77000Y-76968D02*
Y-73032D01*
X75032Y-75000D02*
X78969D01*
X67000Y-76968D02*
Y-73032D01*
X65031Y-75000D02*
X68968D01*
X57327Y-76968D02*
Y-73032D01*
X55358Y-75000D02*
X59295D01*
X47732Y-76968D02*
Y-73032D01*
X45764Y-75000D02*
X49701D01*
X239173Y-160968D02*
Y-157032D01*
X237205Y-159000D02*
X241142D01*
X238531Y-135000D02*
X242469D01*
X240500Y-136969D02*
Y-133031D01*
X64031Y-67000D02*
X67968D01*
X66000Y-68968D02*
Y-65031D01*
X290032Y-156500D02*
X293969D01*
X292000Y-158468D02*
Y-154532D01*
X290032Y-147173D02*
X293969D01*
X292000Y-149142D02*
Y-145205D01*
X239000Y-150469D02*
Y-146531D01*
X237032Y-148500D02*
X240968D01*
X76327Y-113469D02*
Y-109531D01*
X74358Y-111500D02*
X78295D01*
X66673Y-113469D02*
Y-109531D01*
X64705Y-111500D02*
X68642D01*
X56827Y-113469D02*
Y-109531D01*
X54858Y-111500D02*
X58795D01*
X47500Y-113469D02*
Y-109531D01*
X45531Y-111500D02*
X49468D01*
X122673Y-75468D02*
Y-71531D01*
X120705Y-73500D02*
X124642D01*
X66827Y-107468D02*
Y-103532D01*
X64858Y-105500D02*
X68795D01*
X109031Y-81500D02*
X112969D01*
X111000Y-83469D02*
Y-79532D01*
X112500Y-75468D02*
Y-71531D01*
X110531Y-73500D02*
X114469D01*
X357500Y-117968D02*
Y-114032D01*
X355532Y-116000D02*
X359469D01*
X172000Y-166969D02*
Y-163031D01*
X170031Y-165000D02*
X173969D01*
X181173Y-160968D02*
Y-157032D01*
X179205Y-159000D02*
X183142D01*
X177032Y-150673D02*
X180968D01*
X179000Y-152642D02*
Y-148705D01*
X180827Y-144968D02*
Y-141032D01*
X178858Y-143000D02*
X182795D01*
X172000Y-160968D02*
Y-157032D01*
X170031Y-159000D02*
X173969D01*
X171673Y-144968D02*
Y-141032D01*
X169705Y-143000D02*
X173642D01*
X89000Y-33968D02*
Y-30031D01*
X87032Y-32000D02*
X90969D01*
X94532Y-24673D02*
X98469D01*
X96500Y-26642D02*
Y-22705D01*
X117032Y-20327D02*
X120968D01*
X119000Y-22295D02*
Y-18358D01*
X296031Y-47500D02*
X299969D01*
X298000Y-49468D02*
Y-45531D01*
X302532Y-47500D02*
X306469D01*
X304500Y-49468D02*
Y-45531D01*
X286500Y-122468D02*
Y-118532D01*
X284531Y-120500D02*
X288469D01*
X47441Y-120295D02*
Y-116358D01*
X45472Y-118327D02*
X49409D01*
X47732Y-83469D02*
Y-79532D01*
X45764Y-81500D02*
X49701D01*
X47732Y-89969D02*
Y-86032D01*
X45764Y-88000D02*
X49701D01*
X214032Y-129500D02*
X217969D01*
X216000Y-131468D02*
Y-127532D01*
X144000Y-94968D02*
Y-91031D01*
X142032Y-93000D02*
X145968D01*
X296000Y-183968D02*
Y-180032D01*
X294032Y-182000D02*
X297969D01*
X277532Y-185500D02*
X281469D01*
X279500Y-187469D02*
Y-183531D01*
X224000Y-91469D02*
Y-87532D01*
X222031Y-89500D02*
X225969D01*
X224000Y-97802D02*
Y-93865D01*
X222031Y-95833D02*
X225969D01*
X113173Y-97969D02*
Y-94032D01*
X111205Y-96000D02*
X115142D01*
X113173Y-103969D02*
Y-100031D01*
X111205Y-102000D02*
X115142D01*
X256031Y-186500D02*
X259968D01*
X258000Y-188469D02*
Y-184531D01*
X262390Y-186469D02*
X266327D01*
X264358Y-188437D02*
Y-184500D01*
X171500Y-150969D02*
Y-147031D01*
X169532Y-149000D02*
X173468D01*
M02*
