G04*
G04 #@! TF.GenerationSoftware,Altium Limited,Altium Designer,20.0.2 (26)*
G04*
G04 Layer_Color=16711935*
%FSLAX25Y25*%
%MOIN*%
G70*
G01*
G75*
%ADD78C,0.08674*%
%ADD79R,0.08674X0.08674*%
%ADD80C,0.07887*%
G04:AMPARAMS|DCode=81|XSize=78.87mil|YSize=78.87mil|CornerRadius=12.86mil|HoleSize=0mil|Usage=FLASHONLY|Rotation=180.000|XOffset=0mil|YOffset=0mil|HoleType=Round|Shape=RoundedRectangle|*
%AMROUNDEDRECTD81*
21,1,0.07887,0.05315,0,0,180.0*
21,1,0.05315,0.07887,0,0,180.0*
1,1,0.02572,-0.02657,0.02657*
1,1,0.02572,0.02657,0.02657*
1,1,0.02572,0.02657,-0.02657*
1,1,0.02572,-0.02657,-0.02657*
%
%ADD81ROUNDEDRECTD81*%
%ADD82C,0.07099*%
%ADD83C,0.24422*%
%ADD84C,0.10642*%
%ADD85C,0.09068*%
%ADD86R,0.09068X0.09068*%
D78*
X35433Y-93425D02*
D03*
Y-53425D02*
D03*
Y-63425D02*
D03*
Y-73425D02*
D03*
Y-83425D02*
D03*
Y-103425D02*
D03*
Y-113425D02*
D03*
Y-123425D02*
D03*
Y-133425D02*
D03*
Y-143425D02*
D03*
Y-153425D02*
D03*
D79*
Y-43425D02*
D03*
D80*
X168000Y-19685D02*
D03*
X158000D02*
D03*
X178000D02*
D03*
X188000D02*
D03*
X198000D02*
D03*
X208000D02*
D03*
X218000D02*
D03*
X168000Y-177165D02*
D03*
X158000D02*
D03*
X178000D02*
D03*
X188000D02*
D03*
X198000D02*
D03*
X208000D02*
D03*
X218000D02*
D03*
D81*
X228000Y-19685D02*
D03*
Y-177165D02*
D03*
D82*
X79500Y-83500D02*
D03*
X67689D02*
D03*
X79500Y-44000D02*
D03*
X67689D02*
D03*
D83*
X103000Y-172000D02*
D03*
X272500Y-24000D02*
D03*
D84*
X271583Y-62498D02*
D03*
X316858D02*
D03*
X344417D02*
D03*
X271583Y-43994D02*
D03*
Y-99165D02*
D03*
X316858D02*
D03*
X344417D02*
D03*
X271583Y-80661D02*
D03*
Y-135832D02*
D03*
X316858D02*
D03*
X344417D02*
D03*
X271583Y-117328D02*
D03*
Y-172498D02*
D03*
X316858D02*
D03*
X344417D02*
D03*
X271583Y-153994D02*
D03*
D85*
X362000Y-77756D02*
D03*
Y-105315D02*
D03*
Y-132874D02*
D03*
Y-119095D02*
D03*
Y-91535D02*
D03*
Y-63976D02*
D03*
Y-50197D02*
D03*
D86*
Y-146653D02*
D03*
M02*
