G04*
G04 #@! TF.GenerationSoftware,Altium Limited,Altium Designer,20.0.2 (26)*
G04*
G04 Layer_Color=8421504*
%FSLAX25Y25*%
%MOIN*%
G70*
G01*
G75*
%ADD26R,0.06693X0.09843*%
%ADD27R,0.06693X0.09843*%
%ADD28R,0.03638X0.05000*%
%ADD29R,0.03598X0.03598*%
%ADD30R,0.02362X0.02559*%
%ADD31R,0.04567X0.10709*%
%ADD32R,0.02559X0.02362*%
G04:AMPARAMS|DCode=33|XSize=21.65mil|YSize=49.21mil|CornerRadius=1.95mil|HoleSize=0mil|Usage=FLASHONLY|Rotation=270.000|XOffset=0mil|YOffset=0mil|HoleType=Round|Shape=RoundedRectangle|*
%AMROUNDEDRECTD33*
21,1,0.02165,0.04532,0,0,270.0*
21,1,0.01776,0.04921,0,0,270.0*
1,1,0.00390,-0.02266,-0.00888*
1,1,0.00390,-0.02266,0.00888*
1,1,0.00390,0.02266,0.00888*
1,1,0.00390,0.02266,-0.00888*
%
%ADD33ROUNDEDRECTD33*%
G04:AMPARAMS|DCode=34|XSize=47.64mil|YSize=23.23mil|CornerRadius=5.81mil|HoleSize=0mil|Usage=FLASHONLY|Rotation=0.000|XOffset=0mil|YOffset=0mil|HoleType=Round|Shape=RoundedRectangle|*
%AMROUNDEDRECTD34*
21,1,0.04764,0.01161,0,0,0.0*
21,1,0.03602,0.02323,0,0,0.0*
1,1,0.01161,0.01801,-0.00581*
1,1,0.01161,-0.01801,-0.00581*
1,1,0.01161,-0.01801,0.00581*
1,1,0.01161,0.01801,0.00581*
%
%ADD34ROUNDEDRECTD34*%
%ADD35R,0.09843X0.06299*%
%ADD36R,0.13465X0.04724*%
%ADD37R,0.03937X0.13780*%
G04:AMPARAMS|DCode=38|XSize=105.91mil|YSize=125.98mil|CornerRadius=2.12mil|HoleSize=0mil|Usage=FLASHONLY|Rotation=180.000|XOffset=0mil|YOffset=0mil|HoleType=Round|Shape=RoundedRectangle|*
%AMROUNDEDRECTD38*
21,1,0.10591,0.12175,0,0,180.0*
21,1,0.10167,0.12598,0,0,180.0*
1,1,0.00424,-0.05084,0.06087*
1,1,0.00424,0.05084,0.06087*
1,1,0.00424,0.05084,-0.06087*
1,1,0.00424,-0.05084,-0.06087*
%
%ADD38ROUNDEDRECTD38*%
%ADD39R,0.21260X0.16142*%
%ADD40R,0.14961X0.05512*%
%ADD41R,0.03661X0.03858*%
G04:AMPARAMS|DCode=42|XSize=55mil|YSize=50mil|CornerRadius=0mil|HoleSize=0mil|Usage=FLASHONLY|Rotation=0.000|XOffset=0mil|YOffset=0mil|HoleType=Round|Shape=Octagon|*
%AMOCTAGOND42*
4,1,8,0.02750,-0.01250,0.02750,0.01250,0.01500,0.02500,-0.01500,0.02500,-0.02750,0.01250,-0.02750,-0.01250,-0.01500,-0.02500,0.01500,-0.02500,0.02750,-0.01250,0.0*
%
%ADD42OCTAGOND42*%

%ADD43R,0.05500X0.05000*%
G04:AMPARAMS|DCode=44|XSize=78.74mil|YSize=133.86mil|CornerRadius=0mil|HoleSize=0mil|Usage=FLASHONLY|Rotation=180.000|XOffset=0mil|YOffset=0mil|HoleType=Round|Shape=Octagon|*
%AMOCTAGOND44*
4,1,8,0.01968,-0.06693,-0.01968,-0.06693,-0.03937,-0.04724,-0.03937,0.04724,-0.01968,0.06693,0.01968,0.06693,0.03937,0.04724,0.03937,-0.04724,0.01968,-0.06693,0.0*
%
%ADD44OCTAGOND44*%

%ADD45R,0.02756X0.06299*%
%ADD46R,0.02756X0.09449*%
%ADD47R,0.13780X0.03937*%
G04:AMPARAMS|DCode=48|XSize=55mil|YSize=50mil|CornerRadius=0mil|HoleSize=0mil|Usage=FLASHONLY|Rotation=90.000|XOffset=0mil|YOffset=0mil|HoleType=Round|Shape=Octagon|*
%AMOCTAGOND48*
4,1,8,0.01250,0.02750,-0.01250,0.02750,-0.02500,0.01500,-0.02500,-0.01500,-0.01250,-0.02750,0.01250,-0.02750,0.02500,-0.01500,0.02500,0.01500,0.01250,0.02750,0.0*
%
%ADD48OCTAGOND48*%

%ADD49R,0.05000X0.05500*%
%ADD50R,0.03858X0.03661*%
%ADD51R,0.06299X0.09843*%
D26*
X58126Y-108500D02*
D03*
X59626Y-70500D02*
D03*
X70126Y-139000D02*
D03*
X55000Y-151626D02*
D03*
Y-167374D02*
D03*
D27*
X73874Y-108500D02*
D03*
X75374Y-70500D02*
D03*
X85874Y-139000D02*
D03*
D28*
X88240Y-103748D02*
D03*
X90000Y-65500D02*
D03*
X163000Y-38874D02*
D03*
X246000Y-49126D02*
D03*
X247500Y-87126D02*
D03*
X247000Y-123626D02*
D03*
X248000Y-161126D02*
D03*
D29*
X91980Y-113000D02*
D03*
X84500D02*
D03*
X93740Y-74752D02*
D03*
X86260D02*
D03*
X166740Y-48126D02*
D03*
X159260D02*
D03*
X242260Y-39874D02*
D03*
X249740D02*
D03*
X243760Y-77874D02*
D03*
X251240D02*
D03*
X243260Y-114374D02*
D03*
X250740D02*
D03*
X244260Y-151874D02*
D03*
X251740D02*
D03*
D30*
X48906Y-104657D02*
D03*
X45559D02*
D03*
X48906Y-111000D02*
D03*
X45559D02*
D03*
X68654Y-91500D02*
D03*
X72000D02*
D03*
X75327Y-98000D02*
D03*
X78673D02*
D03*
X65327D02*
D03*
X68673D02*
D03*
X55327D02*
D03*
X58673D02*
D03*
X45327D02*
D03*
X48673D02*
D03*
X49905Y-74000D02*
D03*
X46559D02*
D03*
X49905Y-67898D02*
D03*
X46559D02*
D03*
X66942Y-59500D02*
D03*
X70289D02*
D03*
X77000D02*
D03*
X80346D02*
D03*
X56884D02*
D03*
X60231D02*
D03*
X46827D02*
D03*
X50173D02*
D03*
X69153Y-53000D02*
D03*
X72500D02*
D03*
X96000Y-91500D02*
D03*
X92654D02*
D03*
X108000Y-98000D02*
D03*
X104654D02*
D03*
X57327Y-38000D02*
D03*
X60673D02*
D03*
X246000Y-28000D02*
D03*
X242653D02*
D03*
X246000Y-34000D02*
D03*
X242653D02*
D03*
X249173Y-66000D02*
D03*
X245827D02*
D03*
X249173Y-72000D02*
D03*
X245827D02*
D03*
X249173Y-102000D02*
D03*
X245827D02*
D03*
X249346Y-108000D02*
D03*
X246000D02*
D03*
X250500Y-140500D02*
D03*
X247153D02*
D03*
X250500Y-146500D02*
D03*
X247153D02*
D03*
X152327Y-114000D02*
D03*
X155673D02*
D03*
X143000Y-114000D02*
D03*
X146346D02*
D03*
D31*
X59307Y-85000D02*
D03*
X47693D02*
D03*
X59307Y-49000D02*
D03*
X47693D02*
D03*
D32*
X91500Y-82327D02*
D03*
Y-85673D02*
D03*
X97500Y-82327D02*
D03*
Y-85673D02*
D03*
X134500Y-77153D02*
D03*
Y-80500D02*
D03*
X141000Y-77153D02*
D03*
Y-80500D02*
D03*
X134500Y-87154D02*
D03*
Y-90500D02*
D03*
X133500Y-132173D02*
D03*
Y-128827D02*
D03*
X174000Y-44327D02*
D03*
Y-47673D02*
D03*
X160000Y-161346D02*
D03*
Y-158000D02*
D03*
X174000Y-34827D02*
D03*
Y-38173D02*
D03*
D33*
X105000Y-76000D02*
D03*
Y-81000D02*
D03*
Y-86000D02*
D03*
Y-91000D02*
D03*
X125669Y-76000D02*
D03*
Y-81000D02*
D03*
Y-86000D02*
D03*
Y-91000D02*
D03*
X160835Y-138000D02*
D03*
Y-133000D02*
D03*
Y-128000D02*
D03*
Y-123000D02*
D03*
X140165Y-138000D02*
D03*
Y-133000D02*
D03*
Y-128000D02*
D03*
Y-123000D02*
D03*
D34*
X57559Y-23760D02*
D03*
Y-27500D02*
D03*
Y-31240D02*
D03*
X67441D02*
D03*
Y-23760D02*
D03*
D35*
X56500Y-138110D02*
D03*
Y-121890D02*
D03*
D36*
X72000Y-168465D02*
D03*
Y-151535D02*
D03*
D37*
X106500Y-141277D02*
D03*
Y-119723D02*
D03*
D38*
X150500Y-130500D02*
D03*
D39*
X185500Y-156854D02*
D03*
Y-126146D02*
D03*
D40*
X164620Y-98500D02*
D03*
X192379D02*
D03*
D41*
X174500Y-76500D02*
D03*
X180563D02*
D03*
D42*
X193750Y-59000D02*
D03*
D43*
X180250D02*
D03*
D44*
X189600Y-36100D02*
D03*
D45*
X195405Y-48587D02*
D03*
X183595D02*
D03*
D46*
X189500Y-47100D02*
D03*
D47*
X208723Y-44000D02*
D03*
X230277D02*
D03*
D48*
X258500Y-34250D02*
D03*
X259000Y-146250D02*
D03*
X258500Y-108750D02*
D03*
Y-72250D02*
D03*
D49*
Y-47750D02*
D03*
X259000Y-159750D02*
D03*
X258500Y-122250D02*
D03*
Y-85750D02*
D03*
D50*
X125500Y-133531D02*
D03*
Y-127469D02*
D03*
X47500Y-23968D02*
D03*
Y-30031D02*
D03*
X76500Y-23968D02*
D03*
Y-30031D02*
D03*
D51*
X150110Y-149500D02*
D03*
X133890D02*
D03*
M02*
