M48
;Layer_Color=9474304
;FILE_FORMAT=2:5
INCH,LZ
;TYPE=PLATED
T1F00S00C0.00787
T2F00S00C0.01800
T3F00S00C0.02362
T4F00S00C0.03937
T5F00S00C0.04331
T6F00S00C0.05512
T7F00S00C0.05906
T8F00S00C0.11811
%
T01
X0148335Y-0134831
X0152665
Y-01305
X0148335
Y-0126169
X0152665
T02
X0238Y-01515
X0247077Y-0135077
X0237Y-01145
X0245663Y-0095663
X0237Y-0078
X02455Y-0057
X02335Y-0052
X02245
X02375Y-00335
X01885Y-00285
X0182
X0179Y-0046
X01525Y-0048
X0148Y-00765
X01605Y-00755
Y-00855
X01615Y-00915
X016Y-0106
X017Y-01065
X01835Y-01125
X01905
X01985
X0205Y-01135
X02045Y-01065
X0205Y-00975
Y-0087
X02045Y-00785
X0194Y-0087
X0173Y-00865
X01345Y-00715
X0126Y-00695
X00985Y-0077
X0088Y-00825
X0083Y-00695
Y-0035
Y-003
X00825Y-00245
Y-002
X00645Y-0036
X00675Y-0119
Y-0123
X0067Y-0129
X0074
X008Y-01165
X009198Y-011848
X00955Y-0097
X01055Y-010225
X01125Y-00975
X01225Y-0103
X0122Y-01145
X0115
X01295
X01385Y-0114
X01065Y-0155
X0101Y-01515
X0205Y-01285
Y-01215
X00465Y-01185
X0041Y-0109
Y-0068
X00425Y-0035
X00495
T03
X0067689Y-00835
X00795
Y-0044
X0067689
T04
X0158Y-0177165
X0168
X0178
X0188
X0198
X0208
X0218
X0228
Y-0019685
X0218
X0208
X0198
X0188
X0178
X0168
X0158
T05
X0035433Y-0153425
Y-0143425
Y-0133425
Y-0123425
Y-0113425
Y-0103425
Y-0093425
Y-0083425
Y-0073425
Y-0063425
Y-0053425
Y-0043425
T06
X0362Y-0146653
Y-0132874
Y-0119095
Y-0105315
Y-0091535
Y-0077756
Y-0063976
Y-0050197
T07
X0271583Y-0172498
X0316858
X0344417
Y-0135832
X0316858
Y-0099165
X0344417
Y-0062498
X0316858
X0271583
Y-0080661
Y-0099165
Y-0117328
Y-0135832
Y-0153994
Y-0043994
T08
X0103Y-0172
X02725Y-0024
M30
