G04*
G04 #@! TF.GenerationSoftware,Altium Limited,Altium Designer,20.0.2 (26)*
G04*
G04 Layer_Color=32768*
%FSLAX25Y25*%
%MOIN*%
G70*
G01*
G75*
%ADD13C,0.00787*%
%ADD91C,0.02000*%
%ADD145C,0.00394*%
%ADD146C,0.00197*%
D13*
X88240Y-109374D02*
Y-107374D01*
X87440Y-108374D02*
X89040D01*
X90000Y-71126D02*
Y-69126D01*
X89200Y-70126D02*
X90800D01*
X163000Y-44500D02*
Y-42500D01*
X162200Y-43500D02*
X163800D01*
X246000Y-45500D02*
Y-43500D01*
X245200Y-44500D02*
X246800D01*
X247500Y-83500D02*
Y-81500D01*
X246700Y-82500D02*
X248300D01*
X247000Y-120000D02*
Y-118000D01*
X246200Y-119000D02*
X247800D01*
X248000Y-157500D02*
Y-155500D01*
X247200Y-156500D02*
X248800D01*
D91*
X103100Y-130500D02*
X110000D01*
X106500Y-133800D02*
Y-127200D01*
X175200Y-98500D02*
X181800D01*
X178500Y-101900D02*
Y-95000D01*
X219500Y-47500D02*
Y-40600D01*
X216200Y-44000D02*
X222800D01*
D145*
X115335Y-85469D02*
Y-81532D01*
X113366Y-83500D02*
X117303D01*
X53031Y-159500D02*
X56968D01*
X55000Y-161469D02*
Y-157531D01*
X148531Y-130500D02*
X152469D01*
X150500Y-132468D02*
Y-128532D01*
X185500Y-143468D02*
Y-139532D01*
X183531Y-141500D02*
X187469D01*
D146*
X188378Y-59000D02*
G03*
X188378Y-59000I-1378J0D01*
G01*
X259878Y-41000D02*
G03*
X259878Y-41000I-1378J0D01*
G01*
X260378Y-153000D02*
G03*
X260378Y-153000I-1378J0D01*
G01*
X259878Y-115500D02*
G03*
X259878Y-115500I-1378J0D01*
G01*
Y-79000D02*
G03*
X259878Y-79000I-1378J0D01*
G01*
X45264Y-104657D02*
X49201D01*
X47232Y-106626D02*
Y-102689D01*
X45264Y-111000D02*
X49201D01*
X47232Y-112969D02*
Y-109031D01*
X68358Y-91500D02*
X72295D01*
X70327Y-93468D02*
Y-89531D01*
X75032Y-98000D02*
X78969D01*
X77000Y-99968D02*
Y-96031D01*
X65031Y-98000D02*
X68968D01*
X67000Y-99968D02*
Y-96031D01*
X55032Y-98000D02*
X58969D01*
X57000Y-99968D02*
Y-96031D01*
X45031Y-98000D02*
X48968D01*
X47000Y-99968D02*
Y-96031D01*
X46264Y-74000D02*
X50201D01*
X48232Y-75968D02*
Y-72031D01*
X46264Y-67898D02*
X50201D01*
X48232Y-69866D02*
Y-65929D01*
X66647Y-59500D02*
X70584D01*
X68616Y-61468D02*
Y-57531D01*
X76705Y-59500D02*
X80642D01*
X78673Y-61468D02*
Y-57531D01*
X56589Y-59500D02*
X60526D01*
X58558Y-61468D02*
Y-57531D01*
X46532Y-59500D02*
X50468D01*
X48500Y-61468D02*
Y-57531D01*
X68858Y-53000D02*
X72795D01*
X70827Y-54969D02*
Y-51032D01*
X91500Y-85969D02*
Y-82032D01*
X89531Y-84000D02*
X93468D01*
X97500Y-85969D02*
Y-82032D01*
X95531Y-84000D02*
X99468D01*
X92358Y-91500D02*
X96295D01*
X94327Y-93468D02*
Y-89531D01*
X57032Y-38000D02*
X60969D01*
X59000Y-39968D02*
Y-36031D01*
X134500Y-80795D02*
Y-76858D01*
X132531Y-78827D02*
X136469D01*
X141000Y-80795D02*
Y-76858D01*
X139032Y-78827D02*
X142968D01*
X134500Y-90795D02*
Y-86858D01*
X132531Y-88827D02*
X136469D01*
X185031Y-59000D02*
X188969D01*
X187000Y-60969D02*
Y-57032D01*
X174000Y-47969D02*
Y-44032D01*
X172031Y-46000D02*
X175969D01*
X258500Y-42968D02*
Y-39031D01*
X256532Y-41000D02*
X260469D01*
X242358Y-28000D02*
X246295D01*
X244327Y-29969D02*
Y-26032D01*
X242358Y-34000D02*
X246295D01*
X244327Y-35969D02*
Y-32032D01*
X245532Y-66000D02*
X249468D01*
X247500Y-67968D02*
Y-64031D01*
X245532Y-72000D02*
X249468D01*
X247500Y-73968D02*
Y-70031D01*
X245532Y-102000D02*
X249468D01*
X247500Y-103969D02*
Y-100031D01*
X245705Y-108000D02*
X249642D01*
X247673Y-109968D02*
Y-106032D01*
X246858Y-140500D02*
X250795D01*
X248827Y-142469D02*
Y-138531D01*
X246858Y-146500D02*
X250795D01*
X248827Y-148468D02*
Y-144532D01*
X259000Y-154969D02*
Y-151031D01*
X257031Y-153000D02*
X260968D01*
X258500Y-117469D02*
Y-113531D01*
X256532Y-115500D02*
X260469D01*
X258500Y-80968D02*
Y-77031D01*
X256532Y-79000D02*
X260469D01*
X154000Y-115969D02*
Y-112031D01*
X152032Y-114000D02*
X155968D01*
X144673Y-115969D02*
Y-112031D01*
X142705Y-114000D02*
X146642D01*
X172031Y-36500D02*
X175969D01*
X174000Y-38469D02*
Y-34532D01*
M02*
