G04*
G04 #@! TF.GenerationSoftware,Altium Limited,Altium Designer,20.0.2 (26)*
G04*
G04 Layer_Physical_Order=1*
G04 Layer_Color=255*
%FSLAX25Y25*%
%MOIN*%
G70*
G01*
G75*
%ADD12C,0.01000*%
%ADD21C,0.01500*%
%ADD26R,0.06693X0.09843*%
%ADD27R,0.06693X0.09843*%
%ADD28R,0.03638X0.05000*%
%ADD29R,0.03598X0.03598*%
%ADD30R,0.02362X0.02559*%
%ADD31R,0.04567X0.10709*%
%ADD32R,0.02559X0.02362*%
G04:AMPARAMS|DCode=33|XSize=21.65mil|YSize=49.21mil|CornerRadius=1.95mil|HoleSize=0mil|Usage=FLASHONLY|Rotation=270.000|XOffset=0mil|YOffset=0mil|HoleType=Round|Shape=RoundedRectangle|*
%AMROUNDEDRECTD33*
21,1,0.02165,0.04532,0,0,270.0*
21,1,0.01776,0.04921,0,0,270.0*
1,1,0.00390,-0.02266,-0.00888*
1,1,0.00390,-0.02266,0.00888*
1,1,0.00390,0.02266,0.00888*
1,1,0.00390,0.02266,-0.00888*
%
%ADD33ROUNDEDRECTD33*%
G04:AMPARAMS|DCode=34|XSize=47.64mil|YSize=23.23mil|CornerRadius=5.81mil|HoleSize=0mil|Usage=FLASHONLY|Rotation=0.000|XOffset=0mil|YOffset=0mil|HoleType=Round|Shape=RoundedRectangle|*
%AMROUNDEDRECTD34*
21,1,0.04764,0.01161,0,0,0.0*
21,1,0.03602,0.02323,0,0,0.0*
1,1,0.01161,0.01801,-0.00581*
1,1,0.01161,-0.01801,-0.00581*
1,1,0.01161,-0.01801,0.00581*
1,1,0.01161,0.01801,0.00581*
%
%ADD34ROUNDEDRECTD34*%
%ADD35R,0.09843X0.06299*%
%ADD36R,0.13465X0.04724*%
%ADD37R,0.03937X0.13780*%
G04:AMPARAMS|DCode=38|XSize=105.91mil|YSize=125.98mil|CornerRadius=2.12mil|HoleSize=0mil|Usage=FLASHONLY|Rotation=180.000|XOffset=0mil|YOffset=0mil|HoleType=Round|Shape=RoundedRectangle|*
%AMROUNDEDRECTD38*
21,1,0.10591,0.12175,0,0,180.0*
21,1,0.10167,0.12598,0,0,180.0*
1,1,0.00424,-0.05084,0.06087*
1,1,0.00424,0.05084,0.06087*
1,1,0.00424,0.05084,-0.06087*
1,1,0.00424,-0.05084,-0.06087*
%
%ADD38ROUNDEDRECTD38*%
%ADD39R,0.21260X0.16142*%
%ADD40R,0.14961X0.05512*%
%ADD41R,0.03661X0.03858*%
G04:AMPARAMS|DCode=42|XSize=55mil|YSize=50mil|CornerRadius=0mil|HoleSize=0mil|Usage=FLASHONLY|Rotation=0.000|XOffset=0mil|YOffset=0mil|HoleType=Round|Shape=Octagon|*
%AMOCTAGOND42*
4,1,8,0.02750,-0.01250,0.02750,0.01250,0.01500,0.02500,-0.01500,0.02500,-0.02750,0.01250,-0.02750,-0.01250,-0.01500,-0.02500,0.01500,-0.02500,0.02750,-0.01250,0.0*
%
%ADD42OCTAGOND42*%

%ADD43R,0.05500X0.05000*%
G04:AMPARAMS|DCode=44|XSize=78.74mil|YSize=133.86mil|CornerRadius=0mil|HoleSize=0mil|Usage=FLASHONLY|Rotation=180.000|XOffset=0mil|YOffset=0mil|HoleType=Round|Shape=Octagon|*
%AMOCTAGOND44*
4,1,8,0.01968,-0.06693,-0.01968,-0.06693,-0.03937,-0.04724,-0.03937,0.04724,-0.01968,0.06693,0.01968,0.06693,0.03937,0.04724,0.03937,-0.04724,0.01968,-0.06693,0.0*
%
%ADD44OCTAGOND44*%

%ADD45R,0.02756X0.06299*%
%ADD46R,0.02756X0.09449*%
%ADD47R,0.13780X0.03937*%
G04:AMPARAMS|DCode=48|XSize=55mil|YSize=50mil|CornerRadius=0mil|HoleSize=0mil|Usage=FLASHONLY|Rotation=90.000|XOffset=0mil|YOffset=0mil|HoleType=Round|Shape=Octagon|*
%AMOCTAGOND48*
4,1,8,0.01250,0.02750,-0.01250,0.02750,-0.02500,0.01500,-0.02500,-0.01500,-0.01250,-0.02750,0.01250,-0.02750,0.02500,-0.01500,0.02500,0.01500,0.01250,0.02750,0.0*
%
%ADD48OCTAGOND48*%

%ADD49R,0.05000X0.05500*%
%ADD50R,0.03858X0.03661*%
%ADD51R,0.06299X0.09843*%
%ADD87C,0.08000*%
%ADD88C,0.03000*%
%ADD89C,0.09900*%
%ADD90C,0.00700*%
%ADD91C,0.02000*%
%ADD92C,0.04500*%
%ADD93C,0.05000*%
%ADD94R,0.28500X0.08500*%
%ADD95R,0.23500X0.14000*%
%ADD96R,0.16000X0.17000*%
%ADD97R,0.22500X0.09500*%
%ADD98R,0.14000X0.18500*%
%ADD99R,0.12000X0.09000*%
%ADD100R,0.20500X0.08500*%
%ADD101R,0.07000X0.13000*%
%ADD102R,0.12000X0.10000*%
%ADD103R,0.19500X0.38000*%
%ADD104R,0.30000X0.32000*%
%ADD105R,0.31500X0.19500*%
%ADD106R,0.30000X0.41500*%
%ADD107R,0.37000X0.21500*%
%ADD108R,0.76000X0.10000*%
%ADD109R,0.13500X0.30000*%
%ADD110R,0.11000X0.36500*%
%ADD111R,0.38500X0.18000*%
%ADD112C,0.07874*%
%ADD113R,0.07874X0.07874*%
%ADD114C,0.07087*%
G04:AMPARAMS|DCode=115|XSize=70.87mil|YSize=70.87mil|CornerRadius=8.86mil|HoleSize=0mil|Usage=FLASHONLY|Rotation=180.000|XOffset=0mil|YOffset=0mil|HoleType=Round|Shape=RoundedRectangle|*
%AMROUNDEDRECTD115*
21,1,0.07087,0.05315,0,0,180.0*
21,1,0.05315,0.07087,0,0,180.0*
1,1,0.01772,-0.02657,0.02657*
1,1,0.01772,0.02657,0.02657*
1,1,0.01772,0.02657,-0.02657*
1,1,0.01772,-0.02657,-0.02657*
%
%ADD115ROUNDEDRECTD115*%
%ADD116C,0.06299*%
%ADD117C,0.23622*%
%ADD118C,0.09843*%
%ADD119C,0.08268*%
%ADD120R,0.08268X0.08268*%
%ADD121C,0.01968*%
%ADD122C,0.03000*%
G36*
X224530Y-22678D02*
X224500Y-22395D01*
X224407Y-22141D01*
X224253Y-21917D01*
X224038Y-21723D01*
X223761Y-21558D01*
X223422Y-21424D01*
X223022Y-21319D01*
X222560Y-21245D01*
X222520Y-21241D01*
X222309Y-21273D01*
X222002Y-21342D01*
X221712Y-21430D01*
X221441Y-21538D01*
X221186Y-21665D01*
X220950Y-21812D01*
X220731Y-21979D01*
X220530Y-22165D01*
Y-17205D01*
X220731Y-17391D01*
X220950Y-17558D01*
X221186Y-17705D01*
X221441Y-17832D01*
X221712Y-17940D01*
X222002Y-18028D01*
X222309Y-18097D01*
X222520Y-18129D01*
X222560Y-18125D01*
X223022Y-18051D01*
X223422Y-17946D01*
X223761Y-17812D01*
X224038Y-17647D01*
X224253Y-17453D01*
X224407Y-17229D01*
X224500Y-16975D01*
X224530Y-16692D01*
Y-22678D01*
D02*
G37*
G36*
X192244Y-15936D02*
X192105Y-16105D01*
X191982Y-16318D01*
X191874Y-16577D01*
X191781Y-16881D01*
X191703Y-17230D01*
X191641Y-17624D01*
X191562Y-18546D01*
X191545Y-19076D01*
X191543Y-19650D01*
X188035Y-16142D01*
X188610Y-16140D01*
X190061Y-16044D01*
X190455Y-15982D01*
X190804Y-15904D01*
X191108Y-15811D01*
X191367Y-15703D01*
X191580Y-15580D01*
X191749Y-15441D01*
X192244Y-15936D01*
D02*
G37*
G36*
X220294Y-22416D02*
X220127Y-22635D01*
X219980Y-22872D01*
X219853Y-23126D01*
X219745Y-23397D01*
X219657Y-23687D01*
X219588Y-23994D01*
X219539Y-24319D01*
X219510Y-24661D01*
X219500Y-25021D01*
X216500D01*
X216490Y-24661D01*
X216461Y-24319D01*
X216412Y-23994D01*
X216343Y-23687D01*
X216255Y-23397D01*
X216147Y-23126D01*
X216020Y-22872D01*
X215873Y-22635D01*
X215706Y-22416D01*
X215520Y-22216D01*
X220480D01*
X220294Y-22416D01*
D02*
G37*
G36*
X49447Y-22171D02*
X49537Y-22189D01*
X49687Y-22206D01*
X50167Y-22232D01*
X52417Y-22260D01*
Y-25260D01*
X51847Y-25265D01*
X50167Y-25392D01*
X49897Y-25450D01*
X49687Y-25518D01*
X49537Y-25597D01*
X49447Y-25687D01*
X49417Y-25787D01*
Y-22150D01*
X49447Y-22171D01*
D02*
G37*
G36*
X45583Y-25787D02*
X45553Y-25687D01*
X45463Y-25597D01*
X45313Y-25518D01*
X45103Y-25450D01*
X44833Y-25392D01*
X44503Y-25344D01*
X43663Y-25281D01*
X42583Y-25260D01*
Y-22260D01*
X45583Y-22150D01*
Y-25787D01*
D02*
G37*
G36*
X243007Y-26168D02*
X243018Y-26289D01*
X243035Y-26396D01*
X243059Y-26488D01*
X243091Y-26566D01*
X243129Y-26630D01*
X243175Y-26680D01*
X243228Y-26716D01*
X243287Y-26737D01*
X243354Y-26744D01*
X241953D01*
X242020Y-26737D01*
X242079Y-26716D01*
X242132Y-26680D01*
X242178Y-26630D01*
X242216Y-26566D01*
X242248Y-26488D01*
X242272Y-26396D01*
X242289Y-26289D01*
X242300Y-26168D01*
X242303Y-26033D01*
X243004D01*
X243007Y-26168D01*
D02*
G37*
G36*
X246905Y-29278D02*
X246820Y-29307D01*
X246745Y-29357D01*
X246680Y-29427D01*
X246625Y-29517D01*
X246580Y-29627D01*
X246545Y-29757D01*
X246520Y-29908D01*
X246505Y-30077D01*
X246500Y-30268D01*
X245500D01*
X245495Y-30077D01*
X245480Y-29908D01*
X245455Y-29757D01*
X245420Y-29627D01*
X245375Y-29517D01*
X245320Y-29427D01*
X245255Y-29357D01*
X245180Y-29307D01*
X245095Y-29278D01*
X245000Y-29267D01*
X247000D01*
X246905Y-29278D01*
D02*
G37*
G36*
X246505Y-31925D02*
X246520Y-32097D01*
X246545Y-32249D01*
X246580Y-32380D01*
X246625Y-32491D01*
X246680Y-32583D01*
X246745Y-32653D01*
X246820Y-32704D01*
X246905Y-32734D01*
X247000Y-32745D01*
X245000D01*
X245095Y-32734D01*
X245180Y-32704D01*
X245255Y-32653D01*
X245320Y-32583D01*
X245375Y-32491D01*
X245420Y-32380D01*
X245455Y-32249D01*
X245480Y-32097D01*
X245495Y-31925D01*
X245500Y-31732D01*
X246500D01*
X246505Y-31925D01*
D02*
G37*
G36*
X241484Y-35267D02*
X241464Y-35217D01*
X241404Y-35171D01*
X241304Y-35131D01*
X241164Y-35096D01*
X240984Y-35067D01*
X240764Y-35043D01*
X239864Y-35003D01*
X239484Y-35000D01*
Y-34969D01*
X238160Y-34847D01*
X238860Y-32867D01*
X238881Y-32892D01*
X238918Y-32915D01*
X238972Y-32935D01*
X239042Y-32952D01*
X239129Y-32967D01*
X239353Y-32988D01*
X239644Y-32999D01*
X239658Y-32999D01*
X239864Y-32997D01*
X241164Y-32904D01*
X241304Y-32869D01*
X241404Y-32829D01*
X241464Y-32783D01*
X241484Y-32732D01*
Y-35267D01*
D02*
G37*
G36*
X58464Y-32399D02*
X58379Y-32429D01*
X58304Y-32480D01*
X58239Y-32551D01*
X58184Y-32642D01*
X58139Y-32753D01*
X58104Y-32885D01*
X58079Y-33036D01*
X58064Y-33208D01*
X58059Y-33401D01*
X57059D01*
X57054Y-33208D01*
X57039Y-33036D01*
X57014Y-32885D01*
X56979Y-32753D01*
X56934Y-32642D01*
X56879Y-32551D01*
X56814Y-32480D01*
X56739Y-32429D01*
X56654Y-32399D01*
X56559Y-32389D01*
X58559D01*
X58464Y-32399D01*
D02*
G37*
G36*
X247106Y-33836D02*
X247082Y-33931D01*
X247086Y-34038D01*
X247117Y-34160D01*
X247175Y-34294D01*
X247261Y-34442D01*
X247374Y-34604D01*
X247514Y-34779D01*
X247876Y-35169D01*
X247268Y-35975D01*
X247057Y-35771D01*
X246682Y-35452D01*
X246517Y-35336D01*
X246368Y-35249D01*
X246235Y-35192D01*
X246116Y-35164D01*
X246013Y-35165D01*
X245926Y-35196D01*
X245853Y-35256D01*
X247157Y-33755D01*
X247106Y-33836D01*
D02*
G37*
G36*
X58063Y-35923D02*
X58077Y-36092D01*
X58098Y-36242D01*
X58129Y-36373D01*
X58168Y-36483D01*
X58216Y-36573D01*
X58273Y-36643D01*
X58339Y-36693D01*
X58413Y-36722D01*
X58496Y-36733D01*
X56559D01*
X56654Y-36722D01*
X56739Y-36693D01*
X56814Y-36643D01*
X56879Y-36573D01*
X56934Y-36483D01*
X56979Y-36373D01*
X57014Y-36242D01*
X57039Y-36092D01*
X57054Y-35923D01*
X57059Y-35732D01*
X58059D01*
X58063Y-35923D01*
D02*
G37*
G36*
X64485Y-37500D02*
X64334Y-37503D01*
X64188Y-37517D01*
X64047Y-37541D01*
X63912Y-37575D01*
X63783Y-37619D01*
X63659Y-37673D01*
X63540Y-37737D01*
X63427Y-37811D01*
X63319Y-37896D01*
X63217Y-37990D01*
X62769Y-37541D01*
Y-38232D01*
X62590Y-38236D01*
X62431Y-38249D01*
X62290Y-38270D01*
X62168Y-38300D01*
X62065Y-38338D01*
X61980Y-38385D01*
X61915Y-38440D01*
X61868Y-38504D01*
X61840Y-38577D01*
X61830Y-38658D01*
Y-36805D01*
X61840Y-36886D01*
X61868Y-36959D01*
X61915Y-37023D01*
X61980Y-37078D01*
X62065Y-37125D01*
X62168Y-37163D01*
X62290Y-37193D01*
X62431Y-37214D01*
X62563Y-37225D01*
X62604Y-37181D01*
X62689Y-37073D01*
X62763Y-36960D01*
X62827Y-36841D01*
X62881Y-36717D01*
X62925Y-36588D01*
X62959Y-36453D01*
X62983Y-36312D01*
X62997Y-36166D01*
X63000Y-36015D01*
X64485Y-37500D01*
D02*
G37*
G36*
X249665Y-37337D02*
X249678Y-37494D01*
X249699Y-37633D01*
X249729Y-37753D01*
X249767Y-37855D01*
X249814Y-37939D01*
X249869Y-38003D01*
X249933Y-38050D01*
X250006Y-38078D01*
X250087Y-38087D01*
X248234D01*
X248315Y-38078D01*
X248388Y-38050D01*
X248452Y-38003D01*
X248507Y-37939D01*
X248554Y-37855D01*
X248592Y-37753D01*
X248622Y-37633D01*
X248643Y-37494D01*
X248656Y-37337D01*
X248661Y-37161D01*
X249661D01*
X249665Y-37337D01*
D02*
G37*
G36*
X243716Y-35287D02*
X243620Y-35348D01*
X243536Y-35447D01*
X243462Y-35587D01*
X243401Y-35767D01*
X243350Y-35987D01*
X243310Y-36248D01*
X243282Y-36547D01*
X243281Y-36599D01*
X243331Y-37107D01*
X243386Y-37367D01*
X243457Y-37587D01*
X243543Y-37767D01*
X243646Y-37907D01*
X243764Y-38007D01*
X243897Y-38067D01*
X244047Y-38087D01*
X240473D01*
X240622Y-38067D01*
X240756Y-38007D01*
X240874Y-37907D01*
X240976Y-37767D01*
X241063Y-37587D01*
X241134Y-37367D01*
X241189Y-37107D01*
X241228Y-36807D01*
X241252Y-36467D01*
X241260Y-36087D01*
X241311D01*
X241341Y-35587D01*
X241370Y-35447D01*
X241404Y-35348D01*
X241442Y-35287D01*
X241484Y-35267D01*
X243823D01*
X243716Y-35287D01*
D02*
G37*
G36*
X175287Y-37036D02*
X175347Y-37065D01*
X175447Y-37090D01*
X175587Y-37112D01*
X175768Y-37131D01*
X176548Y-37167D01*
X177268Y-37173D01*
Y-39173D01*
X176888Y-39175D01*
X175347Y-39281D01*
X175287Y-39310D01*
X175268Y-39342D01*
Y-37004D01*
X175287Y-37036D01*
D02*
G37*
G36*
X172732Y-39342D02*
X172713Y-39310D01*
X172652Y-39281D01*
X172553Y-39256D01*
X172413Y-39234D01*
X172232Y-39215D01*
X171452Y-39180D01*
X170732Y-39173D01*
Y-37173D01*
X171113Y-37172D01*
X172652Y-37065D01*
X172713Y-37036D01*
X172732Y-37004D01*
Y-39342D01*
D02*
G37*
G36*
X36948Y-37073D02*
X36993Y-37584D01*
X37068Y-38036D01*
X37173Y-38428D01*
X37308Y-38759D01*
X37473Y-39030D01*
X37668Y-39241D01*
X37893Y-39392D01*
X38148Y-39482D01*
X38433Y-39512D01*
X32433D01*
X32718Y-39482D01*
X32973Y-39392D01*
X33198Y-39241D01*
X33393Y-39030D01*
X33558Y-38759D01*
X33693Y-38428D01*
X33798Y-38036D01*
X33873Y-37584D01*
X33918Y-37073D01*
X33933Y-36500D01*
X36933D01*
X36948Y-37073D01*
D02*
G37*
G36*
X164827Y-36536D02*
X164887Y-36669D01*
X164987Y-36788D01*
X165127Y-36890D01*
X165307Y-36976D01*
X165527Y-37047D01*
X165787Y-37102D01*
X166087Y-37142D01*
X166427Y-37165D01*
X166807Y-37173D01*
Y-39173D01*
X166425Y-39183D01*
X166084Y-39213D01*
X165782Y-39263D01*
X165521Y-39333D01*
X165299Y-39423D01*
X165118Y-39533D01*
X164977Y-39663D01*
X164876Y-39813D01*
X164816Y-39983D01*
X164795Y-40173D01*
X164807Y-36386D01*
X164827Y-36536D01*
D02*
G37*
G36*
X214842Y-39893D02*
X214903Y-40743D01*
X214957Y-41088D01*
X215026Y-41380D01*
X215110Y-41619D01*
X215210Y-41805D01*
X215325Y-41937D01*
X215455Y-42017D01*
X215601Y-42044D01*
X210679Y-42055D01*
X210899Y-42028D01*
X211095Y-41948D01*
X211268Y-41814D01*
X211418Y-41627D01*
X211545Y-41387D01*
X211649Y-41094D01*
X211730Y-40748D01*
X211788Y-40348D01*
X211822Y-39895D01*
X211834Y-39389D01*
X214834D01*
X214842Y-39893D01*
D02*
G37*
G36*
X267567Y-37829D02*
X267915Y-38095D01*
X268287Y-38329D01*
X268681Y-38531D01*
X269099Y-38701D01*
X269540Y-38840D01*
X270004Y-38946D01*
X270491Y-39020D01*
X271001Y-39063D01*
X271534Y-39073D01*
X266662Y-43945D01*
X266652Y-43412D01*
X266609Y-42902D01*
X266535Y-42415D01*
X266428Y-41951D01*
X266290Y-41510D01*
X266120Y-41093D01*
X265918Y-40698D01*
X265684Y-40326D01*
X265418Y-39978D01*
X265120Y-39653D01*
X267242Y-37531D01*
X267567Y-37829D01*
D02*
G37*
G36*
X175277Y-43422D02*
X175308Y-43507D01*
X175357Y-43582D01*
X175427Y-43647D01*
X175517Y-43702D01*
X175628Y-43747D01*
X175758Y-43782D01*
X175908Y-43807D01*
X176077Y-43822D01*
X176268Y-43827D01*
Y-44827D01*
X176077Y-44832D01*
X175908Y-44847D01*
X175758Y-44872D01*
X175628Y-44907D01*
X175517Y-44952D01*
X175427Y-45007D01*
X175357Y-45072D01*
X175308Y-45147D01*
X175277Y-45232D01*
X175268Y-45327D01*
Y-43327D01*
X175277Y-43422D01*
D02*
G37*
G36*
X184461Y-44240D02*
X184500Y-44718D01*
X184535Y-44912D01*
X184579Y-45076D01*
X184634Y-45211D01*
X184698Y-45315D01*
X184772Y-45390D01*
X184856Y-45435D01*
X184950Y-45450D01*
X182229D01*
X182272Y-45435D01*
X182310Y-45390D01*
X182344Y-45315D01*
X182374Y-45211D01*
X182399Y-45076D01*
X182420Y-44912D01*
X182447Y-44494D01*
X182456Y-43956D01*
X184456D01*
X184461Y-44240D01*
D02*
G37*
G36*
X201845Y-45957D02*
X201815Y-45917D01*
X201725Y-45881D01*
X201575Y-45849D01*
X201365Y-45822D01*
X200765Y-45780D01*
X198845Y-45746D01*
Y-45742D01*
X198425Y-46170D01*
X197118Y-47659D01*
X196933Y-47928D01*
X196805Y-48155D01*
X196733Y-48341D01*
X196718Y-48486D01*
X196759Y-48589D01*
X194120Y-45462D01*
X194212Y-45515D01*
X194348Y-45509D01*
X194527Y-45443D01*
X194751Y-45319D01*
X195018Y-45135D01*
X195330Y-44892D01*
X196085Y-44229D01*
X197016Y-43328D01*
X198845Y-45634D01*
Y-42746D01*
X199415Y-42739D01*
X200765Y-42634D01*
X201095Y-42570D01*
X201365Y-42493D01*
X201575Y-42402D01*
X201725Y-42296D01*
X201815Y-42177D01*
X201845Y-42044D01*
Y-45957D01*
D02*
G37*
G36*
X177823Y-44109D02*
X177933Y-44197D01*
X178046Y-44274D01*
X178163Y-44340D01*
X178282Y-44395D01*
X178405Y-44438D01*
X178532Y-44471D01*
X178662Y-44492D01*
X178795Y-44502D01*
X178931Y-44502D01*
X177502Y-45931D01*
X177502Y-45794D01*
X177492Y-45662D01*
X177471Y-45532D01*
X177438Y-45405D01*
X177395Y-45282D01*
X177340Y-45163D01*
X177274Y-45046D01*
X177197Y-44933D01*
X177109Y-44824D01*
X177010Y-44717D01*
X177717Y-44010D01*
X177823Y-44109D01*
D02*
G37*
G36*
X67658Y-47150D02*
X67196Y-47153D01*
X66372Y-47206D01*
X66008Y-47256D01*
X65676Y-47322D01*
X65378Y-47404D01*
X65111Y-47502D01*
X64878Y-47615D01*
X64676Y-47744D01*
X64507Y-47889D01*
X63800Y-47182D01*
X63945Y-47013D01*
X64074Y-46811D01*
X64187Y-46578D01*
X64285Y-46311D01*
X64367Y-46012D01*
X64433Y-45681D01*
X64483Y-45318D01*
X64536Y-44493D01*
X64539Y-44032D01*
X67658Y-47150D01*
D02*
G37*
G36*
X172732Y-48842D02*
X172713Y-48896D01*
X172652Y-48944D01*
X172553Y-48987D01*
X172413Y-49024D01*
X172232Y-49055D01*
X172012Y-49081D01*
X171452Y-49115D01*
X170732Y-49126D01*
Y-47126D01*
X171113Y-47120D01*
X171753Y-47070D01*
X172012Y-47027D01*
X172232Y-46970D01*
X172413Y-46902D01*
X172553Y-46821D01*
X172652Y-46728D01*
X172713Y-46622D01*
X172732Y-46504D01*
Y-48842D01*
D02*
G37*
G36*
X157485Y-49126D02*
X157475Y-49031D01*
X157444Y-48946D01*
X157394Y-48871D01*
X157323Y-48806D01*
X157232Y-48751D01*
X157120Y-48706D01*
X156989Y-48671D01*
X156837Y-48646D01*
X156665Y-48631D01*
X156473Y-48626D01*
Y-47626D01*
X156665Y-47621D01*
X156837Y-47606D01*
X156989Y-47581D01*
X157120Y-47546D01*
X157232Y-47501D01*
X157323Y-47446D01*
X157394Y-47381D01*
X157444Y-47306D01*
X157475Y-47221D01*
X157485Y-47126D01*
Y-49126D01*
D02*
G37*
G36*
X153754Y-47154D02*
X153858Y-47253D01*
X153966Y-47341D01*
X154078Y-47416D01*
X154196Y-47480D01*
X154318Y-47533D01*
X154445Y-47574D01*
X154576Y-47603D01*
X154712Y-47620D01*
X154853Y-47626D01*
X154763Y-48626D01*
X154626Y-48631D01*
X154490Y-48646D01*
X154357Y-48672D01*
X154226Y-48708D01*
X154096Y-48754D01*
X153969Y-48810D01*
X153843Y-48876D01*
X153720Y-48953D01*
X153599Y-49039D01*
X153479Y-49136D01*
X153656Y-47044D01*
X153754Y-47154D01*
D02*
G37*
G36*
X168547Y-46488D02*
X168607Y-46622D01*
X168707Y-46740D01*
X168847Y-46843D01*
X169027Y-46929D01*
X169247Y-47000D01*
X169507Y-47055D01*
X169807Y-47095D01*
X170147Y-47118D01*
X170527Y-47126D01*
Y-49126D01*
X170147Y-49134D01*
X169507Y-49197D01*
X169247Y-49252D01*
X169027Y-49323D01*
X168847Y-49409D01*
X168707Y-49512D01*
X168607Y-49630D01*
X168547Y-49764D01*
X168527Y-49913D01*
Y-46339D01*
X168547Y-46488D01*
D02*
G37*
G36*
X61577Y-48095D02*
X61607Y-48180D01*
X61658Y-48255D01*
X61729Y-48320D01*
X61820Y-48375D01*
X61931Y-48420D01*
X62062Y-48455D01*
X62214Y-48480D01*
X62386Y-48495D01*
X62578Y-48500D01*
Y-49500D01*
X62386Y-49505D01*
X62214Y-49520D01*
X62062Y-49545D01*
X61931Y-49580D01*
X61820Y-49625D01*
X61729Y-49680D01*
X61658Y-49745D01*
X61607Y-49820D01*
X61577Y-49905D01*
X61567Y-50000D01*
Y-48000D01*
X61577Y-48095D01*
D02*
G37*
G36*
X45433Y-50000D02*
X45423Y-49905D01*
X45393Y-49820D01*
X45342Y-49745D01*
X45272Y-49680D01*
X45180Y-49625D01*
X45069Y-49580D01*
X44938Y-49545D01*
X44786Y-49520D01*
X44614Y-49505D01*
X44421Y-49500D01*
Y-48500D01*
X44614Y-48495D01*
X44786Y-48480D01*
X44938Y-48455D01*
X45069Y-48420D01*
X45180Y-48375D01*
X45272Y-48320D01*
X45342Y-48255D01*
X45393Y-48180D01*
X45423Y-48095D01*
X45433Y-48000D01*
Y-50000D01*
D02*
G37*
G36*
X256012Y-50488D02*
X255982Y-50324D01*
X255892Y-50178D01*
X255742Y-50048D01*
X255532Y-49936D01*
X255262Y-49841D01*
X254932Y-49764D01*
X254542Y-49704D01*
X254092Y-49661D01*
X253012Y-49626D01*
Y-46626D01*
X253584Y-46611D01*
X254095Y-46566D01*
X254547Y-46491D01*
X254938Y-46386D01*
X255269Y-46251D01*
X255540Y-46086D01*
X255751Y-45891D01*
X255902Y-45666D01*
X255993Y-45411D01*
X256024Y-45126D01*
X256012Y-50488D01*
D02*
G37*
G36*
X175217Y-48862D02*
X175171Y-48922D01*
X175131Y-49022D01*
X175096Y-49162D01*
X175067Y-49342D01*
X175043Y-49562D01*
X175003Y-50462D01*
X175000Y-50842D01*
X173000D01*
X172997Y-50462D01*
X172904Y-49162D01*
X172869Y-49022D01*
X172829Y-48922D01*
X172783Y-48862D01*
X172732Y-48842D01*
X175268D01*
X175217Y-48862D01*
D02*
G37*
G36*
X250807Y-49626D02*
X250235Y-49641D01*
X249724Y-49686D01*
X249272Y-49761D01*
X248881Y-49866D01*
X248550Y-50001D01*
X248279Y-50166D01*
X248068Y-50361D01*
X247917Y-50586D01*
X247826Y-50841D01*
X247795Y-51126D01*
X247807Y-46638D01*
X250807Y-46626D01*
Y-49626D01*
D02*
G37*
G36*
X69658Y-50923D02*
X69674Y-51092D01*
X69699Y-51243D01*
X69734Y-51372D01*
X69779Y-51482D01*
X69833Y-51573D01*
X69898Y-51643D01*
X69973Y-51692D01*
X70059Y-51723D01*
X70153Y-51732D01*
X68154D01*
X68248Y-51723D01*
X68334Y-51692D01*
X68409Y-51643D01*
X68474Y-51573D01*
X68528Y-51482D01*
X68573Y-51372D01*
X68608Y-51243D01*
X68634Y-51092D01*
X68648Y-50923D01*
X68654Y-50732D01*
X69653D01*
X69658Y-50923D01*
D02*
G37*
G36*
X260829Y-46240D02*
X260753Y-46525D01*
X260760Y-46849D01*
X260848Y-47213D01*
X261019Y-47618D01*
X261273Y-48062D01*
X261608Y-48546D01*
X262026Y-49070D01*
X262527Y-49634D01*
X263109Y-50238D01*
X261238Y-52609D01*
X260612Y-52004D01*
X259493Y-51056D01*
X259002Y-50713D01*
X258555Y-50457D01*
X258153Y-50288D01*
X257796Y-50207D01*
X257485Y-50213D01*
X257218Y-50307D01*
X256995Y-50488D01*
X260988Y-45995D01*
X260829Y-46240D01*
D02*
G37*
G36*
X38855Y-51461D02*
X38905Y-51501D01*
X38970Y-51536D01*
X39051Y-51567D01*
X39146Y-51593D01*
X39257Y-51614D01*
X39382Y-51630D01*
X39678Y-51649D01*
X39849Y-51652D01*
Y-52652D01*
X39745Y-52654D01*
X39654Y-52663D01*
X39574Y-52678D01*
X39506Y-52698D01*
X39449Y-52724D01*
X39404Y-52755D01*
X39371Y-52793D01*
X39349Y-52836D01*
X39339Y-52885D01*
X39340Y-52940D01*
X38819Y-51417D01*
X38855Y-51461D01*
D02*
G37*
G36*
X73667Y-52095D02*
X73698Y-52180D01*
X73748Y-52255D01*
X73819Y-52320D01*
X73910Y-52375D01*
X74021Y-52420D01*
X74153Y-52455D01*
X74305Y-52480D01*
X74477Y-52495D01*
X74669Y-52500D01*
Y-53500D01*
X74477Y-53505D01*
X74305Y-53520D01*
X74153Y-53545D01*
X74021Y-53580D01*
X73910Y-53625D01*
X73819Y-53680D01*
X73748Y-53745D01*
X73698Y-53820D01*
X73667Y-53905D01*
X73657Y-54000D01*
Y-52000D01*
X73667Y-52095D01*
D02*
G37*
G36*
X196906Y-53673D02*
X196901Y-54524D01*
X196701Y-57564D01*
X196638Y-57726D01*
X196567Y-57790D01*
X196488Y-57756D01*
X192405Y-56524D01*
X192691Y-56575D01*
X192946Y-56548D01*
X193170Y-56443D01*
X193366Y-56259D01*
X193530Y-55997D01*
X193666Y-55657D01*
X193771Y-55238D01*
X193845Y-54741D01*
X193891Y-54166D01*
X193905Y-53512D01*
X196906Y-53673D01*
D02*
G37*
G36*
X80851Y-57423D02*
X80866Y-57592D01*
X80891Y-57743D01*
X80926Y-57872D01*
X80971Y-57982D01*
X81026Y-58073D01*
X81091Y-58143D01*
X81166Y-58192D01*
X81251Y-58223D01*
X81346Y-58232D01*
X79346D01*
X79441Y-58223D01*
X79526Y-58192D01*
X79601Y-58143D01*
X79666Y-58073D01*
X79721Y-57982D01*
X79766Y-57872D01*
X79801Y-57743D01*
X79826Y-57592D01*
X79841Y-57423D01*
X79846Y-57232D01*
X80846D01*
X80851Y-57423D01*
D02*
G37*
G36*
X178162Y-55484D02*
X178884Y-56094D01*
X179206Y-56317D01*
X179502Y-56487D01*
X179771Y-56603D01*
X180015Y-56664D01*
X180233Y-56671D01*
X180425Y-56625D01*
X180590Y-56524D01*
X177524Y-59090D01*
X177647Y-58947D01*
X177711Y-58773D01*
X177716Y-58568D01*
X177662Y-58331D01*
X177549Y-58064D01*
X177377Y-57766D01*
X177146Y-57436D01*
X176856Y-57076D01*
X176098Y-56262D01*
X177762Y-55098D01*
X178162Y-55484D01*
D02*
G37*
G36*
X246676Y-57950D02*
X246538Y-58216D01*
X246482Y-58349D01*
X246435Y-58483D01*
X246396Y-58616D01*
X246366Y-58750D01*
X246344Y-58884D01*
X246331Y-59018D01*
X246327Y-59152D01*
X245327Y-59390D01*
X245321Y-59247D01*
X245302Y-59111D01*
X245271Y-58982D01*
X245228Y-58860D01*
X245172Y-58745D01*
X245104Y-58637D01*
X245024Y-58536D01*
X244931Y-58442D01*
X244826Y-58355D01*
X244709Y-58274D01*
X246758Y-57817D01*
X246676Y-57950D01*
D02*
G37*
G36*
X40802Y-60405D02*
X40693Y-60540D01*
X40573Y-60736D01*
X40442Y-60995D01*
X40145Y-61699D01*
X39804Y-62652D01*
X39206Y-64548D01*
X36632Y-59675D01*
X37144Y-59825D01*
X37624Y-59937D01*
X38073Y-60012D01*
X38489Y-60049D01*
X38873Y-60048D01*
X39226Y-60009D01*
X39546Y-59933D01*
X39834Y-59819D01*
X40091Y-59667D01*
X40315Y-59478D01*
X40802Y-60405D01*
D02*
G37*
G36*
X81514Y-58595D02*
X81544Y-58680D01*
X81595Y-58755D01*
X81665Y-58820D01*
X81757Y-58875D01*
X81868Y-58920D01*
X81999Y-58955D01*
X82151Y-58980D01*
X82323Y-58995D01*
X82516Y-59000D01*
Y-60000D01*
X82323Y-60005D01*
X82151Y-60020D01*
X81999Y-60045D01*
X81868Y-60080D01*
X81757Y-60125D01*
X81665Y-60180D01*
X81595Y-60245D01*
X81544Y-60320D01*
X81514Y-60405D01*
X81503Y-60500D01*
Y-58500D01*
X81514Y-58595D01*
D02*
G37*
G36*
X75843Y-60500D02*
X75833Y-60405D01*
X75802Y-60320D01*
X75752Y-60245D01*
X75681Y-60180D01*
X75590Y-60125D01*
X75479Y-60080D01*
X75347Y-60045D01*
X75195Y-60020D01*
X75023Y-60005D01*
X74831Y-60000D01*
Y-59000D01*
X75023Y-58995D01*
X75195Y-58980D01*
X75347Y-58955D01*
X75479Y-58920D01*
X75590Y-58875D01*
X75681Y-58820D01*
X75752Y-58755D01*
X75802Y-58680D01*
X75833Y-58595D01*
X75843Y-58500D01*
Y-60500D01*
D02*
G37*
G36*
X71456Y-58595D02*
X71486Y-58680D01*
X71537Y-58755D01*
X71608Y-58820D01*
X71699Y-58875D01*
X71810Y-58920D01*
X71942Y-58955D01*
X72093Y-58980D01*
X72265Y-58995D01*
X72458Y-59000D01*
Y-60000D01*
X72265Y-60005D01*
X72093Y-60020D01*
X71942Y-60045D01*
X71810Y-60080D01*
X71699Y-60125D01*
X71608Y-60180D01*
X71537Y-60245D01*
X71486Y-60320D01*
X71456Y-60405D01*
X71446Y-60500D01*
Y-58500D01*
X71456Y-58595D01*
D02*
G37*
G36*
X65785Y-60500D02*
X65775Y-60405D01*
X65745Y-60320D01*
X65694Y-60245D01*
X65623Y-60180D01*
X65532Y-60125D01*
X65421Y-60080D01*
X65289Y-60045D01*
X65137Y-60020D01*
X64965Y-60005D01*
X64773Y-60000D01*
Y-59000D01*
X64965Y-58995D01*
X65137Y-58980D01*
X65289Y-58955D01*
X65421Y-58920D01*
X65532Y-58875D01*
X65623Y-58820D01*
X65694Y-58755D01*
X65745Y-58680D01*
X65775Y-58595D01*
X65785Y-58500D01*
Y-60500D01*
D02*
G37*
G36*
X61398Y-58595D02*
X61428Y-58680D01*
X61479Y-58755D01*
X61550Y-58820D01*
X61641Y-58875D01*
X61752Y-58920D01*
X61884Y-58955D01*
X62036Y-58980D01*
X62208Y-58995D01*
X62400Y-59000D01*
Y-60000D01*
X62208Y-60005D01*
X62036Y-60020D01*
X61884Y-60045D01*
X61752Y-60080D01*
X61641Y-60125D01*
X61550Y-60180D01*
X61479Y-60245D01*
X61428Y-60320D01*
X61398Y-60405D01*
X61388Y-60500D01*
Y-58500D01*
X61398Y-58595D01*
D02*
G37*
G36*
X55727Y-60500D02*
X55717Y-60405D01*
X55687Y-60320D01*
X55636Y-60245D01*
X55566Y-60180D01*
X55474Y-60125D01*
X55363Y-60080D01*
X55231Y-60045D01*
X55080Y-60020D01*
X54908Y-60005D01*
X54715Y-60000D01*
Y-59000D01*
X54908Y-58995D01*
X55080Y-58980D01*
X55231Y-58955D01*
X55363Y-58920D01*
X55474Y-58875D01*
X55566Y-58820D01*
X55636Y-58755D01*
X55687Y-58680D01*
X55717Y-58595D01*
X55727Y-58500D01*
Y-60500D01*
D02*
G37*
G36*
X51340Y-58595D02*
X51371Y-58680D01*
X51421Y-58755D01*
X51492Y-58820D01*
X51583Y-58875D01*
X51695Y-58920D01*
X51826Y-58955D01*
X51978Y-58980D01*
X52150Y-58995D01*
X52342Y-59000D01*
Y-60000D01*
X52150Y-60005D01*
X51978Y-60020D01*
X51826Y-60045D01*
X51695Y-60080D01*
X51583Y-60125D01*
X51492Y-60180D01*
X51421Y-60245D01*
X51371Y-60320D01*
X51340Y-60405D01*
X51330Y-60500D01*
Y-58500D01*
X51340Y-58595D01*
D02*
G37*
G36*
X45670Y-60500D02*
X45660Y-60405D01*
X45629Y-60320D01*
X45579Y-60245D01*
X45508Y-60180D01*
X45417Y-60125D01*
X45305Y-60080D01*
X45174Y-60045D01*
X45022Y-60020D01*
X44850Y-60005D01*
X44658Y-60000D01*
Y-59000D01*
X44850Y-58995D01*
X45022Y-58980D01*
X45174Y-58955D01*
X45305Y-58920D01*
X45417Y-58875D01*
X45508Y-58820D01*
X45579Y-58755D01*
X45629Y-58680D01*
X45660Y-58595D01*
X45670Y-58500D01*
Y-60500D01*
D02*
G37*
G36*
X268773Y-55880D02*
X269103Y-56147D01*
X269461Y-56397D01*
X269845Y-56632D01*
X270256Y-56852D01*
X270694Y-57055D01*
X271650Y-57413D01*
X272168Y-57569D01*
X272713Y-57708D01*
X266817Y-61273D01*
X266920Y-60790D01*
X266978Y-60323D01*
X266990Y-59873D01*
X266956Y-59438D01*
X266877Y-59019D01*
X266752Y-58617D01*
X266581Y-58230D01*
X266365Y-57859D01*
X266102Y-57505D01*
X265795Y-57166D01*
X268469Y-55597D01*
X268773Y-55880D01*
D02*
G37*
G36*
X67847Y-60766D02*
X67762Y-60796D01*
X67687Y-60847D01*
X67622Y-60917D01*
X67567Y-61009D01*
X67522Y-61120D01*
X67487Y-61251D01*
X67462Y-61403D01*
X67447Y-61575D01*
X67442Y-61768D01*
X66442D01*
X66437Y-61575D01*
X66422Y-61403D01*
X66397Y-61251D01*
X66362Y-61120D01*
X66317Y-61009D01*
X66262Y-60917D01*
X66197Y-60847D01*
X66122Y-60796D01*
X66037Y-60766D01*
X65942Y-60755D01*
X67942D01*
X67847Y-60766D01*
D02*
G37*
G36*
X90090Y-62264D02*
X90103Y-62424D01*
X90124Y-62564D01*
X90154Y-62686D01*
X90192Y-62789D01*
X90239Y-62874D01*
X90295Y-62940D01*
X90359Y-62986D01*
X90431Y-63015D01*
X90512Y-63024D01*
X88660D01*
X88741Y-63015D01*
X88813Y-62986D01*
X88877Y-62940D01*
X88932Y-62874D01*
X88979Y-62789D01*
X89018Y-62686D01*
X89047Y-62564D01*
X89069Y-62424D01*
X89082Y-62264D01*
X89086Y-62086D01*
X90086D01*
X90090Y-62264D01*
D02*
G37*
G36*
X194800Y-60102D02*
X194789Y-60202D01*
X194772Y-60579D01*
X194769Y-60974D01*
X195741D01*
X195553Y-60999D01*
X195385Y-61074D01*
X195236Y-61200D01*
X195107Y-61376D01*
X194998Y-61602D01*
X194909Y-61879D01*
X194839Y-62206D01*
X194790Y-62583D01*
X194760Y-63010D01*
X194750Y-63488D01*
X192750D01*
X192740Y-63010D01*
X192661Y-62206D01*
X192591Y-61879D01*
X192502Y-61602D01*
X192393Y-61376D01*
X192264Y-61200D01*
X192115Y-61074D01*
X191947Y-60999D01*
X191759Y-60974D01*
X192707D01*
X192689Y-60060D01*
X194811D01*
X194800Y-60102D01*
D02*
G37*
G36*
X246332Y-63925D02*
X246347Y-64097D01*
X246372Y-64249D01*
X246407Y-64380D01*
X246452Y-64491D01*
X246507Y-64583D01*
X246572Y-64653D01*
X246647Y-64704D01*
X246732Y-64734D01*
X246827Y-64745D01*
X244827D01*
X244922Y-64734D01*
X245007Y-64704D01*
X245082Y-64653D01*
X245147Y-64583D01*
X245202Y-64491D01*
X245247Y-64380D01*
X245282Y-64249D01*
X245307Y-64097D01*
X245322Y-63925D01*
X245327Y-63732D01*
X246327D01*
X246332Y-63925D01*
D02*
G37*
G36*
X91804Y-65378D02*
X91830Y-65442D01*
X91875Y-65498D01*
X91937Y-65546D01*
X92016Y-65588D01*
X92114Y-65621D01*
X92229Y-65647D01*
X92362Y-65666D01*
X92513Y-65677D01*
X92681Y-65681D01*
Y-66681D01*
X92513Y-66685D01*
X92229Y-66715D01*
X92114Y-66741D01*
X92016Y-66775D01*
X91937Y-66816D01*
X91875Y-66865D01*
X91830Y-66921D01*
X91804Y-66984D01*
X91795Y-67055D01*
Y-65307D01*
X91804Y-65378D01*
D02*
G37*
G36*
X250078Y-67277D02*
X249993Y-67308D01*
X249918Y-67357D01*
X249853Y-67427D01*
X249798Y-67518D01*
X249753Y-67628D01*
X249718Y-67757D01*
X249693Y-67908D01*
X249678Y-68077D01*
X249673Y-68268D01*
X248673D01*
X248668Y-68077D01*
X248653Y-67908D01*
X248628Y-67757D01*
X248593Y-67628D01*
X248548Y-67518D01*
X248493Y-67427D01*
X248428Y-67357D01*
X248353Y-67308D01*
X248268Y-67277D01*
X248173Y-67268D01*
X250173D01*
X250078Y-67277D01*
D02*
G37*
G36*
X56292Y-68898D02*
X56282Y-68803D01*
X56252Y-68718D01*
X56201Y-68643D01*
X56132Y-68578D01*
X56042Y-68523D01*
X55932Y-68478D01*
X55801Y-68443D01*
X55651Y-68418D01*
X55481Y-68403D01*
X55291Y-68398D01*
Y-67398D01*
X55481Y-67393D01*
X55651Y-67378D01*
X55801Y-67353D01*
X55932Y-67318D01*
X56042Y-67273D01*
X56132Y-67218D01*
X56201Y-67153D01*
X56252Y-67078D01*
X56282Y-66993D01*
X56292Y-66898D01*
Y-68898D01*
D02*
G37*
G36*
X51073Y-66993D02*
X51103Y-67078D01*
X51154Y-67153D01*
X51224Y-67218D01*
X51316Y-67273D01*
X51427Y-67318D01*
X51559Y-67353D01*
X51710Y-67378D01*
X51882Y-67393D01*
X52075Y-67398D01*
Y-68398D01*
X51882Y-68403D01*
X51710Y-68418D01*
X51559Y-68443D01*
X51427Y-68478D01*
X51316Y-68523D01*
X51224Y-68578D01*
X51154Y-68643D01*
X51103Y-68718D01*
X51073Y-68803D01*
X51063Y-68898D01*
Y-66898D01*
X51073Y-66993D01*
D02*
G37*
G36*
X45402Y-68898D02*
X45392Y-68803D01*
X45362Y-68718D01*
X45311Y-68643D01*
X45240Y-68578D01*
X45149Y-68523D01*
X45038Y-68478D01*
X44906Y-68443D01*
X44754Y-68418D01*
X44582Y-68403D01*
X44390Y-68398D01*
Y-67398D01*
X44582Y-67393D01*
X44754Y-67378D01*
X44906Y-67353D01*
X45038Y-67318D01*
X45149Y-67273D01*
X45240Y-67218D01*
X45311Y-67153D01*
X45362Y-67078D01*
X45392Y-66993D01*
X45402Y-66898D01*
Y-68898D01*
D02*
G37*
G36*
X42115Y-66978D02*
X42235Y-67066D01*
X42357Y-67144D01*
X42481Y-67211D01*
X42608Y-67268D01*
X42736Y-67315D01*
X42867Y-67351D01*
X43001Y-67377D01*
X43136Y-67392D01*
X43274Y-67398D01*
X43346Y-68398D01*
X43206Y-68403D01*
X43070Y-68421D01*
X42938Y-68449D01*
X42811Y-68490D01*
X42688Y-68542D01*
X42570Y-68605D01*
X42456Y-68680D01*
X42346Y-68767D01*
X42241Y-68865D01*
X42140Y-68975D01*
X41997Y-66879D01*
X42115Y-66978D01*
D02*
G37*
G36*
X50810Y-69175D02*
X50726Y-69205D01*
X50651Y-69255D01*
X50586Y-69325D01*
X50530Y-69415D01*
X50485Y-69525D01*
X50450Y-69655D01*
X50425Y-69805D01*
X50410Y-69975D01*
X50406Y-70165D01*
X49406D01*
X49400Y-69975D01*
X49385Y-69805D01*
X49360Y-69655D01*
X49325Y-69525D01*
X49281Y-69415D01*
X49226Y-69325D01*
X49161Y-69255D01*
X49086Y-69205D01*
X49000Y-69175D01*
X48906Y-69165D01*
X50906D01*
X50810Y-69175D01*
D02*
G37*
G36*
X249678Y-69925D02*
X249693Y-70097D01*
X249718Y-70249D01*
X249753Y-70380D01*
X249798Y-70491D01*
X249853Y-70582D01*
X249918Y-70653D01*
X249993Y-70704D01*
X250078Y-70734D01*
X250173Y-70745D01*
X248173D01*
X248268Y-70734D01*
X248353Y-70704D01*
X248428Y-70653D01*
X248493Y-70582D01*
X248548Y-70491D01*
X248593Y-70380D01*
X248628Y-70249D01*
X248653Y-70097D01*
X248668Y-69925D01*
X248673Y-69732D01*
X249673D01*
X249678Y-69925D01*
D02*
G37*
G36*
X72052Y-71040D02*
X72042Y-70959D01*
X72014Y-70886D01*
X71967Y-70822D01*
X71901Y-70767D01*
X71817Y-70720D01*
X71714Y-70682D01*
X71592Y-70652D01*
X71451Y-70630D01*
X71292Y-70618D01*
X71113Y-70613D01*
Y-69613D01*
X71292Y-69609D01*
X71451Y-69596D01*
X71592Y-69575D01*
X71714Y-69545D01*
X71817Y-69507D01*
X71901Y-69460D01*
X71967Y-69405D01*
X72014Y-69341D01*
X72042Y-69268D01*
X72052Y-69187D01*
Y-71040D01*
D02*
G37*
G36*
X83560Y-70897D02*
X83548Y-70920D01*
X83536Y-70953D01*
X83527Y-70998D01*
X83519Y-71053D01*
X83507Y-71196D01*
X83500Y-71492D01*
X82500D01*
X82499Y-71382D01*
X82473Y-70998D01*
X82464Y-70953D01*
X82452Y-70920D01*
X82440Y-70897D01*
X82426Y-70886D01*
X83574D01*
X83560Y-70897D01*
D02*
G37*
G36*
X127041Y-70590D02*
X127032Y-70625D01*
X127024Y-70677D01*
X127013Y-70832D01*
X127000Y-71347D01*
X127000Y-71518D01*
X125000D01*
X124950Y-70571D01*
X127050D01*
X127041Y-70590D01*
D02*
G37*
G36*
X50410Y-71925D02*
X50425Y-72097D01*
X50450Y-72249D01*
X50485Y-72380D01*
X50530Y-72492D01*
X50586Y-72583D01*
X50651Y-72653D01*
X50726Y-72704D01*
X50810Y-72734D01*
X50906Y-72745D01*
X48906D01*
X49000Y-72734D01*
X49086Y-72704D01*
X49161Y-72653D01*
X49226Y-72583D01*
X49281Y-72492D01*
X49325Y-72380D01*
X49360Y-72249D01*
X49385Y-72097D01*
X49400Y-71925D01*
X49406Y-71732D01*
X50406D01*
X50410Y-71925D01*
D02*
G37*
G36*
X246355Y-73255D02*
X246306Y-73235D01*
X246227Y-73250D01*
X246120Y-73302D01*
X245984Y-73390D01*
X245819Y-73515D01*
X245402Y-73873D01*
X244769Y-74480D01*
X244831Y-75107D01*
X244886Y-75367D01*
X244957Y-75587D01*
X245043Y-75767D01*
X245146Y-75907D01*
X245264Y-76007D01*
X245397Y-76067D01*
X245547Y-76087D01*
X241973D01*
X242122Y-76067D01*
X242256Y-76007D01*
X242374Y-75907D01*
X242476Y-75767D01*
X242563Y-75587D01*
X242634Y-75367D01*
X242689Y-75107D01*
X242728Y-74807D01*
X242752Y-74467D01*
X242760Y-74087D01*
X244042D01*
X243244Y-73169D01*
X243546Y-72863D01*
X244525Y-71754D01*
X244615Y-71617D01*
X244669Y-71508D01*
X244687Y-71426D01*
X244670Y-71373D01*
X246355Y-73255D01*
D02*
G37*
G36*
X135445Y-72681D02*
X135352Y-72793D01*
X135269Y-72909D01*
X135198Y-73029D01*
X135137Y-73151D01*
X135088Y-73277D01*
X135049Y-73407D01*
X135022Y-73539D01*
X135005Y-73675D01*
X135000Y-73814D01*
X134000D01*
X133994Y-73675D01*
X133978Y-73539D01*
X133950Y-73407D01*
X133912Y-73277D01*
X133862Y-73151D01*
X133802Y-73029D01*
X133730Y-72909D01*
X133648Y-72793D01*
X133554Y-72681D01*
X133450Y-72571D01*
X135550D01*
X135445Y-72681D01*
D02*
G37*
G36*
X250279Y-71836D02*
X250256Y-71930D01*
X250259Y-72038D01*
X250290Y-72160D01*
X250348Y-72294D01*
X250434Y-72443D01*
X250547Y-72604D01*
X250687Y-72779D01*
X251049Y-73169D01*
X250441Y-73975D01*
X250230Y-73771D01*
X249855Y-73452D01*
X249691Y-73336D01*
X249542Y-73249D01*
X249408Y-73192D01*
X249290Y-73164D01*
X249186Y-73165D01*
X249099Y-73196D01*
X249027Y-73255D01*
X250330Y-71755D01*
X250279Y-71836D01*
D02*
G37*
G36*
X84679Y-72457D02*
X85048Y-72770D01*
X85211Y-72885D01*
X85360Y-72971D01*
X85494Y-73029D01*
X85614Y-73058D01*
X85719Y-73059D01*
X85810Y-73032D01*
X85887Y-72977D01*
X84485Y-74379D01*
X84540Y-74302D01*
X84567Y-74211D01*
X84566Y-74106D01*
X84536Y-73986D01*
X84479Y-73852D01*
X84392Y-73703D01*
X84278Y-73540D01*
X84136Y-73363D01*
X83766Y-72965D01*
X84473Y-72258D01*
X84679Y-72457D01*
D02*
G37*
G36*
X127010Y-73300D02*
X127040Y-73646D01*
X127090Y-73951D01*
X127159Y-74216D01*
X127249Y-74440D01*
X127358Y-74623D01*
X127488Y-74766D01*
X127637Y-74869D01*
X127806Y-74931D01*
X127995Y-74952D01*
X124000Y-74926D01*
X124190Y-74907D01*
X124360Y-74848D01*
X124510Y-74748D01*
X124640Y-74607D01*
X124750Y-74427D01*
X124840Y-74205D01*
X124910Y-73943D01*
X124960Y-73641D01*
X124990Y-73298D01*
X125000Y-72914D01*
X127000D01*
X127010Y-73300D01*
D02*
G37*
G36*
X45402Y-75000D02*
X45392Y-74905D01*
X45362Y-74820D01*
X45311Y-74745D01*
X45240Y-74680D01*
X45149Y-74625D01*
X45038Y-74580D01*
X44906Y-74545D01*
X44754Y-74520D01*
X44582Y-74505D01*
X44390Y-74500D01*
Y-73500D01*
X44582Y-73495D01*
X44754Y-73480D01*
X44906Y-73455D01*
X45038Y-73420D01*
X45149Y-73375D01*
X45240Y-73320D01*
X45311Y-73255D01*
X45362Y-73180D01*
X45392Y-73095D01*
X45402Y-73000D01*
Y-75000D01*
D02*
G37*
G36*
X135005Y-75177D02*
X135020Y-75349D01*
X135045Y-75501D01*
X135080Y-75632D01*
X135125Y-75743D01*
X135180Y-75835D01*
X135245Y-75905D01*
X135320Y-75956D01*
X135405Y-75986D01*
X135500Y-75996D01*
X133500D01*
X133595Y-75986D01*
X133680Y-75956D01*
X133755Y-75905D01*
X133820Y-75835D01*
X133875Y-75743D01*
X133920Y-75632D01*
X133955Y-75501D01*
X133980Y-75349D01*
X133995Y-75177D01*
X134000Y-74984D01*
X135000D01*
X135005Y-75177D01*
D02*
G37*
G36*
X251745Y-75277D02*
X251760Y-75447D01*
X251785Y-75597D01*
X251820Y-75727D01*
X251865Y-75837D01*
X251920Y-75927D01*
X251985Y-75997D01*
X252060Y-76047D01*
X252145Y-76077D01*
X252240Y-76087D01*
X250240D01*
X250335Y-76077D01*
X250420Y-76047D01*
X250495Y-75997D01*
X250560Y-75927D01*
X250615Y-75837D01*
X250660Y-75727D01*
X250695Y-75597D01*
X250720Y-75447D01*
X250735Y-75277D01*
X250740Y-75087D01*
X251740D01*
X251745Y-75277D01*
D02*
G37*
G36*
X38961Y-71564D02*
X39628Y-72329D01*
X39950Y-72639D01*
X40265Y-72902D01*
X40573Y-73118D01*
X40874Y-73285D01*
X41167Y-73404D01*
X41453Y-73476D01*
X41732Y-73500D01*
X41583Y-74500D01*
X41356Y-74521D01*
X41095Y-74582D01*
X40802Y-74686D01*
X40475Y-74830D01*
X40114Y-75015D01*
X39293Y-75510D01*
X38339Y-76170D01*
X37812Y-76562D01*
X38617Y-71109D01*
X38961Y-71564D01*
D02*
G37*
G36*
X261009Y-71131D02*
X261073Y-71511D01*
X261179Y-71896D01*
X261327Y-72286D01*
X261518Y-72682D01*
X261752Y-73083D01*
X262027Y-73489D01*
X262346Y-73900D01*
X262706Y-74316D01*
X263109Y-74738D01*
X261238Y-77109D01*
X260816Y-76706D01*
X259989Y-76027D01*
X259583Y-75752D01*
X259182Y-75518D01*
X258786Y-75327D01*
X258396Y-75179D01*
X258011Y-75073D01*
X257631Y-75009D01*
X257256Y-74988D01*
X260988Y-70756D01*
X261009Y-71131D01*
D02*
G37*
G36*
X142278Y-75987D02*
X142307Y-75990D01*
X142517Y-75996D01*
X143268Y-76000D01*
Y-77000D01*
X143078Y-77005D01*
X142908Y-77020D01*
X142757Y-77045D01*
X142628Y-77080D01*
X142517Y-77125D01*
X142428Y-77180D01*
X142358Y-77245D01*
X142307Y-77320D01*
X142278Y-77405D01*
X142268Y-77500D01*
Y-75984D01*
X142278Y-75987D01*
D02*
G37*
G36*
X146929Y-77550D02*
X146819Y-77446D01*
X146706Y-77352D01*
X146590Y-77270D01*
X146471Y-77198D01*
X146349Y-77138D01*
X146222Y-77088D01*
X146093Y-77049D01*
X145961Y-77022D01*
X145825Y-77005D01*
X145686Y-77000D01*
Y-76000D01*
X145825Y-75994D01*
X145961Y-75978D01*
X146093Y-75950D01*
X146222Y-75912D01*
X146349Y-75862D01*
X146471Y-75802D01*
X146590Y-75731D01*
X146706Y-75648D01*
X146819Y-75555D01*
X146929Y-75450D01*
Y-77550D01*
D02*
G37*
G36*
X95515Y-75646D02*
X95521Y-75689D01*
X95546Y-75746D01*
X95589Y-75817D01*
X95651Y-75902D01*
X95829Y-76114D01*
X96081Y-76383D01*
X96196Y-76500D01*
X96325Y-76494D01*
X96461Y-76478D01*
X96593Y-76451D01*
X96723Y-76412D01*
X96848Y-76363D01*
X96971Y-76302D01*
X97091Y-76231D01*
X97207Y-76148D01*
X97319Y-76055D01*
X97429Y-75950D01*
Y-78050D01*
X97319Y-77946D01*
X97207Y-77852D01*
X97091Y-77770D01*
X96971Y-77698D01*
X96848Y-77637D01*
X96723Y-77588D01*
X96593Y-77549D01*
X96461Y-77522D01*
X96325Y-77505D01*
X96186Y-77500D01*
Y-76588D01*
X95527Y-77246D01*
X95372Y-77093D01*
X94805Y-76601D01*
X94734Y-76558D01*
X94677Y-76533D01*
X94634Y-76527D01*
X94606Y-76539D01*
X95527Y-75618D01*
X95515Y-75646D01*
D02*
G37*
G36*
X237990Y-76866D02*
X238019Y-76867D01*
X238891Y-76874D01*
X239119Y-78874D01*
X238948Y-78875D01*
X238271Y-78914D01*
X238216Y-78927D01*
X238177Y-78941D01*
X238156Y-78956D01*
X237979Y-76864D01*
X237990Y-76866D01*
D02*
G37*
G36*
X241973Y-79661D02*
X241953Y-79512D01*
X241893Y-79378D01*
X241793Y-79260D01*
X241653Y-79157D01*
X241473Y-79071D01*
X241253Y-79000D01*
X240993Y-78945D01*
X240693Y-78905D01*
X240353Y-78882D01*
X239973Y-78874D01*
Y-76874D01*
X240353Y-76866D01*
X240993Y-76803D01*
X241253Y-76748D01*
X241473Y-76677D01*
X241653Y-76591D01*
X241793Y-76488D01*
X241893Y-76370D01*
X241953Y-76236D01*
X241973Y-76087D01*
Y-79661D01*
D02*
G37*
G36*
X139744Y-81500D02*
X139734Y-81405D01*
X139704Y-81320D01*
X139653Y-81245D01*
X139583Y-81180D01*
X139491Y-81125D01*
X139380Y-81080D01*
X139249Y-81045D01*
X139097Y-81020D01*
X138925Y-81005D01*
X138733Y-81000D01*
Y-80000D01*
X138925Y-79995D01*
X139097Y-79980D01*
X139249Y-79955D01*
X139380Y-79920D01*
X139491Y-79875D01*
X139583Y-79820D01*
X139653Y-79755D01*
X139704Y-79680D01*
X139734Y-79595D01*
X139744Y-79500D01*
Y-81500D01*
D02*
G37*
G36*
X135777Y-79595D02*
X135808Y-79680D01*
X135857Y-79755D01*
X135927Y-79820D01*
X136018Y-79875D01*
X136127Y-79920D01*
X136258Y-79955D01*
X136407Y-79980D01*
X136577Y-79995D01*
X136767Y-80000D01*
Y-81000D01*
X136577Y-81005D01*
X136407Y-81020D01*
X136258Y-81045D01*
X136127Y-81080D01*
X136018Y-81125D01*
X135927Y-81180D01*
X135857Y-81245D01*
X135808Y-81320D01*
X135777Y-81405D01*
X135767Y-81500D01*
Y-79500D01*
X135777Y-79595D01*
D02*
G37*
G36*
X90245Y-81859D02*
X90364Y-82827D01*
X90245Y-82832D01*
Y-83327D01*
X90234Y-83232D01*
X90204Y-83147D01*
X90153Y-83072D01*
X90083Y-83007D01*
X89991Y-82952D01*
X89880Y-82907D01*
X89877Y-82906D01*
X89830Y-82922D01*
X89710Y-82975D01*
X89595Y-83040D01*
X89484Y-83117D01*
X89380Y-83206D01*
X89280Y-83307D01*
X89185Y-83419D01*
X88943Y-81333D01*
X89066Y-81427D01*
X89190Y-81511D01*
X89316Y-81585D01*
X89443Y-81649D01*
X89573Y-81703D01*
X89703Y-81748D01*
X89790Y-81771D01*
X89880Y-81747D01*
X89991Y-81702D01*
X90083Y-81647D01*
X90153Y-81582D01*
X90204Y-81507D01*
X90234Y-81422D01*
X90245Y-81327D01*
Y-81859D01*
D02*
G37*
G36*
X102594Y-81995D02*
X102583Y-81901D01*
X102552Y-81817D01*
X102499Y-81743D01*
X102425Y-81678D01*
X102330Y-81624D01*
X102213Y-81579D01*
X102076Y-81545D01*
X101917Y-81520D01*
X101737Y-81505D01*
X101536Y-81500D01*
Y-80500D01*
X101737Y-80495D01*
X101917Y-80480D01*
X102076Y-80455D01*
X102213Y-80421D01*
X102330Y-80376D01*
X102425Y-80322D01*
X102499Y-80257D01*
X102552Y-80183D01*
X102583Y-80099D01*
X102594Y-80005D01*
Y-81995D01*
D02*
G37*
G36*
X141905Y-81667D02*
X141820Y-81698D01*
X141745Y-81748D01*
X141680Y-81819D01*
X141625Y-81910D01*
X141580Y-82021D01*
X141545Y-82153D01*
X141520Y-82305D01*
X141505Y-82477D01*
X141500Y-82669D01*
X140500D01*
X140495Y-82477D01*
X140480Y-82305D01*
X140455Y-82153D01*
X140420Y-82021D01*
X140375Y-81910D01*
X140320Y-81819D01*
X140255Y-81748D01*
X140180Y-81698D01*
X140095Y-81667D01*
X140000Y-81657D01*
X142000D01*
X141905Y-81667D01*
D02*
G37*
G36*
X45433Y-84425D02*
X45423Y-84330D01*
X45393Y-84245D01*
X45342Y-84170D01*
X45272Y-84105D01*
X45180Y-84050D01*
X45069Y-84005D01*
X44938Y-83970D01*
X44786Y-83945D01*
X44614Y-83930D01*
X44421Y-83925D01*
Y-82925D01*
X44614Y-82920D01*
X44786Y-82905D01*
X44938Y-82880D01*
X45069Y-82845D01*
X45180Y-82800D01*
X45272Y-82745D01*
X45342Y-82680D01*
X45393Y-82605D01*
X45423Y-82520D01*
X45433Y-82425D01*
Y-84425D01*
D02*
G37*
G36*
X61577Y-82595D02*
X61607Y-82680D01*
X61658Y-82755D01*
X61729Y-82820D01*
X61820Y-82875D01*
X61931Y-82920D01*
X62062Y-82955D01*
X62214Y-82980D01*
X62386Y-82995D01*
X62578Y-83000D01*
Y-84000D01*
X62386Y-84005D01*
X62214Y-84020D01*
X62062Y-84045D01*
X61931Y-84080D01*
X61820Y-84125D01*
X61729Y-84180D01*
X61658Y-84245D01*
X61607Y-84320D01*
X61577Y-84405D01*
X61567Y-84500D01*
Y-82500D01*
X61577Y-82595D01*
D02*
G37*
G36*
X65440Y-85705D02*
X65111Y-85381D01*
X64490Y-84835D01*
X64198Y-84614D01*
X63917Y-84426D01*
X63648Y-84273D01*
X63390Y-84153D01*
X63145Y-84068D01*
X62911Y-84017D01*
X62690Y-84000D01*
Y-83000D01*
X62911Y-82983D01*
X63145Y-82932D01*
X63390Y-82847D01*
X63648Y-82727D01*
X63917Y-82574D01*
X64198Y-82386D01*
X64490Y-82165D01*
X65111Y-81619D01*
X65440Y-81295D01*
Y-85705D01*
D02*
G37*
G36*
X38677Y-81098D02*
X39859Y-82113D01*
X40214Y-82361D01*
X40550Y-82564D01*
X40867Y-82722D01*
X41164Y-82835D01*
X41442Y-82903D01*
X41700Y-82925D01*
Y-83925D01*
X41442Y-83948D01*
X41164Y-84015D01*
X40867Y-84128D01*
X40550Y-84286D01*
X40214Y-84489D01*
X39859Y-84737D01*
X39484Y-85031D01*
X38677Y-85752D01*
X38245Y-86181D01*
Y-80669D01*
X38677Y-81098D01*
D02*
G37*
G36*
X96245Y-86673D02*
X96234Y-86578D01*
X96204Y-86493D01*
X96153Y-86418D01*
X96083Y-86353D01*
X95991Y-86298D01*
X95880Y-86253D01*
X95749Y-86218D01*
X95597Y-86193D01*
X95425Y-86178D01*
X95232Y-86173D01*
Y-85173D01*
X95425Y-85168D01*
X95597Y-85153D01*
X95749Y-85128D01*
X95880Y-85093D01*
X95991Y-85048D01*
X96083Y-84993D01*
X96153Y-84928D01*
X96204Y-84853D01*
X96234Y-84768D01*
X96245Y-84673D01*
Y-86673D01*
D02*
G37*
G36*
X92778Y-84768D02*
X92808Y-84853D01*
X92857Y-84928D01*
X92927Y-84993D01*
X93018Y-85048D01*
X93128Y-85093D01*
X93257Y-85128D01*
X93407Y-85153D01*
X93577Y-85168D01*
X93767Y-85173D01*
Y-86173D01*
X93577Y-86178D01*
X93407Y-86193D01*
X93257Y-86218D01*
X93128Y-86253D01*
X93018Y-86298D01*
X92927Y-86353D01*
X92857Y-86418D01*
X92808Y-86493D01*
X92778Y-86578D01*
X92768Y-86673D01*
Y-84673D01*
X92778Y-84768D01*
D02*
G37*
G36*
X98778Y-85095D02*
X98808Y-85180D01*
X98857Y-85255D01*
X98927Y-85320D01*
X99018Y-85375D01*
X99128Y-85420D01*
X99257Y-85455D01*
X99408Y-85480D01*
X99577Y-85495D01*
X99768Y-85500D01*
Y-86500D01*
X99577Y-86503D01*
X99257Y-86531D01*
X99128Y-86555D01*
X99018Y-86586D01*
X98927Y-86623D01*
X98857Y-86668D01*
X98808Y-86719D01*
X98778Y-86777D01*
X98768Y-86842D01*
Y-85000D01*
X98778Y-85095D01*
D02*
G37*
G36*
X128086Y-85099D02*
X128118Y-85183D01*
X128171Y-85257D01*
X128245Y-85322D01*
X128340Y-85376D01*
X128456Y-85421D01*
X128594Y-85455D01*
X128752Y-85480D01*
X128932Y-85495D01*
X129133Y-85500D01*
Y-86500D01*
X128932Y-86505D01*
X128752Y-86520D01*
X128594Y-86545D01*
X128456Y-86579D01*
X128340Y-86624D01*
X128245Y-86678D01*
X128171Y-86743D01*
X128118Y-86817D01*
X128086Y-86901D01*
X128075Y-86995D01*
Y-85005D01*
X128086Y-85099D01*
D02*
G37*
G36*
X102594Y-86995D02*
X102583Y-86901D01*
X102552Y-86817D01*
X102499Y-86743D01*
X102425Y-86678D01*
X102330Y-86624D01*
X102213Y-86579D01*
X102076Y-86545D01*
X101917Y-86520D01*
X101737Y-86505D01*
X101536Y-86500D01*
Y-85500D01*
X101737Y-85495D01*
X101917Y-85480D01*
X102076Y-85455D01*
X102213Y-85421D01*
X102330Y-85376D01*
X102425Y-85322D01*
X102499Y-85257D01*
X102552Y-85183D01*
X102583Y-85099D01*
X102594Y-85005D01*
Y-86995D01*
D02*
G37*
G36*
X133232Y-85984D02*
X133245Y-87000D01*
X133233Y-86905D01*
X133202Y-86820D01*
X133151Y-86745D01*
X133080Y-86680D01*
X132989Y-86625D01*
X132877Y-86580D01*
X132746Y-86545D01*
X132595Y-86520D01*
X132424Y-86505D01*
X132232Y-86500D01*
Y-85500D01*
X133232Y-85984D01*
D02*
G37*
G36*
X92405Y-86840D02*
X92320Y-86871D01*
X92245Y-86921D01*
X92180Y-86992D01*
X92125Y-87083D01*
X92080Y-87195D01*
X92045Y-87326D01*
X92020Y-87478D01*
X92005Y-87650D01*
X92000Y-87842D01*
X91000D01*
X90995Y-87650D01*
X90980Y-87478D01*
X90955Y-87326D01*
X90920Y-87195D01*
X90875Y-87083D01*
X90820Y-86992D01*
X90755Y-86921D01*
X90680Y-86871D01*
X90595Y-86840D01*
X90500Y-86830D01*
X92500D01*
X92405Y-86840D01*
D02*
G37*
G36*
X256012Y-88488D02*
X255982Y-88253D01*
X255892Y-88042D01*
X255742Y-87857D01*
X255532Y-87696D01*
X255262Y-87559D01*
X254932Y-87448D01*
X254542Y-87361D01*
X254092Y-87300D01*
X253582Y-87262D01*
X253012Y-87250D01*
Y-84250D01*
X253582Y-84238D01*
X254542Y-84139D01*
X254932Y-84052D01*
X255262Y-83941D01*
X255532Y-83804D01*
X255742Y-83643D01*
X255892Y-83458D01*
X255982Y-83247D01*
X256012Y-83012D01*
Y-88488D01*
D02*
G37*
G36*
X69570Y-86077D02*
X69024Y-86699D01*
X68803Y-86991D01*
X68615Y-87272D01*
X68462Y-87541D01*
X68342Y-87799D01*
X68257Y-88044D01*
X68206Y-88278D01*
X68189Y-88499D01*
X67189D01*
X67172Y-88278D01*
X67121Y-88044D01*
X67036Y-87799D01*
X66916Y-87541D01*
X66763Y-87272D01*
X66575Y-86991D01*
X66354Y-86699D01*
X65808Y-86077D01*
X65484Y-85749D01*
X69894D01*
X69570Y-86077D01*
D02*
G37*
G36*
X252307Y-87250D02*
X251735Y-87265D01*
X251224Y-87310D01*
X250773Y-87385D01*
X250381Y-87490D01*
X250050Y-87625D01*
X249779Y-87790D01*
X249568Y-87985D01*
X249417Y-88210D01*
X249326Y-88465D01*
X249295Y-88750D01*
X249307Y-84638D01*
X252307Y-84250D01*
Y-87250D01*
D02*
G37*
G36*
X68194Y-89423D02*
X68209Y-89592D01*
X68234Y-89742D01*
X68269Y-89872D01*
X68314Y-89982D01*
X68369Y-90073D01*
X68434Y-90143D01*
X68509Y-90193D01*
X68594Y-90223D01*
X68689Y-90232D01*
X67484D01*
X67428Y-90223D01*
X67378Y-90193D01*
X67334Y-90143D01*
X67295Y-90073D01*
X67263Y-89982D01*
X67236Y-89872D01*
X67216Y-89742D01*
X67201Y-89592D01*
X67189Y-89232D01*
X68189D01*
X68194Y-89423D01*
D02*
G37*
G36*
X92005Y-89424D02*
X92020Y-89595D01*
X92045Y-89746D01*
X92080Y-89877D01*
X92125Y-89988D01*
X92180Y-90080D01*
X92245Y-90151D01*
X92320Y-90202D01*
X92405Y-90233D01*
X92500Y-90245D01*
X91484Y-90232D01*
X91392Y-90223D01*
X91310Y-90193D01*
X91237Y-90143D01*
X91174Y-90073D01*
X91121Y-89982D01*
X91078Y-89872D01*
X91044Y-89742D01*
X91019Y-89592D01*
X91005Y-89423D01*
X91000Y-89232D01*
X92000D01*
X92005Y-89424D01*
D02*
G37*
G36*
X260840Y-84251D02*
X260796Y-84567D01*
X260855Y-84944D01*
X261018Y-85383D01*
X261284Y-85883D01*
X261654Y-86444D01*
X262128Y-87066D01*
X263386Y-88493D01*
X264170Y-89299D01*
X262049Y-91420D01*
X261268Y-90661D01*
X259294Y-89004D01*
X258758Y-88659D01*
X258283Y-88418D01*
X257869Y-88280D01*
X257517Y-88246D01*
X257226Y-88315D01*
X256995Y-88488D01*
X260988Y-83995D01*
X260840Y-84251D01*
D02*
G37*
G36*
X135777Y-89595D02*
X135808Y-89680D01*
X135857Y-89755D01*
X135927Y-89820D01*
X136018Y-89875D01*
X136127Y-89920D01*
X136258Y-89955D01*
X136407Y-89980D01*
X136577Y-89995D01*
X136767Y-90000D01*
Y-91000D01*
X136577Y-91005D01*
X136407Y-91020D01*
X136258Y-91045D01*
X136127Y-91080D01*
X136018Y-91125D01*
X135927Y-91180D01*
X135857Y-91245D01*
X135808Y-91320D01*
X135777Y-91405D01*
X135767Y-91500D01*
Y-89500D01*
X135777Y-89595D01*
D02*
G37*
G36*
X133232Y-91669D02*
X133222Y-91637D01*
X133193Y-91608D01*
X133142Y-91583D01*
X133072Y-91561D01*
X132983Y-91542D01*
X132872Y-91527D01*
X132592Y-91507D01*
X132232Y-91500D01*
Y-90500D01*
X132424Y-90495D01*
X132596Y-90480D01*
X132747Y-90455D01*
X132878Y-90420D01*
X132990Y-90375D01*
X133081Y-90320D01*
X133152Y-90255D01*
X133203Y-90180D01*
X133234Y-90095D01*
X133245Y-90000D01*
X133232Y-91669D01*
D02*
G37*
G36*
X128086Y-90099D02*
X128118Y-90183D01*
X128171Y-90257D01*
X128245Y-90322D01*
X128340Y-90376D01*
X128456Y-90421D01*
X128594Y-90455D01*
X128752Y-90480D01*
X128932Y-90495D01*
X129133Y-90500D01*
Y-91500D01*
X128932Y-91505D01*
X128752Y-91520D01*
X128594Y-91545D01*
X128456Y-91579D01*
X128340Y-91624D01*
X128245Y-91678D01*
X128171Y-91743D01*
X128118Y-91817D01*
X128086Y-91901D01*
X128075Y-91995D01*
Y-90005D01*
X128086Y-90099D01*
D02*
G37*
G36*
X73167Y-90595D02*
X73198Y-90680D01*
X73248Y-90755D01*
X73319Y-90820D01*
X73410Y-90875D01*
X73521Y-90920D01*
X73653Y-90955D01*
X73805Y-90980D01*
X73977Y-90995D01*
X74169Y-91000D01*
Y-92000D01*
X73977Y-92005D01*
X73805Y-92020D01*
X73653Y-92045D01*
X73521Y-92080D01*
X73410Y-92125D01*
X73319Y-92180D01*
X73248Y-92245D01*
X73198Y-92320D01*
X73167Y-92405D01*
X73157Y-92500D01*
Y-90500D01*
X73167Y-90595D01*
D02*
G37*
G36*
X96905Y-92778D02*
X96820Y-92808D01*
X96745Y-92857D01*
X96680Y-92927D01*
X96625Y-93018D01*
X96580Y-93128D01*
X96545Y-93257D01*
X96520Y-93407D01*
X96505Y-93577D01*
X96500Y-93767D01*
X95500D01*
X95495Y-93577D01*
X95480Y-93407D01*
X95455Y-93257D01*
X95420Y-93128D01*
X95375Y-93018D01*
X95320Y-92927D01*
X95255Y-92857D01*
X95180Y-92808D01*
X95095Y-92778D01*
X95000Y-92768D01*
X97000D01*
X96905Y-92778D01*
D02*
G37*
G36*
X106810Y-92094D02*
X106640Y-92154D01*
X106490Y-92255D01*
X106360Y-92396D01*
X106250Y-92577D01*
X106160Y-92798D01*
X106090Y-93060D01*
X106040Y-93361D01*
X106010Y-93704D01*
X106000Y-94086D01*
X104000D01*
X103990Y-93704D01*
X103960Y-93361D01*
X103910Y-93060D01*
X103840Y-92798D01*
X103750Y-92577D01*
X103640Y-92396D01*
X103510Y-92255D01*
X103360Y-92154D01*
X103190Y-92094D01*
X103000Y-92074D01*
X107000D01*
X106810Y-92094D01*
D02*
G37*
G36*
X96500Y-94982D02*
X96504Y-95113D01*
X96531Y-95377D01*
X96556Y-95511D01*
X96625Y-95783D01*
X96670Y-95920D01*
X96781Y-96199D01*
X96847Y-96340D01*
X94867Y-95640D01*
X94987Y-95577D01*
X95095Y-95504D01*
X95190Y-95423D01*
X95272Y-95332D01*
X95342Y-95233D01*
X95399Y-95124D01*
X95443Y-95007D01*
X95475Y-94880D01*
X95494Y-94745D01*
X95500Y-94600D01*
X96500Y-94982D01*
D02*
G37*
G36*
X105823Y-96732D02*
X103484D01*
X103582Y-96712D01*
X103670Y-96653D01*
X103747Y-96552D01*
X103814Y-96412D01*
X103871Y-96232D01*
X103918Y-96013D01*
X103954Y-95753D01*
X103995Y-95113D01*
X104000Y-94732D01*
X106000D01*
X105823Y-96732D01*
D02*
G37*
G36*
X79178Y-95922D02*
X79193Y-96092D01*
X79218Y-96242D01*
X79253Y-96372D01*
X79298Y-96482D01*
X79353Y-96573D01*
X79418Y-96643D01*
X79493Y-96693D01*
X79578Y-96723D01*
X79673Y-96732D01*
X77673D01*
X77768Y-96723D01*
X77853Y-96693D01*
X77928Y-96643D01*
X77993Y-96573D01*
X78048Y-96482D01*
X78093Y-96372D01*
X78128Y-96242D01*
X78153Y-96092D01*
X78168Y-95922D01*
X78173Y-95732D01*
X79173D01*
X79178Y-95922D01*
D02*
G37*
G36*
X111840Y-98847D02*
X111699Y-98781D01*
X111420Y-98670D01*
X111283Y-98625D01*
X111011Y-98555D01*
X110877Y-98531D01*
X110612Y-98504D01*
X110482Y-98500D01*
X110169Y-97681D01*
Y-98500D01*
X109977Y-98505D01*
X109805Y-98520D01*
X109653Y-98545D01*
X109521Y-98580D01*
X109410Y-98625D01*
X109319Y-98680D01*
X109248Y-98745D01*
X109198Y-98820D01*
X109167Y-98905D01*
X109157Y-99000D01*
Y-97000D01*
X109167Y-97095D01*
X109198Y-97180D01*
X109248Y-97255D01*
X109319Y-97320D01*
X109410Y-97375D01*
X109521Y-97420D01*
X109653Y-97455D01*
X109805Y-97480D01*
X109977Y-97495D01*
X110126Y-97499D01*
X110245Y-97494D01*
X110380Y-97475D01*
X110507Y-97443D01*
X110624Y-97399D01*
X110733Y-97342D01*
X110832Y-97272D01*
X110923Y-97190D01*
X111004Y-97095D01*
X111077Y-96987D01*
X111140Y-96867D01*
X111840Y-98847D01*
D02*
G37*
G36*
X246729Y-96736D02*
X246645Y-96860D01*
X246570Y-96985D01*
X246506Y-97112D01*
X246451Y-97241D01*
X246406Y-97371D01*
X246372Y-97503D01*
X246347Y-97637D01*
X246332Y-97772D01*
X246327Y-97909D01*
X245327Y-98025D01*
X245321Y-97884D01*
X245303Y-97748D01*
X245274Y-97617D01*
X245232Y-97491D01*
X245179Y-97370D01*
X245114Y-97255D01*
X245038Y-97144D01*
X244949Y-97039D01*
X244848Y-96938D01*
X244736Y-96843D01*
X246824Y-96614D01*
X246729Y-96736D01*
D02*
G37*
G36*
X39373Y-94073D02*
X39491Y-95627D01*
X39566Y-96054D01*
X39660Y-96435D01*
X39772Y-96770D01*
X39903Y-97060D01*
X40051Y-97304D01*
X40218Y-97503D01*
X39511Y-98210D01*
X39312Y-98044D01*
X39068Y-97895D01*
X38778Y-97764D01*
X38443Y-97652D01*
X38061Y-97558D01*
X37635Y-97483D01*
X37163Y-97425D01*
X36081Y-97365D01*
X35472Y-97362D01*
X39370Y-93465D01*
X39373Y-94073D01*
D02*
G37*
G36*
X267787Y-92889D02*
X268133Y-93156D01*
X268503Y-93393D01*
X268897Y-93602D01*
X269316Y-93782D01*
X269758Y-93933D01*
X270225Y-94055D01*
X270715Y-94148D01*
X271230Y-94212D01*
X271768Y-94247D01*
X266670Y-98881D01*
X266684Y-98355D01*
X266662Y-97851D01*
X266606Y-97369D01*
X266515Y-96909D01*
X266389Y-96471D01*
X266229Y-96054D01*
X266033Y-95660D01*
X265803Y-95288D01*
X265538Y-94937D01*
X265237Y-94609D01*
X267465Y-92594D01*
X267787Y-92889D01*
D02*
G37*
G36*
X79840Y-97095D02*
X79871Y-97180D01*
X79921Y-97255D01*
X79992Y-97320D01*
X80083Y-97375D01*
X80195Y-97420D01*
X80326Y-97455D01*
X80478Y-97480D01*
X80650Y-97495D01*
X80842Y-97500D01*
Y-98500D01*
X80650Y-98505D01*
X80478Y-98520D01*
X80326Y-98545D01*
X80195Y-98580D01*
X80083Y-98625D01*
X79992Y-98680D01*
X79921Y-98745D01*
X79871Y-98820D01*
X79840Y-98905D01*
X79830Y-99000D01*
Y-97000D01*
X79840Y-97095D01*
D02*
G37*
G36*
X74170Y-99000D02*
X74159Y-98905D01*
X74129Y-98820D01*
X74079Y-98745D01*
X74008Y-98680D01*
X73917Y-98625D01*
X73805Y-98580D01*
X73674Y-98545D01*
X73522Y-98520D01*
X73350Y-98505D01*
X73158Y-98500D01*
Y-97500D01*
X73350Y-97495D01*
X73522Y-97480D01*
X73674Y-97455D01*
X73805Y-97420D01*
X73917Y-97375D01*
X74008Y-97320D01*
X74079Y-97255D01*
X74129Y-97180D01*
X74159Y-97095D01*
X74170Y-97000D01*
Y-99000D01*
D02*
G37*
G36*
X69840Y-97095D02*
X69871Y-97180D01*
X69921Y-97255D01*
X69992Y-97320D01*
X70083Y-97375D01*
X70195Y-97420D01*
X70326Y-97455D01*
X70478Y-97480D01*
X70650Y-97495D01*
X70842Y-97500D01*
Y-98500D01*
X70650Y-98505D01*
X70478Y-98520D01*
X70326Y-98545D01*
X70195Y-98580D01*
X70083Y-98625D01*
X69992Y-98680D01*
X69921Y-98745D01*
X69871Y-98820D01*
X69840Y-98905D01*
X69830Y-99000D01*
Y-97000D01*
X69840Y-97095D01*
D02*
G37*
G36*
X64170Y-99000D02*
X64160Y-98905D01*
X64129Y-98820D01*
X64079Y-98745D01*
X64008Y-98680D01*
X63917Y-98625D01*
X63805Y-98580D01*
X63674Y-98545D01*
X63522Y-98520D01*
X63350Y-98505D01*
X63158Y-98500D01*
Y-97500D01*
X63350Y-97495D01*
X63522Y-97480D01*
X63674Y-97455D01*
X63805Y-97420D01*
X63917Y-97375D01*
X64008Y-97320D01*
X64079Y-97255D01*
X64129Y-97180D01*
X64160Y-97095D01*
X64170Y-97000D01*
Y-99000D01*
D02*
G37*
G36*
X59840Y-97095D02*
X59871Y-97180D01*
X59921Y-97255D01*
X59992Y-97320D01*
X60083Y-97375D01*
X60195Y-97420D01*
X60326Y-97455D01*
X60478Y-97480D01*
X60650Y-97495D01*
X60842Y-97500D01*
Y-98500D01*
X60650Y-98505D01*
X60478Y-98520D01*
X60326Y-98545D01*
X60195Y-98580D01*
X60083Y-98625D01*
X59992Y-98680D01*
X59921Y-98745D01*
X59871Y-98820D01*
X59840Y-98905D01*
X59830Y-99000D01*
Y-97000D01*
X59840Y-97095D01*
D02*
G37*
G36*
X54170Y-99000D02*
X54159Y-98905D01*
X54129Y-98820D01*
X54079Y-98745D01*
X54008Y-98680D01*
X53917Y-98625D01*
X53805Y-98580D01*
X53674Y-98545D01*
X53522Y-98520D01*
X53350Y-98505D01*
X53158Y-98500D01*
Y-97500D01*
X53350Y-97495D01*
X53522Y-97480D01*
X53674Y-97455D01*
X53805Y-97420D01*
X53917Y-97375D01*
X54008Y-97320D01*
X54079Y-97255D01*
X54129Y-97180D01*
X54159Y-97095D01*
X54170Y-97000D01*
Y-99000D01*
D02*
G37*
G36*
X49840Y-97095D02*
X49871Y-97180D01*
X49921Y-97255D01*
X49992Y-97320D01*
X50083Y-97375D01*
X50195Y-97420D01*
X50326Y-97455D01*
X50478Y-97480D01*
X50650Y-97495D01*
X50842Y-97500D01*
Y-98500D01*
X50650Y-98505D01*
X50478Y-98520D01*
X50326Y-98545D01*
X50195Y-98580D01*
X50083Y-98625D01*
X49992Y-98680D01*
X49921Y-98745D01*
X49871Y-98820D01*
X49840Y-98905D01*
X49830Y-99000D01*
Y-97000D01*
X49840Y-97095D01*
D02*
G37*
G36*
X44170Y-99000D02*
X44159Y-98905D01*
X44129Y-98820D01*
X44079Y-98745D01*
X44008Y-98680D01*
X43917Y-98625D01*
X43805Y-98580D01*
X43674Y-98545D01*
X43522Y-98520D01*
X43350Y-98505D01*
X43158Y-98500D01*
Y-97500D01*
X43350Y-97495D01*
X43522Y-97480D01*
X43674Y-97455D01*
X43805Y-97420D01*
X43917Y-97375D01*
X44008Y-97320D01*
X44079Y-97255D01*
X44129Y-97180D01*
X44159Y-97095D01*
X44170Y-97000D01*
Y-99000D01*
D02*
G37*
G36*
X66232Y-99266D02*
X66147Y-99296D01*
X66072Y-99347D01*
X66007Y-99417D01*
X65952Y-99509D01*
X65907Y-99620D01*
X65872Y-99751D01*
X65847Y-99903D01*
X65832Y-100075D01*
X65827Y-100268D01*
X64827D01*
X64822Y-100075D01*
X64807Y-99903D01*
X64782Y-99751D01*
X64747Y-99620D01*
X64702Y-99509D01*
X64647Y-99417D01*
X64582Y-99347D01*
X64507Y-99296D01*
X64422Y-99266D01*
X64327Y-99256D01*
X66327D01*
X66232Y-99266D01*
D02*
G37*
G36*
X246332Y-99925D02*
X246347Y-100097D01*
X246372Y-100249D01*
X246407Y-100380D01*
X246452Y-100491D01*
X246507Y-100583D01*
X246572Y-100653D01*
X246647Y-100704D01*
X246732Y-100734D01*
X246827Y-100744D01*
X244827D01*
X244922Y-100734D01*
X245007Y-100704D01*
X245082Y-100653D01*
X245147Y-100583D01*
X245202Y-100491D01*
X245247Y-100380D01*
X245282Y-100249D01*
X245307Y-100097D01*
X245322Y-99925D01*
X245327Y-99733D01*
X246327D01*
X246332Y-99925D01*
D02*
G37*
G36*
X105790Y-99286D02*
X105762Y-99343D01*
X105736Y-99437D01*
X105714Y-99569D01*
X105696Y-99739D01*
X105670Y-100269D01*
X105693Y-100617D01*
X105707Y-100683D01*
X105723Y-100730D01*
X105742Y-100760D01*
X105762Y-100773D01*
X105657Y-100840D01*
X105654Y-101154D01*
X105159D01*
X104054Y-101851D01*
X103893Y-101154D01*
X103654D01*
X103652Y-100795D01*
X103571Y-99437D01*
X103545Y-99343D01*
X103517Y-99286D01*
X103484Y-99268D01*
X105823D01*
X105790Y-99286D01*
D02*
G37*
G36*
X123590Y-101960D02*
X123625Y-101968D01*
X123677Y-101976D01*
X123832Y-101988D01*
X124347Y-101999D01*
X124518Y-102000D01*
Y-104000D01*
X123571Y-104050D01*
Y-101950D01*
X123590Y-101960D01*
D02*
G37*
G36*
X250248Y-103278D02*
X250164Y-103307D01*
X250089Y-103358D01*
X250025Y-103428D01*
X249970Y-103517D01*
X249926Y-103628D01*
X249891Y-103758D01*
X249866Y-103908D01*
X249851Y-104077D01*
X249847Y-104268D01*
X248847D01*
X248842Y-104077D01*
X248827Y-103908D01*
X248801Y-103758D01*
X248766Y-103628D01*
X248722Y-103517D01*
X248667Y-103428D01*
X248602Y-103358D01*
X248527Y-103307D01*
X248442Y-103278D01*
X248346Y-103268D01*
X250342D01*
X250248Y-103278D01*
D02*
G37*
G36*
X44402Y-105657D02*
X44392Y-105562D01*
X44361Y-105477D01*
X44311Y-105403D01*
X44240Y-105338D01*
X44149Y-105282D01*
X44038Y-105237D01*
X43906Y-105202D01*
X43754Y-105177D01*
X43582Y-105163D01*
X43390Y-105157D01*
Y-104157D01*
X43582Y-104153D01*
X43754Y-104138D01*
X43906Y-104113D01*
X44038Y-104077D01*
X44149Y-104033D01*
X44240Y-103978D01*
X44311Y-103912D01*
X44361Y-103838D01*
X44392Y-103753D01*
X44402Y-103657D01*
Y-105657D01*
D02*
G37*
G36*
X90046Y-104595D02*
X90077Y-104680D01*
X90128Y-104755D01*
X90199Y-104820D01*
X90290Y-104875D01*
X90401Y-104920D01*
X90532Y-104955D01*
X90684Y-104980D01*
X90855Y-104995D01*
X91047Y-105000D01*
Y-106000D01*
X90857Y-106002D01*
X90407Y-106038D01*
X90297Y-106059D01*
X90207Y-106085D01*
X90137Y-106116D01*
X90087Y-106151D01*
X90057Y-106191D01*
X90047Y-106236D01*
X90035Y-104500D01*
X90046Y-104595D01*
D02*
G37*
G36*
X249851Y-105925D02*
X249867Y-106097D01*
X249891Y-106249D01*
X249926Y-106380D01*
X249972Y-106491D01*
X250026Y-106582D01*
X250092Y-106653D01*
X250167Y-106704D01*
X250252Y-106734D01*
X250346Y-106745D01*
X248346D01*
X248442Y-106734D01*
X248527Y-106704D01*
X248602Y-106653D01*
X248667Y-106582D01*
X248722Y-106491D01*
X248766Y-106380D01*
X248801Y-106249D01*
X248827Y-106097D01*
X248842Y-105925D01*
X248847Y-105733D01*
X249847D01*
X249851Y-105925D01*
D02*
G37*
G36*
X39212Y-102157D02*
X39463Y-102577D01*
X39719Y-102947D01*
X39981Y-103268D01*
X40248Y-103540D01*
X40520Y-103762D01*
X40798Y-103935D01*
X41081Y-104059D01*
X41370Y-104133D01*
X41664Y-104157D01*
X41331Y-105157D01*
X41168Y-105175D01*
X40951Y-105228D01*
X40679Y-105316D01*
X39971Y-105599D01*
X38497Y-106287D01*
X37241Y-106923D01*
X38966Y-101688D01*
X39212Y-102157D01*
D02*
G37*
G36*
X49810Y-105935D02*
X49725Y-105965D01*
X49650Y-106015D01*
X49586Y-106085D01*
X49531Y-106175D01*
X49485Y-106285D01*
X49450Y-106415D01*
X49426Y-106565D01*
X49411Y-106735D01*
X49406Y-106925D01*
X48406D01*
X48401Y-106735D01*
X48386Y-106565D01*
X48360Y-106415D01*
X48325Y-106285D01*
X48281Y-106175D01*
X48226Y-106085D01*
X48160Y-106015D01*
X48085Y-105965D01*
X48000Y-105935D01*
X47905Y-105925D01*
X49905D01*
X49810Y-105935D01*
D02*
G37*
G36*
X70552Y-109500D02*
X70541Y-109405D01*
X70511Y-109320D01*
X70460Y-109245D01*
X70390Y-109180D01*
X70299Y-109125D01*
X70187Y-109080D01*
X70056Y-109045D01*
X69904Y-109020D01*
X69732Y-109005D01*
X69540Y-109000D01*
Y-108000D01*
X69732Y-107995D01*
X69904Y-107980D01*
X70056Y-107955D01*
X70187Y-107920D01*
X70299Y-107875D01*
X70390Y-107820D01*
X70460Y-107755D01*
X70511Y-107680D01*
X70541Y-107595D01*
X70552Y-107500D01*
Y-109500D01*
D02*
G37*
G36*
X49411Y-108925D02*
X49426Y-109097D01*
X49450Y-109249D01*
X49485Y-109380D01*
X49531Y-109492D01*
X49586Y-109582D01*
X49650Y-109653D01*
X49725Y-109704D01*
X49810Y-109734D01*
X49905Y-109745D01*
X47905D01*
X48000Y-109734D01*
X48085Y-109704D01*
X48160Y-109653D01*
X48226Y-109582D01*
X48281Y-109492D01*
X48325Y-109380D01*
X48360Y-109249D01*
X48386Y-109097D01*
X48401Y-108925D01*
X48406Y-108732D01*
X49406D01*
X49411Y-108925D01*
D02*
G37*
G36*
X247169Y-109267D02*
X246961Y-109282D01*
X246744Y-109324D01*
X246520Y-109395D01*
X246288Y-109494D01*
X246049Y-109621D01*
X245801Y-109777D01*
X245546Y-109960D01*
X245283Y-110173D01*
X244732Y-110682D01*
X243417Y-109169D01*
X243685Y-108890D01*
X244138Y-108356D01*
X244322Y-108100D01*
X244477Y-107853D01*
X244605Y-107613D01*
X244704Y-107381D01*
X244774Y-107157D01*
X244817Y-106941D01*
X244831Y-106732D01*
X247169Y-109267D01*
D02*
G37*
G36*
X260482Y-106838D02*
X260558Y-106924D01*
X260685Y-107001D01*
X260864Y-107067D01*
X261093Y-107123D01*
X261374Y-107169D01*
X261705Y-107204D01*
X262521Y-107245D01*
X263005Y-107250D01*
Y-110250D01*
X262521Y-110255D01*
X261374Y-110331D01*
X261093Y-110377D01*
X260864Y-110433D01*
X260685Y-110499D01*
X260558Y-110576D01*
X260482Y-110662D01*
X260456Y-110759D01*
Y-106741D01*
X260482Y-106838D01*
D02*
G37*
G36*
X42503Y-109166D02*
X42517Y-109312D01*
X42541Y-109453D01*
X42575Y-109588D01*
X42619Y-109717D01*
X42673Y-109841D01*
X42737Y-109960D01*
X42811Y-110073D01*
X42895Y-110181D01*
X42990Y-110283D01*
X42283Y-110990D01*
X42181Y-110896D01*
X42073Y-110811D01*
X41960Y-110737D01*
X41841Y-110673D01*
X41717Y-110619D01*
X41587Y-110575D01*
X41453Y-110541D01*
X41312Y-110517D01*
X41166Y-110503D01*
X41015Y-110500D01*
X42500Y-109015D01*
X42503Y-109166D01*
D02*
G37*
G36*
X54791Y-112000D02*
X54782Y-111905D01*
X54751Y-111820D01*
X54702Y-111745D01*
X54632Y-111680D01*
X54541Y-111625D01*
X54431Y-111580D01*
X54302Y-111545D01*
X54151Y-111520D01*
X53982Y-111505D01*
X53791Y-111500D01*
Y-110500D01*
X53982Y-110495D01*
X54151Y-110480D01*
X54302Y-110455D01*
X54431Y-110420D01*
X54541Y-110375D01*
X54632Y-110320D01*
X54702Y-110255D01*
X54751Y-110180D01*
X54782Y-110095D01*
X54791Y-110000D01*
Y-112000D01*
D02*
G37*
G36*
X50073Y-110095D02*
X50103Y-110180D01*
X50154Y-110255D01*
X50225Y-110320D01*
X50316Y-110375D01*
X50427Y-110420D01*
X50559Y-110455D01*
X50710Y-110480D01*
X50882Y-110495D01*
X51075Y-110500D01*
Y-111500D01*
X50882Y-111505D01*
X50710Y-111520D01*
X50559Y-111545D01*
X50427Y-111580D01*
X50316Y-111625D01*
X50225Y-111680D01*
X50154Y-111745D01*
X50103Y-111820D01*
X50073Y-111905D01*
X50063Y-112000D01*
Y-110000D01*
X50073Y-110095D01*
D02*
G37*
G36*
X44402Y-112000D02*
X44392Y-111905D01*
X44361Y-111820D01*
X44311Y-111745D01*
X44240Y-111680D01*
X44149Y-111625D01*
X44038Y-111580D01*
X43906Y-111545D01*
X43754Y-111520D01*
X43582Y-111505D01*
X43390Y-111500D01*
Y-110500D01*
X43582Y-110495D01*
X43754Y-110480D01*
X43906Y-110455D01*
X44038Y-110420D01*
X44149Y-110375D01*
X44240Y-110320D01*
X44311Y-110255D01*
X44361Y-110180D01*
X44392Y-110095D01*
X44402Y-110000D01*
Y-112000D01*
D02*
G37*
G36*
X251245Y-111777D02*
X251260Y-111947D01*
X251285Y-112097D01*
X251320Y-112227D01*
X251365Y-112337D01*
X251420Y-112427D01*
X251485Y-112497D01*
X251560Y-112547D01*
X251645Y-112577D01*
X251740Y-112587D01*
X249740D01*
X249835Y-112577D01*
X249920Y-112547D01*
X249995Y-112497D01*
X250060Y-112427D01*
X250115Y-112337D01*
X250160Y-112227D01*
X250195Y-112097D01*
X250220Y-111947D01*
X250235Y-111777D01*
X250240Y-111587D01*
X251240D01*
X251245Y-111777D01*
D02*
G37*
G36*
X244268Y-111091D02*
X244291Y-111405D01*
X244331Y-111682D01*
X244386Y-111922D01*
X244457Y-112125D01*
X244543Y-112291D01*
X244646Y-112421D01*
X244764Y-112513D01*
X244897Y-112568D01*
X245047Y-112587D01*
X241473D01*
X241622Y-112568D01*
X241756Y-112513D01*
X241874Y-112421D01*
X241976Y-112291D01*
X242063Y-112125D01*
X242134Y-111922D01*
X242189Y-111682D01*
X242228Y-111405D01*
X242252Y-111091D01*
X242260Y-110740D01*
X244260D01*
X244268Y-111091D01*
D02*
G37*
G36*
X183084Y-113941D02*
X183032Y-113932D01*
X182976Y-113935D01*
X182915Y-113948D01*
X182849Y-113973D01*
X182778Y-114009D01*
X182703Y-114055D01*
X182622Y-114113D01*
X182537Y-114182D01*
X182354Y-114354D01*
X181647Y-113646D01*
X181738Y-113552D01*
X181887Y-113378D01*
X181945Y-113297D01*
X181991Y-113222D01*
X182027Y-113151D01*
X182052Y-113085D01*
X182065Y-113024D01*
X182068Y-112968D01*
X182059Y-112916D01*
X183084Y-113941D01*
D02*
G37*
G36*
X84127Y-114787D02*
X84049Y-114731D01*
X83957Y-114702D01*
X83851D01*
X83731Y-114731D01*
X83597Y-114787D01*
X83448Y-114872D01*
X83286Y-114985D01*
X83109Y-115127D01*
X82713Y-115494D01*
X82006Y-114787D01*
X82204Y-114582D01*
X82515Y-114215D01*
X82628Y-114052D01*
X82713Y-113903D01*
X82769Y-113769D01*
X82798Y-113649D01*
Y-113543D01*
X82769Y-113451D01*
X82713Y-113373D01*
X84127Y-114787D01*
D02*
G37*
G36*
X156841Y-113095D02*
X156871Y-113180D01*
X156921Y-113255D01*
X156992Y-113320D01*
X157083Y-113375D01*
X157195Y-113420D01*
X157326Y-113455D01*
X157478Y-113480D01*
X157650Y-113495D01*
X157842Y-113500D01*
Y-114500D01*
X157650Y-114505D01*
X157478Y-114520D01*
X157326Y-114545D01*
X157195Y-114580D01*
X157083Y-114625D01*
X156992Y-114680D01*
X156921Y-114745D01*
X156871Y-114820D01*
X156841Y-114905D01*
X156830Y-115000D01*
Y-113000D01*
X156841Y-113095D01*
D02*
G37*
G36*
X151170Y-115000D02*
X151160Y-114905D01*
X151129Y-114820D01*
X151079Y-114745D01*
X151008Y-114680D01*
X150917Y-114625D01*
X150805Y-114580D01*
X150674Y-114545D01*
X150522Y-114520D01*
X150350Y-114505D01*
X150158Y-114500D01*
Y-113500D01*
X150350Y-113495D01*
X150522Y-113480D01*
X150674Y-113455D01*
X150805Y-113420D01*
X150917Y-113375D01*
X151008Y-113320D01*
X151079Y-113255D01*
X151129Y-113180D01*
X151160Y-113095D01*
X151170Y-113000D01*
Y-115000D01*
D02*
G37*
G36*
X147514Y-113095D02*
X147544Y-113180D01*
X147595Y-113255D01*
X147666Y-113320D01*
X147757Y-113375D01*
X147868Y-113420D01*
X147999Y-113455D01*
X148151Y-113480D01*
X148323Y-113495D01*
X148516Y-113500D01*
Y-114500D01*
X148323Y-114505D01*
X148151Y-114520D01*
X147999Y-114545D01*
X147868Y-114580D01*
X147757Y-114625D01*
X147666Y-114680D01*
X147595Y-114745D01*
X147544Y-114820D01*
X147514Y-114905D01*
X147504Y-115000D01*
Y-113000D01*
X147514Y-113095D01*
D02*
G37*
G36*
X141843Y-115000D02*
X141833Y-114905D01*
X141802Y-114820D01*
X141752Y-114745D01*
X141681Y-114680D01*
X141590Y-114625D01*
X141479Y-114580D01*
X141347Y-114545D01*
X141195Y-114520D01*
X141023Y-114505D01*
X140831Y-114500D01*
Y-113500D01*
X141023Y-113495D01*
X141195Y-113480D01*
X141347Y-113455D01*
X141479Y-113420D01*
X141590Y-113375D01*
X141681Y-113320D01*
X141752Y-113255D01*
X141802Y-113180D01*
X141833Y-113095D01*
X141843Y-113000D01*
Y-115000D01*
D02*
G37*
G36*
X139681Y-113055D02*
X139794Y-113148D01*
X139910Y-113231D01*
X140029Y-113302D01*
X140152Y-113363D01*
X140278Y-113412D01*
X140407Y-113451D01*
X140539Y-113478D01*
X140675Y-113495D01*
X140814Y-113500D01*
Y-114500D01*
X140675Y-114506D01*
X140539Y-114522D01*
X140407Y-114550D01*
X140278Y-114588D01*
X140152Y-114637D01*
X140029Y-114698D01*
X139910Y-114769D01*
X139794Y-114852D01*
X139681Y-114945D01*
X139571Y-115050D01*
Y-112950D01*
X139681Y-113055D01*
D02*
G37*
G36*
X82120Y-116087D02*
X82023Y-116187D01*
X81759Y-116495D01*
X81680Y-116601D01*
X81470Y-116926D01*
X81409Y-117037D01*
X81352Y-117150D01*
X80720Y-115184D01*
X80835Y-115239D01*
X80949Y-115276D01*
X81062Y-115296D01*
X81174Y-115299D01*
X81286Y-115285D01*
X81397Y-115254D01*
X81507Y-115206D01*
X81616Y-115141D01*
X81725Y-115059D01*
X81833Y-114960D01*
X82120Y-116087D01*
D02*
G37*
G36*
X237990Y-113366D02*
X238019Y-113367D01*
X238891Y-113374D01*
X239119Y-115374D01*
X238948Y-115375D01*
X238271Y-115414D01*
X238216Y-115427D01*
X238177Y-115441D01*
X238156Y-115456D01*
X237979Y-113364D01*
X237990Y-113366D01*
D02*
G37*
G36*
X92885Y-114797D02*
X92800Y-114827D01*
X92725Y-114877D01*
X92660Y-114947D01*
X92605Y-115037D01*
X92560Y-115147D01*
X92525Y-115277D01*
X92500Y-115427D01*
X92485Y-115597D01*
X92480Y-115787D01*
X91480D01*
X91475Y-115597D01*
X91460Y-115427D01*
X91435Y-115277D01*
X91400Y-115147D01*
X91355Y-115037D01*
X91300Y-114947D01*
X91235Y-114877D01*
X91160Y-114827D01*
X91075Y-114797D01*
X90980Y-114787D01*
X92980D01*
X92885Y-114797D01*
D02*
G37*
G36*
X241473Y-116161D02*
X241453Y-116012D01*
X241393Y-115878D01*
X241293Y-115760D01*
X241153Y-115657D01*
X240973Y-115571D01*
X240753Y-115500D01*
X240493Y-115445D01*
X240193Y-115405D01*
X239853Y-115382D01*
X239473Y-115374D01*
Y-113374D01*
X239853Y-113366D01*
X240493Y-113303D01*
X240753Y-113248D01*
X240973Y-113177D01*
X241153Y-113091D01*
X241293Y-112988D01*
X241393Y-112870D01*
X241453Y-112736D01*
X241473Y-112587D01*
Y-116161D01*
D02*
G37*
G36*
X152905Y-115278D02*
X152820Y-115307D01*
X152745Y-115357D01*
X152680Y-115427D01*
X152625Y-115517D01*
X152580Y-115628D01*
X152545Y-115758D01*
X152520Y-115908D01*
X152505Y-116077D01*
X152500Y-116268D01*
X151500D01*
X151497Y-116077D01*
X151469Y-115758D01*
X151445Y-115628D01*
X151414Y-115517D01*
X151377Y-115427D01*
X151332Y-115357D01*
X151281Y-115307D01*
X151223Y-115278D01*
X151158Y-115268D01*
X153000D01*
X152905Y-115278D01*
D02*
G37*
G36*
X267567Y-111163D02*
X267915Y-111428D01*
X268287Y-111662D01*
X268681Y-111865D01*
X269099Y-112035D01*
X269540Y-112173D01*
X270004Y-112279D01*
X270491Y-112354D01*
X271001Y-112396D01*
X271534Y-112407D01*
X266662Y-117278D01*
X266652Y-116745D01*
X266609Y-116235D01*
X266535Y-115748D01*
X266428Y-115285D01*
X266290Y-114844D01*
X266120Y-114426D01*
X265918Y-114031D01*
X265684Y-113660D01*
X265418Y-113311D01*
X265120Y-112986D01*
X267242Y-110865D01*
X267567Y-111163D01*
D02*
G37*
G36*
X92486Y-116305D02*
X92502Y-116441D01*
X92530Y-116574D01*
X92568Y-116703D01*
X92618Y-116829D01*
X92678Y-116952D01*
X92750Y-117071D01*
X92832Y-117187D01*
X92926Y-117300D01*
X93030Y-117409D01*
X90930D01*
X91035Y-117300D01*
X91128Y-117187D01*
X91211Y-117071D01*
X91282Y-116952D01*
X91343Y-116829D01*
X91392Y-116703D01*
X91431Y-116574D01*
X91458Y-116441D01*
X91475Y-116305D01*
X91480Y-116166D01*
X92480D01*
X92486Y-116305D01*
D02*
G37*
G36*
X161340Y-121107D02*
X161355Y-121279D01*
X161380Y-121430D01*
X161415Y-121562D01*
X161460Y-121673D01*
X161515Y-121764D01*
X161580Y-121835D01*
X161655Y-121886D01*
X161740Y-121916D01*
X161835Y-121926D01*
X159835D01*
X159930Y-121916D01*
X160015Y-121886D01*
X160090Y-121835D01*
X160155Y-121764D01*
X160210Y-121673D01*
X160255Y-121562D01*
X160290Y-121430D01*
X160315Y-121279D01*
X160330Y-121107D01*
X160335Y-120914D01*
X161335D01*
X161340Y-121107D01*
D02*
G37*
G36*
X256012Y-124988D02*
X255982Y-124753D01*
X255892Y-124542D01*
X255742Y-124357D01*
X255532Y-124196D01*
X255262Y-124059D01*
X254932Y-123948D01*
X254542Y-123861D01*
X254092Y-123800D01*
X253582Y-123762D01*
X253012Y-123750D01*
Y-120750D01*
X253582Y-120738D01*
X254542Y-120639D01*
X254932Y-120552D01*
X255262Y-120440D01*
X255532Y-120304D01*
X255742Y-120143D01*
X255892Y-119958D01*
X255982Y-119747D01*
X256012Y-119512D01*
Y-124988D01*
D02*
G37*
G36*
X251807Y-123750D02*
X251235Y-123765D01*
X250724Y-123810D01*
X250273Y-123885D01*
X249881Y-123990D01*
X249550Y-124125D01*
X249279Y-124290D01*
X249068Y-124485D01*
X248917Y-124710D01*
X248826Y-124965D01*
X248795Y-125250D01*
X248807Y-121138D01*
X251807Y-120750D01*
Y-123750D01*
D02*
G37*
G36*
X260840Y-120751D02*
X260796Y-121067D01*
X260855Y-121444D01*
X261018Y-121883D01*
X261284Y-122383D01*
X261654Y-122944D01*
X262128Y-123566D01*
X263386Y-124993D01*
X264170Y-125799D01*
X262049Y-127920D01*
X261268Y-127161D01*
X259294Y-125504D01*
X258758Y-125159D01*
X258283Y-124918D01*
X257869Y-124780D01*
X257517Y-124746D01*
X257226Y-124815D01*
X256995Y-124988D01*
X260988Y-120495D01*
X260840Y-120751D01*
D02*
G37*
G36*
X145212Y-131000D02*
X145182Y-130715D01*
X145092Y-130460D01*
X144941Y-130235D01*
X144730Y-130040D01*
X144459Y-129875D01*
X144128Y-129740D01*
X143736Y-129635D01*
X143285Y-129560D01*
X142773Y-129515D01*
X142200Y-129500D01*
Y-126500D01*
X142773Y-126485D01*
X143285Y-126440D01*
X143736Y-126365D01*
X144128Y-126260D01*
X144459Y-126125D01*
X144730Y-125960D01*
X144941Y-125765D01*
X145092Y-125540D01*
X145182Y-125285D01*
X145212Y-125000D01*
Y-131000D01*
D02*
G37*
G36*
X267901Y-129504D02*
X268246Y-129771D01*
X268615Y-130010D01*
X269009Y-130222D01*
X269427Y-130407D01*
X269870Y-130564D01*
X270337Y-130694D01*
X270829Y-130797D01*
X271345Y-130872D01*
X271886Y-130920D01*
X266678Y-135430D01*
X266704Y-134908D01*
X266693Y-134408D01*
X266646Y-133928D01*
X266562Y-133471D01*
X266443Y-133034D01*
X266287Y-132619D01*
X266094Y-132225D01*
X265866Y-131852D01*
X265601Y-131501D01*
X265300Y-131171D01*
X267581Y-129210D01*
X267901Y-129504D01*
D02*
G37*
G36*
X248080Y-136208D02*
X247991Y-136327D01*
X247912Y-136447D01*
X247843Y-136570D01*
X247785Y-136696D01*
X247738Y-136824D01*
X247701Y-136955D01*
X247675Y-137088D01*
X247659Y-137223D01*
X247654Y-137361D01*
X246654Y-137416D01*
X246648Y-137276D01*
X246631Y-137140D01*
X246602Y-137008D01*
X246562Y-136880D01*
X246511Y-136757D01*
X246448Y-136637D01*
X246374Y-136522D01*
X246288Y-136410D01*
X246191Y-136303D01*
X246083Y-136200D01*
X248180Y-136093D01*
X248080Y-136208D01*
D02*
G37*
G36*
X127417Y-135350D02*
X127344Y-135386D01*
X127204Y-135492D01*
X126997Y-135668D01*
X124962Y-137613D01*
X123681Y-138886D01*
X120047Y-135449D01*
X123583Y-131713D01*
X127417Y-135350D01*
D02*
G37*
G36*
X163277Y-137025D02*
X163339Y-137072D01*
X163429Y-137114D01*
X163545Y-137150D01*
X163687Y-137181D01*
X163856Y-137206D01*
X164274Y-137239D01*
X164798Y-137250D01*
Y-138750D01*
X164523Y-138753D01*
X163687Y-138819D01*
X163545Y-138850D01*
X163429Y-138886D01*
X163339Y-138928D01*
X163277Y-138975D01*
X163240Y-139028D01*
Y-136972D01*
X163277Y-137025D01*
D02*
G37*
G36*
X247658Y-138425D02*
X247674Y-138597D01*
X247698Y-138749D01*
X247733Y-138880D01*
X247779Y-138991D01*
X247833Y-139083D01*
X247899Y-139153D01*
X247973Y-139204D01*
X248059Y-139234D01*
X248153Y-139244D01*
X246153D01*
X246249Y-139234D01*
X246334Y-139204D01*
X246409Y-139153D01*
X246474Y-139083D01*
X246529Y-138991D01*
X246573Y-138880D01*
X246608Y-138749D01*
X246634Y-138597D01*
X246649Y-138425D01*
X246654Y-138233D01*
X247654D01*
X247658Y-138425D01*
D02*
G37*
G36*
X38140Y-136308D02*
X38097Y-136421D01*
X38059Y-136575D01*
X38025Y-136772D01*
X37974Y-137290D01*
X37943Y-137976D01*
X37937Y-138491D01*
X38059Y-140275D01*
X38097Y-140430D01*
X38140Y-140542D01*
X38189Y-140614D01*
X32677D01*
X32726Y-140542D01*
X32769Y-140430D01*
X32808Y-140275D01*
X32841Y-140078D01*
X32892Y-139560D01*
X32923Y-138874D01*
X32929Y-138359D01*
X32808Y-136575D01*
X32769Y-136421D01*
X32726Y-136308D01*
X32677Y-136237D01*
X38189D01*
X38140Y-136308D01*
D02*
G37*
G36*
X251405Y-141778D02*
X251320Y-141807D01*
X251245Y-141858D01*
X251180Y-141928D01*
X251125Y-142017D01*
X251080Y-142128D01*
X251045Y-142257D01*
X251020Y-142408D01*
X251005Y-142578D01*
X251000Y-142768D01*
X250000D01*
X249995Y-142578D01*
X249980Y-142408D01*
X249955Y-142257D01*
X249920Y-142128D01*
X249875Y-142017D01*
X249820Y-141928D01*
X249755Y-141858D01*
X249680Y-141807D01*
X249595Y-141778D01*
X249500Y-141768D01*
X251500D01*
X251405Y-141778D01*
D02*
G37*
G36*
X89258Y-134548D02*
X89408Y-134958D01*
X89658Y-135319D01*
X90008Y-135633D01*
X90459Y-135898D01*
X91009Y-136115D01*
X91659Y-136283D01*
X92409Y-136404D01*
X93259Y-136476D01*
X94209Y-136500D01*
Y-141500D01*
X93259Y-141524D01*
X92409Y-141596D01*
X91659Y-141717D01*
X91009Y-141885D01*
X90459Y-142102D01*
X90008Y-142367D01*
X89658Y-142681D01*
X89408Y-143042D01*
X89258Y-143451D01*
X89209Y-143909D01*
Y-134091D01*
X89258Y-134548D01*
D02*
G37*
G36*
X108507Y-134799D02*
X108657Y-135156D01*
X108906Y-135471D01*
X109256Y-135744D01*
X109706Y-135975D01*
X110257Y-136164D01*
X110907Y-136311D01*
X111656Y-136416D01*
X112506Y-136479D01*
X113456Y-136500D01*
Y-141500D01*
X112506Y-141525D01*
X111656Y-141600D01*
X110907Y-141725D01*
X110257Y-141900D01*
X109706Y-142125D01*
X109256Y-142400D01*
X108906Y-142725D01*
X108657Y-143100D01*
X108507Y-143525D01*
X108457Y-144000D01*
Y-134399D01*
X108507Y-134799D01*
D02*
G37*
G36*
X104555Y-144000D02*
X104505Y-143525D01*
X104354Y-143100D01*
X104103Y-142725D01*
X103752Y-142400D01*
X103301Y-142125D01*
X102750Y-141900D01*
X102098Y-141725D01*
X101347Y-141600D01*
X100495Y-141525D01*
X99543Y-141500D01*
Y-136500D01*
X100494Y-136479D01*
X102094Y-136311D01*
X102743Y-136164D01*
X103294Y-135975D01*
X103744Y-135744D01*
X104094Y-135471D01*
X104343Y-135156D01*
X104493Y-134799D01*
X104543Y-134399D01*
X104555Y-144000D01*
D02*
G37*
G36*
X251005Y-144425D02*
X251020Y-144597D01*
X251045Y-144749D01*
X251080Y-144880D01*
X251125Y-144992D01*
X251180Y-145082D01*
X251245Y-145153D01*
X251320Y-145204D01*
X251405Y-145234D01*
X251500Y-145245D01*
X249500D01*
X249595Y-145234D01*
X249680Y-145204D01*
X249755Y-145153D01*
X249820Y-145082D01*
X249875Y-144992D01*
X249920Y-144880D01*
X249955Y-144749D01*
X249980Y-144597D01*
X249995Y-144425D01*
X250000Y-144232D01*
X251000D01*
X251005Y-144425D01*
D02*
G37*
G36*
X73302Y-143959D02*
X73160Y-144109D01*
X73035Y-144359D01*
X72926Y-144709D01*
X72835Y-145159D01*
X72759Y-145709D01*
X72735Y-146045D01*
X72851Y-146740D01*
X73026Y-147391D01*
X73251Y-147943D01*
X73526Y-148394D01*
X73851Y-148745D01*
X74226Y-148996D01*
X74651Y-149147D01*
X75126Y-149197D01*
X65280Y-149185D01*
X65725Y-149135D01*
X66124Y-148985D01*
X66476Y-148735D01*
X66781Y-148385D01*
X67039Y-147935D01*
X67251Y-147385D01*
X67415Y-146735D01*
X67494Y-146230D01*
X67417Y-145159D01*
X67326Y-144709D01*
X67217Y-144359D01*
X67092Y-144109D01*
X66950Y-143959D01*
X66791Y-143909D01*
X73460D01*
X73302Y-143959D01*
D02*
G37*
G36*
X252245Y-149277D02*
X252260Y-149447D01*
X252285Y-149597D01*
X252320Y-149727D01*
X252365Y-149837D01*
X252420Y-149927D01*
X252485Y-149997D01*
X252560Y-150047D01*
X252645Y-150077D01*
X252740Y-150087D01*
X250740D01*
X250835Y-150077D01*
X250920Y-150047D01*
X250995Y-149997D01*
X251060Y-149927D01*
X251115Y-149837D01*
X251160Y-149727D01*
X251195Y-149597D01*
X251220Y-149447D01*
X251235Y-149277D01*
X251240Y-149087D01*
X252240D01*
X252245Y-149277D01*
D02*
G37*
G36*
X248269Y-147781D02*
X248222Y-147820D01*
X248180Y-147887D01*
X248143Y-147979D01*
X248112Y-148099D01*
X248087Y-148244D01*
X248067Y-148416D01*
X248045Y-148840D01*
X248042Y-149092D01*
X246466D01*
X247461Y-150087D01*
X247141Y-150413D01*
X246257Y-151435D01*
X246135Y-151620D01*
X246053Y-151777D01*
X246011Y-151905D01*
X246009Y-152005D01*
X246047Y-152077D01*
X244057Y-150087D01*
X244129Y-150125D01*
X244229Y-150122D01*
X244357Y-150080D01*
X244514Y-149999D01*
X244698Y-149877D01*
X244912Y-149716D01*
X245423Y-149274D01*
X246025Y-148694D01*
X245984Y-147767D01*
X248323D01*
X248269Y-147781D01*
D02*
G37*
G36*
X261509Y-145131D02*
X261573Y-145511D01*
X261679Y-145896D01*
X261827Y-146286D01*
X262018Y-146682D01*
X262252Y-147083D01*
X262527Y-147489D01*
X262846Y-147900D01*
X263206Y-148316D01*
X263609Y-148738D01*
X261738Y-151109D01*
X261316Y-150706D01*
X260489Y-150027D01*
X260083Y-149752D01*
X259682Y-149518D01*
X259286Y-149327D01*
X258896Y-149179D01*
X258511Y-149073D01*
X258131Y-149009D01*
X257756Y-148988D01*
X261488Y-144756D01*
X261509Y-145131D01*
D02*
G37*
G36*
X102181Y-150555D02*
X102293Y-150648D01*
X102410Y-150731D01*
X102529Y-150802D01*
X102652Y-150863D01*
X102778Y-150912D01*
X102907Y-150951D01*
X103039Y-150978D01*
X103175Y-150995D01*
X103314Y-151000D01*
Y-152000D01*
X103175Y-152006D01*
X103039Y-152022D01*
X102907Y-152050D01*
X102778Y-152088D01*
X102652Y-152137D01*
X102529Y-152198D01*
X102410Y-152269D01*
X102293Y-152352D01*
X102181Y-152445D01*
X102071Y-152550D01*
Y-150450D01*
X102181Y-150555D01*
D02*
G37*
G36*
X239322Y-150774D02*
X239361Y-150795D01*
X239416Y-150813D01*
X239488Y-150830D01*
X239576Y-150843D01*
X239802Y-150863D01*
X240093Y-150873D01*
X240263Y-150874D01*
X239502Y-152874D01*
X238776Y-152784D01*
X239299Y-150750D01*
X239322Y-150774D01*
D02*
G37*
G36*
X242473Y-153661D02*
X242453Y-153512D01*
X242393Y-153378D01*
X242293Y-153260D01*
X242153Y-153157D01*
X241973Y-153071D01*
X241753Y-153000D01*
X241493Y-152945D01*
X241193Y-152905D01*
X240853Y-152882D01*
X240473Y-152874D01*
Y-150874D01*
X240853Y-150866D01*
X241493Y-150803D01*
X241753Y-150748D01*
X241973Y-150677D01*
X242153Y-150591D01*
X242293Y-150488D01*
X242393Y-150370D01*
X242453Y-150236D01*
X242473Y-150087D01*
Y-153661D01*
D02*
G37*
G36*
X267449Y-151325D02*
X266671Y-154304D01*
X266659Y-154294D01*
X266624Y-154285D01*
X266565Y-154277D01*
X266377Y-154265D01*
X265502Y-154252D01*
Y-151252D01*
X267449Y-151325D01*
D02*
G37*
G36*
X107681Y-154054D02*
X107793Y-154148D01*
X107910Y-154230D01*
X108029Y-154302D01*
X108151Y-154362D01*
X108277Y-154412D01*
X108407Y-154451D01*
X108539Y-154478D01*
X108675Y-154495D01*
X108814Y-154500D01*
Y-155500D01*
X108675Y-155506D01*
X108539Y-155522D01*
X108407Y-155550D01*
X108277Y-155588D01*
X108151Y-155638D01*
X108029Y-155698D01*
X107910Y-155770D01*
X107793Y-155852D01*
X107681Y-155946D01*
X107571Y-156050D01*
Y-153950D01*
X107681Y-154054D01*
D02*
G37*
G36*
X38316Y-150718D02*
X38429Y-150761D01*
X38583Y-150800D01*
X38780Y-150833D01*
X39298Y-150884D01*
X39984Y-150915D01*
X40837Y-150925D01*
Y-155925D01*
X40389Y-155928D01*
X38583Y-156051D01*
X38429Y-156089D01*
X38316Y-156132D01*
X38245Y-156181D01*
Y-150669D01*
X38316Y-150718D01*
D02*
G37*
G36*
X51666Y-156535D02*
X51616Y-156419D01*
X51465Y-156316D01*
X51215Y-156224D01*
X50866Y-156145D01*
X50416Y-156078D01*
X49216Y-155980D01*
X46666Y-155925D01*
Y-150925D01*
X47617Y-150900D01*
X48469Y-150825D01*
X49220Y-150700D01*
X49871Y-150525D01*
X50423Y-150300D01*
X50874Y-150025D01*
X51225Y-149700D01*
X51476Y-149325D01*
X51627Y-148900D01*
X51678Y-148425D01*
X51666Y-156535D01*
D02*
G37*
G36*
X160755Y-155616D02*
X160797Y-156096D01*
X160833Y-156291D01*
X160879Y-156456D01*
X160936Y-156591D01*
X161004Y-156696D01*
X161081Y-156771D01*
X161169Y-156816D01*
X161267Y-156831D01*
X158732D01*
X158831Y-156816D01*
X158919Y-156771D01*
X158996Y-156696D01*
X159064Y-156591D01*
X159121Y-156456D01*
X159167Y-156291D01*
X159203Y-156096D01*
X159229Y-155871D01*
X159245Y-155616D01*
X159250Y-155331D01*
X160750D01*
X160755Y-155616D01*
D02*
G37*
G36*
X366122Y-150775D02*
X365816Y-150845D01*
X365394Y-151055D01*
X364858Y-151405D01*
X364206Y-151895D01*
X362557Y-153296D01*
X359221Y-156446D01*
X357878Y-157776D01*
X350878Y-150775D01*
X352208Y-149433D01*
X357598Y-143259D01*
X357808Y-142838D01*
X357878Y-142532D01*
X366122Y-150775D01*
D02*
G37*
G36*
X256512Y-162488D02*
X256482Y-162253D01*
X256392Y-162042D01*
X256242Y-161857D01*
X256032Y-161696D01*
X255762Y-161559D01*
X255432Y-161448D01*
X255042Y-161361D01*
X254592Y-161300D01*
X254082Y-161262D01*
X253512Y-161250D01*
Y-158250D01*
X254082Y-158238D01*
X255042Y-158139D01*
X255432Y-158052D01*
X255762Y-157940D01*
X256032Y-157804D01*
X256242Y-157643D01*
X256392Y-157458D01*
X256482Y-157247D01*
X256512Y-157012D01*
Y-162488D01*
D02*
G37*
G36*
X252807Y-161250D02*
X252235Y-161265D01*
X251724Y-161310D01*
X251273Y-161385D01*
X250881Y-161490D01*
X250550Y-161625D01*
X250279Y-161790D01*
X250068Y-161985D01*
X249917Y-162210D01*
X249826Y-162465D01*
X249795Y-162750D01*
X249807Y-158638D01*
X252807Y-158250D01*
Y-161250D01*
D02*
G37*
G36*
X261333Y-158408D02*
X261283Y-158719D01*
X261338Y-159092D01*
X261498Y-159528D01*
X261764Y-160027D01*
X262135Y-160589D01*
X262611Y-161214D01*
X263878Y-162651D01*
X264670Y-163464D01*
X262549Y-165585D01*
X261744Y-164802D01*
X259708Y-163084D01*
X259155Y-162721D01*
X258664Y-162464D01*
X258236Y-162312D01*
X257872Y-162266D01*
X257569Y-162324D01*
X257330Y-162488D01*
X261488Y-158161D01*
X261333Y-158408D01*
D02*
G37*
G36*
X58385Y-163940D02*
X58534Y-164365D01*
X58785Y-164740D01*
X59135Y-165065D01*
X59584Y-165340D01*
X60135Y-165565D01*
X60785Y-165740D01*
X61535Y-165865D01*
X62384Y-165940D01*
X63335Y-165965D01*
Y-170965D01*
X62384Y-170978D01*
X60135Y-171176D01*
X59584Y-171294D01*
X59135Y-171439D01*
X58785Y-171611D01*
X58534Y-171809D01*
X58385Y-172033D01*
X58334Y-172283D01*
Y-163465D01*
X58385Y-163940D01*
D02*
G37*
G36*
X267567Y-166333D02*
X267915Y-166599D01*
X268287Y-166833D01*
X268681Y-167035D01*
X269099Y-167205D01*
X269540Y-167344D01*
X270004Y-167450D01*
X270491Y-167524D01*
X271001Y-167567D01*
X271534Y-167577D01*
X266662Y-172449D01*
X266652Y-171916D01*
X266609Y-171406D01*
X266535Y-170919D01*
X266428Y-170455D01*
X266290Y-170014D01*
X266120Y-169597D01*
X265918Y-169202D01*
X265684Y-168831D01*
X265418Y-168482D01*
X265120Y-168157D01*
X267242Y-166035D01*
X267567Y-166333D01*
D02*
G37*
G36*
X155470Y-179646D02*
X155089Y-179269D01*
X154375Y-178636D01*
X154041Y-178378D01*
X153723Y-178160D01*
X153421Y-177982D01*
X153134Y-177844D01*
X152862Y-177745D01*
X152606Y-177685D01*
X152366Y-177665D01*
Y-176665D01*
X152606Y-176646D01*
X152862Y-176586D01*
X153134Y-176487D01*
X153421Y-176348D01*
X153723Y-176170D01*
X154041Y-175952D01*
X154375Y-175695D01*
X155089Y-175061D01*
X155470Y-174685D01*
Y-179646D01*
D02*
G37*
G36*
X167965Y-180709D02*
X167429Y-180711D01*
X166476Y-180768D01*
X166058Y-180822D01*
X165679Y-180893D01*
X165340Y-180981D01*
X165039Y-181086D01*
X164777Y-181208D01*
X164554Y-181347D01*
X164370Y-181503D01*
X163663Y-180796D01*
X163819Y-180612D01*
X163958Y-180389D01*
X164079Y-180127D01*
X164184Y-179826D01*
X164272Y-179486D01*
X164343Y-179107D01*
X164397Y-178689D01*
X164454Y-177736D01*
X164457Y-177201D01*
X167965Y-180709D01*
D02*
G37*
D12*
X162583Y-182583D02*
X168000Y-177165D01*
X106500Y-155000D02*
X113000D01*
X120500Y-162500D01*
Y-175000D02*
Y-162500D01*
Y-175000D02*
X128083Y-182583D01*
X162583D01*
X101000Y-151500D02*
X116000D01*
X124500Y-160000D01*
Y-172000D02*
Y-160000D01*
Y-172000D02*
X129665Y-177165D01*
X158000D01*
X245663Y-95663D02*
X245827Y-95827D01*
X245500Y-95500D02*
X245663Y-95663D01*
X245500Y-57000D02*
X245827Y-57327D01*
Y-66000D02*
Y-57327D01*
Y-102000D02*
Y-95827D01*
X247000Y-135000D02*
X247153Y-135153D01*
Y-140500D02*
Y-135153D01*
X138500Y-114000D02*
X143000D01*
X114500Y-105500D02*
X119500Y-100500D01*
X89992Y-105500D02*
X114500D01*
X88240Y-103748D02*
X89992Y-105500D01*
X87500Y-82500D02*
X88000D01*
X87327Y-82327D02*
X87500Y-82500D01*
X87327Y-82327D02*
X91500D01*
X141654Y-76500D02*
X148000D01*
X141000Y-77153D02*
X141654Y-76500D01*
X95500Y-97000D02*
Y-96459D01*
X96000Y-95959D01*
Y-91500D01*
X90000Y-66181D02*
X92681D01*
X250500Y-146500D02*
Y-140500D01*
Y-146598D02*
Y-146500D01*
Y-146598D02*
X251740Y-147839D01*
Y-151874D02*
Y-147839D01*
X249173Y-102000D02*
X249346Y-102173D01*
Y-108000D02*
Y-102173D01*
Y-108098D02*
Y-108000D01*
Y-108098D02*
X250028Y-108780D01*
X250126D01*
X250740Y-109394D01*
Y-114374D02*
Y-109394D01*
X249173Y-72000D02*
Y-66000D01*
Y-72098D02*
Y-72000D01*
Y-72098D02*
X249854Y-72780D01*
X249953D01*
X251240Y-74067D01*
Y-77874D02*
Y-74067D01*
X246000Y-34000D02*
Y-28000D01*
Y-34098D02*
Y-34000D01*
Y-34098D02*
X246681Y-34780D01*
X246779D01*
X249161Y-37161D01*
Y-39294D02*
Y-37161D01*
Y-39294D02*
X249740Y-39874D01*
X134500Y-77153D02*
Y-71500D01*
Y-80500D02*
X141000D01*
X139500Y-90500D02*
X141000Y-89000D01*
Y-80500D01*
X134500Y-90500D02*
X139500D01*
X134000Y-91000D02*
X134500Y-90500D01*
X125669Y-91000D02*
X134000D01*
X134402Y-87154D02*
X134500D01*
X133248Y-86000D02*
X134402Y-87154D01*
X125669Y-86000D02*
X133248D01*
X119500Y-85000D02*
X122917Y-81583D01*
X125087D01*
X125669Y-81000D01*
X119500Y-100500D02*
Y-85000D01*
X80000Y-117500D02*
Y-116500D01*
Y-117500D02*
X84500Y-113000D01*
X91980Y-118480D02*
X92000Y-118500D01*
X91980Y-118480D02*
Y-113000D01*
X41000Y-109000D02*
X43000Y-111000D01*
X45559D01*
X55626D02*
X58126Y-108500D01*
X48906Y-111000D02*
X55626D01*
X48906D02*
Y-104657D01*
X35433Y-103425D02*
X36665Y-104657D01*
X45559D01*
X68673Y-98000D02*
X75327D01*
X65327Y-105500D02*
Y-98000D01*
Y-105500D02*
X68327Y-108500D01*
X73874D01*
X58673Y-98000D02*
X65327D01*
X48673D02*
X55327D01*
X40008D02*
X45327D01*
X35433Y-93425D02*
X40008Y-98000D01*
X82492D02*
X86240Y-101748D01*
X86921D01*
X88240Y-103067D01*
Y-103748D02*
Y-103067D01*
X78673Y-98000D02*
X82492D01*
X78673D02*
Y-94173D01*
X76000Y-91500D02*
X78673Y-94173D01*
X72000Y-91500D02*
X76000D01*
X68654D02*
Y-91402D01*
X67689Y-90437D02*
X68654Y-91402D01*
X67689Y-90437D02*
Y-83500D01*
X60807D02*
X67689D01*
X59307Y-85000D02*
X60807Y-83500D01*
X46118Y-83425D02*
X47693Y-85000D01*
X35433Y-83425D02*
X46118D01*
X112000Y-98000D02*
X112500Y-97500D01*
X108000Y-98000D02*
X112000D01*
X104654D02*
X105000Y-97654D01*
X92654Y-91500D02*
Y-91402D01*
X91500Y-90248D02*
X92654Y-91402D01*
X91500Y-90248D02*
Y-85673D01*
X97500D01*
X97827Y-86000D01*
X105000D01*
X97500Y-82327D02*
X97598D01*
X98280Y-81646D01*
Y-81586D01*
X98865Y-81000D01*
X105000D01*
X95988Y-77000D02*
X98500D01*
X93740Y-74752D02*
X95988Y-77000D01*
X83000Y-71492D02*
Y-69500D01*
Y-71492D02*
X86260Y-74752D01*
X92681Y-66181D02*
X102500Y-76000D01*
X105000D01*
X90000Y-66181D02*
Y-65500D01*
X87000Y-59500D02*
X89586Y-62086D01*
Y-65086D02*
Y-62086D01*
Y-65086D02*
X90000Y-65500D01*
X80346Y-59500D02*
X87000D01*
X80346D02*
Y-54846D01*
X78500Y-53000D02*
X80346Y-54846D01*
X72500Y-53000D02*
X78500D01*
X67689Y-45434D02*
X69153Y-46898D01*
X67689Y-45434D02*
Y-44000D01*
X69153Y-53000D02*
Y-46898D01*
X59307Y-49000D02*
X62689D01*
X67689Y-44000D01*
X70289Y-59500D02*
X77000D01*
X66942Y-65942D02*
X71113Y-70113D01*
X74987D01*
X75374Y-70500D01*
X66942Y-65942D02*
Y-59500D01*
X60231D02*
X66942D01*
X50173D02*
X56884D01*
X57024Y-67898D02*
X59626Y-70500D01*
X49905Y-67898D02*
X57024D01*
X41102D02*
X46559D01*
X41000Y-68000D02*
X41102Y-67898D01*
X49905Y-74000D02*
Y-67898D01*
X35433Y-73425D02*
X36008Y-74000D01*
X46559D01*
X41000Y-59500D02*
X46827D01*
X37075Y-63425D02*
X41000Y-59500D01*
X35433Y-63425D02*
X37075D01*
X39849Y-52152D02*
X43000Y-49000D01*
X47693D01*
X36707Y-52152D02*
X39849D01*
X35433Y-53425D02*
X36707Y-52152D01*
X177327Y-44327D02*
X179000Y-46000D01*
X174000Y-44327D02*
X177327D01*
X152500Y-48000D02*
X152626Y-48126D01*
X159260D01*
X62769Y-37732D02*
X64500Y-36000D01*
X60942Y-37732D02*
X62769D01*
X60673Y-38000D02*
X60942Y-37732D01*
X57327Y-38000D02*
X57559Y-37768D01*
Y-31240D01*
X182000Y-114000D02*
X183500Y-112500D01*
X155673Y-114000D02*
X182000D01*
X146346Y-114000D02*
X146346Y-114000D01*
X152327D01*
X152000Y-116500D02*
Y-114327D01*
X152327Y-114000D01*
X152000Y-116500D02*
X153500Y-118000D01*
X158500D01*
X160835Y-120335D01*
Y-123000D02*
Y-120335D01*
D21*
X165000Y-138000D02*
X166500Y-139500D01*
Y-143500D02*
Y-139500D01*
X160000Y-150000D02*
X166500Y-143500D01*
X160000Y-158000D02*
Y-150000D01*
X160835Y-138000D02*
X165000D01*
D26*
X58126Y-108500D02*
D03*
X59626Y-70500D02*
D03*
X70126Y-139000D02*
D03*
X55000Y-151626D02*
D03*
Y-167374D02*
D03*
D27*
X73874Y-108500D02*
D03*
X75374Y-70500D02*
D03*
X85874Y-139000D02*
D03*
D28*
X88240Y-103748D02*
D03*
X90000Y-65500D02*
D03*
X163000Y-38874D02*
D03*
X246000Y-49126D02*
D03*
X247500Y-87126D02*
D03*
X247000Y-123626D02*
D03*
X248000Y-161126D02*
D03*
D29*
X91980Y-113000D02*
D03*
X84500D02*
D03*
X93740Y-74752D02*
D03*
X86260D02*
D03*
X166740Y-48126D02*
D03*
X159260D02*
D03*
X242260Y-39874D02*
D03*
X249740D02*
D03*
X243760Y-77874D02*
D03*
X251240D02*
D03*
X243260Y-114374D02*
D03*
X250740D02*
D03*
X244260Y-151874D02*
D03*
X251740D02*
D03*
D30*
X48906Y-104657D02*
D03*
X45559D02*
D03*
X48906Y-111000D02*
D03*
X45559D02*
D03*
X68654Y-91500D02*
D03*
X72000D02*
D03*
X75327Y-98000D02*
D03*
X78673D02*
D03*
X65327D02*
D03*
X68673D02*
D03*
X55327D02*
D03*
X58673D02*
D03*
X45327D02*
D03*
X48673D02*
D03*
X49905Y-74000D02*
D03*
X46559D02*
D03*
X49905Y-67898D02*
D03*
X46559D02*
D03*
X66942Y-59500D02*
D03*
X70289D02*
D03*
X77000D02*
D03*
X80346D02*
D03*
X56884D02*
D03*
X60231D02*
D03*
X46827D02*
D03*
X50173D02*
D03*
X69153Y-53000D02*
D03*
X72500D02*
D03*
X96000Y-91500D02*
D03*
X92654D02*
D03*
X108000Y-98000D02*
D03*
X104654D02*
D03*
X57327Y-38000D02*
D03*
X60673D02*
D03*
X246000Y-28000D02*
D03*
X242653D02*
D03*
X246000Y-34000D02*
D03*
X242653D02*
D03*
X249173Y-66000D02*
D03*
X245827D02*
D03*
X249173Y-72000D02*
D03*
X245827D02*
D03*
X249173Y-102000D02*
D03*
X245827D02*
D03*
X249346Y-108000D02*
D03*
X246000D02*
D03*
X250500Y-140500D02*
D03*
X247153D02*
D03*
X250500Y-146500D02*
D03*
X247153D02*
D03*
X152327Y-114000D02*
D03*
X155673D02*
D03*
X143000Y-114000D02*
D03*
X146346D02*
D03*
D31*
X59307Y-85000D02*
D03*
X47693D02*
D03*
X59307Y-49000D02*
D03*
X47693D02*
D03*
D32*
X91500Y-82327D02*
D03*
Y-85673D02*
D03*
X97500Y-82327D02*
D03*
Y-85673D02*
D03*
X134500Y-77153D02*
D03*
Y-80500D02*
D03*
X141000Y-77153D02*
D03*
Y-80500D02*
D03*
X134500Y-87154D02*
D03*
Y-90500D02*
D03*
X133500Y-132173D02*
D03*
Y-128827D02*
D03*
X174000Y-44327D02*
D03*
Y-47673D02*
D03*
X160000Y-161346D02*
D03*
Y-158000D02*
D03*
X174000Y-34827D02*
D03*
Y-38173D02*
D03*
D33*
X105000Y-76000D02*
D03*
Y-81000D02*
D03*
Y-86000D02*
D03*
Y-91000D02*
D03*
X125669Y-76000D02*
D03*
Y-81000D02*
D03*
Y-86000D02*
D03*
Y-91000D02*
D03*
X160835Y-138000D02*
D03*
Y-133000D02*
D03*
Y-128000D02*
D03*
Y-123000D02*
D03*
X140165Y-138000D02*
D03*
Y-133000D02*
D03*
Y-128000D02*
D03*
Y-123000D02*
D03*
D34*
X57559Y-23760D02*
D03*
Y-27500D02*
D03*
Y-31240D02*
D03*
X67441D02*
D03*
Y-23760D02*
D03*
D35*
X56500Y-138110D02*
D03*
Y-121890D02*
D03*
D36*
X72000Y-168465D02*
D03*
Y-151535D02*
D03*
D37*
X106500Y-141277D02*
D03*
Y-119723D02*
D03*
D38*
X150500Y-130500D02*
D03*
D39*
X185500Y-156854D02*
D03*
Y-126146D02*
D03*
D40*
X164620Y-98500D02*
D03*
X192379D02*
D03*
D41*
X174500Y-76500D02*
D03*
X180563D02*
D03*
D42*
X193750Y-59000D02*
D03*
D43*
X180250D02*
D03*
D44*
X189600Y-36100D02*
D03*
D45*
X195405Y-48587D02*
D03*
X183595D02*
D03*
D46*
X189500Y-47100D02*
D03*
D47*
X208723Y-44000D02*
D03*
X230277D02*
D03*
D48*
X258500Y-34250D02*
D03*
X259000Y-146250D02*
D03*
X258500Y-108750D02*
D03*
Y-72250D02*
D03*
D49*
Y-47750D02*
D03*
X259000Y-159750D02*
D03*
X258500Y-122250D02*
D03*
Y-85750D02*
D03*
D50*
X125500Y-133531D02*
D03*
Y-127469D02*
D03*
X47500Y-23968D02*
D03*
Y-30031D02*
D03*
X76500Y-23968D02*
D03*
Y-30031D02*
D03*
D51*
X150110Y-149500D02*
D03*
X133890D02*
D03*
D87*
X198000Y-19685D02*
X208000D01*
X198000Y-177165D02*
X208000D01*
D88*
X260585Y-161500D02*
X271583Y-172498D01*
X260500Y-161500D02*
X260585D01*
X259013Y-34763D02*
X262351D01*
X258500Y-34250D02*
X259013Y-34763D01*
X262351D02*
X271583Y-43994D01*
Y-62498D02*
Y-60833D01*
X259750Y-49000D02*
X271583Y-60833D01*
X259500Y-49000D02*
X259750D01*
X258500Y-48000D02*
X259500Y-49000D01*
X258500Y-48000D02*
Y-47750D01*
X270274Y-79352D02*
X271583Y-80661D01*
X265602Y-79352D02*
X270274D01*
X258500Y-72250D02*
X265602Y-79352D01*
X271583Y-99165D02*
Y-98833D01*
X260250Y-87500D02*
X271583Y-98833D01*
X260000Y-87500D02*
X260250D01*
X258500Y-86000D02*
X260000Y-87500D01*
X258500Y-86000D02*
Y-85750D01*
X271583Y-135832D02*
Y-135333D01*
X260250Y-124000D02*
X271583Y-135333D01*
X260000Y-124000D02*
X260250D01*
X258500Y-122500D02*
X260000Y-124000D01*
X258500Y-122500D02*
Y-122250D01*
Y-108750D02*
X263005D01*
X271583Y-117328D01*
X259000Y-160000D02*
X260500Y-161500D01*
X259000Y-160000D02*
Y-159750D01*
X270340Y-152752D02*
X271583Y-153994D01*
X265502Y-152752D02*
X270340D01*
X259000Y-146250D02*
X265502Y-152752D01*
X248000Y-161126D02*
Y-160569D01*
X248819Y-159750D01*
X259000D01*
X247000Y-123626D02*
Y-123069D01*
X247819Y-122250D01*
X258500D01*
X247500Y-87126D02*
Y-86569D01*
X248319Y-85750D01*
X258500D01*
X246319Y-48126D02*
X258124D01*
X246000Y-49126D02*
Y-48445D01*
X246319Y-48126D01*
X218000Y-19685D02*
X228000D01*
X218000Y-34723D02*
Y-19685D01*
X213334Y-39389D02*
X218000Y-34723D01*
X213334Y-43532D02*
Y-39389D01*
X212865Y-44000D02*
X213334Y-43532D01*
X208723Y-44000D02*
X212865D01*
X198219Y-44246D02*
X208477D01*
X195405Y-47060D02*
X198219Y-44246D01*
X208477D02*
X208723Y-44000D01*
X195405Y-48587D02*
Y-47060D01*
Y-57223D02*
Y-48587D01*
X193750Y-58879D02*
X195405Y-57223D01*
X193750Y-59000D02*
Y-58879D01*
X47831Y-29701D02*
X50299D01*
X47500Y-30031D02*
X47831Y-29701D01*
X50299D02*
X52500Y-27500D01*
X57559D01*
X35433Y-28067D02*
X39740Y-23760D01*
X57559D01*
X35433Y-43425D02*
Y-28067D01*
X148000Y-128000D02*
X150500Y-130500D01*
X140165Y-128000D02*
X148000D01*
X133500Y-128650D02*
X134150Y-128000D01*
X140165D01*
D89*
X344417Y-62498D02*
X356718Y-50197D01*
X362000D01*
X330523Y-85500D02*
X350000D01*
X316858Y-99165D02*
X330523Y-85500D01*
X350000D02*
X356035Y-91535D01*
X362000D01*
X316858Y-135832D02*
X333595Y-119095D01*
X362000D01*
X316858Y-167142D02*
X328000Y-156000D01*
X352654D01*
X362000Y-146653D01*
X316858Y-172498D02*
Y-167142D01*
D90*
X188000Y-19685D02*
X197185Y-10500D01*
X236500D01*
X242653Y-16654D01*
Y-28000D02*
Y-16654D01*
D91*
X105500Y-102250D02*
Y-102000D01*
X104654Y-101154D02*
X105500Y-102000D01*
X104654Y-101154D02*
Y-98000D01*
X122500Y-103000D02*
X144000D01*
X152500Y-94500D01*
Y-68000D01*
X155000Y-65500D01*
X192000D01*
X193750Y-63750D01*
Y-59000D01*
X238000Y-151500D02*
X238374Y-151874D01*
X244260D01*
X247042Y-146611D02*
X247153Y-146500D01*
X247042Y-149092D02*
Y-146611D01*
X244260Y-151874D02*
X247042Y-149092D01*
X237000Y-114500D02*
X237126Y-114374D01*
X243260D01*
X246000Y-108098D02*
Y-108000D01*
X245819Y-108280D02*
X246000Y-108098D01*
X245721Y-108280D02*
X245819D01*
X243260Y-110740D02*
X245721Y-108280D01*
X243260Y-114374D02*
Y-110740D01*
X237000Y-78000D02*
X237126Y-77874D01*
X243760D01*
X245827Y-72098D02*
Y-72000D01*
X245646Y-72280D02*
X245827Y-72098D01*
X245547Y-72280D02*
X245646D01*
X243760Y-74067D02*
X245547Y-72280D01*
X243760Y-77874D02*
Y-74067D01*
X237500Y-33500D02*
X238000Y-34000D01*
X242653D01*
Y-34098D02*
Y-34000D01*
X242260Y-34492D02*
X242653Y-34098D01*
X242260Y-39874D02*
Y-34492D01*
X126000Y-75917D02*
Y-69500D01*
X125917Y-76000D02*
X126000Y-75917D01*
X125669Y-76000D02*
X125917D01*
X105000Y-97654D02*
Y-91000D01*
X177673Y-38173D02*
X183456Y-43956D01*
Y-48449D02*
Y-43956D01*
Y-48449D02*
X183595Y-48587D01*
X174000Y-38173D02*
X177673D01*
X163701D02*
X174000D01*
X163000Y-38874D02*
X163701Y-38173D01*
X174000Y-52750D02*
X178500Y-57250D01*
Y-57500D02*
Y-57250D01*
Y-57500D02*
X180000Y-59000D01*
X180250D01*
X174000Y-52750D02*
Y-47673D01*
X173902D02*
X174000D01*
X173449Y-48126D02*
X173902Y-47673D01*
X166740Y-48126D02*
X173449D01*
D92*
X126031Y-133000D02*
X140165D01*
X125500Y-133531D02*
X126031Y-133000D01*
D93*
X85874Y-139000D02*
X120031D01*
X125500Y-133531D01*
X70126Y-151398D02*
Y-139000D01*
Y-151398D02*
X70264Y-151535D01*
X72000D01*
X55000Y-167618D02*
X55847Y-168465D01*
X55000Y-167618D02*
Y-167374D01*
X55847Y-168465D02*
X72000D01*
X55000Y-152579D02*
Y-151626D01*
X54154Y-153425D02*
X55000Y-152579D01*
X35433Y-153425D02*
X54154D01*
X35433Y-143425D02*
Y-133425D01*
D94*
X56750Y-120750D02*
D03*
D95*
X62750Y-138000D02*
D03*
D96*
X229500Y-48000D02*
D03*
D97*
X183250Y-31250D02*
D03*
D98*
X71000Y-135750D02*
D03*
D99*
X79000Y-32000D02*
D03*
D100*
X74750Y-22250D02*
D03*
D101*
X68000Y-26000D02*
D03*
D102*
X46000Y-33500D02*
D03*
D103*
X166750Y-91000D02*
D03*
D104*
X193500Y-88500D02*
D03*
D105*
X186250Y-126750D02*
D03*
D106*
X193500Y-115750D02*
D03*
D107*
X187000Y-159250D02*
D03*
D108*
X167500Y-165000D02*
D03*
D109*
X136250Y-151500D02*
D03*
D110*
X150500Y-137750D02*
D03*
D111*
X115750Y-120500D02*
D03*
D112*
X35433Y-93425D02*
D03*
Y-53425D02*
D03*
Y-63425D02*
D03*
Y-73425D02*
D03*
Y-83425D02*
D03*
Y-103425D02*
D03*
Y-113425D02*
D03*
Y-123425D02*
D03*
Y-133425D02*
D03*
Y-143425D02*
D03*
Y-153425D02*
D03*
D113*
Y-43425D02*
D03*
D114*
X168000Y-19685D02*
D03*
X158000D02*
D03*
X178000D02*
D03*
X188000D02*
D03*
X198000D02*
D03*
X208000D02*
D03*
X218000D02*
D03*
X168000Y-177165D02*
D03*
X158000D02*
D03*
X178000D02*
D03*
X188000D02*
D03*
X198000D02*
D03*
X208000D02*
D03*
X218000D02*
D03*
D115*
X228000Y-19685D02*
D03*
Y-177165D02*
D03*
D116*
X79500Y-83500D02*
D03*
X67689D02*
D03*
X79500Y-44000D02*
D03*
X67689D02*
D03*
D117*
X103000Y-172000D02*
D03*
X272500Y-24000D02*
D03*
D118*
X271583Y-62498D02*
D03*
X316858D02*
D03*
X344417D02*
D03*
X271583Y-43994D02*
D03*
Y-99165D02*
D03*
X316858D02*
D03*
X344417D02*
D03*
X271583Y-80661D02*
D03*
Y-135832D02*
D03*
X316858D02*
D03*
X344417D02*
D03*
X271583Y-117328D02*
D03*
Y-172498D02*
D03*
X316858D02*
D03*
X344417D02*
D03*
X271583Y-153994D02*
D03*
D119*
X362000Y-77756D02*
D03*
Y-105315D02*
D03*
Y-132874D02*
D03*
Y-119095D02*
D03*
Y-91535D02*
D03*
Y-63976D02*
D03*
Y-50197D02*
D03*
D120*
Y-146653D02*
D03*
D121*
X152665Y-134831D02*
D03*
X148335D02*
D03*
X152665Y-130500D02*
D03*
X148335D02*
D03*
X152665Y-126169D02*
D03*
X148335D02*
D03*
D122*
X46500Y-118500D02*
D03*
X67500Y-123000D02*
D03*
Y-119000D02*
D03*
X106500Y-155000D02*
D03*
X101000Y-151500D02*
D03*
X245500Y-57000D02*
D03*
X245663Y-95663D02*
D03*
X247077Y-135077D02*
D03*
X188500Y-28500D02*
D03*
X138500Y-114000D02*
D03*
X105500Y-102250D02*
D03*
X122500Y-103000D02*
D03*
X88000Y-82500D02*
D03*
X95500Y-97000D02*
D03*
X148000Y-76500D02*
D03*
X238000Y-151500D02*
D03*
X237000Y-114500D02*
D03*
Y-78000D02*
D03*
X237500Y-33500D02*
D03*
X126000Y-69500D02*
D03*
X134500Y-71500D02*
D03*
X80000Y-116500D02*
D03*
X91980Y-118480D02*
D03*
X41000Y-109000D02*
D03*
X112500Y-97500D02*
D03*
X98500Y-77000D02*
D03*
X83000Y-69500D02*
D03*
X41000Y-68000D02*
D03*
X233500Y-52000D02*
D03*
X224500D02*
D03*
X182000Y-28500D02*
D03*
X74000Y-129000D02*
D03*
X67000D02*
D03*
X179000Y-46000D02*
D03*
X152500Y-48000D02*
D03*
X83000Y-35000D02*
D03*
Y-30000D02*
D03*
X82500Y-24500D02*
D03*
Y-20000D02*
D03*
X64500Y-36000D02*
D03*
X49500Y-35000D02*
D03*
X42500D02*
D03*
X204500Y-78500D02*
D03*
X205000Y-87000D02*
D03*
X194000D02*
D03*
X170000Y-106500D02*
D03*
X160000Y-106000D02*
D03*
X161500Y-91500D02*
D03*
X173000Y-86500D02*
D03*
X160500Y-85500D02*
D03*
Y-75500D02*
D03*
X205000Y-97500D02*
D03*
X198500Y-112500D02*
D03*
X190500D02*
D03*
X183500D02*
D03*
X205000Y-128500D02*
D03*
Y-121500D02*
D03*
X204500Y-106500D02*
D03*
X205000Y-113500D02*
D03*
X129500Y-114500D02*
D03*
X122000D02*
D03*
X115000D02*
D03*
M02*
