G04*
G04 #@! TF.GenerationSoftware,Altium Limited,Altium Designer,20.0.2 (26)*
G04*
G04 Layer_Color=8388736*
%FSLAX25Y25*%
%MOIN*%
G70*
G01*
G75*
%ADD11C,0.00984*%
%ADD13C,0.00787*%
%ADD17C,0.00591*%
%ADD145C,0.00394*%
%ADD146C,0.00197*%
D11*
X81232Y-113074D02*
G03*
X81232Y-113074I-492J0D01*
G01*
X82992Y-74826D02*
G03*
X82992Y-74826I-492J0D01*
G01*
X155992Y-48200D02*
G03*
X155992Y-48200I-492J0D01*
G01*
X253992Y-39800D02*
G03*
X253992Y-39800I-492J0D01*
G01*
X255492Y-77800D02*
G03*
X255492Y-77800I-492J0D01*
G01*
X254992Y-114300D02*
G03*
X254992Y-114300I-492J0D01*
G01*
X255992Y-151800D02*
G03*
X255992Y-151800I-492J0D01*
G01*
D13*
X110165Y-96602D02*
G03*
X109299Y-95736I-866J0D01*
G01*
Y-100264D02*
G03*
X110165Y-99398I0J866D01*
G01*
X103354Y-95736D02*
G03*
X102488Y-96602I0J-866D01*
G01*
Y-99398D02*
G03*
X103354Y-100264I866J0D01*
G01*
X134898Y-134339D02*
G03*
X135764Y-133472I0J866D01*
G01*
X131236D02*
G03*
X132102Y-134339I866J0D01*
G01*
X135764Y-127528D02*
G03*
X134898Y-126661I-866J0D01*
G01*
X132102D02*
G03*
X131236Y-127528I0J-866D01*
G01*
X183575Y-74965D02*
G03*
X182000Y-73390I-1575J0D01*
G01*
X182000Y-79610D02*
G03*
X183575Y-78035I-0J1575D01*
G01*
X171488Y-78035D02*
G03*
X173063Y-79610I1575J0D01*
G01*
Y-73390D02*
G03*
X171488Y-74965I0J-1575D01*
G01*
X161398Y-163512D02*
G03*
X162264Y-162646I0J866D01*
G01*
X157736D02*
G03*
X158602Y-163512I866J0D01*
G01*
X162264Y-156701D02*
G03*
X161398Y-155835I-866J0D01*
G01*
X158602D02*
G03*
X157736Y-156701I0J-866D01*
G01*
X128610Y-126031D02*
G03*
X127035Y-124457I-1575J-0D01*
G01*
X123965D02*
G03*
X122390Y-126031I0J-1575D01*
G01*
X122390Y-134968D02*
G03*
X123965Y-136543I1575J0D01*
G01*
X127035Y-136543D02*
G03*
X128610Y-134968I0J1575D01*
G01*
X44390Y-31468D02*
G03*
X45965Y-33043I1575J0D01*
G01*
X49035D02*
G03*
X50610Y-31468I0J1575D01*
G01*
X50610Y-22532D02*
G03*
X49035Y-20957I-1575J-0D01*
G01*
X45965Y-20957D02*
G03*
X44390Y-22532I0J-1575D01*
G01*
X73390Y-31468D02*
G03*
X74965Y-33043I1575J0D01*
G01*
X78035D02*
G03*
X79610Y-31468I0J1575D01*
G01*
X79610Y-22532D02*
G03*
X78035Y-20957I-1575J-0D01*
G01*
X74965Y-20957D02*
G03*
X73390Y-22532I0J-1575D01*
G01*
X94440Y-110374D02*
Y-104874D01*
X82040Y-110374D02*
Y-104874D01*
X84894D01*
X91587D02*
X94440D01*
X43394Y-106921D02*
Y-102394D01*
X51071Y-106921D02*
Y-102394D01*
X43394D02*
X46051D01*
X48413D02*
X51071D01*
X43394Y-106921D02*
X46051D01*
X48413D02*
X51071D01*
X43394Y-113264D02*
Y-108736D01*
X51071Y-113264D02*
Y-108736D01*
X43394D02*
X46051D01*
X48413D02*
X51071D01*
X43394Y-113264D02*
X46051D01*
X48413D02*
X51071D01*
X74165Y-93764D02*
Y-89236D01*
X66488Y-93764D02*
Y-89236D01*
X71508Y-93764D02*
X74165D01*
X66488D02*
X69146D01*
X71508Y-89236D02*
X74165D01*
X66488D02*
X69146D01*
X80839Y-100264D02*
Y-95736D01*
X73161Y-100264D02*
Y-95736D01*
X78181Y-100264D02*
X80839D01*
X73161D02*
X75819D01*
X78181Y-95736D02*
X80839D01*
X73161D02*
X75819D01*
X70839Y-100264D02*
Y-95736D01*
X63161Y-100264D02*
Y-95736D01*
X68181Y-100264D02*
X70839D01*
X63161D02*
X65819D01*
X68181Y-95736D02*
X70839D01*
X63161D02*
X65819D01*
X60839Y-100264D02*
Y-95736D01*
X53161Y-100264D02*
Y-95736D01*
X58181Y-100264D02*
X60839D01*
X53161D02*
X55819D01*
X58181Y-95736D02*
X60839D01*
X53161D02*
X55819D01*
X50839Y-100264D02*
Y-95736D01*
X43161Y-100264D02*
Y-95736D01*
X48181Y-100264D02*
X50839D01*
X43161D02*
X45819D01*
X48181Y-95736D02*
X50839D01*
X43161D02*
X45819D01*
X44394Y-76264D02*
Y-71736D01*
X52071Y-76264D02*
Y-71736D01*
X44394D02*
X47051D01*
X49413D02*
X52071D01*
X44394Y-76264D02*
X47051D01*
X49413D02*
X52071D01*
X44394Y-70161D02*
Y-65634D01*
X52071Y-70161D02*
Y-65634D01*
X44394D02*
X47051D01*
X49413D02*
X52071D01*
X44394Y-70161D02*
X47051D01*
X49413D02*
X52071D01*
X72454Y-61764D02*
Y-57236D01*
X64777Y-61764D02*
Y-57236D01*
X69797Y-61764D02*
X72454D01*
X64777D02*
X67434D01*
X69797Y-57236D02*
X72454D01*
X64777D02*
X67434D01*
X82512Y-61764D02*
Y-57236D01*
X74835Y-61764D02*
Y-57236D01*
X79854Y-61764D02*
X82512D01*
X74835D02*
X77492D01*
X79854Y-57236D02*
X82512D01*
X74835D02*
X77492D01*
X62396Y-61764D02*
Y-57236D01*
X54719Y-61764D02*
Y-57236D01*
X59739Y-61764D02*
X62396D01*
X54719D02*
X57377D01*
X59739Y-57236D02*
X62396D01*
X54719D02*
X57377D01*
X52339Y-61764D02*
Y-57236D01*
X44661Y-61764D02*
Y-57236D01*
X49681Y-61764D02*
X52339D01*
X44661D02*
X47319D01*
X49681Y-57236D02*
X52339D01*
X44661D02*
X47319D01*
X74665Y-55264D02*
Y-50736D01*
X66988Y-55264D02*
Y-50736D01*
X72008Y-55264D02*
X74665D01*
X66988D02*
X69646D01*
X72008Y-50736D02*
X74665D01*
X66988D02*
X69646D01*
X89236Y-87839D02*
X93764D01*
X89236Y-80161D02*
X93764D01*
X89236Y-87839D02*
Y-85181D01*
Y-82819D02*
Y-80161D01*
X93764Y-87839D02*
Y-85181D01*
Y-82819D02*
Y-80161D01*
X95236Y-87839D02*
X99764D01*
X95236Y-80161D02*
X99764D01*
X95236Y-87839D02*
Y-85181D01*
Y-82819D02*
Y-80161D01*
X99764Y-87839D02*
Y-85181D01*
Y-82819D02*
Y-80161D01*
X90488Y-93764D02*
Y-89236D01*
X98165Y-93764D02*
Y-89236D01*
X90488D02*
X93146D01*
X95508D02*
X98165D01*
X90488Y-93764D02*
X93146D01*
X95508D02*
X98165D01*
X110165Y-99398D02*
Y-96602D01*
X107508Y-95736D02*
X109280D01*
X107508Y-100264D02*
X109280D01*
X103374Y-95736D02*
X105146D01*
X103374Y-100264D02*
X105146D01*
X102488Y-99398D02*
Y-96602D01*
X96200Y-72126D02*
Y-66626D01*
X83800Y-72126D02*
Y-66626D01*
X86654D01*
X93346D02*
X96200D01*
X62839Y-40264D02*
Y-35736D01*
X55161Y-40264D02*
Y-35736D01*
X60181Y-40264D02*
X62839D01*
X55161D02*
X57819D01*
X60181Y-35736D02*
X62839D01*
X55161D02*
X57819D01*
X132236Y-82665D02*
X136764D01*
X132236Y-74988D02*
X136764D01*
X132236Y-82665D02*
Y-80008D01*
Y-77646D02*
Y-74988D01*
X136764Y-82665D02*
Y-80008D01*
Y-77646D02*
Y-74988D01*
X138736Y-82665D02*
X143264D01*
X138736Y-74988D02*
X143264D01*
X138736Y-82665D02*
Y-80008D01*
Y-77646D02*
Y-74988D01*
X143264Y-82665D02*
Y-80008D01*
Y-77646D02*
Y-74988D01*
X132236Y-92665D02*
X136764D01*
X132236Y-84988D02*
X136764D01*
X132236Y-92665D02*
Y-90008D01*
Y-87646D02*
Y-84988D01*
X136764Y-92665D02*
Y-90008D01*
Y-87646D02*
Y-84988D01*
X132102Y-134339D02*
X134898D01*
X135764Y-133453D02*
Y-131681D01*
X131236Y-133453D02*
Y-131681D01*
X135764Y-129319D02*
Y-127547D01*
X131236Y-129319D02*
Y-127547D01*
X132102Y-126661D02*
X134898D01*
X173063Y-73390D02*
X175957D01*
X183575Y-78035D02*
Y-74965D01*
X171488Y-78035D02*
Y-74965D01*
X179106Y-73390D02*
X182000D01*
X179106Y-79610D02*
X182000D01*
X173063Y-79610D02*
X175957D01*
X169200Y-45500D02*
Y-40000D01*
X156800Y-45500D02*
Y-40000D01*
X159654D01*
X166346D02*
X169200D01*
X171736Y-49839D02*
X176264D01*
X171736Y-42161D02*
X176264D01*
X171736Y-49839D02*
Y-47181D01*
Y-44819D02*
Y-42161D01*
X176264Y-49839D02*
Y-47181D01*
Y-44819D02*
Y-42161D01*
X240488Y-30264D02*
Y-25736D01*
X248165Y-30264D02*
Y-25736D01*
X240488D02*
X243146D01*
X245508D02*
X248165D01*
X240488Y-30264D02*
X243146D01*
X245508D02*
X248165D01*
X240488Y-36264D02*
Y-31736D01*
X248165Y-36264D02*
Y-31736D01*
X240488D02*
X243146D01*
X245508D02*
X248165D01*
X240488Y-36264D02*
X243146D01*
X245508D02*
X248165D01*
X239800Y-48000D02*
Y-42500D01*
X252200Y-48000D02*
Y-42500D01*
X249346Y-48000D02*
X252200D01*
X239800D02*
X242654D01*
X243661Y-68264D02*
Y-63736D01*
X251339Y-68264D02*
Y-63736D01*
X243661D02*
X246319D01*
X248681D02*
X251339D01*
X243661Y-68264D02*
X246319D01*
X248681D02*
X251339D01*
X243661Y-74264D02*
Y-69736D01*
X251339Y-74264D02*
Y-69736D01*
X243661D02*
X246319D01*
X248681D02*
X251339D01*
X243661Y-74264D02*
X246319D01*
X248681D02*
X251339D01*
X241300Y-86000D02*
Y-80500D01*
X253700Y-86000D02*
Y-80500D01*
X250846Y-86000D02*
X253700D01*
X241300D02*
X244154D01*
X243661Y-104264D02*
Y-99736D01*
X251339Y-104264D02*
Y-99736D01*
X243661D02*
X246319D01*
X248681D02*
X251339D01*
X243661Y-104264D02*
X246319D01*
X248681D02*
X251339D01*
X243835Y-110264D02*
Y-105736D01*
X251512Y-110264D02*
Y-105736D01*
X243835D02*
X246492D01*
X248854D02*
X251512D01*
X243835Y-110264D02*
X246492D01*
X248854D02*
X251512D01*
X240800Y-122500D02*
Y-117000D01*
X253200Y-122500D02*
Y-117000D01*
X250346Y-122500D02*
X253200D01*
X240800D02*
X243654D01*
X244988Y-142764D02*
Y-138236D01*
X252665Y-142764D02*
Y-138236D01*
X244988D02*
X247646D01*
X250008D02*
X252665D01*
X244988Y-142764D02*
X247646D01*
X250008D02*
X252665D01*
X244988Y-148764D02*
Y-144236D01*
X252665Y-148764D02*
Y-144236D01*
X244988D02*
X247646D01*
X250008D02*
X252665D01*
X244988Y-148764D02*
X247646D01*
X250008D02*
X252665D01*
X241800Y-160000D02*
Y-154500D01*
X254200Y-160000D02*
Y-154500D01*
X251346Y-160000D02*
X254200D01*
X241800D02*
X244654D01*
X158602Y-163512D02*
X161398D01*
X162264Y-162626D02*
Y-160854D01*
X157736Y-162626D02*
Y-160854D01*
X162264Y-158492D02*
Y-156720D01*
X157736Y-158492D02*
Y-156720D01*
X158602Y-155835D02*
X161398D01*
X155181Y-116264D02*
X157839D01*
X150161D02*
X152819D01*
X155181Y-111736D02*
X157839D01*
X150161D02*
X152819D01*
X157839Y-116264D02*
Y-111736D01*
X150161Y-116264D02*
Y-111736D01*
X122390Y-128925D02*
Y-126031D01*
X122390Y-134968D02*
Y-132075D01*
X128610Y-134968D02*
Y-132075D01*
X123965Y-124457D02*
X127035D01*
X123965Y-136543D02*
X127035D01*
X128610Y-128925D02*
Y-126031D01*
X145854Y-116264D02*
X148512D01*
X140835D02*
X143492D01*
X145854Y-111736D02*
X148512D01*
X140835D02*
X143492D01*
X148512Y-116264D02*
Y-111736D01*
X140835Y-116264D02*
Y-111736D01*
X171736Y-40339D02*
Y-37681D01*
Y-35319D02*
Y-32661D01*
X176264Y-40339D02*
Y-37681D01*
Y-35319D02*
Y-32661D01*
X171736Y-40339D02*
X176264D01*
X171736Y-32661D02*
X176264D01*
X50610Y-31468D02*
Y-28575D01*
X50610Y-25425D02*
Y-22532D01*
X44390Y-25425D02*
Y-22532D01*
X45965Y-33043D02*
X49035D01*
X45965Y-20957D02*
X49035D01*
X44390Y-31468D02*
Y-28575D01*
X79610Y-31468D02*
Y-28575D01*
X79610Y-25425D02*
Y-22532D01*
X73390Y-25425D02*
Y-22532D01*
X74965Y-33043D02*
X78035D01*
X74965Y-20957D02*
X78035D01*
X73390Y-31468D02*
Y-28575D01*
D17*
X53008Y-101906D02*
X78992D01*
X53008Y-115193D02*
X78992D01*
Y-101906D01*
X53008Y-115193D02*
Y-101906D01*
X68657Y-115193D02*
Y-102004D01*
X53008Y-115193D02*
X78992D01*
Y-101906D01*
X53008D02*
X78992D01*
X53008Y-115193D02*
Y-101906D01*
X54508Y-63906D02*
X80492D01*
X54508Y-77193D02*
X80492D01*
Y-63906D01*
X54508Y-77193D02*
Y-63906D01*
X70157Y-77193D02*
Y-64004D01*
X54508Y-77193D02*
X80492D01*
Y-63906D01*
X54508D02*
X80492D01*
X54508Y-77193D02*
Y-63906D01*
X65008Y-132405D02*
X90992D01*
X65008Y-145693D02*
X90992D01*
Y-132405D01*
X65008Y-145693D02*
Y-132405D01*
X80658Y-145693D02*
Y-132504D01*
X65008Y-145693D02*
X90992D01*
Y-132405D01*
X65008D02*
X90992D01*
X65008Y-145693D02*
Y-132405D01*
D145*
X49478Y-146311D02*
X60522D01*
X49478Y-172689D02*
X60522D01*
X49478D02*
Y-146311D01*
X60522Y-172689D02*
Y-146311D01*
D146*
X102146Y-93736D02*
Y-73264D01*
X128524Y-93736D02*
Y-73264D01*
X102146D02*
X128524D01*
X102146Y-93736D02*
X128524D01*
X163689Y-140736D02*
Y-120264D01*
X137311Y-140736D02*
Y-120264D01*
X163689D01*
X137311Y-140736D02*
X163689D01*
X164831Y-167583D02*
X206169D01*
X164831Y-115417D02*
X206169D01*
X164831Y-167583D02*
Y-115417D01*
X206169Y-167583D02*
Y-115417D01*
M02*
