G04*
G04 #@! TF.GenerationSoftware,Altium Limited,Altium Designer,20.0.2 (26)*
G04*
G04 Layer_Color=128*
%FSLAX25Y25*%
%MOIN*%
G70*
G01*
G75*
%ADD147C,0.00200*%
D147*
X33268Y-93425D02*
X37598D01*
X35433Y-95591D02*
Y-91260D01*
X33268Y-43425D02*
X37598D01*
X35433Y-45591D02*
Y-41260D01*
X33268Y-53425D02*
X37598D01*
X35433Y-55590D02*
Y-51260D01*
X33268Y-63425D02*
X37598D01*
X35433Y-65591D02*
Y-61260D01*
X33268Y-73425D02*
X37598D01*
X35433Y-75590D02*
Y-71260D01*
X33268Y-83425D02*
X37598D01*
X35433Y-85590D02*
Y-81260D01*
X33268Y-103425D02*
X37598D01*
X35433Y-105591D02*
Y-101260D01*
X33268Y-113425D02*
X37598D01*
X35433Y-115591D02*
Y-111260D01*
X33268Y-123425D02*
X37598D01*
X35433Y-125591D02*
Y-121260D01*
X33268Y-133425D02*
X37598D01*
X35433Y-135591D02*
Y-131260D01*
X33268Y-143425D02*
X37598D01*
X35433Y-145591D02*
Y-141260D01*
X33268Y-153425D02*
X37598D01*
X35433Y-155591D02*
Y-151260D01*
X166032Y-19685D02*
X169968D01*
X168000Y-21654D02*
Y-17717D01*
X156032Y-19685D02*
X159968D01*
X158000Y-21654D02*
Y-17717D01*
X176031Y-19685D02*
X179969D01*
X178000Y-21654D02*
Y-17717D01*
X186031Y-19685D02*
X189969D01*
X188000Y-21654D02*
Y-17717D01*
X196031Y-19685D02*
X199969D01*
X198000Y-21654D02*
Y-17717D01*
X206031Y-19685D02*
X209968D01*
X208000Y-21654D02*
Y-17717D01*
X216032Y-19685D02*
X219969D01*
X218000Y-21654D02*
Y-17717D01*
X226031Y-19685D02*
X229969D01*
X228000Y-21654D02*
Y-17717D01*
X166032Y-177165D02*
X169968D01*
X168000Y-179134D02*
Y-175197D01*
X156032Y-177165D02*
X159968D01*
X158000Y-179134D02*
Y-175197D01*
X176031Y-177165D02*
X179969D01*
X178000Y-179134D02*
Y-175197D01*
X186031Y-177165D02*
X189969D01*
X188000Y-179134D02*
Y-175197D01*
X196031Y-177165D02*
X199969D01*
X198000Y-179134D02*
Y-175197D01*
X206031Y-177165D02*
X209968D01*
X208000Y-179134D02*
Y-175197D01*
X216032Y-177165D02*
X219969D01*
X218000Y-179134D02*
Y-175197D01*
X226031Y-177165D02*
X229969D01*
X228000Y-179134D02*
Y-175197D01*
X78319Y-83500D02*
X80681D01*
X79500Y-84681D02*
Y-82319D01*
X66508Y-83500D02*
X68870D01*
X67689Y-84681D02*
Y-82319D01*
X78319Y-44000D02*
X80681D01*
X79500Y-45181D02*
Y-42819D01*
X66508Y-44000D02*
X68870D01*
X67689Y-45181D02*
Y-42819D01*
X97095Y-172000D02*
X108905D01*
X103000Y-177905D02*
Y-166095D01*
X266595Y-24000D02*
X278405D01*
X272500Y-29906D02*
Y-18094D01*
X268630Y-62498D02*
X274536D01*
X271583Y-65451D02*
Y-59545D01*
X313905Y-62498D02*
X319811D01*
X316858Y-65451D02*
Y-59545D01*
X341464Y-62498D02*
X347370D01*
X344417Y-65451D02*
Y-59545D01*
X268630Y-43994D02*
X274536D01*
X271583Y-46947D02*
Y-41041D01*
X268630Y-99165D02*
X274536D01*
X271583Y-102118D02*
Y-96212D01*
X313905Y-99165D02*
X319811D01*
X316858Y-102118D02*
Y-96212D01*
X341464Y-99165D02*
X347370D01*
X344417Y-102118D02*
Y-96212D01*
X268630Y-80661D02*
X274536D01*
X271583Y-83614D02*
Y-77708D01*
X268630Y-135832D02*
X274536D01*
X271583Y-138784D02*
Y-132879D01*
X313905Y-135832D02*
X319811D01*
X316858Y-138784D02*
Y-132879D01*
X341464Y-135832D02*
X347370D01*
X344417Y-138784D02*
Y-132879D01*
X268630Y-117328D02*
X274536D01*
X271583Y-120280D02*
Y-114375D01*
X268630Y-172498D02*
X274536D01*
X271583Y-175451D02*
Y-169545D01*
X313905Y-172498D02*
X319811D01*
X316858Y-175451D02*
Y-169545D01*
X341464Y-172498D02*
X347370D01*
X344417Y-175451D02*
Y-169545D01*
X268630Y-153994D02*
X274536D01*
X271583Y-156947D02*
Y-151041D01*
X359244Y-77756D02*
X364756D01*
X362000Y-80512D02*
Y-75000D01*
X359244Y-105315D02*
X364756D01*
X362000Y-108071D02*
Y-102559D01*
X359244Y-132874D02*
X364756D01*
X362000Y-135630D02*
Y-130118D01*
X359244Y-146653D02*
X364756D01*
X362000Y-149409D02*
Y-143898D01*
X359244Y-119095D02*
X364756D01*
X362000Y-121850D02*
Y-116339D01*
X359244Y-91535D02*
X364756D01*
X362000Y-94291D02*
Y-88779D01*
X359244Y-63976D02*
X364756D01*
X362000Y-66732D02*
Y-61221D01*
X359244Y-50197D02*
X364756D01*
X362000Y-52953D02*
Y-47441D01*
X152272Y-134831D02*
X153059D01*
X152665Y-135224D02*
Y-134437D01*
X147941Y-134831D02*
X148728D01*
X148335Y-135224D02*
Y-134437D01*
X152272Y-130500D02*
X153059D01*
X152665Y-130894D02*
Y-130106D01*
X147941Y-130500D02*
X148728D01*
X148335Y-130894D02*
Y-130106D01*
X152272Y-126169D02*
X153059D01*
X152665Y-126563D02*
Y-125776D01*
X147941Y-126169D02*
X148728D01*
X148335Y-126563D02*
Y-125776D01*
X45600Y-118500D02*
X47400D01*
X46500Y-119400D02*
Y-117600D01*
X66600Y-123000D02*
X68400D01*
X67500Y-123900D02*
Y-122100D01*
X66600Y-119000D02*
X68400D01*
X67500Y-119900D02*
Y-118100D01*
X105600Y-155000D02*
X107400D01*
X106500Y-155900D02*
Y-154100D01*
X100100Y-151500D02*
X101900D01*
X101000Y-152400D02*
Y-150600D01*
X244600Y-57000D02*
X246400D01*
X245500Y-57900D02*
Y-56100D01*
X244763Y-95663D02*
X246563D01*
X245663Y-96563D02*
Y-94763D01*
X246177Y-135077D02*
X247977D01*
X247077Y-135977D02*
Y-134177D01*
X187600Y-28500D02*
X189400D01*
X188500Y-29400D02*
Y-27600D01*
X137600Y-114000D02*
X139400D01*
X138500Y-114900D02*
Y-113100D01*
X104600Y-102250D02*
X106400D01*
X105500Y-103150D02*
Y-101350D01*
X121600Y-103000D02*
X123400D01*
X122500Y-103900D02*
Y-102100D01*
X87100Y-82500D02*
X88900D01*
X88000Y-83400D02*
Y-81600D01*
X94600Y-97000D02*
X96400D01*
X95500Y-97900D02*
Y-96100D01*
X147100Y-76500D02*
X148900D01*
X148000Y-77400D02*
Y-75600D01*
X237100Y-151500D02*
X238900D01*
X238000Y-152400D02*
Y-150600D01*
X236100Y-114500D02*
X237900D01*
X237000Y-115400D02*
Y-113600D01*
X236100Y-78000D02*
X237900D01*
X237000Y-78900D02*
Y-77100D01*
X236600Y-33500D02*
X238400D01*
X237500Y-34400D02*
Y-32600D01*
X125100Y-69500D02*
X126900D01*
X126000Y-70400D02*
Y-68600D01*
X133600Y-71500D02*
X135400D01*
X134500Y-72400D02*
Y-70600D01*
X79100Y-116500D02*
X80900D01*
X80000Y-117400D02*
Y-115600D01*
X91080Y-118480D02*
X92880D01*
X91980Y-119380D02*
Y-117580D01*
X40100Y-109000D02*
X41900D01*
X41000Y-109900D02*
Y-108100D01*
X111600Y-97500D02*
X113400D01*
X112500Y-98400D02*
Y-96600D01*
X97600Y-77000D02*
X99400D01*
X98500Y-77900D02*
Y-76100D01*
X82100Y-69500D02*
X83900D01*
X83000Y-70400D02*
Y-68600D01*
X40100Y-68000D02*
X41900D01*
X41000Y-68900D02*
Y-67100D01*
X232600Y-52000D02*
X234400D01*
X233500Y-52900D02*
Y-51100D01*
X223600Y-52000D02*
X225400D01*
X224500Y-52900D02*
Y-51100D01*
X181100Y-28500D02*
X182900D01*
X182000Y-29400D02*
Y-27600D01*
X73100Y-129000D02*
X74900D01*
X74000Y-129900D02*
Y-128100D01*
X66100Y-129000D02*
X67900D01*
X67000Y-129900D02*
Y-128100D01*
X178100Y-46000D02*
X179900D01*
X179000Y-46900D02*
Y-45100D01*
X151600Y-48000D02*
X153400D01*
X152500Y-48900D02*
Y-47100D01*
X82100Y-35000D02*
X83900D01*
X83000Y-35900D02*
Y-34100D01*
X82100Y-30000D02*
X83900D01*
X83000Y-30900D02*
Y-29100D01*
X81600Y-24500D02*
X83400D01*
X82500Y-25400D02*
Y-23600D01*
X81600Y-20000D02*
X83400D01*
X82500Y-20900D02*
Y-19100D01*
X63600Y-36000D02*
X65400D01*
X64500Y-36900D02*
Y-35100D01*
X48600Y-35000D02*
X50400D01*
X49500Y-35900D02*
Y-34100D01*
X41600Y-35000D02*
X43400D01*
X42500Y-35900D02*
Y-34100D01*
X203600Y-78500D02*
X205400D01*
X204500Y-79400D02*
Y-77600D01*
X204100Y-87000D02*
X205900D01*
X205000Y-87900D02*
Y-86100D01*
X193100Y-87000D02*
X194900D01*
X194000Y-87900D02*
Y-86100D01*
X169100Y-106500D02*
X170900D01*
X170000Y-107400D02*
Y-105600D01*
X159100Y-106000D02*
X160900D01*
X160000Y-106900D02*
Y-105100D01*
X160600Y-91500D02*
X162400D01*
X161500Y-92400D02*
Y-90600D01*
X172100Y-86500D02*
X173900D01*
X173000Y-87400D02*
Y-85600D01*
X159600Y-85500D02*
X161400D01*
X160500Y-86400D02*
Y-84600D01*
X159600Y-75500D02*
X161400D01*
X160500Y-76400D02*
Y-74600D01*
X204100Y-97500D02*
X205900D01*
X205000Y-98400D02*
Y-96600D01*
X197600Y-112500D02*
X199400D01*
X198500Y-113400D02*
Y-111600D01*
X189600Y-112500D02*
X191400D01*
X190500Y-113400D02*
Y-111600D01*
X182600Y-112500D02*
X184400D01*
X183500Y-113400D02*
Y-111600D01*
X204100Y-128500D02*
X205900D01*
X205000Y-129400D02*
Y-127600D01*
X204100Y-121500D02*
X205900D01*
X205000Y-122400D02*
Y-120600D01*
X203600Y-106500D02*
X205400D01*
X204500Y-107400D02*
Y-105600D01*
X204100Y-113500D02*
X205900D01*
X205000Y-114400D02*
Y-112600D01*
X128600Y-114500D02*
X130400D01*
X129500Y-115400D02*
Y-113600D01*
X121100Y-114500D02*
X122900D01*
X122000Y-115400D02*
Y-113600D01*
X114100Y-114500D02*
X115900D01*
X115000Y-115400D02*
Y-113600D01*
M02*
